<svg width="24" height="24" viewBox="0 0 24 24" fill="none" xmlns="http://www.w3.org/2000/svg">
<path fill-rule="evenodd" clip-rule="evenodd" d="M1 6C1 4.34315 2.34315 3 4 3H20C21.6569 3 23 4.34315 23 6V18C23 19.6569 21.6569 21 20 21H4C2.34315 21 1 19.6569 1 18V6ZM4 5C3.44772 5 3 5.44772 3 6V18C3 18.5523 3.44772 19 4 19H20C20.5523 19 21 18.5523 21 18V6C21 5.44772 20.5523 5 20 5H4Z" fill="white"/>
<path fill-rule="evenodd" clip-rule="evenodd" d="M1 8C1 7.44772 1.44772 7 2 7H22C22.5523 7 23 7.44772 23 8C23 8.55228 22.5523 9 22 9H2C1.44772 9 1 8.55228 1 8Z" fill="white"/>
<path fill-rule="evenodd" clip-rule="evenodd" d="M6 2C6.55228 2 7 2.44772 7 3V5C7 5.55228 6.55228 6 6 6C5.44772 6 5 5.55228 5 5V3C5 2.44772 5.44772 2 6 2ZM18 2C18.5523 2 19 2.44772 19 3V5C19 5.55228 18.5523 6 18 6C17.4477 6 17 5.55228 17 5V3C17 2.44772 17.4477 2 18 2Z" fill="white"/>
<rect x="5" y="10" width="2" height="2" rx="1" fill="white"/>
<rect x="5" y="13" width="2" height="2" rx="1" fill="white"/>
<rect x="5" y="16" width="2" height="2" rx="1" fill="white"/>
<rect x="9" y="10" width="2" height="2" rx="1" fill="white"/>
<rect x="9" y="13" width="2" height="2" rx="1" fill="white"/>
<rect x="9" y="16" width="2" height="2" rx="1" fill="white"/>
<rect x="13" y="10" width="2" height="2" rx="1" fill="white"/>
<rect x="13" y="13" width="2" height="2" rx="1" fill="white"/>
<rect x="13" y="16" width="2" height="2" rx="1" fill="white"/>
<rect x="17" y="10" width="2" height="2" rx="1" fill="white"/>
<rect x="17" y="13" width="2" height="2" rx="1" fill="white"/>
<rect x="17" y="16" width="2" height="2" rx="1" fill="white"/>
</svg>
