<svg width="24" height="24" viewBox="0 0 24 24" fill="none" xmlns="http://www.w3.org/2000/svg">
<path d="M9 12C9.55229 12 10 11.5523 10 11C10 10.4477 9.55229 10 9 10C8.44772 10 8 10.4477 8 11C8 11.5523 8.44772 12 9 12Z" fill="white"/>
<path d="M13 11C13 11.5523 12.5523 12 12 12C11.4477 12 11 11.5523 11 11C11 10.4477 11.4477 10 12 10C12.5523 10 13 10.4477 13 11Z" fill="white"/>
<path d="M15 12C15.5523 12 16 11.5523 16 11C16 10.4477 15.5523 10 15 10C14.4477 10 14 10.4477 14 11C14 11.5523 14.4477 12 15 12Z" fill="white"/>
<path fill-rule="evenodd" clip-rule="evenodd" d="M1 10.5C1 6.35786 4.35786 3 8.5 3H15.5C19.6421 3 23 6.35786 23 10.5C23 14.6421 19.6421 18 15.5 18V21C15.5 21.3938 15.2689 21.7509 14.9097 21.9122C14.5504 22.0736 14.13 22.009 13.8356 21.7474L9.6198 18H8.5C4.35786 18 1 14.6421 1 10.5ZM8.5 5C5.46243 5 3 7.46243 3 10.5C3 13.5376 5.46243 16 8.5 16H10C10.2449 16 10.4813 16.0899 10.6644 16.2526L13.5 18.7732V17C13.5 16.4477 13.9477 16 14.5 16H15.5C18.5376 16 21 13.5376 21 10.5C21 7.46243 18.5376 5 15.5 5H8.5Z" fill="white"/>
</svg>
