<?xml version="1.0" encoding="UTF-8"?>
<svg width="30px" height="34px" viewBox="0 0 30 34" version="1.1" xmlns="http://www.w3.org/2000/svg" xmlns:xlink="http://www.w3.org/1999/xlink">
    <title>icon/high</title>
    <g id="Page-1" stroke="none" stroke-width="1" fill="none" fill-rule="evenodd">
        <g id="Армейка" transform="translate(-46.000000, -460.000000)">
            <g id="icon/high" transform="translate(61.000000, 477.000000) rotate(90.000000) translate(-61.000000, -477.000000) translate(45.000000, 463.000000)">
                <line x1="-13.5" y1="14" x2="14.5" y2="14" id="Path" stroke="#0390D5" stroke-width="2" stroke-linecap="round" stroke-linejoin="round" transform="translate(0.500000, 14.000000) rotate(90.000000) translate(-0.500000, -14.000000) "/>
                <line x1="17.5" y1="14" x2="45.5" y2="14" id="Path" stroke="#0390D5" stroke-width="2" stroke-linecap="round" stroke-linejoin="round" transform="translate(31.500000, 14.000000) rotate(90.000000) translate(-31.500000, -14.000000) "/>
                <path d="M25.987013,12.7077922 C26.5392977,12.7077922 26.987013,13.1555075 26.987013,13.7077922 C26.987013,14.260077 26.5392977,14.7077922 25.987013,14.7077922 L7.98701299,14.7077922 C7.43472824,14.7077922 6.98701299,14.260077 6.98701299,13.7077922 C6.98701299,13.1555075 7.43472824,12.7077922 7.98701299,12.7077922 L25.987013,12.7077922 Z" id="Path" fill="#0390D5" fill-rule="nonzero"/>
                <path d="M24.524326,13.375305 C24.8693355,12.944043 25.4986279,12.8741216 25.9298899,13.2191312 C26.3611518,13.5641407 26.4310732,14.1934331 26.0860636,14.624695 L22.0860636,19.624695 C21.7410541,20.055957 21.1117617,20.1258784 20.6804998,19.7808688 C20.2492378,19.4358593 20.1793164,18.8065669 20.524326,18.375305 L24.524326,13.375305 Z" id="Path" fill="#0390D5" fill-rule="nonzero"/>
                <path d="M20.2799062,8.50068543 C20.6704305,8.11016113 21.3035955,8.11016113 21.6941198,8.50068543 L25.889924,12.6964896 C26.2804483,13.0870139 26.2804483,13.7201789 25.889924,14.1107032 C25.4993997,14.5012275 24.8662347,14.5012275 24.4757104,14.1107032 L20.2799062,9.91489899 C19.8893819,9.5243747 19.8893819,8.89120972 20.2799062,8.50068543 Z" id="Path" fill="#0390D5" fill-rule="nonzero"/>
                <path d="M9.4757104,13.6964896 C9.86623469,13.3059653 10.4993997,13.3059653 10.889924,13.6964896 C11.2804483,14.0870139 11.2804483,14.7201789 10.889924,15.1107032 L6.69411977,19.3065074 C6.30359548,19.6970317 5.6704305,19.6970317 5.27990621,19.3065074 C4.88938191,18.9159831 4.88938191,18.2828181 5.27990621,17.8922938 L9.4757104,13.6964896 Z" id="Path" fill="#0390D5" fill-rule="nonzero" transform="translate(8.084915, 16.501499) scale(-1, 1) translate(-8.084915, -16.501499) "/>
                <path d="M5.27990621,8.50068543 C5.6704305,8.11016113 6.30359548,8.11016113 6.69411977,8.50068543 L10.889924,12.6964896 C11.2804483,13.0870139 11.2804483,13.7201789 10.889924,14.1107032 C10.4993997,14.5012275 9.86623469,14.5012275 9.4757104,14.1107032 L5.27990621,9.91489899 C4.88938191,9.5243747 4.88938191,8.89120972 5.27990621,8.50068543 Z" id="Path" fill="#0390D5" fill-rule="nonzero" transform="translate(8.084915, 11.305694) scale(-1, 1) translate(-8.084915, -11.305694) "/>
            </g>
        </g>
    </g>
</svg>