<?xml version="1.0" encoding="UTF-8"?>
<svg width="33px" height="34px" viewBox="0 0 33 34" version="1.1" xmlns="http://www.w3.org/2000/svg" xmlns:xlink="http://www.w3.org/1999/xlink">
    <title>icon/way</title>
    <g id="Page-1" stroke="none" stroke-width="1" fill="none" fill-rule="evenodd">
        <g id="Армейка" transform="translate(-44.000000, -349.000000)" fill="#0390D5" fill-rule="nonzero">
            <g id="icon/way" transform="translate(45.000000, 350.000000)">
                <path d="M3.75,-1 C1.54071525,-1 -0.25,0.79071525 -0.25,3 C-0.25,5.20928475 1.54071525,7 3.75,7 C5.95928475,7 7.75,5.20928475 7.75,3 C7.75,0.79071525 5.95928475,-1 3.75,-1 Z M3.75,1 C4.85471525,1 5.75,1.89528475 5.75,3 C5.75,4.10471525 4.85471525,5 3.75,5 C2.64528475,5 1.75,4.10471525 1.75,3 C1.75,1.89528475 2.64528475,1 3.75,1 Z" id="Path"/>
                <path d="M27.75,25 C25.5407153,25 23.75,26.7907153 23.75,29 C23.75,31.2092847 25.5407153,33 27.75,33 C29.9592847,33 31.75,31.2092847 31.75,29 C31.75,26.7907153 29.9592847,25 27.75,25 Z M27.75,27 C28.8547153,27 29.75,27.8952847 29.75,29 C29.75,30.1047153 28.8547153,31 27.75,31 C26.6452847,31 25.75,30.1047153 25.75,29 C25.75,27.8952847 26.6452847,27 27.75,27 Z" id="Path"/>
                <path d="M21.8571429,2.13043478 C25.1226338,2.13043478 28,6.42502284 28,10.1155094 C28,13.5799623 25.2858592,17.0444802 22.0677138,17.1903381 L21.8571429,17.1951114 L6.42857143,17.1951114 C3.43181584,17.1951114 1,19.6417144 1,22.6627731 C1,25.6101474 3.31463732,28.0107466 6.21033194,28.1260956 L6.42857143,28.1304348 L23.1428571,28.1304348 C23.6951419,28.1304348 24.1428571,28.57815 24.1428571,29.1304348 C24.1428571,29.6432706 23.756817,30.0659419 23.2594783,30.1237071 L23.1428571,30.1304348 L6.42857143,30.1304348 C2.32452309,30.1304348 -1,26.7856962 -1,22.6627731 C-1,18.6223084 2.19287198,15.3292122 6.18328432,15.1991046 L6.42857143,15.1951114 L21.8571429,15.1951114 C23.9518651,15.1951114 26,12.6363539 26,10.1155094 C26,7.46958769 23.9203222,4.29773843 22.0077475,4.13681909 L21.8571429,4.13043478 L6.42857143,4.13043478 C5.87628668,4.13043478 5.42857143,3.68271953 5.42857143,3.13043478 C5.42857143,2.61759894 5.81461162,2.19492762 6.3119503,2.13716251 L6.42857143,2.13043478 L21.8571429,2.13043478 Z" id="Path"/>
            </g>
        </g>
    </g>
</svg>