<?xml version="1.0" encoding="UTF-8"?>
<svg width="32px" height="32px" viewBox="0 0 32 32" version="1.1" xmlns="http://www.w3.org/2000/svg" xmlns:xlink="http://www.w3.org/1999/xlink">
    <title>icon/clock</title>
    <g id="Page-1" stroke="none" stroke-width="1" fill="none" fill-rule="evenodd">
        <g id="Армейка" transform="translate(-45.000000, -620.000000)" fill="#0390D5" fill-rule="nonzero">
            <g id="icon/clock" transform="translate(46.000000, 621.000000)">
                <path d="M15,-1 C6.163444,-1 -1,6.163444 -1,15 C-1,23.836556 6.163444,31 15,31 C23.836556,31 31,23.836556 31,15 C31,6.163444 23.836556,-1 15,-1 Z M15,1 C22.7319865,1 29,7.2680135 29,15 C29,22.7319865 22.7319865,29 15,29 C7.2680135,29 1,22.7319865 1,15 C1,7.2680135 7.2680135,1 15,1 Z" id="Path"/>
                <path d="M14.7857143,5.57142857 C15.2985501,5.57142857 15.7212214,5.95746876 15.7789866,6.45480745 L15.7857143,6.57142857 L15.785,15.857 L22.683491,15.8571429 C23.1963268,15.8571429 23.6189981,16.243183 23.6767632,16.7405217 L23.683491,16.8571429 C23.683491,17.3699787 23.2974508,17.79265 22.8001121,17.8504151 L22.683491,17.8571429 L13.7857143,17.8571429 L13.7857143,6.57142857 C13.7857143,6.01914382 14.2334295,5.57142857 14.7857143,5.57142857 Z" id="Path-2"/>
            </g>
        </g>
    </g>
</svg>