<svg width="24" height="24" viewBox="0 0 24 24" fill="none" xmlns="http://www.w3.org/2000/svg">
<path d="M20.5197 6.77337C20.2334 7.07555 19.7666 7.07554 19.4803 6.77336L17.3461 4.52136C16.2479 3.1104 17.9936 1.22533 19.3716 2.33505L20 2.8411L20.6284 2.33504C22.0064 1.22533 23.7521 3.1104 22.6539 4.52136L20.5197 6.77337Z" fill="black"/>
<path d="M7 11C7 11.5523 6.55228 12 6 12C5.44772 12 5 11.5523 5 11C5 10.4477 5.44772 10 6 10C6.55228 10 7 10.4477 7 11Z" fill="black"/>
<path fill-rule="evenodd" clip-rule="evenodd" d="M6 17C5.43666 17.8262 5.43618 17.8259 5.43618 17.8259L5.43417 17.8245L5.43022 17.8218L5.41802 17.8134L5.37706 17.7846C5.34265 17.7602 5.2943 17.7255 5.23399 17.681C5.11347 17.5919 4.94463 17.4633 4.74352 17.2995C4.34284 16.9732 3.80623 16.501 3.26638 15.9182C2.22493 14.7939 1 13.0754 1 11.0909C1 9.74788 1.52145 8.45545 2.45657 7.49908C3.39243 6.54195 4.66657 6 6 6C7.33343 6 8.60757 6.54195 9.54343 7.49908C10.4785 8.45545 11 9.74788 11 11.0909C11 13.0754 9.77507 14.7939 8.73362 15.9182C8.19377 16.501 7.65716 16.9732 7.25648 17.2995C7.05537 17.4633 6.88653 17.5919 6.76601 17.681C6.7057 17.7255 6.65735 17.7602 6.62294 17.7846L6.58198 17.8134L6.56978 17.8218L6.56583 17.8245L6.5644 17.8255C6.5644 17.8255 6.56334 17.8262 6 17ZM6 8C5.21169 8 4.45101 8.32006 3.88658 8.89732C3.3214 9.47534 3 10.264 3 11.0909C3 12.2883 3.77507 13.5243 4.73362 14.5591C5.19094 15.0528 5.65144 15.4592 6 15.7435C6.34856 15.4592 6.80906 15.0528 7.26638 14.5591C8.22493 13.5243 9 12.2883 9 11.0909C9 10.264 8.6786 9.47534 8.11342 8.89732C7.54899 8.32006 6.78831 8 6 8Z" fill="black"/>
<path d="M6 17L6.56334 17.8262C6.22351 18.0579 5.776 18.0576 5.43618 17.8259L6 17Z" fill="black"/>
<path d="M6 23C6.74028 23 7.38663 22.5978 7.73244 22H17C19.2091 22 21 20.2091 21 18C21 15.7909 19.2091 14 17 14H15.5C14.6716 14 14 13.3284 14 12.5C14 11.6716 14.6716 11 15.5 11H18.2676C18.6134 11.5978 19.2597 12 20 12C21.1046 12 22 11.1046 22 10C22 8.89543 21.1046 8 20 8C19.2597 8 18.6134 8.4022 18.2676 9H15.5C13.567 9 12 10.567 12 12.5C12 14.433 13.567 16 15.5 16H17C18.1046 16 19 16.8954 19 18C19 19.1046 18.1046 20 17 20H7.73244C7.38663 19.4022 6.74028 19 6 19C4.89543 19 4 19.8954 4 21C4 22.1046 4.89543 23 6 23Z" fill="black"/>
</svg>
