<svg width="24" height="24" viewBox="0 0 24 24" fill="none" xmlns="http://www.w3.org/2000/svg">
<path fill-rule="evenodd" clip-rule="evenodd" d="M3 4.76905C3 3.79203 3.75509 3 4.68655 3H7.7924C9.14352 3 10.3134 3.98431 10.6064 5.36777L11.0529 7.47529C11.2378 8.3478 11.0499 9.26146 10.5387 9.97649L9.9998 10.7301L10.2221 11.1382C11.0154 12.5944 12.1884 13.7815 13.6016 14.561L14.2492 14.0515C15.0155 13.4487 16.0149 13.2785 16.9236 13.5962L19.0288 14.3323C20.206 14.7439 21 15.8994 21 17.201V20.2285C21 21.114 20.3563 21.8533 19.5157 21.9335C10.6468 22.7792 3 15.4544 3 6.11335V4.76905ZM4.94595 5.04113V6.11335C4.94595 14.1538 11.4468 20.4801 19.0541 19.9247V17.201C19.0541 16.778 18.796 16.4024 18.4134 16.2687L16.3082 15.5326C16.0053 15.4267 15.6722 15.4834 15.4168 15.6844L14.6294 16.3038C14.1244 16.701 13.4488 16.765 12.8842 16.4688C11.0591 15.5117 9.54493 14.0092 8.53254 12.1509L8.26255 11.6553C7.90643 11.0016 7.9547 10.1884 8.38537 9.58612L8.98191 8.75181C9.15234 8.51347 9.21495 8.20891 9.15334 7.91808L8.70684 5.81055C8.6116 5.36099 8.23145 5.04113 7.7924 5.04113H4.94595Z" fill="white"/>
</svg>
