<svg width="352" height="134" viewBox="0 0 352 134" fill="none" xmlns="http://www.w3.org/2000/svg">
<g filter="url(#filter0_d_6_4892)">
<g clip-path="url(#clip0_6_4892)">
<rect x="4" y="4" width="344" height="126" rx="12" fill="white"/>
<path fill-rule="evenodd" clip-rule="evenodd" d="M33.1044 21.7797L32.7305 21.4794V23.9997C32.7305 24.552 32.2828 24.9997 31.7305 24.9997H27.7305C27.1782 24.9997 26.7305 24.552 26.7305 23.9997V21.4795L26.3567 21.7797C25.926 22.1255 25.2966 22.0568 24.9508 21.6262C24.605 21.1955 24.6737 20.5661 25.1044 20.2203L28.6531 17.3704C29.2681 16.8765 30.1929 16.8765 30.8079 17.3704L34.3567 20.2203C34.7873 20.5661 34.856 21.1955 34.5102 21.6262C34.1644 22.0568 33.535 22.1255 33.1044 21.7797ZM35.9435 28.1356C35.8293 27.8114 35.5456 27.1701 34.9729 26.6579C34.3511 26.1018 33.4391 25.7502 32.2699 26.027C31.2676 26.2642 30.0244 26.9547 28.9996 27.5751L28.8701 27.6538C28.8482 27.5938 28.8228 27.534 28.7933 27.4751C28.5994 27.0867 28.2874 26.8381 27.9379 26.6967C27.6301 26.5721 27.2974 26.5321 27.0125 26.513C26.7287 26.4939 26.3959 26.4913 26.0459 26.4886H26.0459L26.0082 26.4882L24.3099 26.4983C23.8224 26.218 23.0632 26.0001 22.0002 26.0001C20.3578 26.0001 19.4469 26.8844 19.116 27.5111C18.858 27.9994 19.0449 28.6044 19.5332 28.8623C20.0216 29.1202 20.6265 28.9335 20.8844 28.4451L20.8845 28.4451C20.8849 28.4442 20.8894 28.4363 20.8992 28.4226C20.9098 28.4076 20.9253 28.3879 20.9462 28.3652C20.9881 28.3198 21.0489 28.2653 21.1324 28.2127C21.292 28.1122 21.5633 28.0001 22.0002 28.0001C22.8864 28.0001 23.2503 28.1981 23.3136 28.2325L23.3137 28.2325C23.3203 28.2361 23.3236 28.2379 23.3239 28.2375C23.3242 28.2371 23.3204 28.2335 23.3127 28.2263C23.4999 28.4035 23.7484 28.5016 24.0062 28.5001L25.9992 28.4882C26.3818 28.4913 26.6583 28.4937 26.8786 28.5085C26.9244 28.5116 26.9647 28.515 27.0001 28.5187C26.9981 28.637 26.977 28.7133 26.9577 28.7613C26.937 28.8125 26.9093 28.8537 26.875 28.8909C26.855 28.9125 26.8338 28.9322 26.8107 28.9508C26.7828 28.9679 26.7557 28.9844 26.7296 29.0001H23.5002C22.9479 29.0001 22.5002 29.4478 22.5002 30.0001C22.5002 30.5524 22.9479 31.0001 23.5002 31.0001H27.0002C27.1585 31.0001 27.3146 30.9625 27.4555 30.8905L27.4759 30.8801C27.5681 30.8332 27.7371 30.7473 27.9283 30.6114C28.1351 30.4835 28.3643 30.3372 28.6015 30.1857L28.6601 30.1483C29.0822 29.8787 29.5507 29.5794 30.0353 29.286C31.0881 28.6486 32.0777 28.1277 32.7306 27.9732C33.205 27.8609 33.4562 27.9891 33.6273 28.1378L25.7174 33.0001H19.0002C18.845 33.0001 18.6919 33.0362 18.553 33.1056L16.553 34.1056C16.059 34.3526 15.8588 34.9533 16.1058 35.4473C16.3528 35.9413 16.9535 36.1415 17.4474 35.8945L19.2363 35.0001H26.0002C26.1851 35.0001 26.3664 34.9488 26.5239 34.852L35.5239 29.3196C35.9251 29.0729 36.0999 28.5798 35.9435 28.1356ZM29.2305 20.9997C28.9543 20.9997 28.7305 21.2236 28.7305 21.4997V22.4997C28.7305 22.7759 28.9543 22.9997 29.2305 22.9997H30.2305C30.5066 22.9997 30.7305 22.7759 30.7305 22.4997V21.4997C30.7305 21.2236 30.5066 20.9997 30.2305 20.9997H29.2305ZM23.7305 21.4998C23.7305 23.4328 22.1635 24.9998 20.2305 24.9998C18.2975 24.9998 16.7305 23.4328 16.7305 21.4998C16.7305 19.5668 18.2975 17.9998 20.2305 17.9998C22.1635 17.9998 23.7305 19.5668 23.7305 21.4998ZM18.9805 19.7996C18.9805 19.6615 19.0924 19.5496 19.2305 19.5496H20.7305C21.4208 19.5496 21.9805 20.1092 21.9805 20.7996C21.9805 21.4899 21.4208 22.0496 20.7305 22.0496H19.4805V22.5496H20.7305C20.8685 22.5496 20.9805 22.6615 20.9805 22.7996C20.9805 22.9376 20.8685 23.0496 20.7305 23.0496H19.4805V23.7996C19.4805 23.9376 19.3685 24.0496 19.2305 24.0496C19.0924 24.0496 18.9805 23.9376 18.9805 23.7996V23.0496H18.7305C18.5924 23.0496 18.4805 22.9376 18.4805 22.7996C18.4805 22.6615 18.5924 22.5496 18.7305 22.5496H18.9805V22.0496H18.7305C18.5924 22.0496 18.4805 21.9376 18.4805 21.7996C18.4805 21.6615 18.5924 21.5496 18.7305 21.5496H18.9805V19.7996ZM19.4805 21.5496H20.7305C21.1447 21.5496 21.4805 21.2138 21.4805 20.7996C21.4805 20.3853 21.1447 20.0496 20.7305 20.0496H19.4805V21.5496Z" fill="#12B001"/>
<path d="M51.4805 28.4053L57.1582 19.2031H59.3643V32H57.1582V22.7891L51.4805 32H49.2832V19.2031H51.4805V28.4053ZM67.4772 29.4336L70.3073 22.4902H72.1442L68.1979 32H66.7565L62.819 22.4902H64.6559L67.4772 29.4336ZM64.111 22.4902V32H61.9928V22.4902H64.111ZM70.8434 32V22.4902H72.9704V32H70.8434ZM78.1302 30.9629L80.7142 22.4902H82.9817L79.1673 33.4502C79.0794 33.6846 78.9651 33.9395 78.8245 34.2148C78.6839 34.4902 78.4993 34.751 78.2708 34.9971C78.0481 35.249 77.7698 35.4512 77.4358 35.6035C77.1019 35.7617 76.6976 35.8408 76.2229 35.8408C76.0354 35.8408 75.8538 35.8232 75.678 35.7881C75.5081 35.7588 75.347 35.7266 75.1946 35.6914L75.1858 34.0742C75.2444 34.0801 75.3147 34.0859 75.3968 34.0918C75.4847 34.0977 75.555 34.1006 75.6077 34.1006C75.9593 34.1006 76.2522 34.0566 76.4866 33.9688C76.721 33.8867 76.9114 33.752 77.0579 33.5645C77.2103 33.377 77.3392 33.125 77.4446 32.8086L78.1302 30.9629ZM76.6712 22.4902L78.93 29.6094L79.3079 31.8418L77.8401 32.2197L74.386 22.4902H76.6712ZM98.2753 30.3213L98.1083 34.8213H96.166V32H95.0234V30.3213H98.2753ZM84.2304 22.4902H86.3486V30.3125H89.372V22.4902H91.499V30.3125H94.5136V22.4902H96.6318V32H84.2304V22.4902ZM104.068 32.1758C103.365 32.1758 102.729 32.0615 102.161 31.833C101.598 31.5986 101.118 31.2734 100.719 30.8574C100.327 30.4414 100.025 29.9521 99.8141 29.3896C99.6031 28.8271 99.4977 28.2207 99.4977 27.5703V27.2188C99.4977 26.4746 99.606 25.8008 99.8228 25.1973C100.04 24.5938 100.341 24.0781 100.728 23.6504C101.115 23.2168 101.572 22.8857 102.099 22.6572C102.627 22.4287 103.198 22.3145 103.813 22.3145C104.493 22.3145 105.087 22.4287 105.597 22.6572C106.107 22.8857 106.529 23.208 106.863 23.624C107.203 24.0342 107.455 24.5234 107.619 25.0918C107.789 25.6602 107.874 26.2871 107.874 26.9727V27.8779H100.526V26.3574H105.782V26.1904C105.77 25.8096 105.694 25.4521 105.553 25.1182C105.419 24.7842 105.211 24.5146 104.929 24.3096C104.648 24.1045 104.273 24.002 103.804 24.002C103.453 24.002 103.139 24.0781 102.864 24.2305C102.594 24.377 102.369 24.5908 102.187 24.8721C102.005 25.1533 101.865 25.4932 101.765 25.8916C101.671 26.2842 101.625 26.7266 101.625 27.2188V27.5703C101.625 27.9863 101.68 28.373 101.792 28.7305C101.909 29.082 102.079 29.3896 102.301 29.6533C102.524 29.917 102.794 30.125 103.11 30.2773C103.426 30.4238 103.787 30.4971 104.191 30.4971C104.701 30.4971 105.155 30.3945 105.553 30.1895C105.952 29.9844 106.297 29.6943 106.59 29.3193L107.707 30.4004C107.502 30.6992 107.235 30.9863 106.907 31.2617C106.579 31.5312 106.177 31.751 105.703 31.9209C105.234 32.0908 104.689 32.1758 104.068 32.1758ZM113.438 30.4883C113.783 30.4883 114.094 30.4209 114.369 30.2861C114.651 30.1455 114.876 29.9521 115.046 29.7061C115.222 29.46 115.319 29.1758 115.336 28.8535H117.331C117.32 29.4688 117.138 30.0283 116.786 30.5322C116.435 31.0361 115.969 31.4375 115.389 31.7363C114.809 32.0293 114.167 32.1758 113.464 32.1758C112.738 32.1758 112.105 32.0527 111.566 31.8066C111.027 31.5547 110.578 31.209 110.221 30.7695C109.864 30.3301 109.594 29.8232 109.412 29.249C109.237 28.6748 109.149 28.0596 109.149 27.4033V27.0957C109.149 26.4395 109.237 25.8242 109.412 25.25C109.594 24.6699 109.864 24.1602 110.221 23.7207C110.578 23.2812 111.027 22.9385 111.566 22.6924C112.105 22.4404 112.735 22.3145 113.455 22.3145C114.217 22.3145 114.885 22.4668 115.459 22.7715C116.033 23.0703 116.485 23.4893 116.813 24.0283C117.147 24.5615 117.32 25.1826 117.331 25.8916H115.336C115.319 25.54 115.231 25.2236 115.072 24.9424C114.92 24.6553 114.703 24.4268 114.422 24.2568C114.147 24.0869 113.816 24.002 113.429 24.002C113.001 24.002 112.647 24.0898 112.365 24.2656C112.084 24.4355 111.864 24.6699 111.706 24.9688C111.548 25.2617 111.434 25.5928 111.364 25.9619C111.299 26.3252 111.267 26.7031 111.267 27.0957V27.4033C111.267 27.7959 111.299 28.1768 111.364 28.5459C111.428 28.915 111.539 29.2461 111.697 29.5391C111.862 29.8262 112.084 30.0576 112.365 30.2334C112.647 30.4033 113.004 30.4883 113.438 30.4883ZM123.396 22.4902V32H121.269V22.4902H123.396ZM126.516 22.4902V24.1602H118.202V22.4902H126.516ZM132.582 27.9307H129.541L129.523 26.4365H132.019C132.429 26.4365 132.766 26.3955 133.03 26.3135C133.299 26.2314 133.499 26.1084 133.627 25.9443C133.756 25.7744 133.821 25.5693 133.821 25.3291C133.821 25.1299 133.783 24.957 133.707 24.8105C133.63 24.6582 133.513 24.5352 133.355 24.4414C133.203 24.3418 133.009 24.2715 132.775 24.2305C132.546 24.1836 132.28 24.1602 131.975 24.1602H130.244V32H128.126V22.4902H131.975C132.585 22.4902 133.132 22.543 133.619 22.6484C134.111 22.7539 134.53 22.915 134.876 23.1318C135.221 23.3486 135.485 23.624 135.667 23.958C135.854 24.2861 135.948 24.6729 135.948 25.1182C135.948 25.4111 135.883 25.6865 135.754 25.9443C135.631 26.2021 135.447 26.4307 135.201 26.6299C134.955 26.8291 134.653 26.9932 134.295 27.1221C133.938 27.2451 133.528 27.3213 133.065 27.3506L132.582 27.9307ZM132.582 32H128.925L129.769 30.3301H132.582C132.957 30.3301 133.267 30.2832 133.513 30.1895C133.759 30.0957 133.941 29.9609 134.058 29.7852C134.181 29.6035 134.243 29.3896 134.243 29.1436C134.243 28.8916 134.184 28.6748 134.067 28.4932C133.95 28.3115 133.768 28.1738 133.522 28.0801C133.282 27.9805 132.968 27.9307 132.582 27.9307H130.165L130.182 26.4365H133.056L133.663 27.0166C134.266 27.0576 134.767 27.1865 135.166 27.4033C135.564 27.6201 135.863 27.8926 136.062 28.2207C136.261 28.5488 136.361 28.9062 136.361 29.293C136.361 29.7383 136.276 30.1309 136.106 30.4707C135.942 30.8105 135.696 31.0947 135.368 31.3232C135.045 31.5459 134.65 31.7158 134.181 31.833C133.712 31.9443 133.179 32 132.582 32ZM137.812 27.3506V27.1484C137.812 26.4629 137.911 25.8271 138.111 25.2412C138.31 24.6494 138.597 24.1367 138.972 23.7031C139.353 23.2637 139.816 22.9238 140.361 22.6836C140.911 22.4375 141.532 22.3145 142.224 22.3145C142.921 22.3145 143.542 22.4375 144.087 22.6836C144.638 22.9238 145.104 23.2637 145.485 23.7031C145.865 24.1367 146.155 24.6494 146.355 25.2412C146.554 25.8271 146.654 26.4629 146.654 27.1484V27.3506C146.654 28.0361 146.554 28.6719 146.355 29.2578C146.155 29.8438 145.865 30.3564 145.485 30.7959C145.104 31.2295 144.641 31.5693 144.096 31.8154C143.551 32.0557 142.933 32.1758 142.241 32.1758C141.544 32.1758 140.92 32.0557 140.369 31.8154C139.824 31.5693 139.362 31.2295 138.981 30.7959C138.6 30.3564 138.31 29.8438 138.111 29.2578C137.911 28.6719 137.812 28.0361 137.812 27.3506ZM139.93 27.1484V27.3506C139.93 27.7783 139.974 28.1826 140.062 28.5635C140.15 28.9443 140.287 29.2783 140.475 29.5654C140.662 29.8525 140.903 30.0781 141.195 30.2422C141.488 30.4062 141.837 30.4883 142.241 30.4883C142.634 30.4883 142.974 30.4062 143.261 30.2422C143.554 30.0781 143.794 29.8525 143.982 29.5654C144.169 29.2783 144.307 28.9443 144.395 28.5635C144.488 28.1826 144.535 27.7783 144.535 27.3506V27.1484C144.535 26.7266 144.488 26.3281 144.395 25.9531C144.307 25.5723 144.166 25.2354 143.973 24.9424C143.785 24.6494 143.545 24.4209 143.252 24.2568C142.965 24.0869 142.622 24.002 142.224 24.002C141.825 24.002 141.48 24.0869 141.187 24.2568C140.9 24.4209 140.662 24.6494 140.475 24.9424C140.287 25.2354 140.15 25.5723 140.062 25.9531C139.974 26.3281 139.93 26.7266 139.93 27.1484ZM155.154 28.9062L158.889 22.4902H161.007V32H158.889V25.5752L155.154 32H153.036V22.4902H155.154V28.9062ZM179.079 27.3594V27.5439C179.079 28.2178 179.003 28.8389 178.85 29.4072C178.704 29.9697 178.484 30.459 178.191 30.875C177.898 31.291 177.535 31.6133 177.101 31.8418C176.674 32.0703 176.176 32.1846 175.607 32.1846C175.109 32.1846 174.676 32.0996 174.306 31.9297C173.937 31.7598 173.627 31.5225 173.375 31.2178C173.123 30.9072 172.921 30.5439 172.768 30.1279C172.616 29.7061 172.505 29.2432 172.434 28.7393V25.9883C172.505 25.4492 172.613 24.957 172.76 24.5117C172.912 24.0605 173.114 23.6709 173.366 23.3428C173.624 23.0146 173.934 22.7627 174.298 22.5869C174.661 22.4053 175.092 22.3145 175.59 22.3145C176.047 22.3145 176.46 22.3965 176.829 22.5605C177.198 22.7188 177.523 22.9473 177.804 23.2461C178.086 23.5391 178.32 23.8936 178.508 24.3096C178.695 24.7197 178.836 25.1826 178.929 25.6982C179.029 26.2139 179.079 26.7676 179.079 27.3594ZM176.961 27.5439V27.3594C176.961 26.9902 176.937 26.6387 176.89 26.3047C176.844 25.9707 176.77 25.666 176.671 25.3906C176.577 25.1094 176.454 24.8662 176.302 24.6611C176.149 24.4502 175.965 24.2891 175.748 24.1777C175.537 24.0605 175.291 24.002 175.01 24.002C174.629 24.002 174.312 24.0664 174.06 24.1953C173.814 24.3184 173.627 24.4941 173.498 24.7227C173.375 24.9453 173.296 25.2031 173.261 25.4961V29.2402C173.302 29.4863 173.386 29.7031 173.515 29.8906C173.65 30.0781 173.841 30.2275 174.087 30.3389C174.333 30.4443 174.646 30.4971 175.027 30.4971C175.379 30.4971 175.675 30.4238 175.915 30.2773C176.161 30.125 176.36 29.9141 176.512 29.6445C176.671 29.375 176.785 29.0615 176.855 28.7041C176.926 28.3467 176.961 27.96 176.961 27.5439ZM167.425 27.5439V27.3594C167.425 26.7676 167.471 26.2139 167.565 25.6982C167.659 25.1826 167.8 24.7197 167.987 24.3096C168.18 23.8936 168.418 23.5391 168.699 23.2461C168.98 22.9473 169.305 22.7188 169.675 22.5605C170.044 22.3965 170.457 22.3145 170.914 22.3145C171.406 22.3145 171.831 22.4053 172.188 22.5869C172.546 22.7627 172.847 23.0146 173.094 23.3428C173.345 23.6709 173.545 24.0605 173.691 24.5117C173.844 24.957 173.955 25.4492 174.025 25.9883V28.6338C173.961 29.1494 173.852 29.624 173.7 30.0576C173.548 30.4912 173.348 30.8662 173.102 31.1826C172.856 31.499 172.552 31.7451 172.188 31.9209C171.825 32.0967 171.394 32.1846 170.896 32.1846C170.334 32.1846 169.836 32.0703 169.402 31.8418C168.969 31.6133 168.605 31.291 168.312 30.875C168.019 30.459 167.797 29.9697 167.644 29.4072C167.498 28.8389 167.425 28.2178 167.425 27.5439ZM169.543 27.3594V27.5439C169.543 27.96 169.575 28.3467 169.639 28.7041C169.71 29.0615 169.818 29.375 169.965 29.6445C170.111 29.9082 170.304 30.1162 170.545 30.2686C170.785 30.4209 171.081 30.4971 171.432 30.4971C171.819 30.4971 172.136 30.4385 172.382 30.3213C172.628 30.2041 172.815 30.043 172.944 29.8379C173.079 29.6328 173.167 29.3984 173.208 29.1348V25.4961C173.173 25.2031 173.091 24.9453 172.962 24.7227C172.833 24.4941 172.645 24.3184 172.399 24.1953C172.153 24.0664 171.837 24.002 171.45 24.002C171.098 24.002 170.8 24.0898 170.553 24.2656C170.313 24.4414 170.117 24.6846 169.965 24.9951C169.818 25.2998 169.71 25.6572 169.639 26.0674C169.575 26.4717 169.543 26.9023 169.543 27.3594ZM172.144 35.6562V18.5H174.271V35.6562H172.144ZM183.114 28.9062L186.849 22.4902H188.967V32H186.849V25.5752L183.114 32H180.996V22.4902H183.114V28.9062ZM197.731 26.4629V28.1328H192.809V26.4629H197.731ZM193.424 22.4902V32H191.306V22.4902H193.424ZM199.26 22.4902V32H197.142V22.4902H199.26ZM206.907 30.0928V25.5576C206.907 25.2178 206.845 24.9248 206.722 24.6787C206.599 24.4326 206.412 24.2422 206.16 24.1074C205.914 23.9727 205.603 23.9053 205.228 23.9053C204.883 23.9053 204.584 23.9639 204.332 24.0811C204.08 24.1982 203.884 24.3564 203.743 24.5557C203.602 24.7549 203.532 24.9805 203.532 25.2324H201.423C201.423 24.8574 201.513 24.4941 201.695 24.1426C201.877 23.791 202.14 23.4775 202.486 23.2021C202.832 22.9268 203.245 22.71 203.725 22.5518C204.206 22.3936 204.745 22.3145 205.342 22.3145C206.057 22.3145 206.69 22.4346 207.241 22.6748C207.798 22.915 208.234 23.2783 208.551 23.7646C208.873 24.2451 209.034 24.8486 209.034 25.5752V29.8027C209.034 30.2363 209.063 30.626 209.122 30.9717C209.186 31.3115 209.277 31.6074 209.394 31.8594V32H207.223C207.124 31.7715 207.045 31.4814 206.986 31.1299C206.933 30.7725 206.907 30.4268 206.907 30.0928ZM207.215 26.2168L207.232 27.5264H205.712C205.319 27.5264 204.973 27.5645 204.675 27.6406C204.376 27.7109 204.127 27.8164 203.927 27.957C203.728 28.0977 203.579 28.2676 203.479 28.4668C203.38 28.666 203.33 28.8916 203.33 29.1436C203.33 29.3955 203.388 29.627 203.506 29.8379C203.623 30.043 203.793 30.2041 204.015 30.3213C204.244 30.4385 204.519 30.4971 204.842 30.4971C205.275 30.4971 205.653 30.4092 205.975 30.2334C206.303 30.0518 206.561 29.832 206.749 29.5742C206.936 29.3105 207.036 29.0615 207.048 28.8271L207.733 29.7676C207.663 30.0078 207.543 30.2656 207.373 30.541C207.203 30.8164 206.98 31.0801 206.705 31.332C206.435 31.5781 206.11 31.7803 205.729 31.9385C205.354 32.0967 204.921 32.1758 204.428 32.1758C203.807 32.1758 203.254 32.0527 202.767 31.8066C202.281 31.5547 201.9 31.2178 201.625 30.7959C201.349 30.3682 201.212 29.8848 201.212 29.3457C201.212 28.8418 201.305 28.3965 201.493 28.0098C201.686 27.6172 201.967 27.2891 202.337 27.0254C202.712 26.7617 203.169 26.5625 203.708 26.4277C204.247 26.2871 204.862 26.2168 205.553 26.2168H207.215ZM217.771 26.4629V28.1328H212.849V26.4629H217.771ZM213.464 22.4902V32H211.346V22.4902H213.464ZM219.3 22.4902V32H217.182V22.4902H219.3ZM225.471 30.4883C225.816 30.4883 226.127 30.4209 226.402 30.2861C226.684 30.1455 226.909 29.9521 227.079 29.7061C227.255 29.46 227.352 29.1758 227.369 28.8535H229.364C229.353 29.4688 229.171 30.0283 228.819 30.5322C228.468 31.0361 228.002 31.4375 227.422 31.7363C226.842 32.0293 226.2 32.1758 225.497 32.1758C224.771 32.1758 224.138 32.0527 223.599 31.8066C223.06 31.5547 222.611 31.209 222.254 30.7695C221.896 30.3301 221.627 29.8232 221.445 29.249C221.27 28.6748 221.182 28.0596 221.182 27.4033V27.0957C221.182 26.4395 221.27 25.8242 221.445 25.25C221.627 24.6699 221.896 24.1602 222.254 23.7207C222.611 23.2812 223.06 22.9385 223.599 22.6924C224.138 22.4404 224.768 22.3145 225.488 22.3145C226.25 22.3145 226.918 22.4668 227.492 22.7715C228.066 23.0703 228.518 23.4893 228.846 24.0283C229.18 24.5615 229.353 25.1826 229.364 25.8916H227.369C227.352 25.54 227.264 25.2236 227.105 24.9424C226.953 24.6553 226.736 24.4268 226.455 24.2568C226.18 24.0869 225.849 24.002 225.462 24.002C225.034 24.002 224.68 24.0898 224.398 24.2656C224.117 24.4355 223.897 24.6699 223.739 24.9688C223.581 25.2617 223.467 25.5928 223.396 25.9619C223.332 26.3252 223.3 26.7031 223.3 27.0957V27.4033C223.3 27.7959 223.332 28.1768 223.396 28.5459C223.461 28.915 223.572 29.2461 223.73 29.5391C223.895 29.8262 224.117 30.0576 224.398 30.2334C224.68 30.4033 225.037 30.4883 225.471 30.4883ZM232.59 25.5137H235.394C236.215 25.5137 236.912 25.6514 237.486 25.9268C238.06 26.2021 238.497 26.5859 238.796 27.0781C239.1 27.5645 239.253 28.1211 239.253 28.748C239.253 29.2109 239.168 29.6416 238.998 30.04C238.828 30.4326 238.576 30.7754 238.242 31.0684C237.914 31.3613 237.509 31.5898 237.029 31.7539C236.554 31.918 236.009 32 235.394 32H231.184V22.4902H233.311V30.3213H235.394C235.816 30.3213 236.153 30.248 236.405 30.1016C236.657 29.9551 236.839 29.7646 236.95 29.5303C237.067 29.2959 237.126 29.0469 237.126 28.7832C237.126 28.5137 237.067 28.2588 236.95 28.0186C236.839 27.7783 236.657 27.582 236.405 27.4297C236.153 27.2773 235.816 27.2012 235.394 27.2012H232.59V25.5137ZM242.997 22.4902V32H240.879V22.4902H242.997Z" fill="#0066B3"/>
<path d="M320.295 28.2805C319.902 28.6739 319.902 29.3116 320.295 29.705C320.689 30.0983 321.328 30.0983 321.722 29.705L326.713 24.7195C327.107 24.3261 327.107 23.6884 326.713 23.295C326.319 22.9017 325.681 22.9017 325.287 23.295L320.295 28.2805Z" fill="#1D1D1D"/>
<path d="M330.278 29.7048C330.672 30.0982 331.311 30.0982 331.705 29.7048C332.098 29.3115 332.098 28.6737 331.705 28.2804L326.713 23.295C326.319 22.9017 325.681 22.9017 325.287 23.295C324.893 23.6884 324.893 24.326 325.287 24.7193L330.278 29.7048Z" fill="#1D1D1D"/>
<g opacity="0.8" filter="url(#filter1_d_6_4892)">
<g clip-path="url(#clip1_6_4892)">
<rect x="14" y="48" width="104" height="72" rx="12" fill="url(#paint0_linear_6_4892)"/>
<path d="M26.1196 96.4316L27.8491 92.1885H28.9717L26.5601 98H25.6792L23.2729 92.1885H24.3955L26.1196 96.4316ZM24.0625 92.1885V98H22.7681V92.1885H24.0625ZM28.1768 98V92.1885H29.4766V98H28.1768ZM30.7237 95.1587V95.0352C30.7237 94.6162 30.7846 94.2277 30.9063 93.8696C31.028 93.508 31.2035 93.1947 31.4327 92.9297C31.6654 92.6611 31.9483 92.4535 32.2813 92.3066C32.6179 92.1562 32.9975 92.0811 33.42 92.0811C33.8461 92.0811 34.2256 92.1562 34.5586 92.3066C34.8952 92.4535 35.1799 92.6611 35.4127 92.9297C35.6454 93.1947 35.8226 93.508 35.9444 93.8696C36.0661 94.2277 36.127 94.6162 36.127 95.0352V95.1587C36.127 95.5776 36.0661 95.9661 35.9444 96.3242C35.8226 96.6823 35.6454 96.9956 35.4127 97.2642C35.1799 97.5291 34.897 97.7368 34.564 97.8872C34.231 98.034 33.8532 98.1074 33.4307 98.1074C33.0046 98.1074 32.6233 98.034 32.2867 97.8872C31.9537 97.7368 31.6708 97.5291 31.438 97.2642C31.2053 96.9956 31.028 96.6823 30.9063 96.3242C30.7846 95.9661 30.7237 95.5776 30.7237 95.1587ZM32.0181 95.0352V95.1587C32.0181 95.4201 32.045 95.6672 32.0987 95.8999C32.1524 96.1326 32.2365 96.3368 32.3511 96.5122C32.4657 96.6877 32.6125 96.8255 32.7916 96.9258C32.9706 97.026 33.1836 97.0762 33.4307 97.0762C33.6706 97.0762 33.8783 97.026 34.0538 96.9258C34.2328 96.8255 34.3796 96.6877 34.4942 96.5122C34.6088 96.3368 34.6929 96.1326 34.7466 95.8999C34.8039 95.6672 34.8326 95.4201 34.8326 95.1587V95.0352C34.8326 94.7773 34.8039 94.5339 34.7466 94.3047C34.6929 94.0719 34.607 93.866 34.4888 93.687C34.3742 93.508 34.2274 93.3683 34.0484 93.2681C33.8729 93.1642 33.6635 93.1123 33.42 93.1123C33.1765 93.1123 32.9652 93.1642 32.7862 93.2681C32.6107 93.3683 32.4657 93.508 32.3511 93.687C32.2365 93.866 32.1524 94.0719 32.0987 94.3047C32.045 94.5339 32.0181 94.7773 32.0181 95.0352ZM38.5934 96.1094L40.8761 92.1885H42.1705V98H40.8761V94.0737L38.5934 98H37.2989V92.1885H38.5934V96.1094ZM40.5323 89.9541H41.4938C41.4938 90.2513 41.4221 90.5145 41.2789 90.7437C41.1393 90.9692 40.9387 91.1465 40.6774 91.2754C40.4195 91.4043 40.1116 91.4688 39.7535 91.4688C39.2128 91.4688 38.7849 91.3291 38.4698 91.0498C38.1583 90.7669 38.0026 90.4017 38.0026 89.9541H38.964C38.964 90.1546 39.0231 90.3319 39.1412 90.4858C39.263 90.6362 39.4671 90.7114 39.7535 90.7114C40.0364 90.7114 40.2369 90.6362 40.3551 90.4858C40.4733 90.3319 40.5323 90.1546 40.5323 89.9541ZM47.4201 92.1885H48.7146L48.6501 94.2349C48.6322 94.8293 48.5642 95.3395 48.446 95.7656C48.3279 96.1917 48.1739 96.5516 47.9841 96.8452C47.7943 97.1353 47.5795 97.3734 47.3396 97.5596C47.1032 97.7458 46.8544 97.8926 46.593 98H46.2116V96.9795L46.3943 96.9688C46.5482 96.804 46.6807 96.6393 46.7917 96.4746C46.9063 96.3063 47.003 96.1219 47.0818 95.9214C47.1605 95.7173 47.2214 95.4792 47.2644 95.207C47.3109 94.9349 47.3414 94.6108 47.3557 94.2349L47.4201 92.1885ZM47.7639 92.1885H51.4485V98H50.1594V93.2842H47.7639V92.1885ZM45.9162 96.9688H52.2434V99.7295H50.9489V98H47.2268V99.7295H45.9109L45.9162 96.9688ZM52.9641 95.1587V95.0352C52.9641 94.6162 53.025 94.2277 53.1468 93.8696C53.2685 93.508 53.444 93.1947 53.6731 92.9297C53.9059 92.6611 54.1887 92.4535 54.5218 92.3066C54.8583 92.1562 55.2379 92.0811 55.6604 92.0811C56.0865 92.0811 56.4661 92.1562 56.7991 92.3066C57.1357 92.4535 57.4204 92.6611 57.6531 92.9297C57.8859 93.1947 58.0631 93.508 58.1848 93.8696C58.3066 94.2277 58.3675 94.6162 58.3675 95.0352V95.1587C58.3675 95.5776 58.3066 95.9661 58.1848 96.3242C58.0631 96.6823 57.8859 96.9956 57.6531 97.2642C57.4204 97.5291 57.1375 97.7368 56.8045 97.8872C56.4715 98.034 56.0937 98.1074 55.6712 98.1074C55.2451 98.1074 54.8637 98.034 54.5271 97.8872C54.1941 97.7368 53.9112 97.5291 53.6785 97.2642C53.4457 96.9956 53.2685 96.6823 53.1468 96.3242C53.025 95.9661 52.9641 95.5776 52.9641 95.1587ZM54.2586 95.0352V95.1587C54.2586 95.4201 54.2854 95.6672 54.3391 95.8999C54.3929 96.1326 54.477 96.3368 54.5916 96.5122C54.7062 96.6877 54.853 96.8255 55.032 96.9258C55.211 97.026 55.4241 97.0762 55.6712 97.0762C55.9111 97.0762 56.1188 97.026 56.2942 96.9258C56.4733 96.8255 56.6201 96.6877 56.7346 96.5122C56.8492 96.3368 56.9334 96.1326 56.9871 95.8999C57.0444 95.6672 57.073 95.4201 57.073 95.1587V95.0352C57.073 94.7773 57.0444 94.5339 56.9871 94.3047C56.9334 94.0719 56.8474 93.866 56.7293 93.687C56.6147 93.508 56.4679 93.3683 56.2888 93.2681C56.1134 93.1642 55.9039 93.1123 55.6604 93.1123C55.4169 93.1123 55.2057 93.1642 55.0266 93.2681C54.8512 93.3683 54.7062 93.508 54.5916 93.687C54.477 93.866 54.3929 94.0719 54.3391 94.3047C54.2854 94.5339 54.2586 94.7773 54.2586 95.0352ZM62.95 96.4316L64.6795 92.1885H65.8021L63.3905 98H62.5096L60.1034 92.1885H61.2259L62.95 96.4316ZM60.8929 92.1885V98H59.5985V92.1885H60.8929ZM65.0072 98V92.1885H66.307V98H65.0072Z" fill="white"/>
<path fill-rule="evenodd" clip-rule="evenodd" d="M33.6969 60.1286C33.866 59.9571 34.134 59.9571 34.3031 60.1286L40.0039 65.9115C40.0013 65.9406 40 65.9702 40 66V75C40 75.5523 39.5523 76 39 76H29C28.4477 76 28 75.5523 28 75V66C28 65.9702 27.9987 65.9406 27.9961 65.9115L33.6969 60.1286ZM26 67.9363L25.7121 68.2284C25.3244 68.6217 24.6913 68.6262 24.298 68.2385C23.9047 67.8507 23.9001 67.2176 24.2879 66.8243L32.2726 58.7245C33.225 57.7585 34.775 57.7585 35.7274 58.7245L43.7121 66.8243C44.0999 67.2176 44.0953 67.8507 43.702 68.2385C43.3087 68.6262 42.6756 68.6217 42.2879 68.2284L42 67.9363V75C42 76.6569 40.6569 78 39 78H29C27.3431 78 26 76.6569 26 75V67.9363ZM34 69C35.6569 69 37 67.6569 37 66C37 64.3431 35.6569 63 34 63C32.3431 63 31 64.3431 31 66C31 67.6569 32.3431 69 34 69ZM30.1815 72.2247C29.8257 72.8339 30.0096 73.6149 30.5881 74.0054C31.5068 74.6256 32.6982 75 34.0001 75C35.3019 75 36.4932 74.6257 37.4119 74.0056C37.9903 73.6151 38.1743 72.8341 37.8185 72.2249C37.0399 70.8919 35.6211 70 34 70C32.3789 70 30.9602 70.8918 30.1815 72.2247Z" fill="white"/>
</g>
</g>
<g opacity="0.8" filter="url(#filter2_d_6_4892)">
<g clip-path="url(#clip2_6_4892)">
<rect x="124" y="48" width="104" height="72" rx="12" fill="url(#paint1_linear_6_4892)"/>
<path d="M134.062 92.1885V98H132.768V92.1885H134.062ZM137.854 92.1885L135.239 95.6851H133.762L133.59 94.5142H134.669L136.238 92.1885H137.854ZM136.34 98L134.589 95.4648L135.609 94.729L138.042 98H136.34ZM142.066 96.8345V94.063C142.066 93.8553 142.029 93.6763 141.954 93.5259C141.878 93.3755 141.764 93.2591 141.61 93.1768C141.46 93.0944 141.27 93.0532 141.041 93.0532C140.829 93.0532 140.647 93.089 140.493 93.1606C140.339 93.2323 140.219 93.3289 140.133 93.4507C140.047 93.5724 140.004 93.7103 140.004 93.8643H138.715C138.715 93.6351 138.77 93.4131 138.881 93.1982C138.992 92.9834 139.154 92.7918 139.365 92.6235C139.576 92.4552 139.829 92.3228 140.122 92.2261C140.416 92.1294 140.745 92.0811 141.11 92.0811C141.547 92.0811 141.934 92.1545 142.271 92.3013C142.611 92.4481 142.877 92.6701 143.071 92.9673C143.268 93.2609 143.366 93.6297 143.366 94.0737V96.6572C143.366 96.9222 143.384 97.1603 143.42 97.3716C143.459 97.5793 143.515 97.7601 143.586 97.9141V98H142.26C142.199 97.8604 142.151 97.6831 142.115 97.4683C142.083 97.2498 142.066 97.0386 142.066 96.8345ZM142.254 94.4658L142.265 95.2661H141.336C141.096 95.2661 140.885 95.2894 140.702 95.3359C140.52 95.3789 140.367 95.4434 140.246 95.5293C140.124 95.6152 140.033 95.7191 139.972 95.8408C139.911 95.9626 139.88 96.1004 139.88 96.2544C139.88 96.4084 139.916 96.5498 139.988 96.6787C140.059 96.804 140.163 96.9025 140.299 96.9741C140.439 97.0457 140.607 97.0815 140.804 97.0815C141.069 97.0815 141.3 97.0278 141.497 96.9204C141.698 96.8094 141.855 96.6751 141.97 96.5176C142.084 96.3564 142.145 96.2043 142.152 96.061L142.571 96.6357C142.528 96.7826 142.455 96.9401 142.351 97.1084C142.247 97.2767 142.111 97.4378 141.943 97.5918C141.778 97.7422 141.579 97.8657 141.347 97.9624C141.118 98.0591 140.853 98.1074 140.552 98.1074C140.172 98.1074 139.834 98.0322 139.537 97.8818C139.239 97.7279 139.007 97.522 138.838 97.2642C138.67 97.0028 138.586 96.7074 138.586 96.3779C138.586 96.07 138.643 95.7979 138.758 95.5615C138.876 95.3216 139.048 95.1211 139.273 94.96C139.503 94.7988 139.782 94.6771 140.111 94.5947C140.441 94.5088 140.817 94.4658 141.239 94.4658H142.254ZM146.064 93.3057V100.234H144.769V92.1885H145.962L146.064 93.3057ZM149.85 95.0405V95.1533C149.85 95.5758 149.8 95.9679 149.7 96.3296C149.603 96.6877 149.458 97.001 149.265 97.2695C149.075 97.5345 148.84 97.7404 148.561 97.8872C148.282 98.034 147.96 98.1074 147.594 98.1074C147.233 98.1074 146.916 98.0412 146.644 97.9087C146.375 97.7726 146.148 97.5811 145.962 97.334C145.775 97.0869 145.625 96.7969 145.51 96.4639C145.399 96.1273 145.321 95.7585 145.274 95.3574V94.9224C145.321 94.4963 145.399 94.1095 145.51 93.7622C145.625 93.4149 145.775 93.1159 145.962 92.8652C146.148 92.6146 146.375 92.4212 146.644 92.2852C146.912 92.1491 147.226 92.0811 147.584 92.0811C147.949 92.0811 148.273 92.1527 148.556 92.2959C148.839 92.4355 149.077 92.6361 149.27 92.8975C149.463 93.1553 149.609 93.4668 149.705 93.832C149.802 94.1937 149.85 94.5965 149.85 95.0405ZM148.556 95.1533V95.0405C148.556 94.772 148.531 94.5231 148.481 94.2939C148.43 94.0612 148.352 93.8571 148.244 93.6816C148.137 93.5062 147.999 93.3701 147.831 93.2734C147.666 93.1732 147.467 93.123 147.234 93.123C147.005 93.123 146.808 93.1624 146.644 93.2412C146.479 93.3164 146.341 93.422 146.23 93.5581C146.119 93.6942 146.033 93.8535 145.972 94.0361C145.911 94.2152 145.868 94.4103 145.843 94.6216V95.6636C145.886 95.9214 145.96 96.1577 146.064 96.3726C146.167 96.5874 146.314 96.7593 146.504 96.8882C146.697 97.0135 146.944 97.0762 147.245 97.0762C147.478 97.0762 147.677 97.026 147.841 96.9258C148.006 96.8255 148.14 96.6877 148.244 96.5122C148.352 96.3332 148.43 96.1273 148.481 95.8945C148.531 95.6618 148.556 95.4147 148.556 95.1533ZM153.337 92.1885V98H152.037V92.1885H153.337ZM155.244 92.1885V93.209H150.163V92.1885H155.244ZM159.343 96.8345V94.063C159.343 93.8553 159.305 93.6763 159.23 93.5259C159.155 93.3755 159.04 93.2591 158.886 93.1768C158.736 93.0944 158.546 93.0532 158.317 93.0532C158.106 93.0532 157.923 93.089 157.769 93.1606C157.615 93.2323 157.495 93.3289 157.409 93.4507C157.323 93.5724 157.28 93.7103 157.28 93.8643H155.991C155.991 93.6351 156.047 93.4131 156.158 93.1982C156.269 92.9834 156.43 92.7918 156.641 92.6235C156.853 92.4552 157.105 92.3228 157.399 92.2261C157.692 92.1294 158.022 92.0811 158.387 92.0811C158.824 92.0811 159.211 92.1545 159.547 92.3013C159.887 92.4481 160.154 92.6701 160.347 92.9673C160.544 93.2609 160.643 93.6297 160.643 94.0737V96.6572C160.643 96.9222 160.661 97.1603 160.697 97.3716C160.736 97.5793 160.791 97.7601 160.863 97.9141V98H159.536C159.475 97.8604 159.427 97.6831 159.391 97.4683C159.359 97.2498 159.343 97.0386 159.343 96.8345ZM159.531 94.4658L159.542 95.2661H158.613C158.373 95.2661 158.161 95.2894 157.979 95.3359C157.796 95.3789 157.644 95.4434 157.522 95.5293C157.4 95.6152 157.309 95.7191 157.248 95.8408C157.187 95.9626 157.157 96.1004 157.157 96.2544C157.157 96.4084 157.193 96.5498 157.264 96.6787C157.336 96.804 157.44 96.9025 157.576 96.9741C157.716 97.0457 157.884 97.0815 158.081 97.0815C158.346 97.0815 158.577 97.0278 158.774 96.9204C158.974 96.8094 159.132 96.6751 159.246 96.5176C159.361 96.3564 159.422 96.2043 159.429 96.061L159.848 96.6357C159.805 96.7826 159.732 96.9401 159.628 97.1084C159.524 97.2767 159.388 97.4378 159.219 97.5918C159.055 97.7422 158.856 97.8657 158.623 97.9624C158.394 98.0591 158.129 98.1074 157.828 98.1074C157.449 98.1074 157.11 98.0322 156.813 97.8818C156.516 97.7279 156.283 97.522 156.115 97.2642C155.947 97.0028 155.863 96.7074 155.863 96.3779C155.863 96.07 155.92 95.7979 156.034 95.5615C156.153 95.3216 156.324 95.1211 156.55 94.96C156.779 94.7988 157.058 94.6771 157.388 94.5947C157.717 94.5088 158.093 94.4658 158.516 94.4658H159.531ZM167.198 97.0762C167.409 97.0762 167.599 97.035 167.767 96.9526C167.939 96.8667 168.077 96.7485 168.181 96.5981C168.288 96.4478 168.347 96.2741 168.358 96.0771H169.577C169.57 96.4531 169.459 96.7951 169.244 97.103C169.029 97.411 168.744 97.6562 168.39 97.8389C168.035 98.0179 167.643 98.1074 167.214 98.1074C166.77 98.1074 166.383 98.0322 166.054 97.8818C165.724 97.7279 165.45 97.5166 165.232 97.248C165.013 96.9795 164.849 96.6698 164.738 96.3188C164.63 95.9679 164.576 95.592 164.576 95.1909V95.0029C164.576 94.6019 164.63 94.2259 164.738 93.875C164.849 93.5205 165.013 93.209 165.232 92.9404C165.45 92.6719 165.724 92.4624 166.054 92.312C166.383 92.158 166.768 92.0811 167.208 92.0811C167.674 92.0811 168.082 92.1742 168.433 92.3604C168.784 92.543 169.06 92.799 169.26 93.1284C169.464 93.4543 169.57 93.8338 169.577 94.2671H168.358C168.347 94.0522 168.293 93.8589 168.197 93.687C168.104 93.5116 167.971 93.3719 167.799 93.2681C167.631 93.1642 167.429 93.1123 167.192 93.1123C166.931 93.1123 166.714 93.166 166.542 93.2734C166.37 93.3773 166.236 93.5205 166.139 93.7031C166.043 93.8822 165.973 94.0845 165.93 94.3101C165.891 94.5321 165.871 94.763 165.871 95.0029V95.1909C165.871 95.4308 165.891 95.6636 165.93 95.8892C165.969 96.1147 166.037 96.3171 166.134 96.4961C166.234 96.6715 166.37 96.813 166.542 96.9204C166.714 97.0243 166.933 97.0762 167.198 97.0762ZM173.891 96.8345V94.063C173.891 93.8553 173.853 93.6763 173.778 93.5259C173.703 93.3755 173.588 93.2591 173.434 93.1768C173.284 93.0944 173.094 93.0532 172.865 93.0532C172.654 93.0532 172.471 93.089 172.317 93.1606C172.163 93.2323 172.043 93.3289 171.957 93.4507C171.871 93.5724 171.829 93.7103 171.829 93.8643H170.539C170.539 93.6351 170.595 93.4131 170.706 93.1982C170.817 92.9834 170.978 92.7918 171.189 92.6235C171.401 92.4552 171.653 92.3228 171.947 92.2261C172.24 92.1294 172.57 92.0811 172.935 92.0811C173.372 92.0811 173.759 92.1545 174.095 92.3013C174.435 92.4481 174.702 92.6701 174.895 92.9673C175.092 93.2609 175.191 93.6297 175.191 94.0737V96.6572C175.191 96.9222 175.209 97.1603 175.245 97.3716C175.284 97.5793 175.339 97.7601 175.411 97.9141V98H174.084C174.023 97.8604 173.975 97.6831 173.939 97.4683C173.907 97.2498 173.891 97.0386 173.891 96.8345ZM174.079 94.4658L174.09 95.2661H173.161C172.921 95.2661 172.709 95.2894 172.527 95.3359C172.344 95.3789 172.192 95.4434 172.07 95.5293C171.948 95.6152 171.857 95.7191 171.796 95.8408C171.735 95.9626 171.705 96.1004 171.705 96.2544C171.705 96.4084 171.741 96.5498 171.812 96.6787C171.884 96.804 171.988 96.9025 172.124 96.9741C172.264 97.0457 172.432 97.0815 172.629 97.0815C172.894 97.0815 173.125 97.0278 173.322 96.9204C173.522 96.8094 173.68 96.6751 173.794 96.5176C173.909 96.3564 173.97 96.2043 173.977 96.061L174.396 96.6357C174.353 96.7826 174.28 96.9401 174.176 97.1084C174.072 97.2767 173.936 97.4378 173.767 97.5918C173.603 97.7422 173.404 97.8657 173.171 97.9624C172.942 98.0591 172.677 98.1074 172.376 98.1074C171.997 98.1074 171.658 98.0322 171.361 97.8818C171.064 97.7279 170.831 97.522 170.663 97.2642C170.495 97.0028 170.411 96.7074 170.411 96.3779C170.411 96.07 170.468 95.7979 170.582 95.5615C170.701 95.3216 170.872 95.1211 171.098 94.96C171.327 94.7988 171.607 94.6771 171.936 94.5947C172.265 94.5088 172.641 94.4658 173.064 94.4658H174.079ZM177.577 92.1885L178.683 94.1167L179.811 92.1885H181.234L179.473 95.0405L181.304 98H179.881L178.699 95.9912L177.518 98H176.089L177.915 95.0405L176.159 92.1885H177.577ZM185.441 96.8345V94.063C185.441 93.8553 185.403 93.6763 185.328 93.5259C185.253 93.3755 185.138 93.2591 184.984 93.1768C184.834 93.0944 184.644 93.0532 184.415 93.0532C184.204 93.0532 184.021 93.089 183.867 93.1606C183.713 93.2323 183.593 93.3289 183.507 93.4507C183.421 93.5724 183.378 93.7103 183.378 93.8643H182.089C182.089 93.6351 182.145 93.4131 182.256 93.1982C182.367 92.9834 182.528 92.7918 182.739 92.6235C182.951 92.4552 183.203 92.3228 183.497 92.2261C183.79 92.1294 184.12 92.0811 184.485 92.0811C184.922 92.0811 185.308 92.1545 185.645 92.3013C185.985 92.4481 186.252 92.6701 186.445 92.9673C186.642 93.2609 186.741 93.6297 186.741 94.0737V96.6572C186.741 96.9222 186.759 97.1603 186.794 97.3716C186.834 97.5793 186.889 97.7601 186.961 97.9141V98H185.634C185.573 97.8604 185.525 97.6831 185.489 97.4683C185.457 97.2498 185.441 97.0386 185.441 96.8345ZM185.629 94.4658L185.64 95.2661H184.71C184.471 95.2661 184.259 95.2894 184.077 95.3359C183.894 95.3789 183.742 95.4434 183.62 95.5293C183.498 95.6152 183.407 95.7191 183.346 95.8408C183.285 95.9626 183.255 96.1004 183.255 96.2544C183.255 96.4084 183.291 96.5498 183.362 96.6787C183.434 96.804 183.538 96.9025 183.674 96.9741C183.813 97.0457 183.982 97.0815 184.179 97.0815C184.444 97.0815 184.675 97.0278 184.872 96.9204C185.072 96.8094 185.23 96.6751 185.344 96.5176C185.459 96.3564 185.52 96.2043 185.527 96.061L185.946 96.6357C185.903 96.7826 185.829 96.9401 185.726 97.1084C185.622 97.2767 185.486 97.4378 185.317 97.5918C185.153 97.7422 184.954 97.8657 184.721 97.9624C184.492 98.0591 184.227 98.1074 183.926 98.1074C183.547 98.1074 183.208 98.0322 182.911 97.8818C182.614 97.7279 182.381 97.522 182.213 97.2642C182.045 97.0028 181.96 96.7074 181.96 96.3779C181.96 96.07 182.018 95.7979 182.132 95.5615C182.25 95.3216 182.422 95.1211 182.648 94.96C182.877 94.7988 183.156 94.6771 183.486 94.5947C183.815 94.5088 184.191 94.4658 184.614 94.4658H185.629ZM192.043 92.1885V93.2197H189.207V92.1885H192.043ZM193.058 92.1885V98H191.764V92.1885H193.058ZM188.89 92.1885H190.169L190.013 95.062C189.991 95.4881 189.948 95.8641 189.884 96.1899C189.823 96.5122 189.741 96.7897 189.637 97.0225C189.533 97.2516 189.406 97.4378 189.255 97.5811C189.105 97.7243 188.93 97.8299 188.729 97.8979C188.529 97.966 188.303 98 188.052 98H187.649L187.644 96.9365L187.848 96.9204C187.981 96.9097 188.095 96.8757 188.192 96.8184C188.289 96.7575 188.371 96.6715 188.439 96.5605C188.511 96.4495 188.568 96.3063 188.611 96.1309C188.657 95.9554 188.693 95.7477 188.718 95.5078C188.747 95.2679 188.768 94.9886 188.783 94.6699L188.89 92.1885ZM195.815 96.1094L198.097 92.1885H199.392V98H198.097V94.0737L195.815 98H194.52V92.1885H195.815V96.1094ZM204.775 94.6162V95.6367H201.767V94.6162H204.775ZM202.143 92.1885V98H200.848V92.1885H202.143ZM205.709 92.1885V98H204.415V92.1885H205.709ZM207.176 98V92.1885H208.471V96.9688H210.748V92.1885H212.048V98H207.176ZM212.838 96.9741L212.736 99.7241H211.549V98H210.85V96.9741H212.838ZM217.071 96.8345V94.063C217.071 93.8553 217.033 93.6763 216.958 93.5259C216.883 93.3755 216.769 93.2591 216.615 93.1768C216.464 93.0944 216.274 93.0532 216.045 93.0532C215.834 93.0532 215.651 93.089 215.497 93.1606C215.343 93.2323 215.223 93.3289 215.137 93.4507C215.052 93.5724 215.009 93.7103 215.009 93.8643H213.72C213.72 93.6351 213.775 93.4131 213.886 93.1982C213.997 92.9834 214.158 92.7918 214.369 92.6235C214.581 92.4552 214.833 92.3228 215.127 92.2261C215.42 92.1294 215.75 92.0811 216.115 92.0811C216.552 92.0811 216.939 92.1545 217.275 92.3013C217.615 92.4481 217.882 92.6701 218.075 92.9673C218.272 93.2609 218.371 93.6297 218.371 94.0737V96.6572C218.371 96.9222 218.389 97.1603 218.425 97.3716C218.464 97.5793 218.519 97.7601 218.591 97.9141V98H217.264C217.204 97.8604 217.155 97.6831 217.119 97.4683C217.087 97.2498 217.071 97.0386 217.071 96.8345ZM217.259 94.4658L217.27 95.2661H216.341C216.101 95.2661 215.889 95.2894 215.707 95.3359C215.524 95.3789 215.372 95.4434 215.25 95.5293C215.129 95.6152 215.037 95.7191 214.976 95.8408C214.915 95.9626 214.885 96.1004 214.885 96.2544C214.885 96.4084 214.921 96.5498 214.992 96.6787C215.064 96.804 215.168 96.9025 215.304 96.9741C215.444 97.0457 215.612 97.0815 215.809 97.0815C216.074 97.0815 216.305 97.0278 216.502 96.9204C216.702 96.8094 216.86 96.6751 216.974 96.5176C217.089 96.3564 217.15 96.2043 217.157 96.061L217.576 96.6357C217.533 96.7826 217.46 96.9401 217.356 97.1084C217.252 97.2767 217.116 97.4378 216.948 97.5918C216.783 97.7422 216.584 97.8657 216.351 97.9624C216.122 98.0591 215.857 98.1074 215.556 98.1074C215.177 98.1074 214.838 98.0322 214.541 97.8818C214.244 97.7279 214.011 97.522 213.843 97.2642C213.675 97.0028 213.591 96.7074 213.591 96.3779C213.591 96.07 213.648 95.7979 213.762 95.5615C213.881 95.3216 214.053 95.1211 214.278 94.96C214.507 94.7988 214.787 94.6771 215.116 94.5947C215.445 94.5088 215.821 94.4658 216.244 94.4658H217.259Z" fill="white"/>
<path fill-rule="evenodd" clip-rule="evenodd" d="M138 61C136.343 61 135 62.3431 135 64V65H134C133.448 65 133 65.4477 133 66V67C133 67.5523 133.448 68 134 68H135V73C135 74.6569 136.343 76 138 76H152C153.657 76 155 74.6569 155 73V64C155 62.3431 153.657 61 152 61H138ZM137 68V73C137 73.5523 137.448 74 138 74H152C152.552 74 153 73.5523 153 73V64C153 63.4477 152.552 63 152 63H138C137.448 63 137 63.4477 137 64V65H150C150.552 65 151 65.4477 151 66V67C151 67.5523 150.552 68 150 68H137ZM148 71.5C148 70.6716 148.672 70 149.5 70C150.328 70 151 70.6716 151 71.5C151 72.3284 150.328 73 149.5 73C148.672 73 148 72.3284 148 71.5Z" fill="white"/>
</g>
</g>
</g>
</g>
<defs>
<filter id="filter0_d_6_4892" x="-4" y="0" width="360" height="142" filterUnits="userSpaceOnUse" color-interpolation-filters="sRGB">
<feFlood flood-opacity="0" result="BackgroundImageFix"/>
<feColorMatrix in="SourceAlpha" type="matrix" values="0 0 0 0 0 0 0 0 0 0 0 0 0 0 0 0 0 0 127 0" result="hardAlpha"/>
<feOffset dy="4"/>
<feGaussianBlur stdDeviation="4"/>
<feColorMatrix type="matrix" values="0 0 0 0 0.0477431 0 0 0 0 0.162708 0 0 0 0 0.458333 0 0 0 0.12 0"/>
<feBlend mode="normal" in2="BackgroundImageFix" result="effect1_dropShadow_6_4892"/>
<feBlend mode="normal" in="SourceGraphic" in2="effect1_dropShadow_6_4892" result="shape"/>
</filter>
<filter id="filter1_d_6_4892" x="6" y="44" width="120" height="88" filterUnits="userSpaceOnUse" color-interpolation-filters="sRGB">
<feFlood flood-opacity="0" result="BackgroundImageFix"/>
<feColorMatrix in="SourceAlpha" type="matrix" values="0 0 0 0 0 0 0 0 0 0 0 0 0 0 0 0 0 0 127 0" result="hardAlpha"/>
<feOffset dy="4"/>
<feGaussianBlur stdDeviation="4"/>
<feColorMatrix type="matrix" values="0 0 0 0 0.0477431 0 0 0 0 0.162708 0 0 0 0 0.458333 0 0 0 0.12 0"/>
<feBlend mode="normal" in2="BackgroundImageFix" result="effect1_dropShadow_6_4892"/>
<feBlend mode="normal" in="SourceGraphic" in2="effect1_dropShadow_6_4892" result="shape"/>
</filter>
<filter id="filter2_d_6_4892" x="116" y="44" width="120" height="88" filterUnits="userSpaceOnUse" color-interpolation-filters="sRGB">
<feFlood flood-opacity="0" result="BackgroundImageFix"/>
<feColorMatrix in="SourceAlpha" type="matrix" values="0 0 0 0 0 0 0 0 0 0 0 0 0 0 0 0 0 0 127 0" result="hardAlpha"/>
<feOffset dy="4"/>
<feGaussianBlur stdDeviation="4"/>
<feColorMatrix type="matrix" values="0 0 0 0 0.0477431 0 0 0 0 0.162708 0 0 0 0 0.458333 0 0 0 0.12 0"/>
<feBlend mode="normal" in2="BackgroundImageFix" result="effect1_dropShadow_6_4892"/>
<feBlend mode="normal" in="SourceGraphic" in2="effect1_dropShadow_6_4892" result="shape"/>
</filter>
<linearGradient id="paint0_linear_6_4892" x1="17.8879" y1="84" x2="115.587" y2="115.758" gradientUnits="userSpaceOnUse">
<stop stop-color="#0D8200"/>
<stop offset="1" stop-color="#12B001"/>
</linearGradient>
<linearGradient id="paint1_linear_6_4892" x1="127.888" y1="84" x2="225.587" y2="115.758" gradientUnits="userSpaceOnUse">
<stop stop-color="#0D8200"/>
<stop offset="1" stop-color="#12B001"/>
</linearGradient>
<clipPath id="clip0_6_4892">
<rect x="4" y="4" width="344" height="126" rx="12" fill="white"/>
</clipPath>
<clipPath id="clip1_6_4892">
<rect x="14" y="48" width="104" height="72" rx="12" fill="white"/>
</clipPath>
<clipPath id="clip2_6_4892">
<rect x="124" y="48" width="104" height="72" rx="12" fill="white"/>
</clipPath>
</defs>
</svg>
