<svg width="352" height="134" viewBox="0 0 352 134" fill="none" xmlns="http://www.w3.org/2000/svg">
<g filter="url(#filter0_d_6_4957)">
<g clip-path="url(#clip0_6_4957)">
<rect x="4" y="4" width="344" height="126" rx="12" fill="white"/>
<path fill-rule="evenodd" clip-rule="evenodd" d="M26 17C21.0294 17 17 21.0294 17 26C17 30.9706 21.0294 35 26 35C30.9706 35 35 30.9706 35 26C35 21.0294 30.9706 17 26 17ZM15 26C15 19.9249 19.9249 15 26 15C32.0751 15 37 19.9249 37 26C37 32.0751 32.0751 37 26 37C19.9249 37 15 32.0751 15 26Z" fill="#0066B3"/>
<path d="M26.2582 22.0244C25.7927 21.9446 25.314 22.032 24.9068 22.2713C24.4996 22.5107 24.1902 22.8864 24.0335 23.3319C23.8502 23.8529 23.2793 24.1267 22.7583 23.9434C22.2373 23.7601 21.9635 23.1892 22.1468 22.6682C22.4603 21.7771 23.079 21.0257 23.8934 20.5471C24.7078 20.0685 25.6653 19.8935 26.5964 20.0532C27.5274 20.2129 28.3719 20.6969 28.9802 21.4196C29.5884 22.1421 29.9214 23.0566 29.9201 24.001C29.9197 25.5314 28.7851 26.542 27.9748 27.0821C27.5392 27.3726 27.1107 27.5861 26.795 27.7264C26.6358 27.7972 26.5016 27.8509 26.405 27.8877L26.2363 27.9488C25.7124 28.1234 25.1461 27.8403 24.9714 27.3163C24.7969 26.7927 25.0796 26.2268 25.6028 26.0517L25.6188 26.0461C25.6342 26.0407 25.6594 26.0315 25.693 26.0187C25.7605 25.993 25.8607 25.953 25.9827 25.8988C26.2296 25.7891 26.551 25.6276 26.8654 25.418C27.555 24.9583 27.9201 24.4692 27.9201 24.0001L27.9201 23.9986C27.9208 23.5263 27.7543 23.0689 27.4502 22.7076C27.146 22.3463 26.7238 22.1043 26.2582 22.0244Z" fill="#0066B3"/>
<circle cx="26" cy="31" r="1" fill="#0066B3"/>
<path d="M59.5049 25.25V25.9531C59.5049 26.9199 59.3789 27.7871 59.127 28.5547C58.875 29.3223 58.5146 29.9756 58.0459 30.5146C57.583 31.0537 57.0264 31.4668 56.376 31.7539C55.7256 32.0352 55.0049 32.1758 54.2139 32.1758C53.4287 32.1758 52.7109 32.0352 52.0605 31.7539C51.416 31.4668 50.8564 31.0537 50.3818 30.5146C49.9072 29.9756 49.5381 29.3223 49.2744 28.5547C49.0166 27.7871 48.8877 26.9199 48.8877 25.9531V25.25C48.8877 24.2832 49.0166 23.4189 49.2744 22.6572C49.5322 21.8896 49.8955 21.2363 50.3643 20.6973C50.8389 20.1523 51.3984 19.7393 52.043 19.458C52.6934 19.1709 53.4111 19.0273 54.1963 19.0273C54.9873 19.0273 55.708 19.1709 56.3584 19.458C57.0088 19.7393 57.5684 20.1523 58.0371 20.6973C58.5059 21.2363 58.8662 21.8896 59.1182 22.6572C59.376 23.4189 59.5049 24.2832 59.5049 25.25ZM57.2988 25.9531V25.2324C57.2988 24.5176 57.2285 23.8877 57.0879 23.3428C56.9531 22.792 56.751 22.332 56.4814 21.9629C56.2178 21.5879 55.8926 21.3066 55.5059 21.1191C55.1191 20.9258 54.6826 20.8291 54.1963 20.8291C53.71 20.8291 53.2764 20.9258 52.8955 21.1191C52.5146 21.3066 52.1895 21.5879 51.9199 21.9629C51.6562 22.332 51.4541 22.792 51.3135 23.3428C51.1729 23.8877 51.1025 24.5176 51.1025 25.2324V25.9531C51.1025 26.668 51.1729 27.3008 51.3135 27.8516C51.4541 28.4023 51.6592 28.8682 51.9287 29.249C52.2041 29.624 52.5322 29.9082 52.9131 30.1016C53.2939 30.2891 53.7275 30.3828 54.2139 30.3828C54.7061 30.3828 55.1426 30.2891 55.5234 30.1016C55.9043 29.9082 56.2266 29.624 56.4902 29.249C56.7539 28.8682 56.9531 28.4023 57.0879 27.8516C57.2285 27.3008 57.2988 26.668 57.2988 25.9531ZM67.4948 18.3242H69.2086C69.2086 18.8457 69.1354 19.2764 68.9889 19.6162C68.8483 19.9502 68.6374 20.2256 68.3561 20.4424C68.0807 20.6533 67.7379 20.8232 67.3278 20.9521C66.9235 21.0811 66.4547 21.1982 65.9215 21.3037C65.4293 21.4092 64.984 21.5762 64.5856 21.8047C64.193 22.0273 63.862 22.3408 63.5924 22.7451C63.3288 23.1436 63.1383 23.6562 63.0211 24.2832C62.904 24.9102 62.8688 25.6748 62.9157 26.5771V27.1748L61.237 27.3242V26.7266C61.237 25.6074 61.3395 24.6318 61.5446 23.7998C61.7497 22.9678 62.0397 22.2676 62.4147 21.6992C62.7956 21.125 63.2467 20.668 63.7682 20.3281C64.2956 19.9883 64.8815 19.7539 65.526 19.625C65.9655 19.5312 66.3317 19.4375 66.6247 19.3438C66.9176 19.2441 67.1344 19.1182 67.275 18.9658C67.4215 18.8076 67.4948 18.5938 67.4948 18.3242ZM66.0094 23.0264C66.6422 23.0264 67.2047 23.1377 67.6969 23.3604C68.1891 23.5771 68.6051 23.8818 68.945 24.2744C69.2848 24.667 69.5426 25.1299 69.7184 25.6631C69.9 26.1963 69.9909 26.7764 69.9909 27.4033V27.5967C69.9909 28.2529 69.8942 28.8594 69.7008 29.416C69.5075 29.9727 69.2233 30.459 68.8483 30.875C68.4733 31.2852 68.0133 31.6074 67.4684 31.8418C66.9293 32.0703 66.3112 32.1846 65.6139 32.1846C64.9225 32.1846 64.3043 32.0645 63.7594 31.8242C63.2145 31.584 62.7545 31.25 62.3795 30.8223C62.0045 30.3887 61.7204 29.8818 61.527 29.3018C61.3336 28.7217 61.237 28.0889 61.237 27.4033V27.21C61.2311 27.0869 61.2633 26.9668 61.3336 26.8496C61.4098 26.7324 61.5006 26.6064 61.6061 26.4717C61.7116 26.3369 61.8053 26.1816 61.8874 26.0059C62.1803 25.4141 62.526 24.8955 62.9245 24.4502C63.3229 24.0049 63.777 23.6562 64.2868 23.4043C64.8024 23.1523 65.3766 23.0264 66.0094 23.0264ZM65.5963 24.7051C65.069 24.7051 64.6383 24.8311 64.3043 25.083C63.9762 25.3291 63.7331 25.6572 63.5749 26.0674C63.4225 26.4775 63.3463 26.9229 63.3463 27.4033V27.5967C63.3463 27.9893 63.3903 28.3613 63.4782 28.7129C63.5661 29.0645 63.6979 29.375 63.8737 29.6445C64.0553 29.9082 64.2897 30.1162 64.5768 30.2686C64.8698 30.4209 65.2155 30.4971 65.6139 30.4971C66.0182 30.4971 66.361 30.4209 66.6422 30.2686C66.9293 30.1162 67.1608 29.9082 67.3366 29.6445C67.5182 29.375 67.65 29.0645 67.7321 28.7129C67.82 28.3613 67.8639 27.9893 67.8639 27.5967V27.4033C67.8639 27.04 67.82 26.6973 67.7321 26.375C67.65 26.0527 67.5182 25.7686 67.3366 25.5225C67.1549 25.2705 66.9206 25.0713 66.6334 24.9248C66.3463 24.7783 66.0006 24.7051 65.5963 24.7051ZM73.6478 24.3184V35.6562H71.5296V22.4902H73.4808L73.6478 24.3184ZM79.844 27.1572V27.3418C79.844 28.0332 79.762 28.6748 79.5979 29.2666C79.4397 29.8525 79.2024 30.3652 78.886 30.8047C78.5755 31.2383 78.1917 31.5752 77.7347 31.8154C77.2776 32.0557 76.7503 32.1758 76.1526 32.1758C75.5608 32.1758 75.0423 32.0674 74.597 31.8506C74.1575 31.6279 73.7854 31.3145 73.4808 30.9102C73.1761 30.5059 72.93 30.0312 72.7425 29.4863C72.5608 28.9355 72.4319 28.332 72.3558 27.6758V26.9639C72.4319 26.2666 72.5608 25.6338 72.7425 25.0654C72.93 24.4971 73.1761 24.0078 73.4808 23.5977C73.7854 23.1875 74.1575 22.8711 74.597 22.6484C75.0364 22.4258 75.5491 22.3145 76.1351 22.3145C76.7327 22.3145 77.263 22.4316 77.7259 22.666C78.1888 22.8945 78.5784 23.2227 78.8948 23.6504C79.2112 24.0723 79.4485 24.582 79.6067 25.1797C79.7649 25.7715 79.844 26.4307 79.844 27.1572ZM77.7259 27.3418V27.1572C77.7259 26.7178 77.6849 26.3105 77.6028 25.9355C77.5208 25.5547 77.3919 25.2207 77.2161 24.9336C77.0403 24.6465 76.8147 24.4238 76.5394 24.2656C76.2698 24.1016 75.9446 24.0195 75.5638 24.0195C75.1888 24.0195 74.8665 24.084 74.597 24.2129C74.3274 24.3359 74.1019 24.5088 73.9202 24.7314C73.7386 24.9541 73.5979 25.2148 73.4983 25.5137C73.3987 25.8066 73.3284 26.126 73.2874 26.4717V28.1768C73.3577 28.5986 73.4778 28.9854 73.6478 29.3369C73.8177 29.6885 74.0579 29.9697 74.3685 30.1807C74.6849 30.3857 75.0892 30.4883 75.5813 30.4883C75.9622 30.4883 76.2874 30.4062 76.5569 30.2422C76.8265 30.0781 77.0462 29.8525 77.2161 29.5654C77.3919 29.2725 77.5208 28.9355 77.6028 28.5547C77.6849 28.1738 77.7259 27.7695 77.7259 27.3418ZM87.0341 30.0928V25.5576C87.0341 25.2178 86.9726 24.9248 86.8496 24.6787C86.7265 24.4326 86.539 24.2422 86.2871 24.1074C86.041 23.9727 85.7304 23.9053 85.3554 23.9053C85.0097 23.9053 84.7109 23.9639 84.4589 24.0811C84.207 24.1982 84.0107 24.3564 83.8701 24.5557C83.7294 24.7549 83.6591 24.9805 83.6591 25.2324H81.5498C81.5498 24.8574 81.6406 24.4941 81.8222 24.1426C82.0039 23.791 82.2675 23.4775 82.6132 23.2021C82.9589 22.9268 83.372 22.71 83.8525 22.5518C84.333 22.3936 84.872 22.3145 85.4697 22.3145C86.1845 22.3145 86.8173 22.4346 87.3681 22.6748C87.9248 22.915 88.3613 23.2783 88.6777 23.7646C88.9999 24.2451 89.1611 24.8486 89.1611 25.5752V29.8027C89.1611 30.2363 89.1904 30.626 89.249 30.9717C89.3134 31.3115 89.4042 31.6074 89.5214 31.8594V32H87.3505C87.2509 31.7715 87.1718 31.4814 87.1132 31.1299C87.0605 30.7725 87.0341 30.4268 87.0341 30.0928ZM87.3417 26.2168L87.3593 27.5264H85.8388C85.4462 27.5264 85.1005 27.5645 84.8017 27.6406C84.5029 27.7109 84.2539 27.8164 84.0546 27.957C83.8554 28.0977 83.706 28.2676 83.6064 28.4668C83.5068 28.666 83.457 28.8916 83.457 29.1436C83.457 29.3955 83.5156 29.627 83.6328 29.8379C83.7499 30.043 83.9199 30.2041 84.1425 30.3213C84.371 30.4385 84.6464 30.4971 84.9687 30.4971C85.4023 30.4971 85.7802 30.4092 86.1025 30.2334C86.4306 30.0518 86.6884 29.832 86.8759 29.5742C87.0634 29.3105 87.163 29.0615 87.1748 28.8271L87.8603 29.7676C87.79 30.0078 87.6699 30.2656 87.4999 30.541C87.33 30.8164 87.1074 31.0801 86.832 31.332C86.5624 31.5781 86.2373 31.7803 85.8564 31.9385C85.4814 32.0967 85.0478 32.1758 84.5556 32.1758C83.9345 32.1758 83.3808 32.0527 82.8945 31.8066C82.4081 31.5547 82.0273 31.2178 81.7519 30.7959C81.4765 30.3682 81.3388 29.8848 81.3388 29.3457C81.3388 28.8418 81.4326 28.3965 81.6201 28.0098C81.8134 27.6172 82.0947 27.2891 82.4638 27.0254C82.8388 26.7617 83.2958 26.5625 83.8349 26.4277C84.374 26.2871 84.9892 26.2168 85.6806 26.2168H87.3417ZM105.457 30.3213L105.29 34.8213H103.347V32H102.205V30.3213H105.457ZM91.4117 22.4902H93.5299V30.3125H96.5533V22.4902H98.6803V30.3125H101.695V22.4902H103.813V32H91.4117V22.4902ZM111.249 32.1758C110.546 32.1758 109.91 32.0615 109.342 31.833C108.78 31.5986 108.299 31.2734 107.901 30.8574C107.508 30.4414 107.206 29.9521 106.995 29.3896C106.784 28.8271 106.679 28.2207 106.679 27.5703V27.2188C106.679 26.4746 106.787 25.8008 107.004 25.1973C107.221 24.5938 107.523 24.0781 107.909 23.6504C108.296 23.2168 108.753 22.8857 109.281 22.6572C109.808 22.4287 110.379 22.3145 110.994 22.3145C111.674 22.3145 112.269 22.4287 112.779 22.6572C113.288 22.8857 113.71 23.208 114.044 23.624C114.384 24.0342 114.636 24.5234 114.8 25.0918C114.97 25.6602 115.055 26.2871 115.055 26.9727V27.8779H107.707V26.3574H112.963V26.1904C112.951 25.8096 112.875 25.4521 112.735 25.1182C112.6 24.7842 112.392 24.5146 112.111 24.3096C111.829 24.1045 111.454 24.002 110.986 24.002C110.634 24.002 110.321 24.0781 110.045 24.2305C109.776 24.377 109.55 24.5908 109.368 24.8721C109.187 25.1533 109.046 25.4932 108.947 25.8916C108.853 26.2842 108.806 26.7266 108.806 27.2188V27.5703C108.806 27.9863 108.862 28.373 108.973 28.7305C109.09 29.082 109.26 29.3896 109.483 29.6533C109.705 29.917 109.975 30.125 110.291 30.2773C110.608 30.4238 110.968 30.4971 111.372 30.4971C111.882 30.4971 112.336 30.3945 112.735 30.1895C113.133 29.9844 113.479 29.6943 113.772 29.3193L114.888 30.4004C114.683 30.6992 114.416 30.9863 114.088 31.2617C113.76 31.5312 113.359 31.751 112.884 31.9209C112.415 32.0908 111.87 32.1758 111.249 32.1758ZM123.229 26.4629V28.1328H118.308V26.4629H123.229ZM118.923 22.4902V32H116.805V22.4902H118.923ZM124.759 22.4902V32H122.641V22.4902H124.759ZM129.233 28.9062L132.968 22.4902H135.086V32H132.968V25.5752L129.233 32H127.115V22.4902H129.233V28.9062ZM139.359 27.3506H141.556L138.858 32H136.669L139.359 27.3506ZM140.905 22.4902H144.984V32H142.874V24.1602H140.905C140.507 24.1602 140.179 24.2305 139.921 24.3711C139.663 24.5059 139.473 24.6846 139.35 24.9072C139.227 25.124 139.165 25.3467 139.165 25.5752C139.165 25.8037 139.221 26.0234 139.332 26.2344C139.449 26.4453 139.628 26.6182 139.868 26.7529C140.114 26.8877 140.422 26.9551 140.791 26.9551H143.586V28.502H140.791C140.205 28.502 139.681 28.4287 139.218 28.2822C138.755 28.1299 138.362 27.9219 138.04 27.6582C137.718 27.3887 137.472 27.0752 137.302 26.7178C137.132 26.3545 137.047 25.959 137.047 25.5312C137.047 25.0918 137.135 24.6875 137.311 24.3184C137.487 23.9492 137.738 23.627 138.067 23.3516C138.401 23.0762 138.805 22.8652 139.279 22.7188C139.76 22.5664 140.302 22.4902 140.905 22.4902ZM154.064 28.9062L157.799 22.4902H159.917V32H157.799V25.5752L154.064 32H151.946V22.4902H154.064V28.9062ZM173.076 22.4902V24.1777H168.383V22.4902H173.076ZM168.884 22.4902V32H166.765V22.4902H168.884ZM174.737 22.4902V32H172.61V22.4902H174.737ZM176.601 27.3506V27.1484C176.601 26.4629 176.701 25.8271 176.9 25.2412C177.099 24.6494 177.386 24.1367 177.761 23.7031C178.142 23.2637 178.605 22.9238 179.15 22.6836C179.701 22.4375 180.322 22.3145 181.013 22.3145C181.71 22.3145 182.331 22.4375 182.876 22.6836C183.427 22.9238 183.893 23.2637 184.274 23.7031C184.655 24.1367 184.945 24.6494 185.144 25.2412C185.343 25.8271 185.443 26.4629 185.443 27.1484V27.3506C185.443 28.0361 185.343 28.6719 185.144 29.2578C184.945 29.8438 184.655 30.3564 184.274 30.7959C183.893 31.2295 183.43 31.5693 182.885 31.8154C182.34 32.0557 181.722 32.1758 181.031 32.1758C180.333 32.1758 179.709 32.0557 179.159 31.8154C178.614 31.5693 178.151 31.2295 177.77 30.7959C177.389 30.3564 177.099 29.8438 176.9 29.2578C176.701 28.6719 176.601 28.0361 176.601 27.3506ZM178.719 27.1484V27.3506C178.719 27.7783 178.763 28.1826 178.851 28.5635C178.939 28.9443 179.077 29.2783 179.264 29.5654C179.452 29.8525 179.692 30.0781 179.985 30.2422C180.278 30.4062 180.626 30.4883 181.031 30.4883C181.423 30.4883 181.763 30.4062 182.05 30.2422C182.343 30.0781 182.583 29.8525 182.771 29.5654C182.958 29.2783 183.096 28.9443 183.184 28.5635C183.278 28.1826 183.325 27.7783 183.325 27.3506V27.1484C183.325 26.7266 183.278 26.3281 183.184 25.9531C183.096 25.5723 182.955 25.2354 182.762 24.9424C182.575 24.6494 182.334 24.4209 182.041 24.2568C181.754 24.0869 181.412 24.002 181.013 24.002C180.615 24.002 180.269 24.0869 179.976 24.2568C179.689 24.4209 179.452 24.6494 179.264 24.9424C179.077 25.2354 178.939 25.5723 178.851 25.9531C178.763 26.3281 178.719 26.7266 178.719 27.1484ZM192.897 29.4336L195.727 22.4902H197.564L193.617 32H192.176L188.238 22.4902H190.075L192.897 29.4336ZM189.53 22.4902V32H187.412V22.4902H189.53ZM196.263 32V22.4902H198.39V32H196.263ZM200.385 27.3506V27.1484C200.385 26.4629 200.485 25.8271 200.684 25.2412C200.884 24.6494 201.171 24.1367 201.546 23.7031C201.926 23.2637 202.389 22.9238 202.934 22.6836C203.485 22.4375 204.106 22.3145 204.798 22.3145C205.495 22.3145 206.116 22.4375 206.661 22.6836C207.212 22.9238 207.677 23.2637 208.058 23.7031C208.439 24.1367 208.729 24.6494 208.928 25.2412C209.128 25.8271 209.227 26.4629 209.227 27.1484V27.3506C209.227 28.0361 209.128 28.6719 208.928 29.2578C208.729 29.8438 208.439 30.3564 208.058 30.7959C207.677 31.2295 207.215 31.5693 206.67 31.8154C206.125 32.0557 205.507 32.1758 204.815 32.1758C204.118 32.1758 203.494 32.0557 202.943 31.8154C202.398 31.5693 201.935 31.2295 201.554 30.7959C201.174 30.3564 200.884 29.8438 200.684 29.2578C200.485 28.6719 200.385 28.0361 200.385 27.3506ZM202.504 27.1484V27.3506C202.504 27.7783 202.548 28.1826 202.635 28.5635C202.723 28.9443 202.861 29.2783 203.049 29.5654C203.236 29.8525 203.476 30.0781 203.769 30.2422C204.062 30.4062 204.411 30.4883 204.815 30.4883C205.208 30.4883 205.548 30.4062 205.835 30.2422C206.128 30.0781 206.368 29.8525 206.555 29.5654C206.743 29.2783 206.881 28.9443 206.968 28.5635C207.062 28.1826 207.109 27.7783 207.109 27.3506V27.1484C207.109 26.7266 207.062 26.3281 206.968 25.9531C206.881 25.5723 206.74 25.2354 206.547 24.9424C206.359 24.6494 206.119 24.4209 205.826 24.2568C205.539 24.0869 205.196 24.002 204.798 24.002C204.399 24.002 204.053 24.0869 203.76 24.2568C203.473 24.4209 203.236 24.6494 203.049 24.9424C202.861 25.2354 202.723 25.5723 202.635 25.9531C202.548 26.3281 202.504 26.7266 202.504 27.1484ZM225.083 30.3213L224.916 34.8213H222.974V32H221.831V30.3213H225.083ZM211.038 22.4902H213.157V30.3125H216.18V22.4902H218.307V30.3125H221.322V22.4902H223.44V32H211.038V22.4902ZM228.169 25.5137H230.973C231.793 25.5137 232.49 25.6514 233.064 25.9268C233.639 26.2021 234.075 26.5859 234.374 27.0781C234.679 27.5645 234.831 28.1211 234.831 28.748C234.831 29.2109 234.746 29.6416 234.576 30.04C234.406 30.4326 234.154 30.7754 233.82 31.0684C233.492 31.3613 233.088 31.5898 232.607 31.7539C232.133 31.918 231.588 32 230.973 32H226.763V22.4902H228.89V30.3213H230.973C231.395 30.3213 231.731 30.248 231.983 30.1016C232.235 29.9551 232.417 29.7646 232.528 29.5303C232.646 29.2959 232.704 29.0469 232.704 28.7832C232.704 28.5137 232.646 28.2588 232.528 28.0186C232.417 27.7783 232.235 27.582 231.983 27.4297C231.731 27.2773 231.395 27.2012 230.973 27.2012H228.169V25.5137Z" fill="#0066B3"/>
<path d="M320.295 28.2805C319.902 28.6739 319.902 29.3116 320.295 29.705C320.689 30.0983 321.328 30.0983 321.722 29.705L326.713 24.7195C327.107 24.3261 327.107 23.6884 326.713 23.295C326.319 22.9017 325.681 22.9017 325.287 23.295L320.295 28.2805Z" fill="#1D1D1D"/>
<path d="M330.278 29.7048C330.672 30.0982 331.311 30.0982 331.705 29.7048C332.098 29.3115 332.098 28.6737 331.705 28.2804L326.713 23.295C326.319 22.9017 325.681 22.9017 325.287 23.295C324.893 23.6884 324.893 24.326 325.287 24.7193L330.278 29.7048Z" fill="#1D1D1D"/>
<g filter="url(#filter1_d_6_4957)">
<g clip-path="url(#clip1_6_4957)">
<rect opacity="0.8" x="14" y="48" width="104" height="72" rx="12" fill="url(#paint0_linear_6_4957)"/>
<path d="M22.4189 95.1587V95.0352C22.4189 94.6162 22.4798 94.2277 22.6016 93.8696C22.7233 93.508 22.8988 93.1947 23.1279 92.9297C23.3607 92.6611 23.6436 92.4535 23.9766 92.3066C24.3132 92.1562 24.6927 92.0811 25.1152 92.0811C25.5413 92.0811 25.9209 92.1562 26.2539 92.3066C26.5905 92.4535 26.8752 92.6611 27.1079 92.9297C27.3407 93.1947 27.5179 93.508 27.6396 93.8696C27.7614 94.2277 27.8223 94.6162 27.8223 95.0352V95.1587C27.8223 95.5776 27.7614 95.9661 27.6396 96.3242C27.5179 96.6823 27.3407 96.9956 27.1079 97.2642C26.8752 97.5291 26.5923 97.7368 26.2593 97.8872C25.9263 98.034 25.5485 98.1074 25.126 98.1074C24.6999 98.1074 24.3185 98.034 23.9819 97.8872C23.6489 97.7368 23.366 97.5291 23.1333 97.2642C22.9006 96.9956 22.7233 96.6823 22.6016 96.3242C22.4798 95.9661 22.4189 95.5776 22.4189 95.1587ZM23.7134 95.0352V95.1587C23.7134 95.4201 23.7402 95.6672 23.7939 95.8999C23.8477 96.1326 23.9318 96.3368 24.0464 96.5122C24.161 96.6877 24.3078 96.8255 24.4868 96.9258C24.6659 97.026 24.8789 97.0762 25.126 97.0762C25.3659 97.0762 25.5736 97.026 25.749 96.9258C25.9281 96.8255 26.0749 96.6877 26.1895 96.5122C26.304 96.3368 26.3882 96.1326 26.4419 95.8999C26.4992 95.6672 26.5278 95.4201 26.5278 95.1587V95.0352C26.5278 94.7773 26.4992 94.5339 26.4419 94.3047C26.3882 94.0719 26.3022 93.866 26.1841 93.687C26.0695 93.508 25.9227 93.3683 25.7437 93.2681C25.5682 93.1642 25.3587 93.1123 25.1152 93.1123C24.8717 93.1123 24.6605 93.1642 24.4814 93.2681C24.306 93.3683 24.161 93.508 24.0464 93.687C23.9318 93.866 23.8477 94.0719 23.7939 94.3047C23.7402 94.5339 23.7134 94.7773 23.7134 95.0352ZM32.5982 89.6426H33.6456C33.6456 89.9613 33.6008 90.2244 33.5113 90.4321C33.4253 90.6362 33.2964 90.8045 33.1246 90.937C32.9563 91.0659 32.7468 91.1698 32.4961 91.2485C32.2491 91.3273 31.9626 91.3989 31.6368 91.4634C31.336 91.5278 31.0639 91.6299 30.8204 91.7695C30.5805 91.9056 30.3781 92.0972 30.2134 92.3442C30.0523 92.5877 29.9359 92.901 29.8643 93.2842C29.7927 93.6673 29.7712 94.1346 29.7999 94.686V95.0513L28.774 95.1426V94.7773C28.774 94.0934 28.8366 93.4972 28.962 92.9888C29.0873 92.4803 29.2645 92.0524 29.4937 91.7051C29.7265 91.3542 30.0022 91.0749 30.3209 90.8672C30.6431 90.6595 31.0012 90.5163 31.3951 90.4375C31.6636 90.3802 31.8874 90.3229 32.0665 90.2656C32.2455 90.2048 32.378 90.1278 32.4639 90.0347C32.5534 89.938 32.5982 89.8073 32.5982 89.6426ZM31.6905 92.5161C32.0772 92.5161 32.421 92.5841 32.7217 92.7202C33.0225 92.8527 33.2767 93.0389 33.4844 93.2788C33.6921 93.5187 33.8497 93.8016 33.9571 94.1274C34.0681 94.4533 34.1236 94.8078 34.1236 95.1909V95.3091C34.1236 95.7101 34.0645 96.0807 33.9463 96.4209C33.8282 96.7611 33.6545 97.0583 33.4253 97.3125C33.1962 97.5632 32.9151 97.7601 32.5821 97.9033C32.2527 98.043 31.8749 98.1128 31.4488 98.1128C31.0263 98.1128 30.6485 98.0394 30.3155 97.8926C29.9825 97.7458 29.7014 97.5417 29.4722 97.2803C29.2431 97.0153 29.0694 96.7056 28.9512 96.3511C28.8331 95.9966 28.774 95.6099 28.774 95.1909V95.0728C28.7704 94.9976 28.7901 94.9242 28.8331 94.8525C28.8796 94.7809 28.9351 94.7039 28.9996 94.6216C29.064 94.5392 29.1213 94.4443 29.1714 94.3369C29.3505 93.9753 29.5617 93.6584 29.8052 93.3862C30.0487 93.1141 30.3262 92.901 30.6378 92.7471C30.9529 92.5931 31.3038 92.5161 31.6905 92.5161ZM31.438 93.542C31.1158 93.542 30.8526 93.619 30.6485 93.7729C30.448 93.9233 30.2994 94.1239 30.2027 94.3745C30.1096 94.6252 30.063 94.8973 30.063 95.1909V95.3091C30.063 95.549 30.0899 95.7764 30.1436 95.9912C30.1973 96.2061 30.2779 96.3958 30.3853 96.5605C30.4963 96.7217 30.6395 96.8488 30.815 96.9419C30.994 97.035 31.2053 97.0815 31.4488 97.0815C31.6959 97.0815 31.9053 97.035 32.0772 96.9419C32.2527 96.8488 32.3941 96.7217 32.5015 96.5605C32.6125 96.3958 32.6931 96.2061 32.7432 95.9912C32.7969 95.7764 32.8238 95.549 32.8238 95.3091V95.1909C32.8238 94.9689 32.7969 94.7594 32.7432 94.5625C32.6931 94.3656 32.6125 94.1919 32.5015 94.0415C32.3905 93.8875 32.2473 93.7658 32.0718 93.6763C31.8964 93.5868 31.6851 93.542 31.438 93.542ZM36.3859 93.3057V100.234H35.0914V92.1885H36.2838L36.3859 93.3057ZM40.1725 95.0405V95.1533C40.1725 95.5758 40.1223 95.9679 40.0221 96.3296C39.9254 96.6877 39.7804 97.001 39.587 97.2695C39.3972 97.5345 39.1627 97.7404 38.8834 97.8872C38.6041 98.034 38.2818 98.1074 37.9166 98.1074C37.555 98.1074 37.2381 98.0412 36.9659 97.9087C36.6974 97.7726 36.47 97.5811 36.2838 97.334C36.0976 97.0869 35.9472 96.7969 35.8326 96.4639C35.7216 96.1273 35.6429 95.7585 35.5963 95.3574V94.9224C35.6429 94.4963 35.7216 94.1095 35.8326 93.7622C35.9472 93.4149 36.0976 93.1159 36.2838 92.8652C36.47 92.6146 36.6974 92.4212 36.9659 92.2852C37.2345 92.1491 37.5478 92.0811 37.9059 92.0811C38.2711 92.0811 38.5952 92.1527 38.878 92.2959C39.1609 92.4355 39.399 92.6361 39.5924 92.8975C39.7858 93.1553 39.9308 93.4668 40.0275 93.832C40.1241 94.1937 40.1725 94.5965 40.1725 95.0405ZM38.878 95.1533V95.0405C38.878 94.772 38.853 94.5231 38.8028 94.2939C38.7527 94.0612 38.6739 93.8571 38.5665 93.6816C38.4591 93.5062 38.3212 93.3701 38.1529 93.2734C37.9882 93.1732 37.7895 93.123 37.5568 93.123C37.3276 93.123 37.1306 93.1624 36.9659 93.2412C36.8012 93.3164 36.6634 93.422 36.5524 93.5581C36.4414 93.6942 36.3554 93.8535 36.2945 94.0361C36.2337 94.2152 36.1907 94.4103 36.1656 94.6216V95.6636C36.2086 95.9214 36.282 96.1577 36.3859 96.3726C36.4897 96.5874 36.6365 96.7593 36.8263 96.8882C37.0196 97.0135 37.2667 97.0762 37.5675 97.0762C37.8002 97.0762 37.999 97.026 38.1637 96.9258C38.3284 96.8255 38.4627 96.6877 38.5665 96.5122C38.6739 96.3332 38.7527 96.1273 38.8028 95.8945C38.853 95.6618 38.878 95.4147 38.878 95.1533ZM44.5939 96.8345V94.063C44.5939 93.8553 44.5563 93.6763 44.4811 93.5259C44.4059 93.3755 44.2913 93.2591 44.1374 93.1768C43.987 93.0944 43.7972 93.0532 43.568 93.0532C43.3568 93.0532 43.1742 93.089 43.0202 93.1606C42.8662 93.2323 42.7463 93.3289 42.6603 93.4507C42.5744 93.5724 42.5314 93.7103 42.5314 93.8643H41.2424C41.2424 93.6351 41.2979 93.4131 41.4089 93.1982C41.5199 92.9834 41.681 92.7918 41.8923 92.6235C42.1035 92.4552 42.356 92.3228 42.6496 92.2261C42.9432 92.1294 43.2726 92.0811 43.6379 92.0811C44.0747 92.0811 44.4614 92.1545 44.798 92.3013C45.1382 92.4481 45.4049 92.6701 45.5983 92.9673C45.7952 93.2609 45.8937 93.6297 45.8937 94.0737V96.6572C45.8937 96.9222 45.9116 97.1603 45.9474 97.3716C45.9868 97.5793 46.0423 97.7601 46.1139 97.9141V98H44.7873C44.7264 97.8604 44.6781 97.6831 44.6423 97.4683C44.61 97.2498 44.5939 97.0386 44.5939 96.8345ZM44.7819 94.4658L44.7926 95.2661H43.8634C43.6235 95.2661 43.4123 95.2894 43.2297 95.3359C43.047 95.3789 42.8949 95.4434 42.7731 95.5293C42.6514 95.6152 42.5601 95.7191 42.4992 95.8408C42.4383 95.9626 42.4079 96.1004 42.4079 96.2544C42.4079 96.4084 42.4437 96.5498 42.5153 96.6787C42.5869 96.804 42.6908 96.9025 42.8268 96.9741C42.9665 97.0457 43.1348 97.0815 43.3317 97.0815C43.5967 97.0815 43.8276 97.0278 44.0246 96.9204C44.2251 96.8094 44.3827 96.6751 44.4972 96.5176C44.6118 96.3564 44.6727 96.2043 44.6799 96.061L45.0988 96.6357C45.0558 96.7826 44.9824 96.9401 44.8786 97.1084C44.7747 97.2767 44.6387 97.4378 44.4704 97.5918C44.3057 97.7422 44.1069 97.8657 43.8742 97.9624C43.645 98.0591 43.38 98.1074 43.0793 98.1074C42.6997 98.1074 42.3613 98.0322 42.0641 97.8818C41.7669 97.7279 41.5342 97.522 41.3659 97.2642C41.1976 97.0028 41.1134 96.7074 41.1134 96.3779C41.1134 96.07 41.1707 95.7979 41.2853 95.5615C41.4035 95.3216 41.5754 95.1211 41.8009 94.96C42.0301 94.7988 42.3094 94.6771 42.6388 94.5947C42.9683 94.5088 43.3442 94.4658 43.7668 94.4658H44.7819ZM49.9016 92.1885V98H48.6018V92.1885H49.9016ZM51.8083 92.1885V93.209H46.7273V92.1885H51.8083ZM56.6863 94.6162V95.6367H53.6785V94.6162H56.6863ZM54.0545 92.1885V98H52.76V92.1885H54.0545ZM57.6209 92.1885V98H56.3264V92.1885H57.6209ZM62.3216 96.8345V94.063C62.3216 93.8553 62.284 93.6763 62.2088 93.5259C62.1336 93.3755 62.019 93.2591 61.8651 93.1768C61.7147 93.0944 61.5249 93.0532 61.2957 93.0532C61.0845 93.0532 60.9019 93.089 60.7479 93.1606C60.5939 93.2323 60.474 93.3289 60.388 93.4507C60.3021 93.5724 60.2591 93.7103 60.2591 93.8643H58.9701C58.9701 93.6351 59.0256 93.4131 59.1366 93.1982C59.2476 92.9834 59.4087 92.7918 59.62 92.6235C59.8312 92.4552 60.0837 92.3228 60.3773 92.2261C60.6709 92.1294 61.0003 92.0811 61.3656 92.0811C61.8024 92.0811 62.1891 92.1545 62.5257 92.3013C62.8659 92.4481 63.1327 92.6701 63.326 92.9673C63.523 93.2609 63.6214 93.6297 63.6214 94.0737V96.6572C63.6214 96.9222 63.6393 97.1603 63.6751 97.3716C63.7145 97.5793 63.77 97.7601 63.8416 97.9141V98H62.515C62.4541 97.8604 62.4058 97.6831 62.37 97.4683C62.3377 97.2498 62.3216 97.0386 62.3216 96.8345ZM62.5096 94.4658L62.5203 95.2661H61.5911C61.3512 95.2661 61.14 95.2894 60.9574 95.3359C60.7747 95.3789 60.6226 95.4434 60.5008 95.5293C60.3791 95.6152 60.2878 95.7191 60.2269 95.8408C60.166 95.9626 60.1356 96.1004 60.1356 96.2544C60.1356 96.4084 60.1714 96.5498 60.243 96.6787C60.3146 96.804 60.4185 96.9025 60.5545 96.9741C60.6942 97.0457 60.8625 97.0815 61.0594 97.0815C61.3244 97.0815 61.5553 97.0278 61.7523 96.9204C61.9528 96.8094 62.1104 96.6751 62.2249 96.5176C62.3395 96.3564 62.4004 96.2043 62.4076 96.061L62.8265 96.6357C62.7835 96.7826 62.7101 96.9401 62.6063 97.1084C62.5024 97.2767 62.3664 97.4378 62.1981 97.5918C62.0334 97.7422 61.8346 97.8657 61.6019 97.9624C61.3727 98.0591 61.1077 98.1074 60.807 98.1074C60.4274 98.1074 60.089 98.0322 59.7918 97.8818C59.4946 97.7279 59.2619 97.522 59.0936 97.2642C58.9253 97.0028 58.8411 96.7074 58.8411 96.3779C58.8411 96.07 58.8984 95.7979 59.013 95.5615C59.1312 95.3216 59.3031 95.1211 59.5286 94.96C59.7578 94.7988 60.0371 94.6771 60.3665 94.5947C60.696 94.5088 61.0719 94.4658 61.4945 94.4658H62.5096ZM66.2435 95.1587H67.5863L65.9374 98H64.6L66.2435 95.1587ZM67.1889 92.1885H69.681V98H68.392V93.209H67.1889C66.9454 93.209 66.7448 93.252 66.5873 93.3379C66.4297 93.4202 66.3134 93.5295 66.2382 93.6655C66.163 93.798 66.1254 93.9341 66.1254 94.0737C66.1254 94.2134 66.1594 94.3477 66.2274 94.4766C66.299 94.6055 66.4083 94.7111 66.5551 94.7935C66.7055 94.8758 66.8934 94.917 67.119 94.917H68.827V95.8623H67.119C66.761 95.8623 66.4405 95.8175 66.1576 95.728C65.8747 95.6349 65.6348 95.5078 65.4379 95.3467C65.2409 95.182 65.0906 94.9904 64.9867 94.772C64.8829 94.55 64.8309 94.3083 64.8309 94.0469C64.8309 93.7783 64.8847 93.5312 64.9921 93.3057C65.0995 93.0801 65.2535 92.8831 65.454 92.7148C65.6581 92.5465 65.9052 92.4176 66.1952 92.3281C66.4888 92.235 66.82 92.1885 67.1889 92.1885ZM76.3218 97.0762C76.533 97.0762 76.7228 97.035 76.8911 96.9526C77.063 96.8667 77.2009 96.7485 77.3047 96.5981C77.4121 96.4478 77.4712 96.2741 77.4819 96.0771H78.7012C78.694 96.4531 78.583 96.7951 78.3682 97.103C78.1533 97.411 77.8687 97.6562 77.5142 97.8389C77.1597 98.0179 76.7676 98.1074 76.3379 98.1074C75.8939 98.1074 75.5072 98.0322 75.1777 97.8818C74.8483 97.7279 74.5744 97.5166 74.356 97.248C74.1375 96.9795 73.9728 96.6698 73.8618 96.3188C73.7544 95.9679 73.7007 95.592 73.7007 95.1909V95.0029C73.7007 94.6019 73.7544 94.2259 73.8618 93.875C73.9728 93.5205 74.1375 93.209 74.356 92.9404C74.5744 92.6719 74.8483 92.4624 75.1777 92.312C75.5072 92.158 75.8921 92.0811 76.3325 92.0811C76.798 92.0811 77.2062 92.1742 77.5571 92.3604C77.908 92.543 78.1838 92.799 78.3843 93.1284C78.5884 93.4543 78.694 93.8338 78.7012 94.2671H77.4819C77.4712 94.0522 77.4175 93.8589 77.3208 93.687C77.2277 93.5116 77.0952 93.3719 76.9233 93.2681C76.755 93.1642 76.5527 93.1123 76.3164 93.1123C76.055 93.1123 75.8384 93.166 75.6665 93.2734C75.4946 93.3773 75.3604 93.5205 75.2637 93.7031C75.167 93.8822 75.0972 94.0845 75.0542 94.3101C75.0148 94.5321 74.9951 94.763 74.9951 95.0029V95.1909C74.9951 95.4308 75.0148 95.6636 75.0542 95.8892C75.0936 96.1147 75.1616 96.3171 75.2583 96.4961C75.3586 96.6715 75.4946 96.813 75.6665 96.9204C75.8384 97.0243 76.0568 97.0762 76.3218 97.0762ZM82.564 95.5132H80.7056L80.6949 94.6001H82.2203C82.4709 94.6001 82.6768 94.575 82.8379 94.5249C83.0027 94.4748 83.1244 94.3996 83.2032 94.2993C83.282 94.1955 83.3213 94.0701 83.3213 93.9233C83.3213 93.8016 83.2981 93.696 83.2515 93.6064C83.205 93.5133 83.1334 93.4382 83.0367 93.3809C82.9436 93.32 82.8254 93.277 82.6822 93.252C82.5425 93.2233 82.3796 93.209 82.1934 93.209H81.1353V98H79.8409V92.1885H82.1934C82.5658 92.1885 82.9006 92.2207 83.1978 92.2852C83.4986 92.3496 83.7546 92.4481 83.9659 92.5806C84.1771 92.7131 84.3383 92.8813 84.4493 93.0854C84.5639 93.286 84.6212 93.5223 84.6212 93.7944C84.6212 93.9735 84.5818 94.1418 84.503 94.2993C84.4278 94.4569 84.315 94.5965 84.1646 94.7183C84.0142 94.84 83.8298 94.9403 83.6114 95.019C83.393 95.0942 83.1423 95.1408 82.8594 95.1587L82.564 95.5132ZM82.564 98H80.3296L80.8453 96.9795H82.564C82.7932 96.9795 82.983 96.9508 83.1334 96.8936C83.2837 96.8363 83.3948 96.7539 83.4664 96.6465C83.5416 96.5355 83.5792 96.4048 83.5792 96.2544C83.5792 96.1004 83.5434 95.9679 83.4717 95.8569C83.4001 95.7459 83.2891 95.6618 83.1387 95.6045C82.9919 95.5436 82.8004 95.5132 82.564 95.5132H81.087L81.0977 94.6001H82.8541L83.2247 94.9546C83.5935 94.9797 83.8996 95.0584 84.1431 95.1909C84.3866 95.3234 84.5692 95.4899 84.691 95.6904C84.8127 95.891 84.8736 96.1094 84.8736 96.3457C84.8736 96.6178 84.8217 96.8577 84.7178 97.0654C84.6176 97.2731 84.4672 97.4468 84.2667 97.5864C84.0697 97.7225 83.828 97.8263 83.5416 97.8979C83.2551 97.966 82.9293 98 82.564 98ZM87.2594 95.1587H88.6022L86.9532 98H85.6158L87.2594 95.1587ZM88.2047 92.1885H90.6969V98H89.4078V93.209H88.2047C87.9612 93.209 87.7607 93.252 87.6031 93.3379C87.4456 93.4202 87.3292 93.5295 87.254 93.6655C87.1788 93.798 87.1412 93.9341 87.1412 94.0737C87.1412 94.2134 87.1752 94.3477 87.2433 94.4766C87.3149 94.6055 87.4241 94.7111 87.5709 94.7935C87.7213 94.8758 87.9093 94.917 88.1349 94.917H89.8429V95.8623H88.1349C87.7768 95.8623 87.4563 95.8175 87.1735 95.728C86.8906 95.6349 86.6507 95.5078 86.4537 95.3467C86.2568 95.182 86.1064 94.9904 86.0026 94.772C85.8987 94.55 85.8468 94.3083 85.8468 94.0469C85.8468 93.7783 85.9005 93.5312 86.0079 93.3057C86.1153 93.0801 86.2693 92.8831 86.4698 92.7148C86.6739 92.5465 86.921 92.4176 87.2111 92.3281C87.5047 92.235 87.8359 92.1885 88.2047 92.1885ZM94.5866 95.2231H93.4694V94.5679H94.3717C94.6009 94.5679 94.7835 94.5374 94.9196 94.4766C95.0592 94.4157 95.1577 94.3315 95.215 94.2241C95.2759 94.1131 95.3063 93.9842 95.3063 93.8374C95.3063 93.7085 95.2759 93.5868 95.215 93.4722C95.1577 93.354 95.0592 93.2573 94.9196 93.1821C94.78 93.1069 94.5902 93.0693 94.3503 93.0693C94.1533 93.0693 93.9761 93.1016 93.8185 93.166C93.6646 93.2305 93.5428 93.32 93.4533 93.4346C93.3638 93.5492 93.319 93.6816 93.319 93.832H92.0246C92.0246 93.4704 92.1266 93.1589 92.3307 92.8975C92.5384 92.6361 92.8159 92.4355 93.1633 92.2959C93.5106 92.1562 93.8919 92.0864 94.3073 92.0864C94.6618 92.0864 94.9805 92.124 95.2634 92.1992C95.5462 92.2708 95.7861 92.3783 95.9831 92.5215C96.1836 92.6611 96.3358 92.8366 96.4396 93.0479C96.547 93.2555 96.6008 93.4972 96.6008 93.7729C96.6008 93.9699 96.5542 94.1561 96.4611 94.3315C96.368 94.507 96.2337 94.6628 96.0583 94.7988C95.8828 94.9313 95.6698 95.0352 95.4191 95.1104C95.172 95.1855 94.8945 95.2231 94.5866 95.2231ZM93.4694 94.8472H94.5866C94.9303 94.8472 95.2347 94.8812 95.4997 94.9492C95.7647 95.0137 95.9867 95.1104 96.1657 95.2393C96.3447 95.3682 96.479 95.5275 96.5685 95.7173C96.6616 95.9035 96.7082 96.1183 96.7082 96.3618C96.7082 96.634 96.6491 96.8792 96.5309 97.0977C96.4163 97.3125 96.2516 97.4951 96.0368 97.6455C95.8255 97.7959 95.5731 97.9105 95.2795 97.9893C94.9858 98.068 94.6618 98.1074 94.3073 98.1074C93.9206 98.1074 93.5446 98.043 93.1794 97.9141C92.8177 97.7852 92.5187 97.5864 92.2824 97.3179C92.0496 97.0457 91.9333 96.7002 91.9333 96.2812H93.2277C93.2277 96.4281 93.2725 96.5659 93.362 96.6948C93.4515 96.8237 93.5804 96.9294 93.7487 97.0117C93.917 97.0905 94.1193 97.1299 94.3556 97.1299C94.5991 97.1299 94.7979 97.0923 94.9518 97.0171C95.1058 96.9383 95.2204 96.8363 95.2956 96.7109C95.3708 96.582 95.4084 96.446 95.4084 96.3027C95.4084 96.1094 95.3708 95.9536 95.2956 95.8354C95.2204 95.7173 95.1058 95.6313 94.9518 95.5776C94.7979 95.5203 94.6045 95.4917 94.3717 95.4917H93.4694V94.8472ZM98.8147 94.0361H100.528C101.029 94.0361 101.455 94.1203 101.806 94.2886C102.157 94.4569 102.424 94.6914 102.607 94.9922C102.793 95.2894 102.886 95.6296 102.886 96.0127C102.886 96.2956 102.834 96.5588 102.73 96.8022C102.626 97.0422 102.472 97.2516 102.268 97.4307C102.068 97.6097 101.821 97.7493 101.527 97.8496C101.237 97.9499 100.904 98 100.528 98H97.9553V92.1885H99.2551V96.9741H100.528C100.786 96.9741 100.992 96.9294 101.146 96.8398C101.3 96.7503 101.411 96.634 101.479 96.4907C101.55 96.3475 101.586 96.1953 101.586 96.0342C101.586 95.8695 101.55 95.7137 101.479 95.5669C101.411 95.4201 101.3 95.3001 101.146 95.207C100.992 95.1139 100.786 95.0674 100.528 95.0674H98.8147V94.0361Z" fill="white"/>
<path fill-rule="evenodd" clip-rule="evenodd" d="M34 59C29.0294 59 25 63.0294 25 68C25 72.9706 29.0294 77 34 77C38.9706 77 43 72.9706 43 68C43 63.0294 38.9706 59 34 59ZM23 68C23 61.9249 27.9249 57 34 57C40.0751 57 45 61.9249 45 68C45 74.0751 40.0751 79 34 79C27.9249 79 23 74.0751 23 68Z" fill="white"/>
<path d="M34.2582 64.0244C33.7927 63.9446 33.314 64.032 32.9068 64.2713C32.4996 64.5107 32.1902 64.8864 32.0335 65.3319C31.8502 65.8529 31.2793 66.1267 30.7583 65.9434C30.2373 65.7601 29.9635 65.1892 30.1468 64.6682C30.4603 63.7771 31.079 63.0257 31.8934 62.5471C32.7078 62.0685 33.6653 61.8935 34.5964 62.0532C35.5274 62.2129 36.3719 62.6969 36.9802 63.4196C37.5884 64.1421 37.9214 65.0566 37.9201 66.001C37.9197 67.5314 36.7851 68.542 35.9748 69.0821C35.5392 69.3726 35.1107 69.5861 34.795 69.7264C34.6358 69.7972 34.5016 69.8509 34.405 69.8877L34.2363 69.9488C33.7124 70.1234 33.1461 69.8403 32.9714 69.3163C32.7969 68.7927 33.0796 68.2268 33.6028 68.0517L33.6188 68.0461C33.6342 68.0407 33.6594 68.0315 33.693 68.0187C33.7605 67.993 33.8607 67.953 33.9827 67.8988C34.2296 67.7891 34.551 67.6276 34.8654 67.418C35.555 66.9583 35.9201 66.4692 35.9201 66.0001L35.9201 65.9986C35.9208 65.5263 35.7543 65.0689 35.4502 64.7076C35.146 64.3463 34.7238 64.1043 34.2582 64.0244Z" fill="white"/>
<circle cx="34" cy="73" r="1" fill="white"/>
</g>
</g>
<g filter="url(#filter2_d_6_4957)">
<g clip-path="url(#clip2_6_4957)">
<rect opacity="0.8" x="124" y="48" width="104" height="72" rx="12" fill="url(#paint1_linear_6_4957)"/>
<path d="M136.635 94.6162V95.6367H133.627V94.6162H136.635ZM134.003 92.1885V98H132.709V92.1885H134.003ZM137.57 92.1885V98H136.275V92.1885H137.57ZM142.271 96.8345V94.063C142.271 93.8553 142.233 93.6763 142.158 93.5259C142.083 93.3755 141.968 93.2591 141.814 93.1768C141.664 93.0944 141.474 93.0532 141.245 93.0532C141.033 93.0532 140.851 93.089 140.697 93.1606C140.543 93.2323 140.423 93.3289 140.337 93.4507C140.251 93.5724 140.208 93.7103 140.208 93.8643H138.919C138.919 93.6351 138.975 93.4131 139.086 93.1982C139.197 92.9834 139.358 92.7918 139.569 92.6235C139.78 92.4552 140.033 92.3228 140.326 92.2261C140.62 92.1294 140.949 92.0811 141.315 92.0811C141.751 92.0811 142.138 92.1545 142.475 92.3013C142.815 92.4481 143.082 92.6701 143.275 92.9673C143.472 93.2609 143.57 93.6297 143.57 94.0737V96.6572C143.57 96.9222 143.588 97.1603 143.624 97.3716C143.663 97.5793 143.719 97.7601 143.791 97.9141V98H142.464C142.403 97.8604 142.355 97.6831 142.319 97.4683C142.287 97.2498 142.271 97.0386 142.271 96.8345ZM142.459 94.4658L142.469 95.2661H141.54C141.3 95.2661 141.089 95.2894 140.906 95.3359C140.724 95.3789 140.572 95.4434 140.45 95.5293C140.328 95.6152 140.237 95.7191 140.176 95.8408C140.115 95.9626 140.085 96.1004 140.085 96.2544C140.085 96.4084 140.12 96.5498 140.192 96.6787C140.264 96.804 140.367 96.9025 140.503 96.9741C140.643 97.0457 140.811 97.0815 141.008 97.0815C141.273 97.0815 141.504 97.0278 141.701 96.9204C141.902 96.8094 142.059 96.6751 142.174 96.5176C142.288 96.3564 142.349 96.2043 142.357 96.061L142.775 96.6357C142.732 96.7826 142.659 96.9401 142.555 97.1084C142.451 97.2767 142.315 97.4378 142.147 97.5918C141.982 97.7422 141.784 97.8657 141.551 97.9624C141.322 98.0591 141.057 98.1074 140.756 98.1074C140.376 98.1074 140.038 98.0322 139.741 97.8818C139.444 97.7279 139.211 97.522 139.043 97.2642C138.874 97.0028 138.79 96.7074 138.79 96.3779C138.79 96.07 138.847 95.7979 138.962 95.5615C139.08 95.3216 139.252 95.1211 139.478 94.96C139.707 94.7988 139.986 94.6771 140.315 94.5947C140.645 94.5088 141.021 94.4658 141.443 94.4658H142.459ZM146.364 92.1885V98H145.07V92.1885H146.364ZM150.156 92.1885L147.541 95.6851H146.064L145.892 94.5142H146.971L148.54 92.1885H150.156ZM148.642 98L146.891 95.4648L147.911 94.729L150.344 98H148.642ZM154.368 96.8345V94.063C154.368 93.8553 154.331 93.6763 154.256 93.5259C154.18 93.3755 154.066 93.2591 153.912 93.1768C153.761 93.0944 153.572 93.0532 153.342 93.0532C153.131 93.0532 152.949 93.089 152.795 93.1606C152.641 93.2323 152.521 93.3289 152.435 93.4507C152.349 93.5724 152.306 93.7103 152.306 93.8643H151.017C151.017 93.6351 151.072 93.4131 151.183 93.1982C151.294 92.9834 151.455 92.7918 151.667 92.6235C151.878 92.4552 152.13 92.3228 152.424 92.2261C152.718 92.1294 153.047 92.0811 153.412 92.0811C153.849 92.0811 154.236 92.1545 154.572 92.3013C154.913 92.4481 155.179 92.6701 155.373 92.9673C155.57 93.2609 155.668 93.6297 155.668 94.0737V96.6572C155.668 96.9222 155.686 97.1603 155.722 97.3716C155.761 97.5793 155.817 97.7601 155.888 97.9141V98H154.562C154.501 97.8604 154.452 97.6831 154.417 97.4683C154.384 97.2498 154.368 97.0386 154.368 96.8345ZM154.556 94.4658L154.567 95.2661H153.638C153.398 95.2661 153.187 95.2894 153.004 95.3359C152.821 95.3789 152.669 95.4434 152.548 95.5293C152.426 95.6152 152.334 95.7191 152.274 95.8408C152.213 95.9626 152.182 96.1004 152.182 96.2544C152.182 96.4084 152.218 96.5498 152.29 96.6787C152.361 96.804 152.465 96.9025 152.601 96.9741C152.741 97.0457 152.909 97.0815 153.106 97.0815C153.371 97.0815 153.602 97.0278 153.799 96.9204C154 96.8094 154.157 96.6751 154.272 96.5176C154.386 96.3564 154.447 96.2043 154.454 96.061L154.873 96.6357C154.83 96.7826 154.757 96.9401 154.653 97.1084C154.549 97.2767 154.413 97.4378 154.245 97.5918C154.08 97.7422 153.881 97.8657 153.649 97.9624C153.419 98.0591 153.154 98.1074 152.854 98.1074C152.474 98.1074 152.136 98.0322 151.839 97.8818C151.541 97.7279 151.309 97.522 151.14 97.2642C150.972 97.0028 150.888 96.7074 150.888 96.3779C150.888 96.07 150.945 95.7979 151.06 95.5615C151.178 95.3216 151.35 95.1211 151.575 94.96C151.805 94.7988 152.084 94.6771 152.413 94.5947C152.743 94.5088 153.119 94.4658 153.541 94.4658H154.556ZM159.472 95.2231H158.355V94.5679H159.257C159.486 94.5679 159.669 94.5374 159.805 94.4766C159.945 94.4157 160.043 94.3315 160.1 94.2241C160.161 94.1131 160.192 93.9842 160.192 93.8374C160.192 93.7085 160.161 93.5868 160.1 93.4722C160.043 93.354 159.945 93.2573 159.805 93.1821C159.665 93.1069 159.475 93.0693 159.236 93.0693C159.039 93.0693 158.861 93.1016 158.704 93.166C158.55 93.2305 158.428 93.32 158.339 93.4346C158.249 93.5492 158.204 93.6816 158.204 93.832H156.91C156.91 93.4704 157.012 93.1589 157.216 92.8975C157.424 92.6361 157.701 92.4355 158.049 92.2959C158.396 92.1562 158.777 92.0864 159.193 92.0864C159.547 92.0864 159.866 92.124 160.149 92.1992C160.432 92.2708 160.671 92.3783 160.868 92.5215C161.069 92.6611 161.221 92.8366 161.325 93.0479C161.432 93.2555 161.486 93.4972 161.486 93.7729C161.486 93.9699 161.44 94.1561 161.346 94.3315C161.253 94.507 161.119 94.6628 160.944 94.7988C160.768 94.9313 160.555 95.0352 160.304 95.1104C160.057 95.1855 159.78 95.2231 159.472 95.2231ZM158.355 94.8472H159.472C159.816 94.8472 160.12 94.8812 160.385 94.9492C160.65 95.0137 160.872 95.1104 161.051 95.2393C161.23 95.3682 161.364 95.5275 161.454 95.7173C161.547 95.9035 161.593 96.1183 161.593 96.3618C161.593 96.634 161.534 96.8792 161.416 97.0977C161.302 97.3125 161.137 97.4951 160.922 97.6455C160.711 97.7959 160.458 97.9105 160.165 97.9893C159.871 98.068 159.547 98.1074 159.193 98.1074C158.806 98.1074 158.43 98.043 158.065 97.9141C157.703 97.7852 157.404 97.5864 157.168 97.3179C156.935 97.0457 156.819 96.7002 156.819 96.2812H158.113C158.113 96.4281 158.158 96.5659 158.247 96.6948C158.337 96.8237 158.466 96.9294 158.634 97.0117C158.802 97.0905 159.005 97.1299 159.241 97.1299C159.484 97.1299 159.683 97.0923 159.837 97.0171C159.991 96.9383 160.106 96.8363 160.181 96.7109C160.256 96.582 160.294 96.446 160.294 96.3027C160.294 96.1094 160.256 95.9536 160.181 95.8354C160.106 95.7173 159.991 95.6313 159.837 95.5776C159.683 95.5203 159.49 95.4917 159.257 95.4917H158.355V94.8472ZM163.7 94.0361H165.413C165.915 94.0361 166.341 94.1203 166.692 94.2886C167.043 94.4569 167.309 94.6914 167.492 94.9922C167.678 95.2894 167.771 95.6296 167.771 96.0127C167.771 96.2956 167.719 96.5588 167.616 96.8022C167.512 97.0422 167.358 97.2516 167.154 97.4307C166.953 97.6097 166.706 97.7493 166.412 97.8496C166.122 97.9499 165.789 98 165.413 98H162.841V92.1885H164.14V96.9741H165.413C165.671 96.9741 165.877 96.9294 166.031 96.8398C166.185 96.7503 166.296 96.634 166.364 96.4907C166.436 96.3475 166.471 96.1953 166.471 96.0342C166.471 95.8695 166.436 95.7137 166.364 95.5669C166.296 95.4201 166.185 95.3001 166.031 95.207C165.877 95.1139 165.671 95.0674 165.413 95.0674H163.7V94.0361ZM170.059 92.1885V98H168.765V92.1885H170.059Z" fill="white"/>
<path fill-rule="evenodd" clip-rule="evenodd" d="M155 74C155 76.7614 152.761 79 150 79C147.239 79 145 76.7614 145 74C145 71.2386 147.239 69 150 69C152.761 69 155 71.2386 155 74ZM150 70C150.552 70 151 70.4477 151 71V74C151 74.5523 150.552 75 150 75C149.448 75 149 74.5523 149 74V71C149 70.4477 149.448 70 150 70ZM149 77C149 76.4477 149.448 76 150 76H150.01C150.562 76 151.01 76.4477 151.01 77C151.01 77.5523 150.562 78 150.01 78H150C149.448 78 149 77.5523 149 77Z" fill="white"/>
<path fill-rule="evenodd" clip-rule="evenodd" d="M152 59C153.1 59 154 59.9 154 61V68C154 68.5523 153.552 69 153 69C152.448 69 152 68.5523 152 68V63L145.06 67.3375C144.411 67.7428 143.589 67.7428 142.94 67.3375L136 63V72C136 72.5523 136.448 73 137 73H143C143.552 73 144 73.4477 144 74C144 74.5523 143.552 75 143 75H136C134.9 75 134 74.1 134 73V61C134 59.9 134.9 59 136 59H152ZM145.06 65.3375L152 61H136L142.94 65.3375C143.589 65.7428 144.411 65.7428 145.06 65.3375Z" fill="white"/>
</g>
</g>
</g>
</g>
<defs>
<filter id="filter0_d_6_4957" x="-4" y="0" width="360" height="142" filterUnits="userSpaceOnUse" color-interpolation-filters="sRGB">
<feFlood flood-opacity="0" result="BackgroundImageFix"/>
<feColorMatrix in="SourceAlpha" type="matrix" values="0 0 0 0 0 0 0 0 0 0 0 0 0 0 0 0 0 0 127 0" result="hardAlpha"/>
<feOffset dy="4"/>
<feGaussianBlur stdDeviation="4"/>
<feColorMatrix type="matrix" values="0 0 0 0 0.0477431 0 0 0 0 0.162708 0 0 0 0 0.458333 0 0 0 0.12 0"/>
<feBlend mode="normal" in2="BackgroundImageFix" result="effect1_dropShadow_6_4957"/>
<feBlend mode="normal" in="SourceGraphic" in2="effect1_dropShadow_6_4957" result="shape"/>
</filter>
<filter id="filter1_d_6_4957" x="6" y="44" width="120" height="88" filterUnits="userSpaceOnUse" color-interpolation-filters="sRGB">
<feFlood flood-opacity="0" result="BackgroundImageFix"/>
<feColorMatrix in="SourceAlpha" type="matrix" values="0 0 0 0 0 0 0 0 0 0 0 0 0 0 0 0 0 0 127 0" result="hardAlpha"/>
<feOffset dy="4"/>
<feGaussianBlur stdDeviation="4"/>
<feColorMatrix type="matrix" values="0 0 0 0 0.0477431 0 0 0 0 0.162708 0 0 0 0 0.458333 0 0 0 0.12 0"/>
<feBlend mode="normal" in2="BackgroundImageFix" result="effect1_dropShadow_6_4957"/>
<feBlend mode="normal" in="SourceGraphic" in2="effect1_dropShadow_6_4957" result="shape"/>
</filter>
<filter id="filter2_d_6_4957" x="116" y="44" width="120" height="88" filterUnits="userSpaceOnUse" color-interpolation-filters="sRGB">
<feFlood flood-opacity="0" result="BackgroundImageFix"/>
<feColorMatrix in="SourceAlpha" type="matrix" values="0 0 0 0 0 0 0 0 0 0 0 0 0 0 0 0 0 0 127 0" result="hardAlpha"/>
<feOffset dy="4"/>
<feGaussianBlur stdDeviation="4"/>
<feColorMatrix type="matrix" values="0 0 0 0 0.0477431 0 0 0 0 0.162708 0 0 0 0 0.458333 0 0 0 0.12 0"/>
<feBlend mode="normal" in2="BackgroundImageFix" result="effect1_dropShadow_6_4957"/>
<feBlend mode="normal" in="SourceGraphic" in2="effect1_dropShadow_6_4957" result="shape"/>
</filter>
<linearGradient id="paint0_linear_6_4957" x1="17.8879" y1="84" x2="115.587" y2="115.758" gradientUnits="userSpaceOnUse">
<stop stop-color="#566379"/>
<stop offset="1" stop-color="#808B9F"/>
</linearGradient>
<linearGradient id="paint1_linear_6_4957" x1="127.888" y1="84" x2="225.587" y2="115.758" gradientUnits="userSpaceOnUse">
<stop stop-color="#566379"/>
<stop offset="1" stop-color="#808B9F"/>
</linearGradient>
<clipPath id="clip0_6_4957">
<rect x="4" y="4" width="344" height="126" rx="12" fill="white"/>
</clipPath>
<clipPath id="clip1_6_4957">
<rect x="14" y="48" width="104" height="72" rx="12" fill="white"/>
</clipPath>
<clipPath id="clip2_6_4957">
<rect x="124" y="48" width="104" height="72" rx="12" fill="white"/>
</clipPath>
</defs>
</svg>
