<svg width="352" height="134" viewBox="0 0 352 134" fill="none" xmlns="http://www.w3.org/2000/svg">
<g filter="url(#filter0_d_6_4972)">
<g clip-path="url(#clip0_6_4972)">
<rect x="4" y="4" width="344" height="126" rx="12" fill="white"/>
<g clip-path="url(#clip1_6_4972)">
<path fill-rule="evenodd" clip-rule="evenodd" d="M21 15C19.3431 15 18 16.3431 18 18V34C18 35.6569 19.3431 37 21 37H31C32.6569 37 34 35.6569 34 34V28.4143L37.7072 24.7071C38.0977 24.3166 38.0977 23.6834 37.7072 23.2929C37.3166 22.9024 36.6835 22.9024 36.293 23.2929L34 25.5858V18C34 16.3431 32.6569 15 31 15H21ZM32 27.5858V18C32 17.4477 31.5523 17 31 17H21C20.4477 17 20 17.4477 20 18V34C20 34.5523 20.4477 35 21 35H31C31.5523 35 32 34.5523 32 34V30.4143L28.7072 33.7071C28.5022 33.9121 28.2183 34.018 27.9292 33.9975C27.64 33.9769 27.374 33.8319 27.2001 33.6L24.2001 29.6C23.8687 29.1582 23.9582 28.5314 24.4001 28.2C24.8419 27.8686 25.4687 27.9582 25.8001 28.4L28.1083 31.4776L32 27.5858ZM23 20C22.4477 20 22 20.4477 22 21C22 21.5523 22.4477 22 23 22H30C30.5523 22 31 21.5523 31 21C31 20.4477 30.5523 20 30 20H23ZM22 25C22 24.4477 22.4477 24 23 24H27C27.5523 24 28 24.4477 28 25C28 25.5523 27.5523 26 27 26H23C22.4477 26 22 25.5523 22 25Z" fill="#F60DFF"/>
</g>
<path d="M51.4805 28.4053L57.1582 19.2031H59.3643V32H57.1582V22.7891L51.4805 32H49.2832V19.2031H51.4805V28.4053ZM68.3209 26.4629V28.1328H63.3991V26.4629H68.3209ZM64.0143 22.4902V32H61.8961V22.4902H64.0143ZM69.8502 22.4902V32H67.7321V22.4902H69.8502ZM83.43 27.3594V27.5439C83.43 28.2178 83.3538 28.8389 83.2015 29.4072C83.055 29.9697 82.8353 30.459 82.5423 30.875C82.2493 31.291 81.886 31.6133 81.4524 31.8418C81.0247 32.0703 80.5267 32.1846 79.9583 32.1846C79.4603 32.1846 79.0267 32.0996 78.6575 31.9297C78.2884 31.7598 77.9778 31.5225 77.7259 31.2178C77.4739 30.9072 77.2718 30.5439 77.1194 30.1279C76.9671 29.7061 76.8558 29.2432 76.7854 28.7393V25.9883C76.8558 25.4492 76.9642 24.957 77.1106 24.5117C77.263 24.0605 77.4651 23.6709 77.7171 23.3428C77.9749 23.0146 78.2854 22.7627 78.6487 22.5869C79.012 22.4053 79.4427 22.3145 79.9407 22.3145C80.3978 22.3145 80.8108 22.3965 81.18 22.5605C81.5491 22.7188 81.8743 22.9473 82.1556 23.2461C82.4368 23.5391 82.6712 23.8936 82.8587 24.3096C83.0462 24.7197 83.1868 25.1826 83.2806 25.6982C83.3802 26.2139 83.43 26.7676 83.43 27.3594ZM81.3118 27.5439V27.3594C81.3118 26.9902 81.2884 26.6387 81.2415 26.3047C81.1946 25.9707 81.1214 25.666 81.0218 25.3906C80.928 25.1094 80.805 24.8662 80.6526 24.6611C80.5003 24.4502 80.3157 24.2891 80.0989 24.1777C79.888 24.0605 79.6419 24.002 79.3606 24.002C78.9798 24.002 78.6634 24.0664 78.4114 24.1953C78.1653 24.3184 77.9778 24.4941 77.8489 24.7227C77.7259 24.9453 77.6468 25.2031 77.6116 25.4961V29.2402C77.6526 29.4863 77.7376 29.7031 77.8665 29.8906C78.0013 30.0781 78.1917 30.2275 78.4378 30.3389C78.6839 30.4443 78.9974 30.4971 79.3782 30.4971C79.7298 30.4971 80.0257 30.4238 80.2659 30.2773C80.512 30.125 80.7112 29.9141 80.8636 29.6445C81.0218 29.375 81.136 29.0615 81.2063 28.7041C81.2767 28.3467 81.3118 27.96 81.3118 27.5439ZM71.7757 27.5439V27.3594C71.7757 26.7676 71.8226 26.2139 71.9163 25.6982C72.0101 25.1826 72.1507 24.7197 72.3382 24.3096C72.5315 23.8936 72.7688 23.5391 73.0501 23.2461C73.3313 22.9473 73.6565 22.7188 74.0257 22.5605C74.3948 22.3965 74.8079 22.3145 75.2649 22.3145C75.7571 22.3145 76.1819 22.4053 76.5394 22.5869C76.8968 22.7627 77.1985 23.0146 77.4446 23.3428C77.6966 23.6709 77.8958 24.0605 78.0423 24.5117C78.1946 24.957 78.306 25.4492 78.3763 25.9883V28.6338C78.3118 29.1494 78.2034 29.624 78.0511 30.0576C77.8987 30.4912 77.6995 30.8662 77.4534 31.1826C77.2073 31.499 76.9026 31.7451 76.5394 31.9209C76.1761 32.0967 75.7454 32.1846 75.2474 32.1846C74.6849 32.1846 74.1868 32.0703 73.7532 31.8418C73.3196 31.6133 72.9563 31.291 72.6634 30.875C72.3704 30.459 72.1478 29.9697 71.9954 29.4072C71.8489 28.8389 71.7757 28.2178 71.7757 27.5439ZM73.8938 27.3594V27.5439C73.8938 27.96 73.9261 28.3467 73.9905 28.7041C74.0608 29.0615 74.1692 29.375 74.3157 29.6445C74.4622 29.9082 74.6556 30.1162 74.8958 30.2686C75.136 30.4209 75.4319 30.4971 75.7835 30.4971C76.1702 30.4971 76.4866 30.4385 76.7327 30.3213C76.9788 30.2041 77.1663 30.043 77.2952 29.8379C77.43 29.6328 77.5179 29.3984 77.5589 29.1348V25.4961C77.5237 25.2031 77.4417 24.9453 77.3128 24.7227C77.1839 24.4941 76.9964 24.3184 76.7503 24.1953C76.5042 24.0664 76.1878 24.002 75.8011 24.002C75.4495 24.002 75.1507 24.0898 74.9046 24.2656C74.6644 24.4414 74.4681 24.6846 74.3157 24.9951C74.1692 25.2998 74.0608 25.6572 73.9905 26.0674C73.9261 26.4717 73.8938 26.9023 73.8938 27.3594ZM76.4954 35.6562V18.5H78.6224V35.6562H76.4954ZM84.872 27.3506V27.1484C84.872 26.4629 84.9716 25.8271 85.1708 25.2412C85.3701 24.6494 85.6572 24.1367 86.0322 23.7031C86.413 23.2637 86.8759 22.9238 87.4208 22.6836C87.9716 22.4375 88.5927 22.3145 89.2841 22.3145C89.9814 22.3145 90.6025 22.4375 91.1474 22.6836C91.6982 22.9238 92.164 23.2637 92.5449 23.7031C92.9257 24.1367 93.2158 24.6494 93.415 25.2412C93.6142 25.8271 93.7138 26.4629 93.7138 27.1484V27.3506C93.7138 28.0361 93.6142 28.6719 93.415 29.2578C93.2158 29.8438 92.9257 30.3564 92.5449 30.7959C92.164 31.2295 91.7011 31.5693 91.1562 31.8154C90.6113 32.0557 89.9931 32.1758 89.3017 32.1758C88.6044 32.1758 87.9804 32.0557 87.4296 31.8154C86.8847 31.5693 86.4218 31.2295 86.041 30.7959C85.6601 30.3564 85.3701 29.8438 85.1708 29.2578C84.9716 28.6719 84.872 28.0361 84.872 27.3506ZM86.9902 27.1484V27.3506C86.9902 27.7783 87.0341 28.1826 87.122 28.5635C87.2099 28.9443 87.3476 29.2783 87.5351 29.5654C87.7226 29.8525 87.9628 30.0781 88.2558 30.2422C88.5488 30.4062 88.8974 30.4883 89.3017 30.4883C89.6943 30.4883 90.0341 30.4062 90.3212 30.2422C90.6142 30.0781 90.8544 29.8525 91.0419 29.5654C91.2294 29.2783 91.3671 28.9443 91.455 28.5635C91.5488 28.1826 91.5956 27.7783 91.5956 27.3506V27.1484C91.5956 26.7266 91.5488 26.3281 91.455 25.9531C91.3671 25.5723 91.2265 25.2354 91.0331 24.9424C90.8456 24.6494 90.6054 24.4209 90.3124 24.2568C90.0253 24.0869 89.6826 24.002 89.2841 24.002C88.8857 24.002 88.54 24.0869 88.247 24.2568C87.9599 24.4209 87.7226 24.6494 87.5351 24.9424C87.3476 25.2354 87.2099 25.5723 87.122 25.9531C87.0341 26.3281 86.9902 26.7266 86.9902 27.1484ZM97.6432 24.3184V35.6562H95.525V22.4902H97.4762L97.6432 24.3184ZM103.839 27.1572V27.3418C103.839 28.0332 103.757 28.6748 103.593 29.2666C103.435 29.8525 103.198 30.3652 102.881 30.8047C102.571 31.2383 102.187 31.5752 101.73 31.8154C101.273 32.0557 100.746 32.1758 100.148 32.1758C99.5562 32.1758 99.0377 32.0674 98.5924 31.8506C98.1529 31.6279 97.7809 31.3145 97.4762 30.9102C97.1715 30.5059 96.9254 30.0312 96.7379 29.4863C96.5562 28.9355 96.4273 28.332 96.3512 27.6758V26.9639C96.4273 26.2666 96.5562 25.6338 96.7379 25.0654C96.9254 24.4971 97.1715 24.0078 97.4762 23.5977C97.7809 23.1875 98.1529 22.8711 98.5924 22.6484C99.0318 22.4258 99.5445 22.3145 100.13 22.3145C100.728 22.3145 101.258 22.4316 101.721 22.666C102.184 22.8945 102.574 23.2227 102.89 23.6504C103.207 24.0723 103.444 24.582 103.602 25.1797C103.76 25.7715 103.839 26.4307 103.839 27.1572ZM101.721 27.3418V27.1572C101.721 26.7178 101.68 26.3105 101.598 25.9355C101.516 25.5547 101.387 25.2207 101.212 24.9336C101.036 24.6465 100.81 24.4238 100.535 24.2656C100.265 24.1016 99.94 24.0195 99.5592 24.0195C99.1842 24.0195 98.8619 24.084 98.5924 24.2129C98.3228 24.3359 98.0973 24.5088 97.9156 24.7314C97.734 24.9541 97.5934 25.2148 97.4937 25.5137C97.3941 25.8066 97.3238 26.126 97.2828 26.4717V28.1768C97.3531 28.5986 97.4732 28.9854 97.6432 29.3369C97.8131 29.6885 98.0533 29.9697 98.3639 30.1807C98.6803 30.3857 99.0846 30.4883 99.5768 30.4883C99.9576 30.4883 100.283 30.4062 100.552 30.2422C100.822 30.0781 101.042 29.8525 101.212 29.5654C101.387 29.2725 101.516 28.9355 101.598 28.5547C101.68 28.1738 101.721 27.7695 101.721 27.3418ZM111.32 29.4336L114.15 22.4902H115.987L112.04 32H110.599L106.661 22.4902H108.498L111.32 29.4336ZM107.953 22.4902V32H105.835V22.4902H107.953ZM114.686 32V22.4902H116.813V32H114.686ZM121.401 28.9062L125.137 22.4902H127.255V32H125.137V25.5752L121.401 32H119.283V22.4902H121.401V28.9062ZM131.65 24.3184V35.6562H129.532V22.4902H131.483L131.65 24.3184ZM137.846 27.1572V27.3418C137.846 28.0332 137.764 28.6748 137.6 29.2666C137.442 29.8525 137.205 30.3652 136.888 30.8047C136.578 31.2383 136.194 31.5752 135.737 31.8154C135.28 32.0557 134.752 32.1758 134.155 32.1758C133.563 32.1758 133.044 32.0674 132.599 31.8506C132.16 31.6279 131.788 31.3145 131.483 30.9102C131.178 30.5059 130.932 30.0312 130.745 29.4863C130.563 28.9355 130.434 28.332 130.358 27.6758V26.9639C130.434 26.2666 130.563 25.6338 130.745 25.0654C130.932 24.4971 131.178 24.0078 131.483 23.5977C131.788 23.1875 132.16 22.8711 132.599 22.6484C133.039 22.4258 133.551 22.3145 134.137 22.3145C134.735 22.3145 135.265 22.4316 135.728 22.666C136.191 22.8945 136.581 23.2227 136.897 23.6504C137.213 24.0723 137.451 24.582 137.609 25.1797C137.767 25.7715 137.846 26.4307 137.846 27.1572ZM135.728 27.3418V27.1572C135.728 26.7178 135.687 26.3105 135.605 25.9355C135.523 25.5547 135.394 25.2207 135.218 24.9336C135.043 24.6465 134.817 24.4238 134.542 24.2656C134.272 24.1016 133.947 24.0195 133.566 24.0195C133.191 24.0195 132.869 24.084 132.599 24.2129C132.33 24.3359 132.104 24.5088 131.922 24.7314C131.741 24.9541 131.6 25.2148 131.501 25.5137C131.401 25.8066 131.331 26.126 131.29 26.4717V28.1768C131.36 28.5986 131.48 28.9854 131.65 29.3369C131.82 29.6885 132.06 29.9697 132.371 30.1807C132.687 30.3857 133.091 30.4883 133.584 30.4883C133.964 30.4883 134.29 30.4062 134.559 30.2422C134.829 30.0781 135.048 29.8525 135.218 29.5654C135.394 29.2725 135.523 28.9355 135.605 28.5547C135.687 28.1738 135.728 27.7695 135.728 27.3418ZM139.271 27.3506V27.1484C139.271 26.4629 139.37 25.8271 139.57 25.2412C139.769 24.6494 140.056 24.1367 140.431 23.7031C140.812 23.2637 141.275 22.9238 141.82 22.6836C142.37 22.4375 142.991 22.3145 143.683 22.3145C144.38 22.3145 145.001 22.4375 145.546 22.6836C146.097 22.9238 146.563 23.2637 146.944 23.7031C147.324 24.1367 147.614 24.6494 147.814 25.2412C148.013 25.8271 148.112 26.4629 148.112 27.1484V27.3506C148.112 28.0361 148.013 28.6719 147.814 29.2578C147.614 29.8438 147.324 30.3564 146.944 30.7959C146.563 31.2295 146.1 31.5693 145.555 31.8154C145.01 32.0557 144.392 32.1758 143.7 32.1758C143.003 32.1758 142.379 32.0557 141.828 31.8154C141.283 31.5693 140.82 31.2295 140.44 30.7959C140.059 30.3564 139.769 29.8438 139.57 29.2578C139.37 28.6719 139.271 28.0361 139.271 27.3506ZM141.389 27.1484V27.3506C141.389 27.7783 141.433 28.1826 141.521 28.5635C141.609 28.9443 141.746 29.2783 141.934 29.5654C142.121 29.8525 142.362 30.0781 142.654 30.2422C142.947 30.4062 143.296 30.4883 143.7 30.4883C144.093 30.4883 144.433 30.4062 144.72 30.2422C145.013 30.0781 145.253 29.8525 145.441 29.5654C145.628 29.2783 145.766 28.9443 145.854 28.5635C145.947 28.1826 145.994 27.7783 145.994 27.3506V27.1484C145.994 26.7266 145.947 26.3281 145.854 25.9531C145.766 25.5723 145.625 25.2354 145.432 24.9424C145.244 24.6494 145.004 24.4209 144.711 24.2568C144.424 24.0869 144.081 24.002 143.683 24.002C143.284 24.002 142.939 24.0869 142.646 24.2568C142.359 24.4209 142.121 24.6494 141.934 24.9424C141.746 25.2354 141.609 25.5723 141.521 25.9531C141.433 26.3281 141.389 26.7266 141.389 27.1484ZM154.538 27.9307H151.497L151.479 26.4365H153.975C154.386 26.4365 154.722 26.3955 154.986 26.3135C155.256 26.2314 155.455 26.1084 155.584 25.9443C155.713 25.7744 155.777 25.5693 155.777 25.3291C155.777 25.1299 155.739 24.957 155.663 24.8105C155.587 24.6582 155.47 24.5352 155.311 24.4414C155.159 24.3418 154.966 24.2715 154.731 24.2305C154.503 24.1836 154.236 24.1602 153.931 24.1602H152.2V32H150.082V22.4902H153.931C154.541 22.4902 155.089 22.543 155.575 22.6484C156.067 22.7539 156.486 22.915 156.832 23.1318C157.178 23.3486 157.441 23.624 157.623 23.958C157.81 24.2861 157.904 24.6729 157.904 25.1182C157.904 25.4111 157.84 25.6865 157.711 25.9443C157.588 26.2021 157.403 26.4307 157.157 26.6299C156.911 26.8291 156.609 26.9932 156.252 27.1221C155.894 27.2451 155.484 27.3213 155.021 27.3506L154.538 27.9307ZM154.538 32H150.882L151.725 30.3301H154.538C154.913 30.3301 155.223 30.2832 155.47 30.1895C155.716 30.0957 155.897 29.9609 156.014 29.7852C156.138 29.6035 156.199 29.3896 156.199 29.1436C156.199 28.8916 156.14 28.6748 156.023 28.4932C155.906 28.3115 155.724 28.1738 155.478 28.0801C155.238 27.9805 154.925 27.9307 154.538 27.9307H152.121L152.139 26.4365H155.013L155.619 27.0166C156.222 27.0576 156.723 27.1865 157.122 27.4033C157.52 27.6201 157.819 27.8926 158.018 28.2207C158.218 28.5488 158.317 28.9062 158.317 29.293C158.317 29.7383 158.232 30.1309 158.062 30.4707C157.898 30.8105 157.652 31.0947 157.324 31.3232C157.002 31.5459 156.606 31.7158 156.138 31.833C155.669 31.9443 155.136 32 154.538 32ZM165.534 30.0928V25.5576C165.534 25.2178 165.472 24.9248 165.349 24.6787C165.226 24.4326 165.039 24.2422 164.787 24.1074C164.541 23.9727 164.23 23.9053 163.855 23.9053C163.509 23.9053 163.21 23.9639 162.958 24.0811C162.707 24.1982 162.51 24.3564 162.37 24.5557C162.229 24.7549 162.159 24.9805 162.159 25.2324H160.049C160.049 24.8574 160.14 24.4941 160.322 24.1426C160.503 23.791 160.767 23.4775 161.113 23.2021C161.458 22.9268 161.872 22.71 162.352 22.5518C162.832 22.3936 163.372 22.3145 163.969 22.3145C164.684 22.3145 165.317 22.4346 165.868 22.6748C166.424 22.915 166.861 23.2783 167.177 23.7646C167.499 24.2451 167.661 24.8486 167.661 25.5752V29.8027C167.661 30.2363 167.69 30.626 167.749 30.9717C167.813 31.3115 167.904 31.6074 168.021 31.8594V32H165.85C165.75 31.7715 165.671 31.4814 165.613 31.1299C165.56 30.7725 165.534 30.4268 165.534 30.0928ZM165.841 26.2168L165.859 27.5264H164.338C163.946 27.5264 163.6 27.5645 163.301 27.6406C163.002 27.7109 162.753 27.8164 162.554 27.957C162.355 28.0977 162.206 28.2676 162.106 28.4668C162.006 28.666 161.957 28.8916 161.957 29.1436C161.957 29.3955 162.015 29.627 162.132 29.8379C162.249 30.043 162.419 30.2041 162.642 30.3213C162.871 30.4385 163.146 30.4971 163.468 30.4971C163.902 30.4971 164.28 30.4092 164.602 30.2334C164.93 30.0518 165.188 29.832 165.375 29.5742C165.563 29.3105 165.663 29.0615 165.674 28.8271L166.36 29.7676C166.29 30.0078 166.169 30.2656 165.999 30.541C165.83 30.8164 165.607 31.0801 165.332 31.332C165.062 31.5781 164.737 31.7803 164.356 31.9385C163.981 32.0967 163.547 32.1758 163.055 32.1758C162.434 32.1758 161.88 32.0527 161.394 31.8066C160.908 31.5547 160.527 31.2178 160.251 30.7959C159.976 30.3682 159.838 29.8848 159.838 29.3457C159.838 28.8418 159.932 28.3965 160.12 28.0098C160.313 27.6172 160.594 27.2891 160.963 27.0254C161.338 26.7617 161.795 26.5625 162.334 26.4277C162.874 26.2871 163.489 26.2168 164.18 26.2168H165.841ZM176.398 26.4629V28.1328H171.476V26.4629H176.398ZM172.091 22.4902V32H169.973V22.4902H172.091ZM177.927 22.4902V32H175.809V22.4902H177.927ZM182.401 28.9062L186.137 22.4902H188.255V32H186.137V25.5752L182.401 32H180.283V22.4902H182.401V28.9062ZM194.715 32.1758C194.012 32.1758 193.376 32.0615 192.808 31.833C192.246 31.5986 191.765 31.2734 191.367 30.8574C190.974 30.4414 190.672 29.9521 190.461 29.3896C190.25 28.8271 190.145 28.2207 190.145 27.5703V27.2188C190.145 26.4746 190.253 25.8008 190.47 25.1973C190.687 24.5938 190.989 24.0781 191.375 23.6504C191.762 23.2168 192.219 22.8857 192.747 22.6572C193.274 22.4287 193.845 22.3145 194.46 22.3145C195.14 22.3145 195.735 22.4287 196.245 22.6572C196.754 22.8857 197.176 23.208 197.51 23.624C197.85 24.0342 198.102 24.5234 198.266 25.0918C198.436 25.6602 198.521 26.2871 198.521 26.9727V27.8779H191.173V26.3574H196.429V26.1904C196.417 25.8096 196.341 25.4521 196.201 25.1182C196.066 24.7842 195.858 24.5146 195.577 24.3096C195.295 24.1045 194.92 24.002 194.452 24.002C194.1 24.002 193.787 24.0781 193.511 24.2305C193.242 24.377 193.016 24.5908 192.834 24.8721C192.653 25.1533 192.512 25.4932 192.413 25.8916C192.319 26.2842 192.272 26.7266 192.272 27.2188V27.5703C192.272 27.9863 192.328 28.373 192.439 28.7305C192.556 29.082 192.726 29.3896 192.949 29.6533C193.171 29.917 193.441 30.125 193.757 30.2773C194.074 30.4238 194.434 30.4971 194.838 30.4971C195.348 30.4971 195.802 30.3945 196.201 30.1895C196.599 29.9844 196.945 29.6943 197.238 29.3193L198.354 30.4004C198.149 30.6992 197.882 30.9863 197.554 31.2617C197.226 31.5312 196.825 31.751 196.35 31.9209C195.881 32.0908 195.336 32.1758 194.715 32.1758ZM206.898 28.9062L210.634 22.4902H212.752V32H210.634V25.5752L206.898 32H204.78V22.4902H206.898V28.9062ZM219.125 27.3506V27.1484C219.125 26.4629 219.225 25.8271 219.424 25.2412C219.623 24.6494 219.91 24.1367 220.285 23.7031C220.666 23.2637 221.129 22.9238 221.674 22.6836C222.225 22.4375 222.846 22.3145 223.537 22.3145C224.234 22.3145 224.855 22.4375 225.4 22.6836C225.951 22.9238 226.417 23.2637 226.798 23.7031C227.179 24.1367 227.469 24.6494 227.668 25.2412C227.867 25.8271 227.967 26.4629 227.967 27.1484V27.3506C227.967 28.0361 227.867 28.6719 227.668 29.2578C227.469 29.8438 227.179 30.3564 226.798 30.7959C226.417 31.2295 225.954 31.5693 225.409 31.8154C224.864 32.0557 224.246 32.1758 223.555 32.1758C222.857 32.1758 222.233 32.0557 221.683 31.8154C221.138 31.5693 220.675 31.2295 220.294 30.7959C219.913 30.3564 219.623 29.8438 219.424 29.2578C219.225 28.6719 219.125 28.0361 219.125 27.3506ZM221.243 27.1484V27.3506C221.243 27.7783 221.287 28.1826 221.375 28.5635C221.463 28.9443 221.601 29.2783 221.788 29.5654C221.976 29.8525 222.216 30.0781 222.509 30.2422C222.802 30.4062 223.15 30.4883 223.555 30.4883C223.947 30.4883 224.287 30.4062 224.574 30.2422C224.867 30.0781 225.107 29.8525 225.295 29.5654C225.482 29.2783 225.62 28.9443 225.708 28.5635C225.802 28.1826 225.849 27.7783 225.849 27.3506V27.1484C225.849 26.7266 225.802 26.3281 225.708 25.9531C225.62 25.5723 225.48 25.2354 225.286 24.9424C225.099 24.6494 224.858 24.4209 224.565 24.2568C224.278 24.0869 223.936 24.002 223.537 24.002C223.139 24.002 222.793 24.0869 222.5 24.2568C222.213 24.4209 221.976 24.6494 221.788 24.9424C221.601 25.2354 221.463 25.5723 221.375 25.9531C221.287 26.3281 221.243 26.7266 221.243 27.1484ZM236.15 22.4902V24.1777H231.457V22.4902H236.15ZM231.958 22.4902V32H229.84V22.4902H231.958ZM237.811 22.4902V32H235.684V22.4902H237.811ZM242.206 24.3184V35.6562H240.088V22.4902H242.039L242.206 24.3184ZM248.403 27.1572V27.3418C248.403 28.0332 248.321 28.6748 248.157 29.2666C247.998 29.8525 247.761 30.3652 247.445 30.8047C247.134 31.2383 246.75 31.5752 246.293 31.8154C245.836 32.0557 245.309 32.1758 244.711 32.1758C244.119 32.1758 243.601 32.0674 243.156 31.8506C242.716 31.6279 242.344 31.3145 242.039 30.9102C241.735 30.5059 241.489 30.0312 241.301 29.4863C241.119 28.9355 240.991 28.332 240.914 27.6758V26.9639C240.991 26.2666 241.119 25.6338 241.301 25.0654C241.489 24.4971 241.735 24.0078 242.039 23.5977C242.344 23.1875 242.716 22.8711 243.156 22.6484C243.595 22.4258 244.108 22.3145 244.694 22.3145C245.291 22.3145 245.822 22.4316 246.284 22.666C246.747 22.8945 247.137 23.2227 247.453 23.6504C247.77 24.0723 248.007 24.582 248.165 25.1797C248.324 25.7715 248.403 26.4307 248.403 27.1572ZM246.284 27.3418V27.1572C246.284 26.7178 246.243 26.3105 246.161 25.9355C246.079 25.5547 245.951 25.2207 245.775 24.9336C245.599 24.6465 245.373 24.4238 245.098 24.2656C244.828 24.1016 244.503 24.0195 244.122 24.0195C243.747 24.0195 243.425 24.084 243.156 24.2129C242.886 24.3359 242.66 24.5088 242.479 24.7314C242.297 24.9541 242.157 25.2148 242.057 25.5137C241.957 25.8066 241.887 26.126 241.846 26.4717V28.1768C241.916 28.5986 242.036 28.9854 242.206 29.3369C242.376 29.6885 242.617 29.9697 242.927 30.1807C243.243 30.3857 243.648 30.4883 244.14 30.4883C244.521 30.4883 244.846 30.4062 245.116 30.2422C245.385 30.0781 245.605 29.8525 245.775 29.5654C245.951 29.2725 246.079 28.9355 246.161 28.5547C246.243 28.1738 246.284 27.7695 246.284 27.3418ZM249.827 27.3506V27.1484C249.827 26.4629 249.927 25.8271 250.126 25.2412C250.325 24.6494 250.612 24.1367 250.987 23.7031C251.368 23.2637 251.831 22.9238 252.376 22.6836C252.927 22.4375 253.548 22.3145 254.239 22.3145C254.936 22.3145 255.558 22.4375 256.102 22.6836C256.653 22.9238 257.119 23.2637 257.5 23.7031C257.881 24.1367 258.171 24.6494 258.37 25.2412C258.569 25.8271 258.669 26.4629 258.669 27.1484V27.3506C258.669 28.0361 258.569 28.6719 258.37 29.2578C258.171 29.8438 257.881 30.3564 257.5 30.7959C257.119 31.2295 256.656 31.5693 256.111 31.8154C255.566 32.0557 254.948 32.1758 254.257 32.1758C253.56 32.1758 252.936 32.0557 252.385 31.8154C251.84 31.5693 251.377 31.2295 250.996 30.7959C250.615 30.3564 250.325 29.8438 250.126 29.2578C249.927 28.6719 249.827 28.0361 249.827 27.3506ZM251.945 27.1484V27.3506C251.945 27.7783 251.989 28.1826 252.077 28.5635C252.165 28.9443 252.303 29.2783 252.49 29.5654C252.678 29.8525 252.918 30.0781 253.211 30.2422C253.504 30.4062 253.852 30.4883 254.257 30.4883C254.649 30.4883 254.989 30.4062 255.276 30.2422C255.569 30.0781 255.81 29.8525 255.997 29.5654C256.185 29.2783 256.322 28.9443 256.41 28.5635C256.504 28.1826 256.551 27.7783 256.551 27.3506V27.1484C256.551 26.7266 256.504 26.3281 256.41 25.9531C256.322 25.5723 256.182 25.2354 255.988 24.9424C255.801 24.6494 255.561 24.4209 255.268 24.2568C254.98 24.0869 254.638 24.002 254.239 24.002C253.841 24.002 253.495 24.0869 253.202 24.2568C252.915 24.4209 252.678 24.6494 252.49 24.9424C252.303 25.2354 252.165 25.5723 252.077 25.9531C251.989 26.3281 251.945 26.7266 251.945 27.1484ZM264.356 30.4883C264.702 30.4883 265.012 30.4209 265.288 30.2861C265.569 30.1455 265.795 29.9521 265.964 29.7061C266.14 29.46 266.237 29.1758 266.255 28.8535H268.25C268.238 29.4688 268.056 30.0283 267.705 30.5322C267.353 31.0361 266.887 31.4375 266.307 31.7363C265.727 32.0293 265.086 32.1758 264.382 32.1758C263.656 32.1758 263.023 32.0527 262.484 31.8066C261.945 31.5547 261.497 31.209 261.139 30.7695C260.782 30.3301 260.512 29.8232 260.331 29.249C260.155 28.6748 260.067 28.0596 260.067 27.4033V27.0957C260.067 26.4395 260.155 25.8242 260.331 25.25C260.512 24.6699 260.782 24.1602 261.139 23.7207C261.497 23.2812 261.945 22.9385 262.484 22.6924C263.023 22.4404 263.653 22.3145 264.374 22.3145C265.135 22.3145 265.803 22.4668 266.378 22.7715C266.952 23.0703 267.403 23.4893 267.731 24.0283C268.065 24.5615 268.238 25.1826 268.25 25.8916H266.255C266.237 25.54 266.149 25.2236 265.991 24.9424C265.838 24.6553 265.622 24.4268 265.34 24.2568C265.065 24.0869 264.734 24.002 264.347 24.002C263.92 24.002 263.565 24.0898 263.284 24.2656C263.003 24.4355 262.783 24.6699 262.625 24.9688C262.466 25.2617 262.352 25.5928 262.282 25.9619C262.217 26.3252 262.185 26.7031 262.185 27.0957V27.4033C262.185 27.7959 262.217 28.1768 262.282 28.5459C262.346 28.915 262.458 29.2461 262.616 29.5391C262.78 29.8262 263.003 30.0576 263.284 30.2334C263.565 30.4033 263.922 30.4883 264.356 30.4883ZM271.476 25.5137H274.28C275.1 25.5137 275.797 25.6514 276.371 25.9268C276.946 26.2021 277.382 26.5859 277.681 27.0781C277.986 27.5645 278.138 28.1211 278.138 28.748C278.138 29.2109 278.053 29.6416 277.883 30.04C277.713 30.4326 277.461 30.7754 277.127 31.0684C276.799 31.3613 276.395 31.5898 275.914 31.7539C275.44 31.918 274.895 32 274.28 32H270.07V22.4902H272.197V30.3213H274.28C274.701 30.3213 275.038 30.248 275.29 30.1016C275.542 29.9551 275.724 29.7646 275.835 29.5303C275.952 29.2959 276.011 29.0469 276.011 28.7832C276.011 28.5137 275.952 28.2588 275.835 28.0186C275.724 27.7783 275.542 27.582 275.29 27.4297C275.038 27.2773 274.701 27.2012 274.28 27.2012H271.476V25.5137ZM281.882 22.4902V32H279.764V22.4902H281.882Z" fill="#0066B3"/>
<path d="M320.295 24.7195C319.902 24.3261 319.902 23.6884 320.295 23.295C320.689 22.9017 321.328 22.9017 321.722 23.295L326.713 28.2805C327.107 28.6739 327.107 29.3116 326.713 29.705C326.319 30.0983 325.681 30.0983 325.287 29.705L320.295 24.7195Z" fill="#1D1D1D"/>
<path d="M330.278 23.2952C330.672 22.9018 331.311 22.9018 331.705 23.2952C332.098 23.6885 332.098 24.3263 331.705 24.7196L326.713 29.705C326.319 30.0983 325.681 30.0983 325.287 29.705C324.893 29.3116 324.893 28.674 325.287 28.2807L330.278 23.2952Z" fill="#1D1D1D"/>
<g filter="url(#filter1_d_6_4972)">
<g clip-path="url(#clip2_6_4972)">
<rect opacity="0.8" x="14" y="48" width="104" height="72" rx="12" fill="url(#paint0_linear_6_4972)"/>
<path d="M25.3623 92.1885V98H24.0625V92.1885H25.3623ZM27.269 92.1885V93.209H22.188V92.1885H27.269ZM31.3682 96.8345V94.063C31.3682 93.8553 31.3306 93.6763 31.2554 93.5259C31.1802 93.3755 31.0656 93.2591 30.9117 93.1768C30.7613 93.0944 30.5715 93.0532 30.3423 93.0532C30.1311 93.0532 29.9485 93.089 29.7945 93.1606C29.6405 93.2323 29.5206 93.3289 29.4346 93.4507C29.3487 93.5724 29.3057 93.7103 29.3057 93.8643H28.0167C28.0167 93.6351 28.0722 93.4131 28.1832 93.1982C28.2942 92.9834 28.4553 92.7918 28.6666 92.6235C28.8778 92.4552 29.1303 92.3228 29.4239 92.2261C29.7175 92.1294 30.0469 92.0811 30.4122 92.0811C30.849 92.0811 31.2357 92.1545 31.5723 92.3013C31.9125 92.4481 32.1793 92.6701 32.3726 92.9673C32.5696 93.2609 32.668 93.6297 32.668 94.0737V96.6572C32.668 96.9222 32.6859 97.1603 32.7217 97.3716C32.7611 97.5793 32.8166 97.7601 32.8882 97.9141V98H31.5616C31.5007 97.8604 31.4524 97.6831 31.4166 97.4683C31.3843 97.2498 31.3682 97.0386 31.3682 96.8345ZM31.5562 94.4658L31.5669 95.2661H30.6378C30.3978 95.2661 30.1866 95.2894 30.004 95.3359C29.8213 95.3789 29.6692 95.4434 29.5474 95.5293C29.4257 95.6152 29.3344 95.7191 29.2735 95.8408C29.2126 95.9626 29.1822 96.1004 29.1822 96.2544C29.1822 96.4084 29.218 96.5498 29.2896 96.6787C29.3612 96.804 29.4651 96.9025 29.6011 96.9741C29.7408 97.0457 29.9091 97.0815 30.106 97.0815C30.371 97.0815 30.6019 97.0278 30.7989 96.9204C30.9994 96.8094 31.157 96.6751 31.2715 96.5176C31.3861 96.3564 31.447 96.2043 31.4542 96.061L31.8731 96.6357C31.8301 96.7826 31.7567 96.9401 31.6529 97.1084C31.549 97.2767 31.413 97.4378 31.2447 97.5918C31.08 97.7422 30.8812 97.8657 30.6485 97.9624C30.4193 98.0591 30.1544 98.1074 29.8536 98.1074C29.474 98.1074 29.1356 98.0322 28.8384 97.8818C28.5412 97.7279 28.3085 97.522 28.1402 97.2642C27.9719 97.0028 27.8878 96.7074 27.8878 96.3779C27.8878 96.07 27.945 95.7979 28.0596 95.5615C28.1778 95.3216 28.3497 95.1211 28.5753 94.96C28.8044 94.7988 29.0837 94.6771 29.4131 94.5947C29.7426 94.5088 30.1185 94.4658 30.5411 94.4658H31.5562ZM37.7125 89.6426H38.7599C38.7599 89.9613 38.7151 90.2244 38.6256 90.4321C38.5397 90.6362 38.4108 90.8045 38.2389 90.937C38.0706 91.0659 37.8611 91.1698 37.6105 91.2485C37.3634 91.3273 37.0769 91.3989 36.7511 91.4634C36.4503 91.5278 36.1782 91.6299 35.9347 91.7695C35.6948 91.9056 35.4925 92.0972 35.3277 92.3442C35.1666 92.5877 35.0502 92.901 34.9786 93.2842C34.907 93.6673 34.8855 94.1346 34.9142 94.686V95.0513L33.8883 95.1426V94.7773C33.8883 94.0934 33.951 93.4972 34.0763 92.9888C34.2016 92.4803 34.3789 92.0524 34.608 91.7051C34.8408 91.3542 35.1165 91.0749 35.4352 90.8672C35.7574 90.6595 36.1155 90.5163 36.5094 90.4375C36.7779 90.3802 37.0017 90.3229 37.1808 90.2656C37.3598 90.2048 37.4923 90.1278 37.5782 90.0347C37.6678 89.938 37.7125 89.8073 37.7125 89.6426ZM36.8048 92.5161C37.1915 92.5161 37.5353 92.5841 37.836 92.7202C38.1368 92.8527 38.3911 93.0389 38.5987 93.2788C38.8064 93.5187 38.964 93.8016 39.0714 94.1274C39.1824 94.4533 39.2379 94.8078 39.2379 95.1909V95.3091C39.2379 95.7101 39.1788 96.0807 39.0607 96.4209C38.9425 96.7611 38.7688 97.0583 38.5397 97.3125C38.3105 97.5632 38.0294 97.7601 37.6964 97.9033C37.367 98.043 36.9892 98.1128 36.5631 98.1128C36.1406 98.1128 35.7628 98.0394 35.4298 97.8926C35.0968 97.7458 34.8157 97.5417 34.5865 97.2803C34.3574 97.0153 34.1837 96.7056 34.0655 96.3511C33.9474 95.9966 33.8883 95.6099 33.8883 95.1909V95.0728C33.8847 94.9976 33.9044 94.9242 33.9474 94.8525C33.9939 94.7809 34.0494 94.7039 34.1139 94.6216C34.1783 94.5392 34.2356 94.4443 34.2858 94.3369C34.4648 93.9753 34.6761 93.6584 34.9195 93.3862C35.163 93.1141 35.4405 92.901 35.7521 92.7471C36.0672 92.5931 36.4181 92.5161 36.8048 92.5161ZM36.5524 93.542C36.2301 93.542 35.9669 93.619 35.7628 93.7729C35.5623 93.9233 35.4137 94.1239 35.317 94.3745C35.2239 94.6252 35.1774 94.8973 35.1774 95.1909V95.3091C35.1774 95.549 35.2042 95.7764 35.2579 95.9912C35.3116 96.2061 35.3922 96.3958 35.4996 96.5605C35.6106 96.7217 35.7539 96.8488 35.9293 96.9419C36.1083 97.035 36.3196 97.0815 36.5631 97.0815C36.8102 97.0815 37.0196 97.035 37.1915 96.9419C37.367 96.8488 37.5084 96.7217 37.6158 96.5605C37.7268 96.3958 37.8074 96.2061 37.8575 95.9912C37.9112 95.7764 37.9381 95.549 37.9381 95.3091V95.1909C37.9381 94.9689 37.9112 94.7594 37.8575 94.5625C37.8074 94.3656 37.7268 94.1919 37.6158 94.0415C37.5048 93.8875 37.3616 93.7658 37.1861 93.6763C37.0107 93.5868 36.7994 93.542 36.5524 93.542ZM44.2018 92.1885V93.2197H41.3659V92.1885H44.2018ZM45.217 92.1885V98H43.9225V92.1885H45.217ZM41.049 92.1885H42.3273L42.1716 95.062C42.1501 95.4881 42.1071 95.8641 42.0426 96.1899C41.9818 96.5122 41.8994 96.7897 41.7956 97.0225C41.6917 97.2516 41.5646 97.4378 41.4142 97.5811C41.2638 97.7243 41.0884 97.8299 40.8879 97.8979C40.6873 97.966 40.4618 98 40.2111 98H39.8083L39.8029 96.9365L40.007 96.9204C40.1395 96.9097 40.2541 96.8757 40.3507 96.8184C40.4474 96.7575 40.5298 96.6715 40.5978 96.5605C40.6694 96.4495 40.7267 96.3063 40.7697 96.1309C40.8162 95.9554 40.8521 95.7477 40.8771 95.5078C40.9058 95.2679 40.9272 94.9886 40.9416 94.6699L41.049 92.1885ZM46.3889 95.1587V95.0352C46.3889 94.6162 46.4498 94.2277 46.5715 93.8696C46.6933 93.508 46.8687 93.1947 47.0979 92.9297C47.3306 92.6611 47.6135 92.4535 47.9465 92.3066C48.2831 92.1562 48.6627 92.0811 49.0852 92.0811C49.5113 92.0811 49.8908 92.1562 50.2239 92.3066C50.5604 92.4535 50.8451 92.6611 51.0779 92.9297C51.3106 93.1947 51.4878 93.508 51.6096 93.8696C51.7313 94.2277 51.7922 94.6162 51.7922 95.0352V95.1587C51.7922 95.5776 51.7313 95.9661 51.6096 96.3242C51.4878 96.6823 51.3106 96.9956 51.0779 97.2642C50.8451 97.5291 50.5622 97.7368 50.2292 97.8872C49.8962 98.034 49.5184 98.1074 49.0959 98.1074C48.6698 98.1074 48.2885 98.034 47.9519 97.8872C47.6189 97.7368 47.336 97.5291 47.1032 97.2642C46.8705 96.9956 46.6933 96.6823 46.5715 96.3242C46.4498 95.9661 46.3889 95.5776 46.3889 95.1587ZM47.6833 95.0352V95.1587C47.6833 95.4201 47.7102 95.6672 47.7639 95.8999C47.8176 96.1326 47.9017 96.3368 48.0163 96.5122C48.1309 96.6877 48.2777 96.8255 48.4568 96.9258C48.6358 97.026 48.8489 97.0762 49.0959 97.0762C49.3358 97.0762 49.5435 97.026 49.719 96.9258C49.898 96.8255 50.0448 96.6877 50.1594 96.5122C50.274 96.3368 50.3581 96.1326 50.4118 95.8999C50.4691 95.6672 50.4978 95.4201 50.4978 95.1587V95.0352C50.4978 94.7773 50.4691 94.5339 50.4118 94.3047C50.3581 94.0719 50.2722 93.866 50.154 93.687C50.0394 93.508 49.8926 93.3683 49.7136 93.2681C49.5381 93.1642 49.3287 93.1123 49.0852 93.1123C48.8417 93.1123 48.6304 93.1642 48.4514 93.2681C48.2759 93.3683 48.1309 93.508 48.0163 93.687C47.9017 93.866 47.8176 94.0719 47.7639 94.3047C47.7102 94.5339 47.6833 94.7773 47.6833 95.0352ZM58.9808 96.8345V94.063C58.9808 93.8553 58.9432 93.6763 58.868 93.5259C58.7928 93.3755 58.6782 93.2591 58.5243 93.1768C58.3739 93.0944 58.1841 93.0532 57.9549 93.0532C57.7437 93.0532 57.561 93.089 57.4071 93.1606C57.2531 93.2323 57.1331 93.3289 57.0472 93.4507C56.9613 93.5724 56.9183 93.7103 56.9183 93.8643H55.6292C55.6292 93.6351 55.6847 93.4131 55.7957 93.1982C55.9067 92.9834 56.0679 92.7918 56.2791 92.6235C56.4904 92.4552 56.7428 92.3228 57.0365 92.2261C57.3301 92.1294 57.6595 92.0811 58.0247 92.0811C58.4616 92.0811 58.8483 92.1545 59.1849 92.3013C59.5251 92.4481 59.7918 92.6701 59.9852 92.9673C60.1821 93.2609 60.2806 93.6297 60.2806 94.0737V96.6572C60.2806 96.9222 60.2985 97.1603 60.3343 97.3716C60.3737 97.5793 60.4292 97.7601 60.5008 97.9141V98H59.1742C59.1133 97.8604 59.0649 97.6831 59.0291 97.4683C58.9969 97.2498 58.9808 97.0386 58.9808 96.8345ZM59.1688 94.4658L59.1795 95.2661H58.2503C58.0104 95.2661 57.7992 95.2894 57.6165 95.3359C57.4339 95.3789 57.2817 95.4434 57.16 95.5293C57.0383 95.6152 56.9469 95.7191 56.8861 95.8408C56.8252 95.9626 56.7948 96.1004 56.7948 96.2544C56.7948 96.4084 56.8306 96.5498 56.9022 96.6787C56.9738 96.804 57.0776 96.9025 57.2137 96.9741C57.3534 97.0457 57.5216 97.0815 57.7186 97.0815C57.9836 97.0815 58.2145 97.0278 58.4115 96.9204C58.612 96.8094 58.7695 96.6751 58.8841 96.5176C58.9987 96.3564 59.0596 96.2043 59.0667 96.061L59.4857 96.6357C59.4427 96.7826 59.3693 96.9401 59.2655 97.1084C59.1616 97.2767 59.0256 97.4378 58.8573 97.5918C58.6925 97.7422 58.4938 97.8657 58.2611 97.9624C58.0319 98.0591 57.7669 98.1074 57.4661 98.1074C57.0866 98.1074 56.7482 98.0322 56.451 97.8818C56.1538 97.7279 55.9211 97.522 55.7528 97.2642C55.5845 97.0028 55.5003 96.7074 55.5003 96.3779C55.5003 96.07 55.5576 95.7979 55.6722 95.5615C55.7904 95.3216 55.9622 95.1211 56.1878 94.96C56.417 94.7988 56.6963 94.6771 57.0257 94.5947C57.3551 94.5088 57.7311 94.4658 58.1536 94.4658H59.1688ZM63.7621 93.1123C63.5616 93.1123 63.3772 93.1553 63.2089 93.2412C63.0442 93.3236 62.9117 93.4399 62.8114 93.5903C62.7147 93.7371 62.6664 93.9108 62.6664 94.1113H61.4418C61.4418 93.7318 61.5474 93.3898 61.7587 93.0854C61.9735 92.7775 62.2564 92.534 62.6073 92.355C62.9582 92.1724 63.3432 92.0811 63.7621 92.0811C64.1882 92.0811 64.5642 92.158 64.89 92.312C65.2159 92.4624 65.4898 92.6719 65.7118 92.9404C65.9338 93.209 66.1003 93.5205 66.2113 93.875C66.3259 94.2259 66.3832 94.6019 66.3832 95.0029V95.1909C66.3832 95.592 66.3259 95.9679 66.2113 96.3188C66.0967 96.6698 65.9284 96.9813 65.7064 97.2534C65.4844 97.522 65.2105 97.7332 64.8847 97.8872C64.5624 98.0376 64.19 98.1128 63.7675 98.1128C63.3163 98.1128 62.9153 98.0197 62.5643 97.8335C62.2134 97.6473 61.9377 97.3913 61.7372 97.0654C61.5403 96.736 61.4418 96.3547 61.4418 95.9214H62.6664C62.6664 96.1398 62.7129 96.3368 62.806 96.5122C62.8991 96.6877 63.0281 96.8273 63.1928 96.9312C63.3575 97.0314 63.549 97.0815 63.7675 97.0815C64.0074 97.0815 64.2115 97.0278 64.3798 96.9204C64.5481 96.813 64.6841 96.6698 64.788 96.4907C64.8918 96.3117 64.967 96.1094 65.0136 95.8838C65.0601 95.6546 65.0834 95.4237 65.0834 95.1909V95.0029C65.0834 94.763 65.0601 94.5303 65.0136 94.3047C64.967 94.0791 64.8918 93.8768 64.788 93.6978C64.6877 93.5187 64.5517 93.3773 64.3798 93.2734C64.2115 93.166 64.0056 93.1123 63.7621 93.1123ZM65.5775 94.6162V95.4917H63.2196V94.6162H65.5775ZM68.8334 93.3057V100.234H67.539V92.1885H68.7314L68.8334 93.3057ZM72.6201 95.0405V95.1533C72.6201 95.5758 72.5699 95.9679 72.4697 96.3296C72.373 96.6877 72.228 97.001 72.0346 97.2695C71.8448 97.5345 71.6103 97.7404 71.331 97.8872C71.0517 98.034 70.7294 98.1074 70.3642 98.1074C70.0026 98.1074 69.6857 98.0412 69.4135 97.9087C69.145 97.7726 68.9176 97.5811 68.7314 97.334C68.5452 97.0869 68.3948 96.7969 68.2802 96.4639C68.1692 96.1273 68.0904 95.7585 68.0439 95.3574V94.9224C68.0904 94.4963 68.1692 94.1095 68.2802 93.7622C68.3948 93.4149 68.5452 93.1159 68.7314 92.8652C68.9176 92.6146 69.145 92.4212 69.4135 92.2852C69.6821 92.1491 69.9954 92.0811 70.3535 92.0811C70.7187 92.0811 71.0428 92.1527 71.3256 92.2959C71.6085 92.4355 71.8466 92.6361 72.04 92.8975C72.2333 93.1553 72.3784 93.4668 72.475 93.832C72.5717 94.1937 72.6201 94.5965 72.6201 95.0405ZM71.3256 95.1533V95.0405C71.3256 94.772 71.3006 94.5231 71.2504 94.2939C71.2003 94.0612 71.1215 93.8571 71.0141 93.6816C70.9067 93.5062 70.7688 93.3701 70.6005 93.2734C70.4358 93.1732 70.2371 93.123 70.0043 93.123C69.7752 93.123 69.5782 93.1624 69.4135 93.2412C69.2488 93.3164 69.111 93.422 69 93.5581C68.8889 93.6942 68.803 93.8535 68.7421 94.0361C68.6813 94.2152 68.6383 94.4103 68.6132 94.6216V95.6636C68.6562 95.9214 68.7296 96.1577 68.8334 96.3726C68.9373 96.5874 69.0841 96.7593 69.2739 96.8882C69.4672 97.0135 69.7143 97.0762 70.0151 97.0762C70.2478 97.0762 70.4466 97.026 70.6113 96.9258C70.776 96.8255 70.9103 96.6877 71.0141 96.5122C71.1215 96.3332 71.2003 96.1273 71.2504 95.8945C71.3006 95.6618 71.3256 95.4147 71.3256 95.1533ZM73.5181 95.1587V95.0352C73.5181 94.6162 73.5789 94.2277 73.7007 93.8696C73.8224 93.508 73.9979 93.1947 74.2271 92.9297C74.4598 92.6611 74.7427 92.4535 75.0757 92.3066C75.4123 92.1562 75.7918 92.0811 76.2144 92.0811C76.6405 92.0811 77.02 92.1562 77.353 92.3066C77.6896 92.4535 77.9743 92.6611 78.207 92.9297C78.4398 93.1947 78.617 93.508 78.7388 93.8696C78.8605 94.2277 78.9214 94.6162 78.9214 95.0352V95.1587C78.9214 95.5776 78.8605 95.9661 78.7388 96.3242C78.617 96.6823 78.4398 96.9956 78.207 97.2642C77.9743 97.5291 77.6914 97.7368 77.3584 97.8872C77.0254 98.034 76.6476 98.1074 76.2251 98.1074C75.799 98.1074 75.4176 98.034 75.0811 97.8872C74.7481 97.7368 74.4652 97.5291 74.2324 97.2642C73.9997 96.9956 73.8224 96.6823 73.7007 96.3242C73.5789 95.9661 73.5181 95.5776 73.5181 95.1587ZM74.8125 95.0352V95.1587C74.8125 95.4201 74.8394 95.6672 74.8931 95.8999C74.9468 96.1326 75.0309 96.3368 75.1455 96.5122C75.2601 96.6877 75.4069 96.8255 75.5859 96.9258C75.765 97.026 75.978 97.0762 76.2251 97.0762C76.465 97.0762 76.6727 97.026 76.8481 96.9258C77.0272 96.8255 77.174 96.6877 77.2886 96.5122C77.4032 96.3368 77.4873 96.1326 77.541 95.8999C77.5983 95.6672 77.627 95.4201 77.627 95.1587V95.0352C77.627 94.7773 77.5983 94.5339 77.541 94.3047C77.4873 94.0719 77.4014 93.866 77.2832 93.687C77.1686 93.508 77.0218 93.3683 76.8428 93.2681C76.6673 93.1642 76.4578 93.1123 76.2144 93.1123C75.9709 93.1123 75.7596 93.1642 75.5806 93.2681C75.4051 93.3683 75.2601 93.508 75.1455 93.687C75.0309 93.866 74.9468 94.0719 74.8931 94.3047C74.8394 94.5339 74.8125 94.7773 74.8125 95.0352ZM83.9498 92.1885V93.2197H81.0816V92.1885H83.9498ZM81.3878 92.1885V98H80.0933V92.1885H81.3878ZM84.9649 92.1885V98H83.6651V92.1885H84.9649ZM86.1315 95.1587V95.0352C86.1315 94.6162 86.1923 94.2277 86.3141 93.8696C86.4358 93.508 86.6113 93.1947 86.8404 92.9297C87.0732 92.6611 87.3561 92.4535 87.6891 92.3066C88.0257 92.1562 88.4052 92.0811 88.8278 92.0811C89.2539 92.0811 89.6334 92.1562 89.9664 92.3066C90.303 92.4535 90.5877 92.6611 90.8204 92.9297C91.0532 93.1947 91.2304 93.508 91.3522 93.8696C91.4739 94.2277 91.5348 94.6162 91.5348 95.0352V95.1587C91.5348 95.5776 91.4739 95.9661 91.3522 96.3242C91.2304 96.6823 91.0532 96.9956 90.8204 97.2642C90.5877 97.5291 90.3048 97.7368 89.9718 97.8872C89.6388 98.034 89.261 98.1074 88.8385 98.1074C88.4124 98.1074 88.031 98.034 87.6945 97.8872C87.3614 97.7368 87.0786 97.5291 86.8458 97.2642C86.6131 96.9956 86.4358 96.6823 86.3141 96.3242C86.1923 95.9661 86.1315 95.5776 86.1315 95.1587ZM87.4259 95.0352V95.1587C87.4259 95.4201 87.4528 95.6672 87.5065 95.8999C87.5602 96.1326 87.6443 96.3368 87.7589 96.5122C87.8735 96.6877 88.0203 96.8255 88.1993 96.9258C88.3784 97.026 88.5914 97.0762 88.8385 97.0762C89.0784 97.0762 89.2861 97.026 89.4615 96.9258C89.6406 96.8255 89.7874 96.6877 89.902 96.5122C90.0166 96.3368 90.1007 96.1326 90.1544 95.8999C90.2117 95.6672 90.2403 95.4201 90.2403 95.1587V95.0352C90.2403 94.7773 90.2117 94.5339 90.1544 94.3047C90.1007 94.0719 90.0148 93.866 89.8966 93.687C89.782 93.508 89.6352 93.3683 89.4562 93.2681C89.2807 93.1642 89.0712 93.1123 88.8278 93.1123C88.5843 93.1123 88.373 93.1642 88.194 93.2681C88.0185 93.3683 87.8735 93.508 87.7589 93.687C87.6443 93.866 87.5602 94.0719 87.5065 94.3047C87.4528 94.5339 87.4259 94.7773 87.4259 95.0352ZM93.9635 93.3057V100.234H92.6691V92.1885H93.8615L93.9635 93.3057ZM97.7502 95.0405V95.1533C97.7502 95.5758 97.7 95.9679 97.5998 96.3296C97.5031 96.6877 97.3581 97.001 97.1647 97.2695C96.9749 97.5345 96.7404 97.7404 96.4611 97.8872C96.1818 98.034 95.8595 98.1074 95.4943 98.1074C95.1327 98.1074 94.8158 98.0412 94.5436 97.9087C94.2751 97.7726 94.0477 97.5811 93.8615 97.334C93.6753 97.0869 93.5249 96.7969 93.4103 96.4639C93.2993 96.1273 93.2205 95.7585 93.174 95.3574V94.9224C93.2205 94.4963 93.2993 94.1095 93.4103 93.7622C93.5249 93.4149 93.6753 93.1159 93.8615 92.8652C94.0477 92.6146 94.2751 92.4212 94.5436 92.2852C94.8122 92.1491 95.1255 92.0811 95.4836 92.0811C95.8488 92.0811 96.1729 92.1527 96.4557 92.2959C96.7386 92.4355 96.9767 92.6361 97.1701 92.8975C97.3634 93.1553 97.5085 93.4668 97.6051 93.832C97.7018 94.1937 97.7502 94.5965 97.7502 95.0405ZM96.4557 95.1533V95.0405C96.4557 94.772 96.4307 94.5231 96.3805 94.2939C96.3304 94.0612 96.2516 93.8571 96.1442 93.6816C96.0368 93.5062 95.8989 93.3701 95.7306 93.2734C95.5659 93.1732 95.3672 93.123 95.1344 93.123C94.9053 93.123 94.7083 93.1624 94.5436 93.2412C94.3789 93.3164 94.2411 93.422 94.1301 93.5581C94.019 93.6942 93.9331 93.8535 93.8722 94.0361C93.8114 94.2152 93.7684 94.4103 93.7433 94.6216V95.6636C93.7863 95.9214 93.8597 96.1577 93.9635 96.3726C94.0674 96.5874 94.2142 96.7593 94.404 96.8882C94.5973 97.0135 94.8444 97.0762 95.1452 97.0762C95.3779 97.0762 95.5767 97.026 95.7414 96.9258C95.9061 96.8255 96.0404 96.6877 96.1442 96.5122C96.2516 96.3332 96.3304 96.1273 96.3805 95.8945C96.4307 95.6618 96.4557 95.4147 96.4557 95.1533ZM101.237 92.1885V98H99.9372V92.1885H101.237ZM103.144 92.1885V93.209H98.0627V92.1885H103.144ZM107.243 96.8345V94.063C107.243 93.8553 107.205 93.6763 107.13 93.5259C107.055 93.3755 106.94 93.2591 106.786 93.1768C106.636 93.0944 106.446 93.0532 106.217 93.0532C106.006 93.0532 105.823 93.089 105.669 93.1606C105.515 93.2323 105.395 93.3289 105.309 93.4507C105.223 93.5724 105.18 93.7103 105.18 93.8643H103.891C103.891 93.6351 103.947 93.4131 104.058 93.1982C104.169 92.9834 104.33 92.7918 104.541 92.6235C104.753 92.4552 105.005 92.3228 105.299 92.2261C105.592 92.1294 105.922 92.0811 106.287 92.0811C106.724 92.0811 107.11 92.1545 107.447 92.3013C107.787 92.4481 108.054 92.6701 108.247 92.9673C108.444 93.2609 108.543 93.6297 108.543 94.0737V96.6572C108.543 96.9222 108.561 97.1603 108.596 97.3716C108.636 97.5793 108.691 97.7601 108.763 97.9141V98H107.436C107.375 97.8604 107.327 97.6831 107.291 97.4683C107.259 97.2498 107.243 97.0386 107.243 96.8345ZM107.431 94.4658L107.442 95.2661H106.512C106.273 95.2661 106.061 95.2894 105.879 95.3359C105.696 95.3789 105.544 95.4434 105.422 95.5293C105.3 95.6152 105.209 95.7191 105.148 95.8408C105.087 95.9626 105.057 96.1004 105.057 96.2544C105.057 96.4084 105.093 96.5498 105.164 96.6787C105.236 96.804 105.34 96.9025 105.476 96.9741C105.616 97.0457 105.784 97.0815 105.981 97.0815C106.246 97.0815 106.477 97.0278 106.674 96.9204C106.874 96.8094 107.032 96.6751 107.146 96.5176C107.261 96.3564 107.322 96.2043 107.329 96.061L107.748 96.6357C107.705 96.7826 107.631 96.9401 107.528 97.1084C107.424 97.2767 107.288 97.4378 107.119 97.5918C106.955 97.7422 106.756 97.8657 106.523 97.9624C106.294 98.0591 106.029 98.1074 105.728 98.1074C105.349 98.1074 105.01 98.0322 104.713 97.8818C104.416 97.7279 104.183 97.522 104.015 97.2642C103.847 97.0028 103.762 96.7074 103.762 96.3779C103.762 96.07 103.82 95.7979 103.934 95.5615C104.053 95.3216 104.224 95.1211 104.45 94.96C104.679 94.7988 104.958 94.6771 105.288 94.5947C105.617 94.5088 105.993 94.4658 106.416 94.4658H107.431Z" fill="white"/>
<path fill-rule="evenodd" clip-rule="evenodd" d="M40.923 62.5015C40.9486 62.5005 40.9742 62.5 40.9998 62.5C41.7736 62.5 42.7105 62.6819 43.5195 63.0866C44.2573 63.4557 45.4995 64.3525 45.4995 66.0003C45.4995 67.6484 44.2569 68.545 43.519 68.914C42.7465 69.3002 41.8573 69.4832 41.1053 69.4989L36.8351 69.9001L33.52 72.8257C32.9031 73.3702 32.0577 73.5762 31.2595 73.3766L30.0435 73.0726C28.6212 72.7171 27.8088 71.2196 28.286 69.8335L28.4013 69.4985L25.9093 69.0194C25.0217 68.8487 24.2953 68.2123 24.0095 67.3548L22.8216 63.7905C22.2821 62.1717 23.487 60.5 25.1933 60.5H26.2166C27.0947 60.5 27.9084 60.9607 28.3602 61.7136L28.9543 62.7037L29.1057 62.956L40.923 62.5015ZM30.1771 70.4845C30.0816 70.7618 30.2441 71.0612 30.5286 71.1324L31.7445 71.4364C31.9042 71.4763 32.0732 71.4351 32.1966 71.3262L35.8778 68.0774C35.9571 68.0074 36.0566 67.9644 36.1619 67.9545L40.9997 67.5C41.9997 67.5 43.4995 67.0001 43.4995 66.0003C43.4995 65.0005 41.9998 64.5 40.9998 64.5L28.2955 64.9886C28.1132 64.9957 27.9415 64.9028 27.8476 64.7463L26.6453 62.7427C26.6028 62.6719 26.5443 62.614 26.4759 62.5725C26.399 62.5258 26.3096 62.5 26.2166 62.5H25.1933C24.8521 62.5 24.6111 62.8343 24.719 63.1581L25.9069 66.7224C25.9641 66.8939 26.1093 67.0212 26.2868 67.0554L30.4769 67.8609C30.7756 67.9184 30.9543 68.227 30.8552 68.5147L30.1771 70.4845ZM24.5003 75.9999C24.5003 75.4476 24.948 74.9999 25.5003 74.9999H42.5003C43.0526 74.9999 43.5003 75.4476 43.5003 75.9999C43.5003 76.5522 43.0526 76.9999 42.5003 76.9999H25.5003C24.948 76.9999 24.5003 76.5522 24.5003 75.9999ZM37.4906 65.782C37.2155 65.8061 37.012 66.0486 37.036 66.3237C37.0601 66.5988 37.3026 66.8023 37.5777 66.7782C37.8528 66.7541 38.0563 66.5116 38.0322 66.2365C38.0082 65.9614 37.7657 65.758 37.4906 65.782ZM39.0282 66.1494C39.0042 65.8743 39.2077 65.6318 39.4827 65.6077C39.7578 65.5836 40.0004 65.7871 40.0244 66.0622C40.0485 66.3373 39.845 66.5798 39.5699 66.6039C39.2948 66.628 39.0523 66.4245 39.0282 66.1494ZM35.4984 65.9563C35.2233 65.9804 35.0198 66.2229 35.0439 66.498C35.0679 66.7731 35.3104 66.9766 35.5855 66.9525C35.8606 66.9285 36.0641 66.6859 36.0401 66.4109C36.016 66.1358 35.7735 65.9323 35.4984 65.9563Z" fill="white"/>
</g>
</g>
<g filter="url(#filter2_d_6_4972)">
<g clip-path="url(#clip3_6_4972)">
<rect opacity="0.8" x="124" y="48" width="104" height="72" rx="12" fill="url(#paint1_linear_6_4972)"/>
<path d="M133.719 92.1885H135.013L134.949 94.2349C134.931 94.8293 134.863 95.3395 134.745 95.7656C134.626 96.1917 134.472 96.5516 134.283 96.8452C134.093 97.1353 133.878 97.3734 133.638 97.5596C133.402 97.7458 133.153 97.8926 132.892 98H132.51V96.9795L132.693 96.9688C132.847 96.804 132.979 96.6393 133.09 96.4746C133.205 96.3063 133.302 96.1219 133.38 95.9214C133.459 95.7173 133.52 95.4792 133.563 95.207C133.61 94.9349 133.64 94.6108 133.654 94.2349L133.719 92.1885ZM134.062 92.1885H137.747V98H136.458V93.2842H134.062V92.1885ZM132.215 96.9688H138.542V99.7295H137.248V98H133.525V99.7295H132.209L132.215 96.9688ZM139.263 95.1587V95.0352C139.263 94.6162 139.324 94.2277 139.445 93.8696C139.567 93.508 139.743 93.1947 139.972 92.9297C140.204 92.6611 140.487 92.4535 140.82 92.3066C141.157 92.1562 141.537 92.0811 141.959 92.0811C142.385 92.0811 142.765 92.1562 143.098 92.3066C143.434 92.4535 143.719 92.6611 143.952 92.9297C144.184 93.1947 144.362 93.508 144.483 93.8696C144.605 94.2277 144.666 94.6162 144.666 95.0352V95.1587C144.666 95.5776 144.605 95.9661 144.483 96.3242C144.362 96.6823 144.184 96.9956 143.952 97.2642C143.719 97.5291 143.436 97.7368 143.103 97.8872C142.77 98.034 142.392 98.1074 141.97 98.1074C141.544 98.1074 141.162 98.034 140.826 97.8872C140.493 97.7368 140.21 97.5291 139.977 97.2642C139.744 96.9956 139.567 96.6823 139.445 96.3242C139.324 95.9661 139.263 95.5776 139.263 95.1587ZM140.557 95.0352V95.1587C140.557 95.4201 140.584 95.6672 140.638 95.8999C140.691 96.1326 140.776 96.3368 140.89 96.5122C141.005 96.6877 141.152 96.8255 141.331 96.9258C141.51 97.026 141.723 97.0762 141.97 97.0762C142.21 97.0762 142.417 97.026 142.593 96.9258C142.772 96.8255 142.919 96.6877 143.033 96.5122C143.148 96.3368 143.232 96.1326 143.286 95.8999C143.343 95.6672 143.372 95.4201 143.372 95.1587V95.0352C143.372 94.7773 143.343 94.5339 143.286 94.3047C143.232 94.0719 143.146 93.866 143.028 93.687C142.913 93.508 142.766 93.3683 142.587 93.2681C142.412 93.1642 142.203 93.1123 141.959 93.1123C141.716 93.1123 141.504 93.1642 141.325 93.2681C141.15 93.3683 141.005 93.508 140.89 93.687C140.776 93.866 140.691 94.0719 140.638 94.3047C140.584 94.5339 140.557 94.7773 140.557 95.0352ZM148.169 97.0762C148.38 97.0762 148.57 97.035 148.738 96.9526C148.91 96.8667 149.048 96.7485 149.152 96.5981C149.259 96.4478 149.318 96.2741 149.329 96.0771H150.548C150.541 96.4531 150.43 96.7951 150.215 97.103C150.001 97.411 149.716 97.6562 149.361 97.8389C149.007 98.0179 148.615 98.1074 148.185 98.1074C147.741 98.1074 147.354 98.0322 147.025 97.8818C146.696 97.7279 146.422 97.5166 146.203 97.248C145.985 96.9795 145.82 96.6698 145.709 96.3188C145.602 95.9679 145.548 95.592 145.548 95.1909V95.0029C145.548 94.6019 145.602 94.2259 145.709 93.875C145.82 93.5205 145.985 93.209 146.203 92.9404C146.422 92.6719 146.696 92.4624 147.025 92.312C147.354 92.158 147.739 92.0811 148.18 92.0811C148.645 92.0811 149.053 92.1742 149.404 92.3604C149.755 92.543 150.031 92.799 150.232 93.1284C150.436 93.4543 150.541 93.8338 150.548 94.2671H149.329C149.318 94.0522 149.265 93.8589 149.168 93.687C149.075 93.5116 148.942 93.3719 148.771 93.2681C148.602 93.1642 148.4 93.1123 148.164 93.1123C147.902 93.1123 147.686 93.166 147.514 93.2734C147.342 93.3773 147.208 93.5205 147.111 93.7031C147.014 93.8822 146.944 94.0845 146.901 94.3101C146.862 94.5321 146.842 94.763 146.842 95.0029V95.1909C146.842 95.4308 146.862 95.6636 146.901 95.8892C146.941 96.1147 147.009 96.3171 147.106 96.4961C147.206 96.6715 147.342 96.813 147.514 96.9204C147.686 97.0243 147.904 97.0762 148.169 97.0762ZM154.282 92.1885V98H152.983V92.1885H154.282ZM156.189 92.1885V93.209H151.108V92.1885H156.189ZM158.849 97.3662L160.428 92.1885H161.814L159.483 98.8862C159.429 99.0295 159.359 99.1852 159.273 99.3535C159.187 99.5218 159.074 99.6812 158.935 99.8315C158.799 99.9855 158.629 100.109 158.425 100.202C158.22 100.299 157.973 100.347 157.683 100.347C157.569 100.347 157.458 100.336 157.35 100.315C157.246 100.297 157.148 100.277 157.055 100.256L157.05 99.2676C157.085 99.2712 157.128 99.2747 157.178 99.2783C157.232 99.2819 157.275 99.2837 157.307 99.2837C157.522 99.2837 157.701 99.2568 157.844 99.2031C157.988 99.153 158.104 99.0706 158.194 98.9561C158.287 98.8415 158.365 98.6875 158.43 98.4941L158.849 97.3662ZM157.957 92.1885L159.338 96.5391L159.569 97.9033L158.672 98.1343L156.561 92.1885H157.957ZM166.498 92.1885V93.2197H163.63V92.1885H166.498ZM163.936 92.1885V98H162.642V92.1885H163.936ZM167.513 92.1885V98H166.214V92.1885H167.513ZM172.896 94.6162V95.6367H169.889V94.6162H172.896ZM170.264 92.1885V98H168.97V92.1885H170.264ZM173.831 92.1885V98H172.536V92.1885H173.831ZM178.532 96.8345V94.063C178.532 93.8553 178.494 93.6763 178.419 93.5259C178.344 93.3755 178.229 93.2591 178.075 93.1768C177.925 93.0944 177.735 93.0532 177.506 93.0532C177.294 93.0532 177.112 93.089 176.958 93.1606C176.804 93.2323 176.684 93.3289 176.598 93.4507C176.512 93.5724 176.469 93.7103 176.469 93.8643H175.18C175.18 93.6351 175.236 93.4131 175.347 93.1982C175.458 92.9834 175.619 92.7918 175.83 92.6235C176.041 92.4552 176.294 92.3228 176.587 92.2261C176.881 92.1294 177.21 92.0811 177.576 92.0811C178.012 92.0811 178.399 92.1545 178.736 92.3013C179.076 92.4481 179.343 92.6701 179.536 92.9673C179.733 93.2609 179.831 93.6297 179.831 94.0737V96.6572C179.831 96.9222 179.849 97.1603 179.885 97.3716C179.925 97.5793 179.98 97.7601 180.052 97.9141V98H178.725C178.664 97.8604 178.616 97.6831 178.58 97.4683C178.548 97.2498 178.532 97.0386 178.532 96.8345ZM178.72 94.4658L178.73 95.2661H177.801C177.561 95.2661 177.35 95.2894 177.167 95.3359C176.985 95.3789 176.833 95.4434 176.711 95.5293C176.589 95.6152 176.498 95.7191 176.437 95.8408C176.376 95.9626 176.346 96.1004 176.346 96.2544C176.346 96.4084 176.381 96.5498 176.453 96.6787C176.525 96.804 176.628 96.9025 176.765 96.9741C176.904 97.0457 177.072 97.0815 177.269 97.0815C177.534 97.0815 177.765 97.0278 177.962 96.9204C178.163 96.8094 178.32 96.6751 178.435 96.5176C178.55 96.3564 178.61 96.2043 178.618 96.061L179.037 96.6357C178.994 96.7826 178.92 96.9401 178.816 97.1084C178.712 97.2767 178.576 97.4378 178.408 97.5918C178.243 97.7422 178.045 97.8657 177.812 97.9624C177.583 98.0591 177.318 98.1074 177.017 98.1074C176.637 98.1074 176.299 98.0322 176.002 97.8818C175.705 97.7279 175.472 97.522 175.304 97.2642C175.135 97.0028 175.051 96.7074 175.051 96.3779C175.051 96.07 175.108 95.7979 175.223 95.5615C175.341 95.3216 175.513 95.1211 175.739 94.96C175.968 94.7988 176.247 94.6771 176.577 94.5947C176.906 94.5088 177.282 94.4658 177.704 94.4658H178.72ZM182.454 95.1587H183.796L182.147 98H180.81L182.454 95.1587ZM183.399 92.1885H185.891V98H184.602V93.209H183.399C183.155 93.209 182.955 93.252 182.797 93.3379C182.64 93.4202 182.523 93.5295 182.448 93.6655C182.373 93.798 182.335 93.9341 182.335 94.0737C182.335 94.2134 182.369 94.3477 182.437 94.4766C182.509 94.6055 182.618 94.7111 182.765 94.7935C182.915 94.8758 183.103 94.917 183.329 94.917H185.037V95.8623H183.329C182.971 95.8623 182.651 95.8175 182.368 95.728C182.085 95.6349 181.845 95.5078 181.648 95.3467C181.451 95.182 181.301 94.9904 181.197 94.772C181.093 94.55 181.041 94.3083 181.041 94.0469C181.041 93.7783 181.095 93.5312 181.202 93.3057C181.31 93.0801 181.463 92.8831 181.664 92.7148C181.868 92.5465 182.115 92.4176 182.405 92.3281C182.699 92.235 183.03 92.1885 183.399 92.1885ZM190.201 98V92.1885H191.495V96.9688H193.773V92.1885H195.072V98H190.201ZM195.862 96.9741L195.76 99.7241H194.573V98H193.875V96.9741H195.862ZM199.381 98.1074C198.951 98.1074 198.563 98.0376 198.215 97.8979C197.872 97.7547 197.578 97.556 197.335 97.3018C197.095 97.0475 196.91 96.7485 196.781 96.4048C196.652 96.061 196.588 95.6904 196.588 95.293V95.0781C196.588 94.6234 196.654 94.2116 196.787 93.8428C196.919 93.474 197.104 93.1589 197.34 92.8975C197.576 92.6325 197.856 92.4302 198.178 92.2905C198.5 92.1509 198.849 92.0811 199.225 92.0811C199.641 92.0811 200.004 92.1509 200.316 92.2905C200.627 92.4302 200.885 92.6271 201.089 92.8813C201.297 93.132 201.451 93.431 201.551 93.7783C201.655 94.1257 201.707 94.5088 201.707 94.9277V95.481H197.216V94.5518H200.428V94.4497C200.421 94.217 200.375 93.9985 200.289 93.7944C200.206 93.5903 200.079 93.4256 199.907 93.3003C199.735 93.175 199.506 93.1123 199.22 93.1123C199.005 93.1123 198.813 93.1589 198.645 93.252C198.48 93.3415 198.343 93.4722 198.232 93.644C198.121 93.8159 198.035 94.0236 197.974 94.2671C197.916 94.507 197.888 94.7773 197.888 95.0781V95.293C197.888 95.5472 197.922 95.7835 197.99 96.002C198.061 96.2168 198.165 96.4048 198.301 96.5659C198.437 96.7271 198.602 96.8542 198.796 96.9473C198.989 97.0368 199.209 97.0815 199.456 97.0815C199.768 97.0815 200.045 97.0189 200.289 96.8936C200.532 96.7682 200.743 96.591 200.922 96.3618L201.605 97.0225C201.479 97.2051 201.316 97.3805 201.116 97.5488C200.915 97.7135 200.67 97.8478 200.38 97.9517C200.094 98.0555 199.761 98.1074 199.381 98.1074ZM206.73 94.6162V95.6367H203.722V94.6162H206.73ZM204.098 92.1885V98H202.803V92.1885H204.098ZM207.664 92.1885V98H206.37V92.1885H207.664ZM212.365 96.8345V94.063C212.365 93.8553 212.327 93.6763 212.252 93.5259C212.177 93.3755 212.062 93.2591 211.908 93.1768C211.758 93.0944 211.568 93.0532 211.339 93.0532C211.128 93.0532 210.945 93.089 210.791 93.1606C210.637 93.2323 210.517 93.3289 210.431 93.4507C210.345 93.5724 210.302 93.7103 210.302 93.8643H209.013C209.013 93.6351 209.069 93.4131 209.18 93.1982C209.291 92.9834 209.452 92.7918 209.663 92.6235C209.875 92.4552 210.127 92.3228 210.421 92.2261C210.714 92.1294 211.044 92.0811 211.409 92.0811C211.846 92.0811 212.232 92.1545 212.569 92.3013C212.909 92.4481 213.176 92.6701 213.369 92.9673C213.566 93.2609 213.665 93.6297 213.665 94.0737V96.6572C213.665 96.9222 213.683 97.1603 213.718 97.3716C213.758 97.5793 213.813 97.7601 213.885 97.9141V98H212.558C212.497 97.8604 212.449 97.6831 212.413 97.4683C212.381 97.2498 212.365 97.0386 212.365 96.8345ZM212.553 94.4658L212.564 95.2661H211.634C211.395 95.2661 211.183 95.2894 211.001 95.3359C210.818 95.3789 210.666 95.4434 210.544 95.5293C210.422 95.6152 210.331 95.7191 210.27 95.8408C210.209 95.9626 210.179 96.1004 210.179 96.2544C210.179 96.4084 210.215 96.5498 210.286 96.6787C210.358 96.804 210.462 96.9025 210.598 96.9741C210.738 97.0457 210.906 97.0815 211.103 97.0815C211.368 97.0815 211.599 97.0278 211.796 96.9204C211.996 96.8094 212.154 96.6751 212.268 96.5176C212.383 96.3564 212.444 96.2043 212.451 96.061L212.87 96.6357C212.827 96.7826 212.753 96.9401 212.65 97.1084C212.546 97.2767 212.41 97.4378 212.241 97.5918C212.077 97.7422 211.878 97.8657 211.645 97.9624C211.416 98.0591 211.151 98.1074 210.85 98.1074C210.471 98.1074 210.132 98.0322 209.835 97.8818C209.538 97.7279 209.305 97.522 209.137 97.2642C208.969 97.0028 208.884 96.7074 208.884 96.3779C208.884 96.07 208.942 95.7979 209.056 95.5615C209.175 95.3216 209.346 95.1211 209.572 94.96C209.801 94.7988 210.08 94.6771 210.41 94.5947C210.739 94.5088 211.115 94.4658 211.538 94.4658H212.553Z" fill="white"/>
<path fill-rule="evenodd" clip-rule="evenodd" d="M147.138 61.0308C146.902 60.8479 146.75 60.5618 146.75 60.2402V59.9902C146.75 59.4379 147.198 58.9902 147.75 58.9902H149.25C149.803 58.9902 150.25 59.4379 150.25 59.9902V60.2402C150.25 60.5618 150.099 60.848 149.863 61.0309C150.254 61.1297 150.558 61.4598 150.61 61.8765L151.36 67.8765C151.365 67.9181 151.367 67.9594 151.368 68.0002H153C153.313 68.0002 153.608 68.1469 153.797 68.3964C153.986 68.6459 154.047 68.9696 153.963 69.271L152.123 75.8125C151.759 77.1063 150.579 78.0002 149.235 78.0002H138.765C137.421 78.0002 136.241 77.1063 135.877 75.8125L134.037 69.271C133.953 68.9696 134.014 68.6459 134.203 68.3964C134.392 68.1469 134.687 68.0002 135 68.0002H139.254L134.525 65.2699C134.046 64.9937 133.883 64.3821 134.159 63.9039L134.22 63.7969C134.497 63.3186 135.108 63.1547 135.586 63.4308L143.501 68.0002H144.821C144.652 67.6548 144.382 67.3543 144.024 67.1476L140 64.8242V62.4808C140 62.177 140.138 61.8897 140.375 61.6999L141.875 60.4999C142.241 60.2077 142.759 60.2077 143.125 60.4999L144.625 61.6999C144.862 61.8897 145 62.177 145 62.4808V68.0001V68.0002H145.633C145.633 67.9594 145.635 67.9181 145.641 67.8765L146.391 61.8765C146.443 61.4597 146.747 61.1296 147.138 61.0308ZM136.32 70.0002L137.802 75.271C137.924 75.7023 138.317 76.0002 138.765 76.0002H149.235C149.683 76.0002 150.076 75.7023 150.198 75.271L151.68 70.0002H136.32ZM139 74.0002C139 74.5525 139.448 75.0002 140 75.0002C140.552 75.0002 141 74.5525 141 74.0002V72.0002C141 71.448 140.552 71.0002 140 71.0002C139.448 71.0002 139 71.448 139 72.0002V74.0002ZM144 75.0002C143.448 75.0002 143 74.5525 143 74.0002V72.0002C143 71.448 143.448 71.0002 144 71.0002C144.552 71.0002 145 71.448 145 72.0002V74.0002C145 74.5525 144.552 75.0002 144 75.0002ZM147 74.0002C147 74.5525 147.448 75.0002 148 75.0002C148.552 75.0002 149 74.5525 149 74.0002V72.0002C149 71.448 148.552 71.0002 148 71.0002C147.448 71.0002 147 71.448 147 72.0002V74.0002Z" fill="white"/>
</g>
</g>
<g filter="url(#filter3_d_6_4972)">
<g clip-path="url(#clip4_6_4972)">
<rect opacity="0.8" x="234" y="48" width="104" height="72" rx="12" fill="url(#paint2_linear_6_4972)"/>
<path d="M246.533 92.1885V93.2197H243.998V98H242.704V92.1885H246.533ZM246.975 95.1587V95.0352C246.975 94.6162 247.036 94.2277 247.157 93.8696C247.279 93.508 247.454 93.1947 247.684 92.9297C247.916 92.6611 248.199 92.4535 248.532 92.3066C248.869 92.1562 249.248 92.0811 249.671 92.0811C250.097 92.0811 250.477 92.1562 250.81 92.3066C251.146 92.4535 251.431 92.6611 251.664 92.9297C251.896 93.1947 252.074 93.508 252.195 93.8696C252.317 94.2277 252.378 94.6162 252.378 95.0352V95.1587C252.378 95.5776 252.317 95.9661 252.195 96.3242C252.074 96.6823 251.896 96.9956 251.664 97.2642C251.431 97.5291 251.148 97.7368 250.815 97.8872C250.482 98.034 250.104 98.1074 249.682 98.1074C249.256 98.1074 248.874 98.034 248.538 97.8872C248.205 97.7368 247.922 97.5291 247.689 97.2642C247.456 96.9956 247.279 96.6823 247.157 96.3242C247.036 95.9661 246.975 95.5776 246.975 95.1587ZM248.269 95.0352V95.1587C248.269 95.4201 248.296 95.6672 248.35 95.8999C248.403 96.1326 248.488 96.3368 248.602 96.5122C248.717 96.6877 248.863 96.8255 249.043 96.9258C249.222 97.026 249.435 97.0762 249.682 97.0762C249.922 97.0762 250.129 97.026 250.305 96.9258C250.484 96.8255 250.631 96.6877 250.745 96.5122C250.86 96.3368 250.944 96.1326 250.998 95.8999C251.055 95.6672 251.084 95.4201 251.084 95.1587V95.0352C251.084 94.7773 251.055 94.5339 250.998 94.3047C250.944 94.0719 250.858 93.866 250.74 93.687C250.625 93.508 250.478 93.3683 250.299 93.2681C250.124 93.1642 249.914 93.1123 249.671 93.1123C249.427 93.1123 249.216 93.1642 249.037 93.2681C248.862 93.3683 248.717 93.508 248.602 93.687C248.488 93.866 248.403 94.0719 248.35 94.3047C248.296 94.5339 248.269 94.7773 248.269 95.0352ZM257.326 92.1885V93.2197H254.49V92.1885H257.326ZM258.341 92.1885V98H257.046V92.1885H258.341ZM254.173 92.1885H255.451L255.296 95.062C255.274 95.4881 255.231 95.8641 255.167 96.1899C255.106 96.5122 255.023 96.7897 254.92 97.0225C254.816 97.2516 254.689 97.4378 254.538 97.5811C254.388 97.7243 254.212 97.8299 254.012 97.8979C253.811 97.966 253.586 98 253.335 98H252.932L252.927 96.9365L253.131 96.9204C253.263 96.9097 253.378 96.8757 253.475 96.8184C253.571 96.7575 253.654 96.6715 253.722 96.5605C253.793 96.4495 253.851 96.3063 253.894 96.1309C253.94 95.9554 253.976 95.7477 254.001 95.5078C254.03 95.2679 254.051 94.9886 254.066 94.6699L254.173 92.1885ZM259.513 95.1587V95.0352C259.513 94.6162 259.574 94.2277 259.695 93.8696C259.817 93.508 259.993 93.1947 260.222 92.9297C260.455 92.6611 260.737 92.4535 261.07 92.3066C261.407 92.1562 261.787 92.0811 262.209 92.0811C262.635 92.0811 263.015 92.1562 263.348 92.3066C263.684 92.4535 263.969 92.6611 264.202 92.9297C264.435 93.1947 264.612 93.508 264.734 93.8696C264.855 94.2277 264.916 94.6162 264.916 95.0352V95.1587C264.916 95.5776 264.855 95.9661 264.734 96.3242C264.612 96.6823 264.435 96.9956 264.202 97.2642C263.969 97.5291 263.686 97.7368 263.353 97.8872C263.02 98.034 262.642 98.1074 262.22 98.1074C261.794 98.1074 261.412 98.034 261.076 97.8872C260.743 97.7368 260.46 97.5291 260.227 97.2642C259.994 96.9956 259.817 96.6823 259.695 96.3242C259.574 95.9661 259.513 95.5776 259.513 95.1587ZM260.807 95.0352V95.1587C260.807 95.4201 260.834 95.6672 260.888 95.8999C260.942 96.1326 261.026 96.3368 261.14 96.5122C261.255 96.6877 261.402 96.8255 261.581 96.9258C261.76 97.026 261.973 97.0762 262.22 97.0762C262.46 97.0762 262.667 97.026 262.843 96.9258C263.022 96.8255 263.169 96.6877 263.283 96.5122C263.398 96.3368 263.482 96.1326 263.536 95.8999C263.593 95.6672 263.622 95.4201 263.622 95.1587V95.0352C263.622 94.7773 263.593 94.5339 263.536 94.3047C263.482 94.0719 263.396 93.866 263.278 93.687C263.163 93.508 263.017 93.3683 262.838 93.2681C262.662 93.1642 262.453 93.1123 262.209 93.1123C261.966 93.1123 261.754 93.1642 261.575 93.2681C261.4 93.3683 261.255 93.508 261.14 93.687C261.026 93.866 260.942 94.0719 260.888 94.3047C260.834 94.5339 260.807 94.7773 260.807 95.0352ZM268.419 97.0762C268.63 97.0762 268.82 97.035 268.989 96.9526C269.16 96.8667 269.298 96.7485 269.402 96.5981C269.509 96.4478 269.569 96.2741 269.579 96.0771H270.799C270.791 96.4531 270.68 96.7951 270.466 97.103C270.251 97.411 269.966 97.6562 269.612 97.8389C269.257 98.0179 268.865 98.1074 268.435 98.1074C267.991 98.1074 267.605 98.0322 267.275 97.8818C266.946 97.7279 266.672 97.5166 266.453 97.248C266.235 96.9795 266.07 96.6698 265.959 96.3188C265.852 95.9679 265.798 95.592 265.798 95.1909V95.0029C265.798 94.6019 265.852 94.2259 265.959 93.875C266.07 93.5205 266.235 93.209 266.453 92.9404C266.672 92.6719 266.946 92.4624 267.275 92.312C267.605 92.158 267.989 92.0811 268.43 92.0811C268.895 92.0811 269.304 92.1742 269.655 92.3604C270.005 92.543 270.281 92.799 270.482 93.1284C270.686 93.4543 270.791 93.8338 270.799 94.2671H269.579C269.569 94.0522 269.515 93.8589 269.418 93.687C269.325 93.5116 269.193 93.3719 269.021 93.2681C268.852 93.1642 268.65 93.1123 268.414 93.1123C268.152 93.1123 267.936 93.166 267.764 93.2734C267.592 93.3773 267.458 93.5205 267.361 93.7031C267.264 93.8822 267.195 94.0845 267.152 94.3101C267.112 94.5321 267.093 94.763 267.093 95.0029V95.1909C267.093 95.4308 267.112 95.6636 267.152 95.8892C267.191 96.1147 267.259 96.3171 267.356 96.4961C267.456 96.6715 267.592 96.813 267.764 96.9204C267.936 97.0243 268.154 97.0762 268.419 97.0762ZM271.589 95.1587V95.0352C271.589 94.6162 271.65 94.2277 271.772 93.8696C271.894 93.508 272.069 93.1947 272.298 92.9297C272.531 92.6611 272.814 92.4535 273.147 92.3066C273.483 92.1562 273.863 92.0811 274.285 92.0811C274.712 92.0811 275.091 92.1562 275.424 92.3066C275.761 92.4535 276.045 92.6611 276.278 92.9297C276.511 93.1947 276.688 93.508 276.81 93.8696C276.932 94.2277 276.992 94.6162 276.992 95.0352V95.1587C276.992 95.5776 276.932 95.9661 276.81 96.3242C276.688 96.6823 276.511 96.9956 276.278 97.2642C276.045 97.5291 275.762 97.7368 275.429 97.8872C275.096 98.034 274.719 98.1074 274.296 98.1074C273.87 98.1074 273.489 98.034 273.152 97.8872C272.819 97.7368 272.536 97.5291 272.303 97.2642C272.071 96.9956 271.894 96.6823 271.772 96.3242C271.65 95.9661 271.589 95.5776 271.589 95.1587ZM272.884 95.0352V95.1587C272.884 95.4201 272.91 95.6672 272.964 95.8999C273.018 96.1326 273.102 96.3368 273.217 96.5122C273.331 96.6877 273.478 96.8255 273.657 96.9258C273.836 97.026 274.049 97.0762 274.296 97.0762C274.536 97.0762 274.744 97.026 274.919 96.9258C275.098 96.8255 275.245 96.6877 275.36 96.5122C275.474 96.3368 275.558 96.1326 275.612 95.8999C275.669 95.6672 275.698 95.4201 275.698 95.1587V95.0352C275.698 94.7773 275.669 94.5339 275.612 94.3047C275.558 94.0719 275.472 93.866 275.354 93.687C275.24 93.508 275.093 93.3683 274.914 93.2681C274.738 93.1642 274.529 93.1123 274.285 93.1123C274.042 93.1123 273.831 93.1642 273.652 93.2681C273.476 93.3683 273.331 93.508 273.217 93.687C273.102 93.866 273.018 94.0719 272.964 94.3047C272.91 94.5339 272.884 94.7773 272.884 95.0352ZM280.947 95.5132H279.088L279.077 94.6001H280.603C280.854 94.6001 281.059 94.575 281.221 94.5249C281.385 94.4748 281.507 94.3996 281.586 94.2993C281.665 94.1955 281.704 94.0701 281.704 93.9233C281.704 93.8016 281.681 93.696 281.634 93.6064C281.588 93.5133 281.516 93.4382 281.419 93.3809C281.326 93.32 281.208 93.277 281.065 93.252C280.925 93.2233 280.762 93.209 280.576 93.209H279.518V98H278.223V92.1885H280.576C280.948 92.1885 281.283 92.2207 281.58 92.2852C281.881 92.3496 282.137 92.4481 282.348 92.5806C282.56 92.7131 282.721 92.8813 282.832 93.0854C282.946 93.286 283.004 93.5223 283.004 93.7944C283.004 93.9735 282.964 94.1418 282.886 94.2993C282.81 94.4569 282.698 94.5965 282.547 94.7183C282.397 94.84 282.212 94.9403 281.994 95.019C281.776 95.0942 281.525 95.1408 281.242 95.1587L280.947 95.5132ZM280.947 98H278.712L279.228 96.9795H280.947C281.176 96.9795 281.366 96.9508 281.516 96.8936C281.666 96.8363 281.777 96.7539 281.849 96.6465C281.924 96.5355 281.962 96.4048 281.962 96.2544C281.962 96.1004 281.926 95.9679 281.854 95.8569C281.783 95.7459 281.672 95.6618 281.521 95.6045C281.375 95.5436 281.183 95.5132 280.947 95.5132H279.47L279.48 94.6001H281.237L281.607 94.9546C281.976 94.9797 282.282 95.0584 282.526 95.1909C282.769 95.3234 282.952 95.4899 283.074 95.6904C283.195 95.891 283.256 96.1094 283.256 96.3457C283.256 96.6178 283.204 96.8577 283.1 97.0654C283 97.2731 282.85 97.4468 282.649 97.5864C282.452 97.7225 282.211 97.8263 281.924 97.8979C281.638 97.966 281.312 98 280.947 98ZM287.694 96.8345V94.063C287.694 93.8553 287.656 93.6763 287.581 93.5259C287.506 93.3755 287.391 93.2591 287.237 93.1768C287.087 93.0944 286.897 93.0532 286.668 93.0532C286.457 93.0532 286.274 93.089 286.12 93.1606C285.966 93.2323 285.846 93.3289 285.76 93.4507C285.674 93.5724 285.631 93.7103 285.631 93.8643H284.342C284.342 93.6351 284.398 93.4131 284.509 93.1982C284.62 92.9834 284.781 92.7918 284.992 92.6235C285.203 92.4552 285.456 92.3228 285.749 92.2261C286.043 92.1294 286.372 92.0811 286.738 92.0811C287.175 92.0811 287.561 92.1545 287.898 92.3013C288.238 92.4481 288.505 92.6701 288.698 92.9673C288.895 93.2609 288.994 93.6297 288.994 94.0737V96.6572C288.994 96.9222 289.011 97.1603 289.047 97.3716C289.087 97.5793 289.142 97.7601 289.214 97.9141V98H287.887C287.826 97.8604 287.778 97.6831 287.742 97.4683C287.71 97.2498 287.694 97.0386 287.694 96.8345ZM287.882 94.4658L287.892 95.2661H286.963C286.723 95.2661 286.512 95.2894 286.329 95.3359C286.147 95.3789 285.995 95.4434 285.873 95.5293C285.751 95.6152 285.66 95.7191 285.599 95.8408C285.538 95.9626 285.508 96.1004 285.508 96.2544C285.508 96.4084 285.544 96.5498 285.615 96.6787C285.687 96.804 285.791 96.9025 285.927 96.9741C286.066 97.0457 286.235 97.0815 286.432 97.0815C286.697 97.0815 286.927 97.0278 287.124 96.9204C287.325 96.8094 287.482 96.6751 287.597 96.5176C287.712 96.3564 287.773 96.2043 287.78 96.061L288.199 96.6357C288.156 96.7826 288.082 96.9401 287.978 97.1084C287.875 97.2767 287.738 97.4378 287.57 97.5918C287.405 97.7422 287.207 97.8657 286.974 97.9624C286.745 98.0591 286.48 98.1074 286.179 98.1074C285.8 98.1074 285.461 98.0322 285.164 97.8818C284.867 97.7279 284.634 97.522 284.466 97.2642C284.297 97.0028 284.213 96.7074 284.213 96.3779C284.213 96.07 284.271 95.7979 284.385 95.5615C284.503 95.3216 284.675 95.1211 284.901 94.96C285.13 94.7988 285.409 94.6771 285.739 94.5947C286.068 94.5088 286.444 94.4658 286.867 94.4658H287.882ZM294.36 94.6162V95.6367H291.352V94.6162H294.36ZM291.728 92.1885V98H290.434V92.1885H291.728ZM295.295 92.1885V98H294V92.1885H295.295ZM298.057 96.1094L300.339 92.1885H301.634V98H300.339V94.0737L298.057 98H296.762V92.1885H298.057V96.1094ZM304.272 95.1587H305.615L303.966 98H302.628L304.272 95.1587ZM305.217 92.1885H307.71V98H306.42V93.209H305.217C304.974 93.209 304.773 93.252 304.616 93.3379C304.458 93.4202 304.342 93.5295 304.267 93.6655C304.191 93.798 304.154 93.9341 304.154 94.0737C304.154 94.2134 304.188 94.3477 304.256 94.4766C304.328 94.6055 304.437 94.7111 304.584 94.7935C304.734 94.8758 304.922 94.917 305.148 94.917H306.856V95.8623H305.148C304.789 95.8623 304.469 95.8175 304.186 95.728C303.903 95.6349 303.663 95.5078 303.466 95.3467C303.269 95.182 303.119 94.9904 303.015 94.772C302.911 94.55 302.859 94.3083 302.859 94.0469C302.859 93.7783 302.913 93.5312 303.021 93.3057C303.128 93.0801 303.282 92.8831 303.482 92.7148C303.687 92.5465 303.934 92.4176 304.224 92.3281C304.517 92.235 304.849 92.1885 305.217 92.1885ZM313.314 96.1094L315.596 92.1885H316.891V98H315.596V94.0737L313.314 98H312.019V92.1885H313.314V96.1094ZM242.419 107.159V107.035C242.419 106.616 242.48 106.228 242.602 105.87C242.723 105.508 242.899 105.195 243.128 104.93C243.361 104.661 243.644 104.453 243.977 104.307C244.313 104.156 244.693 104.081 245.115 104.081C245.541 104.081 245.921 104.156 246.254 104.307C246.59 104.453 246.875 104.661 247.108 104.93C247.341 105.195 247.518 105.508 247.64 105.87C247.761 106.228 247.822 106.616 247.822 107.035V107.159C247.822 107.578 247.761 107.966 247.64 108.324C247.518 108.682 247.341 108.996 247.108 109.264C246.875 109.529 246.592 109.737 246.259 109.887C245.926 110.034 245.549 110.107 245.126 110.107C244.7 110.107 244.319 110.034 243.982 109.887C243.649 109.737 243.366 109.529 243.133 109.264C242.901 108.996 242.723 108.682 242.602 108.324C242.48 107.966 242.419 107.578 242.419 107.159ZM243.713 107.035V107.159C243.713 107.42 243.74 107.667 243.794 107.9C243.848 108.133 243.932 108.337 244.046 108.512C244.161 108.688 244.308 108.826 244.487 108.926C244.666 109.026 244.879 109.076 245.126 109.076C245.366 109.076 245.574 109.026 245.749 108.926C245.928 108.826 246.075 108.688 246.189 108.512C246.304 108.337 246.388 108.133 246.442 107.9C246.499 107.667 246.528 107.42 246.528 107.159V107.035C246.528 106.777 246.499 106.534 246.442 106.305C246.388 106.072 246.302 105.866 246.184 105.687C246.069 105.508 245.923 105.368 245.744 105.268C245.568 105.164 245.359 105.112 245.115 105.112C244.872 105.112 244.66 105.164 244.481 105.268C244.306 105.368 244.161 105.508 244.046 105.687C243.932 105.866 243.848 106.072 243.794 106.305C243.74 106.534 243.713 106.777 243.713 107.035ZM252.851 104.188V105.22H249.982V104.188H252.851ZM250.289 104.188V110H248.994V104.188H250.289ZM253.866 104.188V110H252.566V104.188H253.866ZM256.579 105.306V112.234H255.285V104.188H256.477L256.579 105.306ZM260.366 107.041V107.153C260.366 107.576 260.316 107.968 260.215 108.33C260.119 108.688 259.974 109.001 259.78 109.27C259.591 109.535 259.356 109.74 259.077 109.887C258.797 110.034 258.475 110.107 258.11 110.107C257.748 110.107 257.431 110.041 257.159 109.909C256.891 109.773 256.663 109.581 256.477 109.334C256.291 109.087 256.141 108.797 256.026 108.464C255.915 108.127 255.836 107.758 255.79 107.357V106.922C255.836 106.496 255.915 106.11 256.026 105.762C256.141 105.415 256.291 105.116 256.477 104.865C256.663 104.615 256.891 104.421 257.159 104.285C257.428 104.149 257.741 104.081 258.099 104.081C258.464 104.081 258.789 104.153 259.071 104.296C259.354 104.436 259.592 104.636 259.786 104.897C259.979 105.155 260.124 105.467 260.221 105.832C260.317 106.194 260.366 106.597 260.366 107.041ZM259.071 107.153V107.041C259.071 106.772 259.046 106.523 258.996 106.294C258.946 106.061 258.867 105.857 258.76 105.682C258.652 105.506 258.515 105.37 258.346 105.273C258.182 105.173 257.983 105.123 257.75 105.123C257.521 105.123 257.324 105.162 257.159 105.241C256.995 105.316 256.857 105.422 256.746 105.558C256.635 105.694 256.549 105.854 256.488 106.036C256.427 106.215 256.384 106.41 256.359 106.622V107.664C256.402 107.921 256.475 108.158 256.579 108.373C256.683 108.587 256.83 108.759 257.02 108.888C257.213 109.014 257.46 109.076 257.761 109.076C257.994 109.076 258.192 109.026 258.357 108.926C258.522 108.826 258.656 108.688 258.76 108.512C258.867 108.333 258.946 108.127 258.996 107.895C259.046 107.662 259.071 107.415 259.071 107.153ZM261.264 107.159V107.035C261.264 106.616 261.325 106.228 261.446 105.87C261.568 105.508 261.744 105.195 261.973 104.93C262.206 104.661 262.488 104.453 262.821 104.307C263.158 104.156 263.538 104.081 263.96 104.081C264.386 104.081 264.766 104.156 265.099 104.307C265.435 104.453 265.72 104.661 265.953 104.93C266.186 105.195 266.363 105.508 266.485 105.87C266.606 106.228 266.667 106.616 266.667 107.035V107.159C266.667 107.578 266.606 107.966 266.485 108.324C266.363 108.682 266.186 108.996 265.953 109.264C265.72 109.529 265.437 109.737 265.104 109.887C264.771 110.034 264.393 110.107 263.971 110.107C263.545 110.107 263.163 110.034 262.827 109.887C262.494 109.737 262.211 109.529 261.978 109.264C261.745 108.996 261.568 108.682 261.446 108.324C261.325 107.966 261.264 107.578 261.264 107.159ZM262.558 107.035V107.159C262.558 107.42 262.585 107.667 262.639 107.9C262.693 108.133 262.777 108.337 262.891 108.512C263.006 108.688 263.153 108.826 263.332 108.926C263.511 109.026 263.724 109.076 263.971 109.076C264.211 109.076 264.418 109.026 264.594 108.926C264.773 108.826 264.92 108.688 265.034 108.512C265.149 108.337 265.233 108.133 265.287 107.9C265.344 107.667 265.373 107.42 265.373 107.159V107.035C265.373 106.777 265.344 106.534 265.287 106.305C265.233 106.072 265.147 105.866 265.029 105.687C264.914 105.508 264.768 105.368 264.589 105.268C264.413 105.164 264.204 105.112 263.96 105.112C263.717 105.112 263.505 105.164 263.326 105.268C263.151 105.368 263.006 105.508 262.891 105.687C262.777 105.866 262.693 106.072 262.639 106.305C262.585 106.534 262.558 106.777 262.558 107.035ZM270.17 109.076C270.381 109.076 270.571 109.035 270.739 108.953C270.911 108.867 271.049 108.749 271.153 108.598C271.26 108.448 271.32 108.274 271.33 108.077H272.55C272.542 108.453 272.431 108.795 272.217 109.103C272.002 109.411 271.717 109.656 271.363 109.839C271.008 110.018 270.616 110.107 270.186 110.107C269.742 110.107 269.356 110.032 269.026 109.882C268.697 109.728 268.423 109.517 268.204 109.248C267.986 108.979 267.821 108.67 267.71 108.319C267.603 107.968 267.549 107.592 267.549 107.191V107.003C267.549 106.602 267.603 106.226 267.71 105.875C267.821 105.521 267.986 105.209 268.204 104.94C268.423 104.672 268.697 104.462 269.026 104.312C269.356 104.158 269.74 104.081 270.181 104.081C270.646 104.081 271.055 104.174 271.405 104.36C271.756 104.543 272.032 104.799 272.233 105.128C272.437 105.454 272.542 105.834 272.55 106.267H271.33C271.32 106.052 271.266 105.859 271.169 105.687C271.076 105.512 270.944 105.372 270.772 105.268C270.603 105.164 270.401 105.112 270.165 105.112C269.903 105.112 269.687 105.166 269.515 105.273C269.343 105.377 269.209 105.521 269.112 105.703C269.015 105.882 268.946 106.084 268.903 106.31C268.863 106.532 268.843 106.763 268.843 107.003V107.191C268.843 107.431 268.863 107.664 268.903 107.889C268.942 108.115 269.01 108.317 269.107 108.496C269.207 108.672 269.343 108.813 269.515 108.92C269.687 109.024 269.905 109.076 270.17 109.076ZM274.549 106.036H276.262C276.763 106.036 277.189 106.12 277.54 106.289C277.891 106.457 278.158 106.691 278.341 106.992C278.527 107.289 278.62 107.63 278.62 108.013C278.62 108.296 278.568 108.559 278.464 108.802C278.36 109.042 278.206 109.252 278.002 109.431C277.802 109.61 277.555 109.749 277.261 109.85C276.971 109.95 276.638 110 276.262 110H273.689V104.188H274.989V108.974H276.262C276.52 108.974 276.726 108.929 276.88 108.84C277.034 108.75 277.145 108.634 277.213 108.491C277.284 108.347 277.32 108.195 277.32 108.034C277.32 107.869 277.284 107.714 277.213 107.567C277.145 107.42 277.034 107.3 276.88 107.207C276.726 107.114 276.52 107.067 276.262 107.067H274.549V106.036ZM280.908 104.188V110H279.614V104.188H280.908Z" fill="white"/>
<g clip-path="url(#clip5_6_4972)">
<path fill-rule="evenodd" clip-rule="evenodd" d="M249 57C247.343 57 246 58.3431 246 60V76C246 77.6569 247.343 79 249 79H259C260.657 79 262 77.6569 262 76V70.4143L265.707 66.7071C266.098 66.3166 266.098 65.6834 265.707 65.2929C265.317 64.9024 264.683 64.9024 264.293 65.2929L262 67.5858V60C262 58.3431 260.657 57 259 57H249ZM260 69.5858V60C260 59.4477 259.552 59 259 59H249C248.448 59 248 59.4477 248 60V76C248 76.5523 248.448 77 249 77H259C259.552 77 260 76.5523 260 76V72.4143L256.707 75.7071C256.502 75.9121 256.218 76.018 255.929 75.9975C255.64 75.9769 255.374 75.8319 255.2 75.6L252.2 71.6C251.869 71.1582 251.958 70.5314 252.4 70.2C252.842 69.8686 253.469 69.9582 253.8 70.4L256.108 73.4776L260 69.5858ZM251 62C250.448 62 250 62.4477 250 63C250 63.5523 250.448 64 251 64H258C258.552 64 259 63.5523 259 63C259 62.4477 258.552 62 258 62H251ZM250 67C250 66.4477 250.448 66 251 66H255C255.552 66 256 66.4477 256 67C256 67.5523 255.552 68 255 68H251C250.448 68 250 67.5523 250 67Z" fill="white"/>
</g>
</g>
</g>
</g>
</g>
<defs>
<filter id="filter0_d_6_4972" x="-4" y="0" width="360" height="142" filterUnits="userSpaceOnUse" color-interpolation-filters="sRGB">
<feFlood flood-opacity="0" result="BackgroundImageFix"/>
<feColorMatrix in="SourceAlpha" type="matrix" values="0 0 0 0 0 0 0 0 0 0 0 0 0 0 0 0 0 0 127 0" result="hardAlpha"/>
<feOffset dy="4"/>
<feGaussianBlur stdDeviation="4"/>
<feColorMatrix type="matrix" values="0 0 0 0 0.0477431 0 0 0 0 0.162708 0 0 0 0 0.458333 0 0 0 0.12 0"/>
<feBlend mode="normal" in2="BackgroundImageFix" result="effect1_dropShadow_6_4972"/>
<feBlend mode="normal" in="SourceGraphic" in2="effect1_dropShadow_6_4972" result="shape"/>
</filter>
<filter id="filter1_d_6_4972" x="6" y="44" width="120" height="88" filterUnits="userSpaceOnUse" color-interpolation-filters="sRGB">
<feFlood flood-opacity="0" result="BackgroundImageFix"/>
<feColorMatrix in="SourceAlpha" type="matrix" values="0 0 0 0 0 0 0 0 0 0 0 0 0 0 0 0 0 0 127 0" result="hardAlpha"/>
<feOffset dy="4"/>
<feGaussianBlur stdDeviation="4"/>
<feColorMatrix type="matrix" values="0 0 0 0 0.0477431 0 0 0 0 0.162708 0 0 0 0 0.458333 0 0 0 0.12 0"/>
<feBlend mode="normal" in2="BackgroundImageFix" result="effect1_dropShadow_6_4972"/>
<feBlend mode="normal" in="SourceGraphic" in2="effect1_dropShadow_6_4972" result="shape"/>
</filter>
<filter id="filter2_d_6_4972" x="116" y="44" width="120" height="88" filterUnits="userSpaceOnUse" color-interpolation-filters="sRGB">
<feFlood flood-opacity="0" result="BackgroundImageFix"/>
<feColorMatrix in="SourceAlpha" type="matrix" values="0 0 0 0 0 0 0 0 0 0 0 0 0 0 0 0 0 0 127 0" result="hardAlpha"/>
<feOffset dy="4"/>
<feGaussianBlur stdDeviation="4"/>
<feColorMatrix type="matrix" values="0 0 0 0 0.0477431 0 0 0 0 0.162708 0 0 0 0 0.458333 0 0 0 0.12 0"/>
<feBlend mode="normal" in2="BackgroundImageFix" result="effect1_dropShadow_6_4972"/>
<feBlend mode="normal" in="SourceGraphic" in2="effect1_dropShadow_6_4972" result="shape"/>
</filter>
<filter id="filter3_d_6_4972" x="226" y="44" width="120" height="88" filterUnits="userSpaceOnUse" color-interpolation-filters="sRGB">
<feFlood flood-opacity="0" result="BackgroundImageFix"/>
<feColorMatrix in="SourceAlpha" type="matrix" values="0 0 0 0 0 0 0 0 0 0 0 0 0 0 0 0 0 0 127 0" result="hardAlpha"/>
<feOffset dy="4"/>
<feGaussianBlur stdDeviation="4"/>
<feColorMatrix type="matrix" values="0 0 0 0 0.0477431 0 0 0 0 0.162708 0 0 0 0 0.458333 0 0 0 0.12 0"/>
<feBlend mode="normal" in2="BackgroundImageFix" result="effect1_dropShadow_6_4972"/>
<feBlend mode="normal" in="SourceGraphic" in2="effect1_dropShadow_6_4972" result="shape"/>
</filter>
<linearGradient id="paint0_linear_6_4972" x1="17.8879" y1="84" x2="115.587" y2="115.758" gradientUnits="userSpaceOnUse">
<stop stop-color="#AB00C7"/>
<stop offset="1" stop-color="#F60DFF"/>
</linearGradient>
<linearGradient id="paint1_linear_6_4972" x1="127.888" y1="84" x2="225.587" y2="115.758" gradientUnits="userSpaceOnUse">
<stop stop-color="#AB00C7"/>
<stop offset="1" stop-color="#F60DFF"/>
</linearGradient>
<linearGradient id="paint2_linear_6_4972" x1="237.888" y1="84" x2="335.587" y2="115.758" gradientUnits="userSpaceOnUse">
<stop stop-color="#AB00C7"/>
<stop offset="1" stop-color="#F60DFF"/>
</linearGradient>
<clipPath id="clip0_6_4972">
<rect x="4" y="4" width="344" height="126" rx="12" fill="white"/>
</clipPath>
<clipPath id="clip1_6_4972">
<rect width="24" height="24" fill="white" transform="translate(14 14)"/>
</clipPath>
<clipPath id="clip2_6_4972">
<rect x="14" y="48" width="104" height="72" rx="12" fill="white"/>
</clipPath>
<clipPath id="clip3_6_4972">
<rect x="124" y="48" width="104" height="72" rx="12" fill="white"/>
</clipPath>
<clipPath id="clip4_6_4972">
<rect x="234" y="48" width="104" height="72" rx="12" fill="white"/>
</clipPath>
<clipPath id="clip5_6_4972">
<rect width="24" height="24" fill="white" transform="translate(242 56)"/>
</clipPath>
</defs>
</svg>
