<svg width="352" height="134" viewBox="0 0 352 134" fill="none" xmlns="http://www.w3.org/2000/svg">
<g filter="url(#filter0_d_6_4925)">
<g clip-path="url(#clip0_6_4925)">
<rect x="4" y="4" width="344" height="126" rx="12" fill="white"/>
<path fill-rule="evenodd" clip-rule="evenodd" d="M24.4 18C23.8477 18 23.4 18.4477 23.4 19V23.4H19C18.4477 23.4 18 23.8477 18 24.4V27.6C18 28.1523 18.4477 28.6 19 28.6H23.4V33C23.4 33.5523 23.8477 34 24.4 34H27.6C28.1523 34 28.6 33.5523 28.6 33V28.6H33C33.5523 28.6 34 28.1523 34 27.6V24.4C34 23.8477 33.5523 23.4 33 23.4H28.6V19C28.6 18.4477 28.1523 18 27.6 18H24.4ZM21.4 19C21.4 17.3431 22.7431 16 24.4 16H27.6C29.2569 16 30.6 17.3431 30.6 19V21.4H33C34.6569 21.4 36 22.7431 36 24.4V27.6C36 29.2569 34.6569 30.6 33 30.6H30.6V33C30.6 34.6569 29.2569 36 27.6 36H24.4C22.7431 36 21.4 34.6569 21.4 33V30.6H19C17.3431 30.6 16 29.2569 16 27.6V24.4C16 22.7431 17.3431 21.4 19 21.4H21.4V19Z" fill="#FF3B30"/>
<path d="M50.1973 19.2031H52.166L55.8662 29.0732L59.5576 19.2031H61.5264L56.6396 32H55.0752L50.1973 19.2031ZM49.3008 19.2031H51.1729L51.498 27.7461V32H49.3008V19.2031ZM60.5508 19.2031H62.4316V32H60.2256V27.7461L60.5508 19.2031ZM69.0592 32.1758C68.3561 32.1758 67.7204 32.0615 67.152 31.833C66.5895 31.5986 66.109 31.2734 65.7106 30.8574C65.318 30.4414 65.0163 29.9521 64.8053 29.3896C64.5944 28.8271 64.4889 28.2207 64.4889 27.5703V27.2188C64.4889 26.4746 64.5973 25.8008 64.8141 25.1973C65.0309 24.5938 65.3327 24.0781 65.7194 23.6504C66.1061 23.2168 66.5631 22.8857 67.0905 22.6572C67.6178 22.4287 68.1891 22.3145 68.8043 22.3145C69.484 22.3145 70.0788 22.4287 70.5885 22.6572C71.0983 22.8857 71.5202 23.208 71.8541 23.624C72.194 24.0342 72.4459 24.5234 72.61 25.0918C72.7799 25.6602 72.8649 26.2871 72.8649 26.9727V27.8779H65.5172V26.3574H70.7731V26.1904C70.7614 25.8096 70.6852 25.4521 70.5446 25.1182C70.4098 24.7842 70.2018 24.5146 69.9206 24.3096C69.6393 24.1045 69.2643 24.002 68.7956 24.002C68.444 24.002 68.1305 24.0781 67.8551 24.2305C67.5856 24.377 67.36 24.5908 67.1784 24.8721C66.9967 25.1533 66.8561 25.4932 66.7565 25.8916C66.6627 26.2842 66.6159 26.7266 66.6159 27.2188V27.5703C66.6159 27.9863 66.6715 28.373 66.7829 28.7305C66.9 29.082 67.07 29.3896 67.2926 29.6533C67.5153 29.917 67.7848 30.125 68.1012 30.2773C68.4176 30.4238 68.778 30.4971 69.1823 30.4971C69.692 30.4971 70.1461 30.3945 70.5446 30.1895C70.943 29.9844 71.2887 29.6943 71.5817 29.3193L72.6979 30.4004C72.4928 30.6992 72.2262 30.9863 71.8981 31.2617C71.57 31.5312 71.1686 31.751 70.694 31.9209C70.2252 32.0908 69.6803 32.1758 69.0592 32.1758ZM76.2669 22.4902H78.3851L78.2796 25.8389C78.2503 26.8115 78.139 27.6465 77.9456 28.3438C77.7522 29.041 77.5003 29.6299 77.1897 30.1104C76.8792 30.585 76.5276 30.9746 76.1351 31.2793C75.7483 31.584 75.3411 31.8242 74.9134 32H74.2894V30.3301L74.5882 30.3125C74.8401 30.043 75.0569 29.7734 75.2386 29.5039C75.4261 29.2285 75.5843 28.9268 75.7132 28.5986C75.8421 28.2646 75.9417 27.875 76.012 27.4297C76.0882 26.9844 76.138 26.4541 76.1614 25.8389L76.2669 22.4902ZM76.8294 22.4902H82.8587V32H80.7493V24.2832H76.8294V22.4902ZM73.806 30.3125H84.1595V34.8301H82.0413V32H75.9505V34.8301H73.7972L73.806 30.3125ZM87.8339 28.9062L91.5693 22.4902H93.6874V32H91.5693V25.5752L87.8339 32H85.7158V22.4902H87.8339V28.9062ZM96.026 32V22.4902H98.1441V30.3125H101.871V22.4902H103.998V32H96.026ZM105.29 30.3213L105.123 34.8213H103.18V32H102.038V30.3213H105.29ZM108.999 28.9062L112.735 22.4902H114.853V32H112.735V25.5752L108.999 32H106.881V22.4902H108.999V28.9062ZM123.616 26.4629V28.1328H118.694V26.4629H123.616ZM119.309 22.4902V32H117.191V22.4902H119.309ZM125.145 22.4902V32H123.027V22.4902H125.145ZM132.793 30.0928V25.5576C132.793 25.2178 132.731 24.9248 132.608 24.6787C132.485 24.4326 132.297 24.2422 132.045 24.1074C131.799 23.9727 131.489 23.9053 131.114 23.9053C130.768 23.9053 130.469 23.9639 130.217 24.0811C129.965 24.1982 129.769 24.3564 129.628 24.5557C129.488 24.7549 129.418 24.9805 129.418 25.2324H127.308C127.308 24.8574 127.399 24.4941 127.581 24.1426C127.762 23.791 128.026 23.4775 128.372 23.2021C128.717 22.9268 129.13 22.71 129.611 22.5518C130.091 22.3936 130.63 22.3145 131.228 22.3145C131.943 22.3145 132.576 22.4346 133.127 22.6748C133.683 22.915 134.12 23.2783 134.436 23.7646C134.758 24.2451 134.919 24.8486 134.919 25.5752V29.8027C134.919 30.2363 134.949 30.626 135.007 30.9717C135.072 31.3115 135.163 31.6074 135.28 31.8594V32H133.109C133.009 31.7715 132.93 31.4814 132.872 31.1299C132.819 30.7725 132.793 30.4268 132.793 30.0928ZM133.1 26.2168L133.118 27.5264H131.597C131.205 27.5264 130.859 27.5645 130.56 27.6406C130.261 27.7109 130.012 27.8164 129.813 27.957C129.614 28.0977 129.464 28.2676 129.365 28.4668C129.265 28.666 129.215 28.8916 129.215 29.1436C129.215 29.3955 129.274 29.627 129.391 29.8379C129.508 30.043 129.678 30.2041 129.901 30.3213C130.129 30.4385 130.405 30.4971 130.727 30.4971C131.161 30.4971 131.539 30.4092 131.861 30.2334C132.189 30.0518 132.447 29.832 132.634 29.5742C132.822 29.3105 132.921 29.0615 132.933 28.8271L133.619 29.7676C133.548 30.0078 133.428 30.2656 133.258 30.541C133.088 30.8164 132.866 31.0801 132.59 31.332C132.321 31.5781 131.996 31.7803 131.615 31.9385C131.24 32.0967 130.806 32.1758 130.314 32.1758C129.693 32.1758 129.139 32.0527 128.653 31.8066C128.167 31.5547 127.786 31.2178 127.51 30.7959C127.235 30.3682 127.097 29.8848 127.097 29.3457C127.097 28.8418 127.191 28.3965 127.378 28.0098C127.572 27.6172 127.853 27.2891 128.222 27.0254C128.597 26.7617 129.054 26.5625 129.593 26.4277C130.132 26.2871 130.748 26.2168 131.439 26.2168H133.1Z" fill="#0066B3"/>
<path d="M320.295 28.2805C319.902 28.6739 319.902 29.3116 320.295 29.705C320.689 30.0983 321.328 30.0983 321.722 29.705L326.713 24.7195C327.107 24.3261 327.107 23.6884 326.713 23.295C326.319 22.9017 325.681 22.9017 325.287 23.295L320.295 28.2805Z" fill="#1D1D1D"/>
<path d="M330.278 29.7048C330.672 30.0982 331.311 30.0982 331.705 29.7048C332.098 29.3115 332.098 28.6737 331.705 28.2804L326.713 23.295C326.319 22.9017 325.681 22.9017 325.287 23.295C324.893 23.6884 324.893 24.326 325.287 24.7193L330.278 29.7048Z" fill="#1D1D1D"/>
<g filter="url(#filter1_d_6_4925)">
<g clip-path="url(#clip1_6_4925)">
<rect opacity="0.8" x="14" y="48" width="104" height="72" rx="12" fill="url(#paint0_linear_6_4925)"/>
<path d="M26.1196 96.4316L27.8491 92.1885H28.9717L26.5601 98H25.6792L23.2729 92.1885H24.3955L26.1196 96.4316ZM24.0625 92.1885V98H22.7681V92.1885H24.0625ZM28.1768 98V92.1885H29.4766V98H28.1768ZM33.5328 98.1074C33.1031 98.1074 32.7146 98.0376 32.3672 97.8979C32.0235 97.7547 31.7299 97.556 31.4864 97.3018C31.2465 97.0475 31.0621 96.7485 30.9332 96.4048C30.8043 96.061 30.7398 95.6904 30.7398 95.293V95.0781C30.7398 94.6234 30.806 94.2116 30.9385 93.8428C31.071 93.474 31.2554 93.1589 31.4918 92.8975C31.7281 92.6325 32.0074 92.4302 32.3296 92.2905C32.6519 92.1509 33.001 92.0811 33.377 92.0811C33.7924 92.0811 34.1558 92.1509 34.4673 92.2905C34.7789 92.4302 35.0367 92.6271 35.2408 92.8813C35.4485 93.132 35.6024 93.431 35.7027 93.7783C35.8065 94.1257 35.8585 94.5088 35.8585 94.9277V95.481H31.3682V94.5518H34.5801V94.4497C34.573 94.217 34.5264 93.9985 34.4405 93.7944C34.3581 93.5903 34.231 93.4256 34.0591 93.3003C33.8873 93.175 33.6581 93.1123 33.3716 93.1123C33.1568 93.1123 32.9652 93.1589 32.7969 93.252C32.6322 93.3415 32.4944 93.4722 32.3834 93.644C32.2724 93.8159 32.1864 94.0236 32.1255 94.2671C32.0683 94.507 32.0396 94.7773 32.0396 95.0781V95.293C32.0396 95.5472 32.0736 95.7835 32.1417 96.002C32.2133 96.2168 32.3171 96.4048 32.4532 96.5659C32.5892 96.7271 32.754 96.8542 32.9473 96.9473C33.1407 97.0368 33.3609 97.0815 33.608 97.0815C33.9195 97.0815 34.197 97.0189 34.4405 96.8936C34.684 96.7682 34.8952 96.591 35.0743 96.3618L35.7564 97.0225C35.6311 97.2051 35.4682 97.3805 35.2676 97.5488C35.0671 97.7135 34.8218 97.8478 34.5318 97.9517C34.2453 98.0555 33.9123 98.1074 33.5328 98.1074ZM37.965 92.1885H39.2594L39.1949 94.2349C39.177 94.8293 39.109 95.3395 38.9908 95.7656C38.8727 96.1917 38.7187 96.5516 38.5289 96.8452C38.3391 97.1353 38.1243 97.3734 37.8844 97.5596C37.6481 97.7458 37.3992 97.8926 37.1378 98H36.7565V96.9795L36.9391 96.9688C37.093 96.804 37.2255 96.6393 37.3365 96.4746C37.4511 96.3063 37.5478 96.1219 37.6266 95.9214C37.7054 95.7173 37.7662 95.4792 37.8092 95.207C37.8557 94.9349 37.8862 94.6108 37.9005 94.2349L37.965 92.1885ZM38.3087 92.1885H41.9933V98H40.7042V93.2842H38.3087V92.1885ZM36.461 96.9688H42.7882V99.7295H41.4938V98H37.7716V99.7295H36.4557L36.461 96.9688ZM45.0612 96.1094L47.3439 92.1885H48.6383V98H47.3439V94.0737L45.0612 98H43.7668V92.1885H45.0612V96.1094ZM50.0949 98V92.1885H51.3894V96.9688H53.6667V92.1885H54.9665V98H50.0949ZM55.7561 96.9741L55.654 99.7241H54.467V98H53.7688V96.9741H55.7561ZM58.0506 96.1094L60.3333 92.1885H61.6277V98H60.3333V94.0737L58.0506 98H56.7561V92.1885H58.0506V96.1094ZM67.0106 94.6162V95.6367H64.0028V94.6162H67.0106ZM64.3787 92.1885V98H63.0843V92.1885H64.3787ZM67.9452 92.1885V98H66.6507V92.1885H67.9452ZM72.6459 96.8345V94.063C72.6459 93.8553 72.6083 93.6763 72.5331 93.5259C72.4579 93.3755 72.3433 93.2591 72.1893 93.1768C72.039 93.0944 71.8492 93.0532 71.62 93.0532C71.4087 93.0532 71.2261 93.089 71.0722 93.1606C70.9182 93.2323 70.7982 93.3289 70.7123 93.4507C70.6264 93.5724 70.5834 93.7103 70.5834 93.8643H69.2943C69.2943 93.6351 69.3498 93.4131 69.4608 93.1982C69.5718 92.9834 69.733 92.7918 69.9442 92.6235C70.1555 92.4552 70.4079 92.3228 70.7016 92.2261C70.9952 92.1294 71.3246 92.0811 71.6898 92.0811C72.1267 92.0811 72.5134 92.1545 72.85 92.3013C73.1902 92.4481 73.4569 92.6701 73.6503 92.9673C73.8472 93.2609 73.9457 93.6297 73.9457 94.0737V96.6572C73.9457 96.9222 73.9636 97.1603 73.9994 97.3716C74.0388 97.5793 74.0943 97.7601 74.1659 97.9141V98H72.8392C72.7784 97.8604 72.73 97.6831 72.6942 97.4683C72.662 97.2498 72.6459 97.0386 72.6459 96.8345ZM72.8339 94.4658L72.8446 95.2661H71.9154C71.6755 95.2661 71.4642 95.2894 71.2816 95.3359C71.099 95.3789 70.9468 95.4434 70.8251 95.5293C70.7033 95.6152 70.612 95.7191 70.5512 95.8408C70.4903 95.9626 70.4599 96.1004 70.4599 96.2544C70.4599 96.4084 70.4957 96.5498 70.5673 96.6787C70.6389 96.804 70.7427 96.9025 70.8788 96.9741C71.0184 97.0457 71.1867 97.0815 71.3837 97.0815C71.6487 97.0815 71.8796 97.0278 72.0766 96.9204C72.2771 96.8094 72.4346 96.6751 72.5492 96.5176C72.6638 96.3564 72.7247 96.2043 72.7318 96.061L73.1508 96.6357C73.1078 96.7826 73.0344 96.9401 72.9306 97.1084C72.8267 97.2767 72.6906 97.4378 72.5224 97.5918C72.3576 97.7422 72.1589 97.8657 71.9262 97.9624C71.697 98.0591 71.432 98.1074 71.1312 98.1074C70.7517 98.1074 70.4133 98.0322 70.1161 97.8818C69.8189 97.7279 69.5862 97.522 69.4179 97.2642C69.2496 97.0028 69.1654 96.7074 69.1654 96.3779C69.1654 96.07 69.2227 95.7979 69.3373 95.5615C69.4555 95.3216 69.6273 95.1211 69.8529 94.96C70.0821 94.7988 70.3614 94.6771 70.6908 94.5947C71.0202 94.5088 71.3962 94.4658 71.8187 94.4658H72.8339Z" fill="white"/>
<path fill-rule="evenodd" clip-rule="evenodd" d="M32.4 60C31.8477 60 31.4 60.4477 31.4 61V65.4H27C26.4477 65.4 26 65.8477 26 66.4V69.6C26 70.1523 26.4477 70.6 27 70.6H31.4V75C31.4 75.5523 31.8477 76 32.4 76H35.6C36.1523 76 36.6 75.5523 36.6 75V70.6H41C41.5523 70.6 42 70.1523 42 69.6V66.4C42 65.8477 41.5523 65.4 41 65.4H36.6V61C36.6 60.4477 36.1523 60 35.6 60H32.4ZM29.4 61C29.4 59.3431 30.7431 58 32.4 58H35.6C37.2569 58 38.6 59.3431 38.6 61V63.4H41C42.6569 63.4 44 64.7431 44 66.4V69.6C44 71.2569 42.6569 72.6 41 72.6H38.6V75C38.6 76.6569 37.2569 78 35.6 78H32.4C30.7431 78 29.4 76.6569 29.4 75V72.6H27C25.3431 72.6 24 71.2569 24 69.6V66.4C24 64.7431 25.3431 63.4 27 63.4H29.4V61Z" fill="white"/>
</g>
</g>
<g filter="url(#filter2_d_6_4925)">
<g clip-path="url(#clip2_6_4925)">
<rect opacity="0.8" x="124" y="48" width="104" height="72" rx="12" fill="url(#paint1_linear_6_4925)"/>
<path d="M136.571 92.1885V93.2197H133.735V92.1885H136.571ZM137.586 92.1885V98H136.292V92.1885H137.586ZM133.418 92.1885H134.696L134.541 95.062C134.519 95.4881 134.476 95.8641 134.412 96.1899C134.351 96.5122 134.268 96.7897 134.165 97.0225C134.061 97.2516 133.934 97.4378 133.783 97.5811C133.633 97.7243 133.457 97.8299 133.257 97.8979C133.056 97.966 132.831 98 132.58 98H132.177L132.172 96.9365L132.376 96.9204C132.508 96.9097 132.623 96.8757 132.72 96.8184C132.816 96.7575 132.899 96.6715 132.967 96.5605C133.038 96.4495 133.096 96.3063 133.139 96.1309C133.185 95.9554 133.221 95.7477 133.246 95.5078C133.275 95.2679 133.296 94.9886 133.311 94.6699L133.418 92.1885ZM139.966 94.0361H141.68C142.181 94.0361 142.607 94.1203 142.958 94.2886C143.309 94.4569 143.576 94.6914 143.758 94.9922C143.945 95.2894 144.038 95.6296 144.038 96.0127C144.038 96.2956 143.986 96.5588 143.882 96.8022C143.778 97.0422 143.624 97.2516 143.42 97.4307C143.219 97.6097 142.972 97.7493 142.679 97.8496C142.389 97.9499 142.056 98 141.68 98H139.107V92.1885H140.407V96.9741H141.68C141.938 96.9741 142.143 96.9294 142.297 96.8398C142.451 96.7503 142.562 96.634 142.63 96.4907C142.702 96.3475 142.738 96.1953 142.738 96.0342C142.738 95.8695 142.702 95.7137 142.63 95.5669C142.562 95.4201 142.451 95.3001 142.297 95.207C142.143 95.1139 141.938 95.0674 141.68 95.0674H139.966V94.0361ZM148.985 92.1885V93.2197H146.45V98H145.156V92.1885H148.985ZM149.427 95.1587V95.0352C149.427 94.6162 149.488 94.2277 149.61 93.8696C149.731 93.508 149.907 93.1947 150.136 92.9297C150.369 92.6611 150.652 92.4535 150.985 92.3066C151.321 92.1562 151.701 92.0811 152.123 92.0811C152.549 92.0811 152.929 92.1562 153.262 92.3066C153.598 92.4535 153.883 92.6611 154.116 92.9297C154.349 93.1947 154.526 93.508 154.648 93.8696C154.769 94.2277 154.83 94.6162 154.83 95.0352V95.1587C154.83 95.5776 154.769 95.9661 154.648 96.3242C154.526 96.6823 154.349 96.9956 154.116 97.2642C153.883 97.5291 153.6 97.7368 153.267 97.8872C152.934 98.034 152.556 98.1074 152.134 98.1074C151.708 98.1074 151.326 98.034 150.99 97.8872C150.657 97.7368 150.374 97.5291 150.141 97.2642C149.909 96.9956 149.731 96.6823 149.61 96.3242C149.488 95.9661 149.427 95.5776 149.427 95.1587ZM150.721 95.0352V95.1587C150.721 95.4201 150.748 95.6672 150.802 95.8999C150.856 96.1326 150.94 96.3368 151.054 96.5122C151.169 96.6877 151.316 96.8255 151.495 96.9258C151.674 97.026 151.887 97.0762 152.134 97.0762C152.374 97.0762 152.582 97.026 152.757 96.9258C152.936 96.8255 153.083 96.6877 153.197 96.5122C153.312 96.3368 153.396 96.1326 153.45 95.8999C153.507 95.6672 153.536 95.4201 153.536 95.1587V95.0352C153.536 94.7773 153.507 94.5339 153.45 94.3047C153.396 94.0719 153.31 93.866 153.192 93.687C153.077 93.508 152.931 93.3683 152.752 93.2681C152.576 93.1642 152.367 93.1123 152.123 93.1123C151.88 93.1123 151.668 93.1642 151.489 93.2681C151.314 93.3683 151.169 93.508 151.054 93.687C150.94 93.866 150.856 94.0719 150.802 94.3047C150.748 94.5339 150.721 94.7773 150.721 95.0352ZM158.527 92.1885V98H157.227V92.1885H158.527ZM160.433 92.1885V93.209H155.352V92.1885H160.433ZM165.311 94.6162V95.6367H162.303V94.6162H165.311ZM162.679 92.1885V98H161.385V92.1885H162.679ZM166.246 92.1885V98H164.951V92.1885H166.246ZM168.632 94.0361H170.345C170.846 94.0361 171.272 94.1203 171.623 94.2886C171.974 94.4569 172.241 94.6914 172.424 94.9922C172.61 95.2894 172.703 95.6296 172.703 96.0127C172.703 96.2956 172.651 96.5588 172.547 96.8022C172.443 97.0422 172.289 97.2516 172.085 97.4307C171.885 97.6097 171.638 97.7493 171.344 97.8496C171.054 97.9499 170.721 98 170.345 98H167.772V92.1885H169.072V96.9741H170.345C170.603 96.9741 170.809 96.9294 170.963 96.8398C171.117 96.7503 171.228 96.634 171.296 96.4907C171.367 96.3475 171.403 96.1953 171.403 96.0342C171.403 95.8695 171.367 95.7137 171.296 95.5669C171.228 95.4201 171.117 95.3001 170.963 95.207C170.809 95.1139 170.603 95.0674 170.345 95.0674H168.632V94.0361ZM174.991 92.1885V98H173.697V92.1885H174.991ZM179.128 98.1074C178.698 98.1074 178.31 98.0376 177.962 97.8979C177.619 97.7547 177.325 97.556 177.081 97.3018C176.842 97.0475 176.657 96.7485 176.528 96.4048C176.399 96.061 176.335 95.6904 176.335 95.293V95.0781C176.335 94.6234 176.401 94.2116 176.534 93.8428C176.666 93.474 176.85 93.1589 177.087 92.8975C177.323 92.6325 177.602 92.4302 177.925 92.2905C178.247 92.1509 178.596 92.0811 178.972 92.0811C179.387 92.0811 179.751 92.1509 180.062 92.2905C180.374 92.4302 180.632 92.6271 180.836 92.8813C181.044 93.132 181.197 93.431 181.298 93.7783C181.402 94.1257 181.454 94.5088 181.454 94.9277V95.481H176.963V94.5518H180.175V94.4497C180.168 94.217 180.121 93.9985 180.036 93.7944C179.953 93.5903 179.826 93.4256 179.654 93.3003C179.482 93.175 179.253 93.1123 178.967 93.1123C178.752 93.1123 178.56 93.1589 178.392 93.252C178.227 93.3415 178.089 93.4722 177.978 93.644C177.867 93.8159 177.781 94.0236 177.721 94.2671C177.663 94.507 177.635 94.7773 177.635 95.0781V95.293C177.635 95.5472 177.669 95.7835 177.737 96.002C177.808 96.2168 177.912 96.4048 178.048 96.5659C178.184 96.7271 178.349 96.8542 178.542 96.9473C178.736 97.0368 178.956 97.0815 179.203 97.0815C179.515 97.0815 179.792 97.0189 180.036 96.8936C180.279 96.7682 180.49 96.591 180.669 96.3618L181.351 97.0225C181.226 97.2051 181.063 97.3805 180.863 97.5488C180.662 97.7135 180.417 97.8478 180.127 97.9517C179.84 98.0555 179.507 98.1074 179.128 98.1074ZM136.571 104.188V105.22H133.735V104.188H136.571ZM137.586 104.188V110H136.292V104.188H137.586ZM133.418 104.188H134.696L134.541 107.062C134.519 107.488 134.476 107.864 134.412 108.19C134.351 108.512 134.268 108.79 134.165 109.022C134.061 109.252 133.934 109.438 133.783 109.581C133.633 109.724 133.457 109.83 133.257 109.898C133.056 109.966 132.831 110 132.58 110H132.177L132.172 108.937L132.376 108.92C132.508 108.91 132.623 108.876 132.72 108.818C132.816 108.757 132.899 108.672 132.967 108.561C133.038 108.45 133.096 108.306 133.139 108.131C133.185 107.955 133.221 107.748 133.246 107.508C133.275 107.268 133.296 106.989 133.311 106.67L133.418 104.188ZM141.567 110.107C141.137 110.107 140.749 110.038 140.401 109.898C140.058 109.755 139.764 109.556 139.521 109.302C139.281 109.048 139.096 108.749 138.967 108.405C138.838 108.061 138.774 107.69 138.774 107.293V107.078C138.774 106.623 138.84 106.212 138.973 105.843C139.105 105.474 139.29 105.159 139.526 104.897C139.762 104.632 140.042 104.43 140.364 104.291C140.686 104.151 141.035 104.081 141.411 104.081C141.827 104.081 142.19 104.151 142.502 104.291C142.813 104.43 143.071 104.627 143.275 104.881C143.483 105.132 143.637 105.431 143.737 105.778C143.841 106.126 143.893 106.509 143.893 106.928V107.481H139.402V106.552H142.614V106.45C142.607 106.217 142.561 105.999 142.475 105.794C142.392 105.59 142.265 105.426 142.093 105.3C141.921 105.175 141.692 105.112 141.406 105.112C141.191 105.112 140.999 105.159 140.831 105.252C140.666 105.341 140.529 105.472 140.418 105.644C140.307 105.816 140.221 106.024 140.16 106.267C140.102 106.507 140.074 106.777 140.074 107.078V107.293C140.074 107.547 140.108 107.784 140.176 108.002C140.247 108.217 140.351 108.405 140.487 108.566C140.623 108.727 140.788 108.854 140.982 108.947C141.175 109.037 141.395 109.082 141.642 109.082C141.954 109.082 142.231 109.019 142.475 108.894C142.718 108.768 142.929 108.591 143.108 108.362L143.791 109.022C143.665 109.205 143.502 109.381 143.302 109.549C143.101 109.714 142.856 109.848 142.566 109.952C142.28 110.056 141.947 110.107 141.567 110.107ZM146.343 104.188V110H145.048V104.188H146.343ZM150.135 104.188L147.519 107.685H146.042L145.87 106.514H146.95L148.518 104.188H150.135ZM148.62 110L146.869 107.465L147.89 106.729L150.323 110H148.62ZM154.347 108.834V106.063C154.347 105.855 154.309 105.676 154.234 105.526C154.159 105.375 154.044 105.259 153.89 105.177C153.74 105.094 153.55 105.053 153.321 105.053C153.11 105.053 152.927 105.089 152.773 105.161C152.619 105.232 152.499 105.329 152.413 105.451C152.327 105.572 152.284 105.71 152.284 105.864H150.995C150.995 105.635 151.051 105.413 151.162 105.198C151.273 104.983 151.434 104.792 151.645 104.624C151.856 104.455 152.109 104.323 152.403 104.226C152.696 104.129 153.026 104.081 153.391 104.081C153.828 104.081 154.214 104.154 154.551 104.301C154.891 104.448 155.158 104.67 155.351 104.967C155.548 105.261 155.647 105.63 155.647 106.074V108.657C155.647 108.922 155.665 109.16 155.7 109.372C155.74 109.579 155.795 109.76 155.867 109.914V110H154.54C154.479 109.86 154.431 109.683 154.395 109.468C154.363 109.25 154.347 109.039 154.347 108.834ZM154.535 106.466L154.546 107.266H153.616C153.376 107.266 153.165 107.289 152.983 107.336C152.8 107.379 152.648 107.443 152.526 107.529C152.404 107.615 152.313 107.719 152.252 107.841C152.191 107.963 152.161 108.1 152.161 108.254C152.161 108.408 152.197 108.55 152.268 108.679C152.34 108.804 152.444 108.903 152.58 108.974C152.719 109.046 152.888 109.082 153.085 109.082C153.35 109.082 153.581 109.028 153.778 108.92C153.978 108.809 154.136 108.675 154.25 108.518C154.365 108.356 154.426 108.204 154.433 108.061L154.852 108.636C154.809 108.783 154.735 108.94 154.632 109.108C154.528 109.277 154.392 109.438 154.223 109.592C154.059 109.742 153.86 109.866 153.627 109.962C153.398 110.059 153.133 110.107 152.832 110.107C152.453 110.107 152.114 110.032 151.817 109.882C151.52 109.728 151.287 109.522 151.119 109.264C150.951 109.003 150.866 108.707 150.866 108.378C150.866 108.07 150.924 107.798 151.038 107.562C151.156 107.322 151.328 107.121 151.554 106.96C151.783 106.799 152.062 106.677 152.392 106.595C152.721 106.509 153.097 106.466 153.52 106.466H154.535ZM158.344 105.306V112.234H157.05V104.188H158.242L158.344 105.306ZM162.131 107.041V107.153C162.131 107.576 162.08 107.968 161.98 108.33C161.884 108.688 161.739 109.001 161.545 109.27C161.355 109.535 161.121 109.74 160.842 109.887C160.562 110.034 160.24 110.107 159.875 110.107C159.513 110.107 159.196 110.041 158.924 109.909C158.655 109.773 158.428 109.581 158.242 109.334C158.056 109.087 157.905 108.797 157.791 108.464C157.68 108.127 157.601 107.758 157.554 107.357V106.922C157.601 106.496 157.68 106.11 157.791 105.762C157.905 105.415 158.056 105.116 158.242 104.865C158.428 104.615 158.655 104.421 158.924 104.285C159.193 104.149 159.506 104.081 159.864 104.081C160.229 104.081 160.553 104.153 160.836 104.296C161.119 104.436 161.357 104.636 161.551 104.897C161.744 105.155 161.889 105.467 161.986 105.832C162.082 106.194 162.131 106.597 162.131 107.041ZM160.836 107.153V107.041C160.836 106.772 160.811 106.523 160.761 106.294C160.711 106.061 160.632 105.857 160.525 105.682C160.417 105.506 160.279 105.37 160.111 105.273C159.946 105.173 159.748 105.123 159.515 105.123C159.286 105.123 159.089 105.162 158.924 105.241C158.759 105.316 158.621 105.422 158.51 105.558C158.399 105.694 158.314 105.854 158.253 106.036C158.192 106.215 158.149 106.41 158.124 106.622V107.664C158.167 107.921 158.24 108.158 158.344 108.373C158.448 108.587 158.595 108.759 158.784 108.888C158.978 109.014 159.225 109.076 159.526 109.076C159.758 109.076 159.957 109.026 160.122 108.926C160.287 108.826 160.421 108.688 160.525 108.512C160.632 108.333 160.711 108.127 160.761 107.895C160.811 107.662 160.836 107.415 160.836 107.153ZM165.65 109.076C165.861 109.076 166.051 109.035 166.219 108.953C166.391 108.867 166.529 108.749 166.633 108.598C166.74 108.448 166.799 108.274 166.81 108.077H168.029C168.022 108.453 167.911 108.795 167.696 109.103C167.481 109.411 167.197 109.656 166.842 109.839C166.488 110.018 166.095 110.107 165.666 110.107C165.222 110.107 164.835 110.032 164.506 109.882C164.176 109.728 163.902 109.517 163.684 109.248C163.465 108.979 163.301 108.67 163.19 108.319C163.082 107.968 163.029 107.592 163.029 107.191V107.003C163.029 106.602 163.082 106.226 163.19 105.875C163.301 105.521 163.465 105.209 163.684 104.94C163.902 104.672 164.176 104.462 164.506 104.312C164.835 104.158 165.22 104.081 165.66 104.081C166.126 104.081 166.534 104.174 166.885 104.36C167.236 104.543 167.512 104.799 167.712 105.128C167.916 105.454 168.022 105.834 168.029 106.267H166.81C166.799 106.052 166.745 105.859 166.649 105.687C166.556 105.512 166.423 105.372 166.251 105.268C166.083 105.164 165.881 105.112 165.644 105.112C165.383 105.112 165.166 105.166 164.994 105.273C164.823 105.377 164.688 105.521 164.592 105.703C164.495 105.882 164.425 106.084 164.382 106.31C164.343 106.532 164.323 106.763 164.323 107.003V107.191C164.323 107.431 164.343 107.664 164.382 107.889C164.421 108.115 164.49 108.317 164.586 108.496C164.686 108.672 164.823 108.813 164.994 108.92C165.166 109.024 165.385 109.076 165.65 109.076ZM171.763 104.188V110H170.463V104.188H171.763ZM173.67 104.188V105.209H168.589V104.188H173.67ZM177.404 107.513H175.545L175.535 106.6H177.06C177.311 106.6 177.516 106.575 177.678 106.525C177.842 106.475 177.964 106.4 178.043 106.299C178.122 106.195 178.161 106.07 178.161 105.923C178.161 105.802 178.138 105.696 178.091 105.606C178.045 105.513 177.973 105.438 177.876 105.381C177.783 105.32 177.665 105.277 177.522 105.252C177.382 105.223 177.219 105.209 177.033 105.209H175.975V110H174.681V104.188H177.033C177.405 104.188 177.74 104.221 178.037 104.285C178.338 104.35 178.594 104.448 178.806 104.581C179.017 104.713 179.178 104.881 179.289 105.085C179.404 105.286 179.461 105.522 179.461 105.794C179.461 105.973 179.421 106.142 179.343 106.299C179.267 106.457 179.155 106.597 179.004 106.718C178.854 106.84 178.669 106.94 178.451 107.019C178.233 107.094 177.982 107.141 177.699 107.159L177.404 107.513ZM177.404 110H175.169L175.685 108.979H177.404C177.633 108.979 177.823 108.951 177.973 108.894C178.123 108.836 178.234 108.754 178.306 108.646C178.381 108.535 178.419 108.405 178.419 108.254C178.419 108.1 178.383 107.968 178.311 107.857C178.24 107.746 178.129 107.662 177.978 107.604C177.832 107.544 177.64 107.513 177.404 107.513H175.927L175.937 106.6H177.694L178.064 106.955C178.433 106.98 178.739 107.058 178.983 107.191C179.226 107.323 179.409 107.49 179.531 107.69C179.652 107.891 179.713 108.109 179.713 108.346C179.713 108.618 179.661 108.858 179.558 109.065C179.457 109.273 179.307 109.447 179.106 109.586C178.909 109.722 178.668 109.826 178.381 109.898C178.095 109.966 177.769 110 177.404 110ZM184.151 108.834V106.063C184.151 105.855 184.113 105.676 184.038 105.526C183.963 105.375 183.848 105.259 183.694 105.177C183.544 105.094 183.354 105.053 183.125 105.053C182.914 105.053 182.731 105.089 182.577 105.161C182.423 105.232 182.303 105.329 182.217 105.451C182.131 105.572 182.088 105.71 182.088 105.864H180.799C180.799 105.635 180.855 105.413 180.966 105.198C181.077 104.983 181.238 104.792 181.449 104.624C181.66 104.455 181.913 104.323 182.206 104.226C182.5 104.129 182.83 104.081 183.195 104.081C183.632 104.081 184.018 104.154 184.355 104.301C184.695 104.448 184.962 104.67 185.155 104.967C185.352 105.261 185.451 105.63 185.451 106.074V108.657C185.451 108.922 185.469 109.16 185.504 109.372C185.544 109.579 185.599 109.76 185.671 109.914V110H184.344C184.283 109.86 184.235 109.683 184.199 109.468C184.167 109.25 184.151 109.039 184.151 108.834ZM184.339 106.466L184.35 107.266H183.42C183.18 107.266 182.969 107.289 182.787 107.336C182.604 107.379 182.452 107.443 182.33 107.529C182.208 107.615 182.117 107.719 182.056 107.841C181.995 107.963 181.965 108.1 181.965 108.254C181.965 108.408 182.001 108.55 182.072 108.679C182.144 108.804 182.248 108.903 182.384 108.974C182.523 109.046 182.692 109.082 182.889 109.082C183.154 109.082 183.385 109.028 183.581 108.92C183.782 108.809 183.94 108.675 184.054 108.518C184.169 108.356 184.23 108.204 184.237 108.061L184.656 108.636C184.613 108.783 184.539 108.94 184.435 109.108C184.332 109.277 184.196 109.438 184.027 109.592C183.863 109.742 183.664 109.866 183.431 109.962C183.202 110.059 182.937 110.107 182.636 110.107C182.257 110.107 181.918 110.032 181.621 109.882C181.324 109.728 181.091 109.522 180.923 109.264C180.755 109.003 180.67 108.707 180.67 108.378C180.67 108.07 180.728 107.798 180.842 107.562C180.96 107.322 181.132 107.121 181.358 106.96C181.587 106.799 181.866 106.677 182.196 106.595C182.525 106.509 182.901 106.466 183.324 106.466H184.339Z" fill="white"/>
<path fill-rule="evenodd" clip-rule="evenodd" d="M145.934 62.6682C145.418 62.1526 145.418 61.3165 145.934 60.8009L147.801 58.9336C148.317 58.418 149.153 58.418 149.668 58.9336C150.184 59.4492 150.184 60.2853 149.668 60.8009L147.801 62.6682C147.285 63.1838 146.449 63.1838 145.934 62.6682ZM145.5 68.0002C146.328 68.0002 147 67.3286 147 66.5002C147 65.6717 146.328 65.0002 145.5 65.0002C144.672 65.0002 144 65.6717 144 66.5002C144 67.3286 144.672 68.0002 145.5 68.0002ZM153.943 70.136C153.829 69.8118 153.546 69.1706 152.973 68.6583C152.351 68.1022 151.439 67.7506 150.27 68.0274C149.268 68.2646 148.024 68.9551 147 69.5755L146.87 69.6542C146.848 69.5942 146.823 69.5344 146.793 69.4755C146.599 69.0871 146.287 68.8386 145.938 68.6971C145.63 68.5725 145.297 68.5325 145.012 68.5134C144.729 68.4943 144.396 68.4917 144.046 68.489H144.046L144.008 68.4886L142.31 68.4987C141.822 68.2184 141.063 68.0005 140 68.0005C138.358 68.0005 137.447 68.8848 137.116 69.5115C136.858 69.9999 137.045 70.6048 137.533 70.8627C138.022 71.1206 138.627 70.9339 138.884 70.4455C138.884 70.4455 138.889 70.4375 138.899 70.423C138.91 70.408 138.925 70.3883 138.946 70.3656C138.988 70.3202 139.049 70.2658 139.132 70.2131C139.292 70.1126 139.563 70.0005 140 70.0005C140.886 70.0005 141.25 70.1985 141.314 70.2329L141.314 70.2329C141.32 70.2365 141.324 70.2384 141.324 70.238C141.324 70.2376 141.321 70.2349 141.316 70.2295L141.314 70.2281C141.501 70.4045 141.749 70.502 142.006 70.5005L143.999 70.4887C144.382 70.4917 144.658 70.4941 144.879 70.5089C144.924 70.512 144.965 70.5154 145 70.5191C144.998 70.6374 144.977 70.7137 144.958 70.7617C144.937 70.8129 144.909 70.8541 144.875 70.8913C144.855 70.9129 144.834 70.9326 144.811 70.9512L144.768 70.9775L144.73 71.0005H141.5C140.948 71.0005 140.5 71.4482 140.5 72.0005C140.5 72.5528 140.948 73.0005 141.5 73.0005H145C145.159 73.0005 145.315 72.9629 145.456 72.8909L145.476 72.8805C145.568 72.8336 145.737 72.7477 145.928 72.6118C146.135 72.4839 146.364 72.3376 146.602 72.1861L146.66 72.1487C147.082 71.8791 147.551 71.5798 148.035 71.2864C149.088 70.649 150.078 70.1281 150.731 69.9736C151.205 69.8613 151.456 69.9895 151.627 70.1382L143.717 75.0005H137C136.845 75.0005 136.692 75.0366 136.553 75.1061L134.553 76.1061C134.059 76.3531 133.859 76.9537 134.106 77.4477C134.353 77.9417 134.953 78.1419 135.447 77.8949L137.236 77.0005H144C144.185 77.0005 144.366 76.9492 144.524 76.8524L153.524 71.32C153.925 71.0734 154.1 70.5802 153.943 70.136ZM141.435 62.7502C141.73 62.7502 141.965 63.0087 141.872 63.2893C141.542 64.2833 140.604 65.0002 139.499 65.0002C138.394 65.0002 137.457 64.2833 137.126 63.2893C137.033 63.0087 137.268 62.7502 137.564 62.7502H141.435ZM141.435 62.2502C141.73 62.2502 141.965 61.9918 141.872 61.7112C141.542 60.7172 140.604 60.0002 139.499 60.0002C138.394 60.0002 137.457 60.7172 137.126 61.7112C137.033 61.9918 137.268 62.2502 137.564 62.2502H141.435Z" fill="white"/>
</g>
</g>
<g filter="url(#filter3_d_6_4925)">
<g clip-path="url(#clip3_6_4925)">
<rect opacity="0.8" x="234" y="48" width="104" height="72" rx="12" fill="url(#paint2_linear_6_4925)"/>
<path d="M246.565 92.1885V93.2197H243.697V92.1885H246.565ZM244.003 92.1885V98H242.709V92.1885H244.003ZM247.581 92.1885V98H246.281V92.1885H247.581ZM248.747 95.1587V95.0352C248.747 94.6162 248.808 94.2277 248.93 93.8696C249.051 93.508 249.227 93.1947 249.456 92.9297C249.689 92.6611 249.972 92.4535 250.305 92.3066C250.641 92.1562 251.021 92.0811 251.443 92.0811C251.87 92.0811 252.249 92.1562 252.582 92.3066C252.919 92.4535 253.203 92.6611 253.436 92.9297C253.669 93.1947 253.846 93.508 253.968 93.8696C254.09 94.2277 254.15 94.6162 254.15 95.0352V95.1587C254.15 95.5776 254.09 95.9661 253.968 96.3242C253.846 96.6823 253.669 96.9956 253.436 97.2642C253.203 97.5291 252.92 97.7368 252.587 97.8872C252.254 98.034 251.877 98.1074 251.454 98.1074C251.028 98.1074 250.647 98.034 250.31 97.8872C249.977 97.7368 249.694 97.5291 249.461 97.2642C249.229 96.9956 249.051 96.6823 248.93 96.3242C248.808 95.9661 248.747 95.5776 248.747 95.1587ZM250.042 95.0352V95.1587C250.042 95.4201 250.068 95.6672 250.122 95.8999C250.176 96.1326 250.26 96.3368 250.375 96.5122C250.489 96.6877 250.636 96.8255 250.815 96.9258C250.994 97.026 251.207 97.0762 251.454 97.0762C251.694 97.0762 251.902 97.026 252.077 96.9258C252.256 96.8255 252.403 96.6877 252.518 96.5122C252.632 96.3368 252.716 96.1326 252.77 95.8999C252.827 95.6672 252.856 95.4201 252.856 95.1587V95.0352C252.856 94.7773 252.827 94.5339 252.77 94.3047C252.716 94.0719 252.63 93.866 252.512 93.687C252.398 93.508 252.251 93.3683 252.072 93.2681C251.896 93.1642 251.687 93.1123 251.443 93.1123C251.2 93.1123 250.989 93.1642 250.81 93.2681C250.634 93.3683 250.489 93.508 250.375 93.687C250.26 93.866 250.176 94.0719 250.122 94.3047C250.068 94.5339 250.042 94.7773 250.042 95.0352ZM255.945 92.1885H257.24L257.175 94.2349C257.157 94.8293 257.089 95.3395 256.971 95.7656C256.853 96.1917 256.699 96.5516 256.509 96.8452C256.32 97.1353 256.105 97.3734 255.865 97.5596C255.629 97.7458 255.38 97.8926 255.118 98H254.737V96.9795L254.92 96.9688C255.074 96.804 255.206 96.6393 255.317 96.4746C255.432 96.3063 255.528 96.1219 255.607 95.9214C255.686 95.7173 255.747 95.4792 255.79 95.207C255.836 94.9349 255.867 94.6108 255.881 94.2349L255.945 92.1885ZM256.289 92.1885H259.974V98H258.685V93.2842H256.289V92.1885ZM254.442 96.9688H260.769V99.7295H259.474V98H255.752V99.7295H254.436L254.442 96.9688ZM265.013 96.8345V94.063C265.013 93.8553 264.975 93.6763 264.9 93.5259C264.825 93.3755 264.71 93.2591 264.556 93.1768C264.406 93.0944 264.216 93.0532 263.987 93.0532C263.776 93.0532 263.593 93.089 263.439 93.1606C263.285 93.2323 263.165 93.3289 263.079 93.4507C262.993 93.5724 262.95 93.7103 262.95 93.8643H261.661C261.661 93.6351 261.717 93.4131 261.828 93.1982C261.939 92.9834 262.1 92.7918 262.311 92.6235C262.522 92.4552 262.775 92.3228 263.069 92.2261C263.362 92.1294 263.692 92.0811 264.057 92.0811C264.494 92.0811 264.88 92.1545 265.217 92.3013C265.557 92.4481 265.824 92.6701 266.017 92.9673C266.214 93.2609 266.313 93.6297 266.313 94.0737V96.6572C266.313 96.9222 266.331 97.1603 266.366 97.3716C266.406 97.5793 266.461 97.7601 266.533 97.9141V98H265.206C265.145 97.8604 265.097 97.6831 265.061 97.4683C265.029 97.2498 265.013 97.0386 265.013 96.8345ZM265.201 94.4658L265.212 95.2661H264.282C264.042 95.2661 263.831 95.2894 263.649 95.3359C263.466 95.3789 263.314 95.4434 263.192 95.5293C263.07 95.6152 262.979 95.7191 262.918 95.8408C262.857 95.9626 262.827 96.1004 262.827 96.2544C262.827 96.4084 262.863 96.5498 262.934 96.6787C263.006 96.804 263.11 96.9025 263.246 96.9741C263.385 97.0457 263.554 97.0815 263.751 97.0815C264.016 97.0815 264.247 97.0278 264.444 96.9204C264.644 96.8094 264.802 96.6751 264.916 96.5176C265.031 96.3564 265.092 96.2043 265.099 96.061L265.518 96.6357C265.475 96.7826 265.401 96.9401 265.298 97.1084C265.194 97.2767 265.058 97.4378 264.889 97.5918C264.725 97.7422 264.526 97.8657 264.293 97.9624C264.064 98.0591 263.799 98.1074 263.498 98.1074C263.119 98.1074 262.78 98.0322 262.483 97.8818C262.186 97.7279 261.953 97.522 261.785 97.2642C261.617 97.0028 261.532 96.7074 261.532 96.3779C261.532 96.07 261.59 95.7979 261.704 95.5615C261.822 95.3216 261.994 95.1211 262.22 94.96C262.449 94.7988 262.728 94.6771 263.058 94.5947C263.387 94.5088 263.763 94.4658 264.186 94.4658H265.201ZM269.01 93.3057V100.234H267.716V92.1885H268.908L269.01 93.3057ZM272.797 95.0405V95.1533C272.797 95.5758 272.746 95.9679 272.646 96.3296C272.55 96.6877 272.405 97.001 272.211 97.2695C272.021 97.5345 271.787 97.7404 271.508 97.8872C271.228 98.034 270.906 98.1074 270.541 98.1074C270.179 98.1074 269.862 98.0412 269.59 97.9087C269.322 97.7726 269.094 97.5811 268.908 97.334C268.722 97.0869 268.571 96.7969 268.457 96.4639C268.346 96.1273 268.267 95.7585 268.22 95.3574V94.9224C268.267 94.4963 268.346 94.1095 268.457 93.7622C268.571 93.4149 268.722 93.1159 268.908 92.8652C269.094 92.6146 269.322 92.4212 269.59 92.2852C269.859 92.1491 270.172 92.0811 270.53 92.0811C270.895 92.0811 271.219 92.1527 271.502 92.2959C271.785 92.4355 272.023 92.6361 272.217 92.8975C272.41 93.1553 272.555 93.4668 272.652 93.832C272.748 94.1937 272.797 94.5965 272.797 95.0405ZM271.502 95.1533V95.0405C271.502 94.772 271.477 94.5231 271.427 94.2939C271.377 94.0612 271.298 93.8571 271.191 93.6816C271.083 93.5062 270.945 93.3701 270.777 93.2734C270.612 93.1732 270.414 93.123 270.181 93.123C269.952 93.123 269.755 93.1624 269.59 93.2412C269.425 93.3164 269.287 93.422 269.176 93.5581C269.065 93.6942 268.98 93.8535 268.919 94.0361C268.858 94.2152 268.815 94.4103 268.79 94.6216V95.6636C268.833 95.9214 268.906 96.1577 269.01 96.3726C269.114 96.5874 269.261 96.7593 269.45 96.8882C269.644 97.0135 269.891 97.0762 270.192 97.0762C270.424 97.0762 270.623 97.026 270.788 96.9258C270.953 96.8255 271.087 96.6877 271.191 96.5122C271.298 96.3332 271.377 96.1273 271.427 95.8945C271.477 95.6618 271.502 95.4147 271.502 95.1533ZM275.279 96.1094L277.562 92.1885H278.856V98H277.562V94.0737L275.279 98H273.985V92.1885H275.279V96.1094ZM284.981 95.6528L282.661 92.1885H284.251L285.604 94.4766H286.738L286.571 95.6528H284.981ZM285.637 95.4648L284.149 98H282.559L284.664 94.729L285.637 95.4648ZM287.516 92.1885V98H286.227V92.1885H287.516ZM291.099 92.1885L288.779 95.6528H287.183L287.012 94.4766H288.15L289.504 92.1885H291.099ZM289.606 98L288.113 95.4648L289.117 94.729L291.212 98H289.606ZM293.415 96.1094L295.698 92.1885H296.992V98H295.698V94.0737L293.415 98H292.121V92.1885H293.415V96.1094ZM300.812 95.2231H299.695V94.5679H300.597C300.826 94.5679 301.009 94.5374 301.145 94.4766C301.285 94.4157 301.383 94.3315 301.44 94.2241C301.501 94.1131 301.532 93.9842 301.532 93.8374C301.532 93.7085 301.501 93.5868 301.44 93.4722C301.383 93.354 301.285 93.2573 301.145 93.1821C301.005 93.1069 300.816 93.0693 300.576 93.0693C300.379 93.0693 300.202 93.1016 300.044 93.166C299.89 93.2305 299.768 93.32 299.679 93.4346C299.589 93.5492 299.544 93.6816 299.544 93.832H298.25C298.25 93.4704 298.352 93.1589 298.556 92.8975C298.764 92.6361 299.041 92.4355 299.389 92.2959C299.736 92.1562 300.117 92.0864 300.533 92.0864C300.887 92.0864 301.206 92.124 301.489 92.1992C301.772 92.2708 302.012 92.3783 302.208 92.5215C302.409 92.6611 302.561 92.8366 302.665 93.0479C302.772 93.2555 302.826 93.4972 302.826 93.7729C302.826 93.9699 302.78 94.1561 302.687 94.3315C302.593 94.507 302.459 94.6628 302.284 94.7988C302.108 94.9313 301.895 95.0352 301.645 95.1104C301.397 95.1855 301.12 95.2231 300.812 95.2231ZM299.695 94.8472H300.812C301.156 94.8472 301.46 94.8812 301.725 94.9492C301.99 95.0137 302.212 95.1104 302.391 95.2393C302.57 95.3682 302.704 95.5275 302.794 95.7173C302.887 95.9035 302.934 96.1183 302.934 96.3618C302.934 96.634 302.875 96.8792 302.756 97.0977C302.642 97.3125 302.477 97.4951 302.262 97.6455C302.051 97.7959 301.799 97.9105 301.505 97.9893C301.211 98.068 300.887 98.1074 300.533 98.1074C300.146 98.1074 299.77 98.043 299.405 97.9141C299.043 97.7852 298.744 97.5864 298.508 97.3179C298.275 97.0457 298.159 96.7002 298.159 96.2812H299.453C299.453 96.4281 299.498 96.5659 299.587 96.6948C299.677 96.8237 299.806 96.9294 299.974 97.0117C300.142 97.0905 300.345 97.1299 300.581 97.1299C300.825 97.1299 301.023 97.0923 301.177 97.0171C301.331 96.9383 301.446 96.8363 301.521 96.7109C301.596 96.582 301.634 96.446 301.634 96.3027C301.634 96.1094 301.596 95.9536 301.521 95.8354C301.446 95.7173 301.331 95.6313 301.177 95.5776C301.023 95.5203 300.83 95.4917 300.597 95.4917H299.695V94.8472ZM308.048 94.6162V95.6367H305.04V94.6162H308.048ZM305.416 92.1885V98H304.122V92.1885H305.416ZM308.982 92.1885V98H307.688V92.1885H308.982ZM311.368 94.0361H313.082C313.583 94.0361 314.009 94.1203 314.36 94.2886C314.711 94.4569 314.978 94.6914 315.16 94.9922C315.346 95.2894 315.44 95.6296 315.44 96.0127C315.44 96.2956 315.388 96.5588 315.284 96.8022C315.18 97.0422 315.026 97.2516 314.822 97.4307C314.621 97.6097 314.374 97.7493 314.081 97.8496C313.791 97.9499 313.458 98 313.082 98H310.509V92.1885H311.809V96.9741H313.082C313.339 96.9741 313.545 96.9294 313.699 96.8398C313.853 96.7503 313.964 96.634 314.032 96.4907C314.104 96.3475 314.14 96.1953 314.14 96.0342C314.14 95.8695 314.104 95.7137 314.032 95.5669C313.964 95.4201 313.853 95.3001 313.699 95.207C313.545 95.1139 313.339 95.0674 313.082 95.0674H311.368V94.0361Z" fill="white"/>
<path fill-rule="evenodd" clip-rule="evenodd" d="M247.974 60.7917C248.224 59.9718 248.747 59.1417 249.33 58.7221C249.592 58.5336 249.929 58.483 250.234 58.5863C250.54 58.6895 250.777 58.9339 250.871 59.2426L250.891 59.308L250.949 59.4963C250.999 59.659 251.072 59.8924 251.16 60.1742C251.337 60.7381 251.578 61.4938 251.834 62.2637C252.09 63.036 252.359 63.8123 252.591 64.4214C252.708 64.7273 252.811 64.9774 252.895 65.1586C252.934 65.2445 252.965 65.3038 252.985 65.3409C253.225 65.5798 253.409 65.7593 253.58 65.8873C253.686 65.9669 253.744 65.9929 253.762 66.0002C253.888 66.0041 254.008 66.0313 254.118 66.0776C254.246 66.0541 254.377 66.0364 254.512 66.0238C254.623 65.0241 255.471 64.2465 256.5 64.2465C257.135 64.2465 257.701 64.5428 258.068 65.0046C258.07 65.0049 258.072 65.0052 258.074 65.0055L263.074 65.7521C263.319 65.7886 263.5 65.9988 263.5 66.2463C263.5 66.4938 263.319 66.7041 263.075 66.741L258.075 67.4944C258.07 67.4951 258.066 67.4957 258.062 67.4962C257.695 67.9536 257.132 68.2465 256.5 68.2465C256.093 68.2465 255.715 68.1253 255.4 67.9169C255.281 67.9688 255.15 67.9983 255.012 67.9999C254.505 68.0057 254.239 68.0862 254.044 68.1912C253.829 68.3074 253.607 68.503 253.25 68.9083C252.434 69.8324 251.649 70.3369 250.787 70.571C250.096 70.7583 249.391 70.7528 248.777 70.748L248.777 70.748C248.682 70.7473 248.59 70.7465 248.5 70.7465C247.173 70.7465 245.858 70.6006 244.829 69.8064C243.773 68.991 243.236 67.6714 243.008 65.8722C242.972 65.5873 243.06 65.3007 243.25 65.0853C243.44 64.8699 243.713 64.7465 244 64.7465H244.253C244.214 64.6207 244.178 64.4954 244.146 64.3715C243.898 63.4012 243.868 62.4522 243.896 61.7619C243.91 61.413 243.939 61.121 243.965 60.9132C243.978 60.8091 243.99 60.7256 243.999 60.666C244.004 60.6362 244.008 60.6123 244.011 60.5948L244.015 60.5734L244.016 60.5664L244.017 60.5638L244.017 60.5627C244.078 60.2371 244.297 59.962 244.6 59.8297C244.904 59.6975 245.254 59.7242 245.534 59.9012L247.844 61.3609C247.875 61.1581 247.921 60.966 247.974 60.7917ZM258.493 66.4202L259.629 66.2489L258.493 66.0792C258.498 66.1344 258.5 66.1902 258.5 66.2465C258.5 66.305 258.497 66.3629 258.493 66.4202ZM251.546 66.7294L251.546 66.7294L251.546 66.7294C251.699 66.8835 251.879 67.0636 252.073 67.2347C251.962 67.3485 251.855 67.4659 251.75 67.5848C251.132 68.2857 250.667 68.5312 250.263 68.6408C249.856 68.7512 249.452 68.7497 248.815 68.7473H248.815C248.716 68.7469 248.611 68.7465 248.5 68.7465C247.239 68.7465 246.518 68.5834 246.051 68.2231C245.734 67.9786 245.428 67.5565 245.206 66.7465H245.35C245.488 66.9034 245.638 67.0545 245.802 67.1978C246.739 68.0164 248.032 68.4999 249.73 68.4999C250.283 68.4999 250.73 68.0522 250.73 67.5C250.73 66.9477 250.283 66.4999 249.73 66.4999C248.429 66.4999 247.63 66.1392 247.118 65.6916C246.591 65.2314 246.267 64.5919 246.084 63.875C245.964 63.4067 245.91 62.9294 245.893 62.4943L250.942 65.6847C250.989 65.7967 251.035 65.9017 251.079 65.9975C251.134 66.1174 251.193 66.2357 251.254 66.3415C251.304 66.4299 251.394 66.5778 251.523 66.7065L251.545 66.7294L251.546 66.7294ZM261.435 68.7519C261.346 68.5961 261.18 68.5 261.001 68.5C260.821 68.5 260.656 68.5961 260.567 68.7519L258.276 72.7596C257.324 74.4262 258.527 76.5 260.447 76.5H261.554C263.474 76.5 264.677 74.4262 263.725 72.7596L261.435 68.7519Z" fill="white"/>
</g>
</g>
</g>
</g>
<defs>
<filter id="filter0_d_6_4925" x="-4" y="0" width="360" height="142" filterUnits="userSpaceOnUse" color-interpolation-filters="sRGB">
<feFlood flood-opacity="0" result="BackgroundImageFix"/>
<feColorMatrix in="SourceAlpha" type="matrix" values="0 0 0 0 0 0 0 0 0 0 0 0 0 0 0 0 0 0 127 0" result="hardAlpha"/>
<feOffset dy="4"/>
<feGaussianBlur stdDeviation="4"/>
<feColorMatrix type="matrix" values="0 0 0 0 0.0477431 0 0 0 0 0.162708 0 0 0 0 0.458333 0 0 0 0.12 0"/>
<feBlend mode="normal" in2="BackgroundImageFix" result="effect1_dropShadow_6_4925"/>
<feBlend mode="normal" in="SourceGraphic" in2="effect1_dropShadow_6_4925" result="shape"/>
</filter>
<filter id="filter1_d_6_4925" x="6" y="44" width="120" height="88" filterUnits="userSpaceOnUse" color-interpolation-filters="sRGB">
<feFlood flood-opacity="0" result="BackgroundImageFix"/>
<feColorMatrix in="SourceAlpha" type="matrix" values="0 0 0 0 0 0 0 0 0 0 0 0 0 0 0 0 0 0 127 0" result="hardAlpha"/>
<feOffset dy="4"/>
<feGaussianBlur stdDeviation="4"/>
<feColorMatrix type="matrix" values="0 0 0 0 0.0477431 0 0 0 0 0.162708 0 0 0 0 0.458333 0 0 0 0.12 0"/>
<feBlend mode="normal" in2="BackgroundImageFix" result="effect1_dropShadow_6_4925"/>
<feBlend mode="normal" in="SourceGraphic" in2="effect1_dropShadow_6_4925" result="shape"/>
</filter>
<filter id="filter2_d_6_4925" x="116" y="44" width="120" height="88" filterUnits="userSpaceOnUse" color-interpolation-filters="sRGB">
<feFlood flood-opacity="0" result="BackgroundImageFix"/>
<feColorMatrix in="SourceAlpha" type="matrix" values="0 0 0 0 0 0 0 0 0 0 0 0 0 0 0 0 0 0 127 0" result="hardAlpha"/>
<feOffset dy="4"/>
<feGaussianBlur stdDeviation="4"/>
<feColorMatrix type="matrix" values="0 0 0 0 0.0477431 0 0 0 0 0.162708 0 0 0 0 0.458333 0 0 0 0.12 0"/>
<feBlend mode="normal" in2="BackgroundImageFix" result="effect1_dropShadow_6_4925"/>
<feBlend mode="normal" in="SourceGraphic" in2="effect1_dropShadow_6_4925" result="shape"/>
</filter>
<filter id="filter3_d_6_4925" x="226" y="44" width="120" height="88" filterUnits="userSpaceOnUse" color-interpolation-filters="sRGB">
<feFlood flood-opacity="0" result="BackgroundImageFix"/>
<feColorMatrix in="SourceAlpha" type="matrix" values="0 0 0 0 0 0 0 0 0 0 0 0 0 0 0 0 0 0 127 0" result="hardAlpha"/>
<feOffset dy="4"/>
<feGaussianBlur stdDeviation="4"/>
<feColorMatrix type="matrix" values="0 0 0 0 0.0477431 0 0 0 0 0.162708 0 0 0 0 0.458333 0 0 0 0.12 0"/>
<feBlend mode="normal" in2="BackgroundImageFix" result="effect1_dropShadow_6_4925"/>
<feBlend mode="normal" in="SourceGraphic" in2="effect1_dropShadow_6_4925" result="shape"/>
</filter>
<linearGradient id="paint0_linear_6_4925" x1="17.8879" y1="84" x2="115.587" y2="115.758" gradientUnits="userSpaceOnUse">
<stop stop-color="#CA0000"/>
<stop offset="1" stop-color="#FF3B30"/>
</linearGradient>
<linearGradient id="paint1_linear_6_4925" x1="127.888" y1="84" x2="225.587" y2="115.758" gradientUnits="userSpaceOnUse">
<stop stop-color="#CA0000"/>
<stop offset="1" stop-color="#FF3B30"/>
</linearGradient>
<linearGradient id="paint2_linear_6_4925" x1="237.888" y1="84" x2="335.587" y2="115.758" gradientUnits="userSpaceOnUse">
<stop stop-color="#CA0000"/>
<stop offset="1" stop-color="#FF3B30"/>
</linearGradient>
<clipPath id="clip0_6_4925">
<rect x="4" y="4" width="344" height="126" rx="12" fill="white"/>
</clipPath>
<clipPath id="clip1_6_4925">
<rect x="14" y="48" width="104" height="72" rx="12" fill="white"/>
</clipPath>
<clipPath id="clip2_6_4925">
<rect x="124" y="48" width="104" height="72" rx="12" fill="white"/>
</clipPath>
<clipPath id="clip3_6_4925">
<rect x="234" y="48" width="104" height="72" rx="12" fill="white"/>
</clipPath>
</defs>
</svg>
