<svg width="352" height="134" viewBox="0 0 352 134" fill="none" xmlns="http://www.w3.org/2000/svg">
<g filter="url(#filter0_d_6_4941)">
<g clip-path="url(#clip0_6_4941)">
<rect x="4" y="4" width="344" height="126" rx="12" fill="white"/>
<path fill-rule="evenodd" clip-rule="evenodd" d="M29.8539 19.5726L26.8434 16.4467L21.8632 21.6904C21.4846 22.089 20.8566 22.1112 20.4508 21.7404L19.918 21.2535L16.7383 24.7339C16.3658 25.1416 15.7333 25.1702 15.3255 24.7977C14.9178 24.4252 14.8892 23.7927 15.2617 23.3849L18.748 19.569C19.3237 18.9388 20.3013 18.8947 20.9314 19.4704L21.0823 19.6083L25.7205 14.7248C26.3269 14.0863 27.3434 14.0828 27.9543 14.717L30.5951 17.4591L31.0679 16.9879C31.6915 16.3663 32.7076 16.3906 33.3009 17.0412L36.7389 20.8118C37.1111 21.2199 37.0819 21.8524 36.6738 22.2245C36.2657 22.5966 35.6332 22.5674 35.2611 22.1593L32.1432 18.7399L31.2931 19.5873C30.8935 19.9855 30.2452 19.9789 29.8539 19.5726ZM27.7305 34C27.7305 34.5523 28.1782 35 28.7305 35C28.7305 35.5523 29.1782 36 29.7305 36C30.2828 36 30.7305 35.5523 30.7305 35H31.7305C31.7305 35.5523 32.1782 36 32.7305 36C33.2828 36 33.7305 35.5523 33.7305 35C34.2828 35 34.7305 34.5523 34.7305 34V26C34.7305 25.4477 34.2828 25 33.7305 25V22.5C33.7305 22.2239 33.5066 22 33.2305 22H29.2305C28.9543 22 28.7305 22.2239 28.7305 22.5V25C28.1782 25 27.7305 25.4477 27.7305 26V34ZM32.7305 23V25H29.7305V23H32.7305ZM29.2305 28C28.9543 28 28.7305 27.7761 28.7305 27.5C28.7305 27.2239 28.9543 27 29.2305 27H33.2305C33.5066 27 33.7305 27.2239 33.7305 27.5C33.7305 27.7761 33.5066 28 33.2305 28H29.2305ZM28.7305 32C28.7305 32.5523 29.1782 33 29.7305 33H32.7305C33.2828 33 33.7305 32.5523 33.7305 32C33.7305 31.4477 33.2828 31 32.7305 31H29.7305C29.1782 31 28.7305 31.4477 28.7305 32ZM16.6888 26.1231L16.9768 25.8936C17.1141 25.7841 17.2988 25.7547 17.4633 25.8161L18.7578 26.2992C18.9288 26.3631 19.1209 26.3286 19.2592 26.2095L25.6611 20.6896C26.187 20.2704 27.1853 19.9048 27.6045 20.4305C28.0236 20.9562 27.4446 21.8479 26.9188 22.2671L24.6039 24.4974C24.5277 24.5708 24.4768 24.6664 24.4584 24.7706L23.909 27.8849C23.8804 28.0469 23.7739 28.1846 23.6241 28.2529L23.0981 28.4929C22.8313 28.6147 22.5176 28.4818 22.4194 28.2055L22.0732 27.2316C21.9713 26.9449 21.6392 26.8149 21.3698 26.9562L19.0809 28.1571C18.9208 28.2411 18.7278 28.2321 18.5762 28.1336L16.7282 26.9334C16.442 26.7475 16.422 26.3359 16.6888 26.1231Z" fill="#4E67FF"/>
<path d="M54.5654 19.2031V32H52.377V19.2031H54.5654ZM58.582 19.2031V20.9609H48.3955V19.2031H58.582ZM62.1774 30.9629L64.7614 22.4902H67.029L63.2145 33.4502C63.1266 33.6846 63.0124 33.9395 62.8717 34.2148C62.7311 34.4902 62.5465 34.751 62.318 34.9971C62.0954 35.249 61.817 35.4512 61.4831 35.6035C61.1491 35.7617 60.7448 35.8408 60.2702 35.8408C60.0827 35.8408 59.901 35.8232 59.7252 35.7881C59.5553 35.7588 59.3942 35.7266 59.2418 35.6914L59.2331 34.0742C59.2916 34.0801 59.362 34.0859 59.444 34.0918C59.5319 34.0977 59.6022 34.1006 59.6549 34.1006C60.0065 34.1006 60.2995 34.0566 60.5338 33.9688C60.7682 33.8867 60.9586 33.752 61.1051 33.5645C61.2575 33.377 61.3864 33.125 61.4918 32.8086L62.1774 30.9629ZM60.7184 22.4902L62.9772 29.6094L63.3551 31.8418L61.8874 32.2197L58.4333 22.4902H60.7184ZM70.3958 24.3184V35.6562H68.2776V22.4902H70.2288L70.3958 24.3184ZM76.5921 27.1572V27.3418C76.5921 28.0332 76.5101 28.6748 76.346 29.2666C76.1878 29.8525 75.9505 30.3652 75.6341 30.8047C75.3235 31.2383 74.9397 31.5752 74.4827 31.8154C74.0257 32.0557 73.4983 32.1758 72.9007 32.1758C72.3089 32.1758 71.7903 32.0674 71.345 31.8506C70.9056 31.6279 70.5335 31.3145 70.2288 30.9102C69.9241 30.5059 69.678 30.0312 69.4905 29.4863C69.3089 28.9355 69.18 28.332 69.1038 27.6758V26.9639C69.18 26.2666 69.3089 25.6338 69.4905 25.0654C69.678 24.4971 69.9241 24.0078 70.2288 23.5977C70.5335 23.1875 70.9056 22.8711 71.345 22.6484C71.7845 22.4258 72.2972 22.3145 72.8831 22.3145C73.4808 22.3145 74.011 22.4316 74.4739 22.666C74.9368 22.8945 75.3265 23.2227 75.6429 23.6504C75.9593 24.0723 76.1966 24.582 76.3548 25.1797C76.513 25.7715 76.5921 26.4307 76.5921 27.1572ZM74.4739 27.3418V27.1572C74.4739 26.7178 74.4329 26.3105 74.3509 25.9355C74.2688 25.5547 74.1399 25.2207 73.9642 24.9336C73.7884 24.6465 73.5628 24.4238 73.2874 24.2656C73.0179 24.1016 72.6927 24.0195 72.3118 24.0195C71.9368 24.0195 71.6145 24.084 71.345 24.2129C71.0755 24.3359 70.8499 24.5088 70.6683 24.7314C70.4866 24.9541 70.346 25.2148 70.2464 25.5137C70.1468 25.8066 70.0765 26.126 70.0354 26.4717V28.1768C70.1058 28.5986 70.2259 28.9854 70.3958 29.3369C70.5657 29.6885 70.806 29.9697 71.1165 30.1807C71.4329 30.3857 71.8372 30.4883 72.3294 30.4883C72.7103 30.4883 73.0354 30.4062 73.305 30.2422C73.5745 30.0781 73.7942 29.8525 73.9642 29.5654C74.1399 29.2725 74.2688 28.9355 74.3509 28.5547C74.4329 28.1738 74.4739 27.7695 74.4739 27.3418ZM80.6093 28.9062L84.3447 22.4902H86.4628V32H84.3447V25.5752L80.6093 32H78.4912V22.4902H80.6093V28.9062ZM92.6685 27.4561H90.8404V26.3838H92.317C92.692 26.3838 92.9908 26.334 93.2135 26.2344C93.442 26.1348 93.6031 25.9971 93.6969 25.8213C93.7965 25.6396 93.8463 25.4287 93.8463 25.1885C93.8463 24.9775 93.7965 24.7783 93.6969 24.5908C93.6031 24.3975 93.442 24.2393 93.2135 24.1162C92.985 23.9932 92.6744 23.9316 92.2818 23.9316C91.9596 23.9316 91.6695 23.9844 91.4117 24.0898C91.1598 24.1953 90.9605 24.3418 90.8141 24.5293C90.6676 24.7168 90.5943 24.9336 90.5943 25.1797H88.4762C88.4762 24.5879 88.6432 24.0781 88.9771 23.6504C89.317 23.2227 89.7711 22.8945 90.3394 22.666C90.9078 22.4375 91.5318 22.3232 92.2115 22.3232C92.7916 22.3232 93.3131 22.3848 93.776 22.5078C94.2389 22.625 94.6314 22.8008 94.9537 23.0352C95.2818 23.2637 95.5309 23.5508 95.7008 23.8965C95.8766 24.2363 95.9644 24.6318 95.9644 25.083C95.9644 25.4053 95.8883 25.71 95.7359 25.9971C95.5836 26.2842 95.3639 26.5391 95.0768 26.7617C94.7896 26.9785 94.441 27.1484 94.0309 27.2715C93.6266 27.3945 93.1725 27.4561 92.6685 27.4561ZM90.8404 26.8408H92.6685C93.231 26.8408 93.7291 26.8965 94.1627 27.0078C94.5963 27.1133 94.9596 27.2715 95.2525 27.4824C95.5455 27.6934 95.7652 27.9541 95.9117 28.2646C96.0641 28.5693 96.1402 28.9209 96.1402 29.3193C96.1402 29.7646 96.0435 30.166 95.8502 30.5234C95.6627 30.875 95.3932 31.1738 95.0416 31.4199C94.6959 31.666 94.2828 31.8535 93.8023 31.9824C93.3219 32.1113 92.7916 32.1758 92.2115 32.1758C91.5787 32.1758 90.9635 32.0703 90.3658 31.8594C89.774 31.6484 89.2848 31.3232 88.898 30.8838C88.5172 30.4385 88.3268 29.873 88.3268 29.1875H90.4449C90.4449 29.4277 90.5182 29.6533 90.6646 29.8643C90.8111 30.0752 91.0221 30.248 91.2975 30.3828C91.5728 30.5117 91.9039 30.5762 92.2906 30.5762C92.6891 30.5762 93.0143 30.5146 93.2662 30.3916C93.5182 30.2627 93.7057 30.0957 93.8287 29.8906C93.9518 29.6797 94.0133 29.457 94.0133 29.2227C94.0133 28.9062 93.9518 28.6514 93.8287 28.458C93.7057 28.2646 93.5182 28.124 93.2662 28.0361C93.0143 27.9424 92.6978 27.8955 92.317 27.8955H90.8404V26.8408ZM103.62 29.4336L106.45 22.4902H108.287L104.341 32H102.9L98.9621 22.4902H100.799L103.62 29.4336ZM100.254 22.4902V32H98.136V22.4902H100.254ZM106.987 32V22.4902H109.114V32H106.987ZM113.5 29.9609L113.491 31.4727C113.491 32.0703 113.342 32.6855 113.043 33.3184C112.744 33.9512 112.349 34.4727 111.856 34.8828L110.723 34.2236C110.887 33.96 111.036 33.6934 111.171 33.4238C111.306 33.1543 111.414 32.8672 111.496 32.5625C111.578 32.2578 111.619 31.9209 111.619 31.5518V29.9609H113.5ZM121.798 22.4902H123.916L123.811 25.8389C123.781 26.8115 123.67 27.6465 123.477 28.3438C123.283 29.041 123.031 29.6299 122.721 30.1104C122.41 30.585 122.059 30.9746 121.666 31.2793C121.279 31.584 120.872 31.8242 120.445 32H119.82V30.3301L120.119 30.3125C120.371 30.043 120.588 29.7734 120.77 29.5039C120.957 29.2285 121.115 28.9268 121.244 28.5986C121.373 28.2646 121.473 27.875 121.543 27.4297C121.619 26.9844 121.669 26.4541 121.693 25.8389L121.798 22.4902ZM122.361 22.4902H128.39V32H126.28V24.2832H122.361V22.4902ZM119.337 30.3125H129.691V34.8301H127.572V32H121.482V34.8301H119.328L119.337 30.3125ZM130.825 27.3506V27.1484C130.825 26.4629 130.925 25.8271 131.124 25.2412C131.323 24.6494 131.61 24.1367 131.985 23.7031C132.366 23.2637 132.829 22.9238 133.374 22.6836C133.925 22.4375 134.546 22.3145 135.237 22.3145C135.934 22.3145 136.555 22.4375 137.1 22.6836C137.651 22.9238 138.117 23.2637 138.498 23.7031C138.879 24.1367 139.169 24.6494 139.368 25.2412C139.567 25.8271 139.667 26.4629 139.667 27.1484V27.3506C139.667 28.0361 139.567 28.6719 139.368 29.2578C139.169 29.8438 138.879 30.3564 138.498 30.7959C138.117 31.2295 137.654 31.5693 137.109 31.8154C136.564 32.0557 135.946 32.1758 135.255 32.1758C134.557 32.1758 133.933 32.0557 133.383 31.8154C132.838 31.5693 132.375 31.2295 131.994 30.7959C131.613 30.3564 131.323 29.8438 131.124 29.2578C130.925 28.6719 130.825 28.0361 130.825 27.3506ZM132.943 27.1484V27.3506C132.943 27.7783 132.987 28.1826 133.075 28.5635C133.163 28.9443 133.301 29.2783 133.488 29.5654C133.676 29.8525 133.916 30.0781 134.209 30.2422C134.502 30.4062 134.85 30.4883 135.255 30.4883C135.647 30.4883 135.987 30.4062 136.274 30.2422C136.567 30.0781 136.807 29.8525 136.995 29.5654C137.182 29.2783 137.32 28.9443 137.408 28.5635C137.502 28.1826 137.549 27.7783 137.549 27.3506V27.1484C137.549 26.7266 137.502 26.3281 137.408 25.9531C137.32 25.5723 137.18 25.2354 136.986 24.9424C136.799 24.6494 136.558 24.4209 136.265 24.2568C135.978 24.0869 135.636 24.002 135.237 24.002C134.839 24.002 134.493 24.0869 134.2 24.2568C133.913 24.4209 133.676 24.6494 133.488 24.9424C133.301 25.2354 133.163 25.5723 133.075 25.9531C132.987 26.3281 132.943 26.7266 132.943 27.1484ZM145.354 30.4883C145.7 30.4883 146.01 30.4209 146.286 30.2861C146.567 30.1455 146.792 29.9521 146.962 29.7061C147.138 29.46 147.235 29.1758 147.252 28.8535H149.248C149.236 29.4688 149.054 30.0283 148.703 30.5322C148.351 31.0361 147.885 31.4375 147.305 31.7363C146.725 32.0293 146.083 32.1758 145.38 32.1758C144.654 32.1758 144.021 32.0527 143.482 31.8066C142.943 31.5547 142.495 31.209 142.137 30.7695C141.78 30.3301 141.51 29.8232 141.329 29.249C141.153 28.6748 141.065 28.0596 141.065 27.4033V27.0957C141.065 26.4395 141.153 25.8242 141.329 25.25C141.51 24.6699 141.78 24.1602 142.137 23.7207C142.495 23.2812 142.943 22.9385 143.482 22.6924C144.021 22.4404 144.651 22.3145 145.372 22.3145C146.133 22.3145 146.801 22.4668 147.375 22.7715C147.95 23.0703 148.401 23.4893 148.729 24.0283C149.063 24.5615 149.236 25.1826 149.248 25.8916H147.252C147.235 25.54 147.147 25.2236 146.989 24.9424C146.836 24.6553 146.62 24.4268 146.338 24.2568C146.063 24.0869 145.732 24.002 145.345 24.002C144.917 24.002 144.563 24.0898 144.282 24.2656C144 24.4355 143.781 24.6699 143.623 24.9688C143.464 25.2617 143.35 25.5928 143.28 25.9619C143.215 26.3252 143.183 26.7031 143.183 27.0957V27.4033C143.183 27.7959 143.215 28.1768 143.28 28.5459C143.344 28.915 143.456 29.2461 143.614 29.5391C143.778 29.8262 144 30.0576 144.282 30.2334C144.563 30.4033 144.92 30.4883 145.354 30.4883ZM153.66 30.9629L156.244 22.4902H158.512L154.697 33.4502C154.609 33.6846 154.495 33.9395 154.355 34.2148C154.214 34.4902 154.029 34.751 153.801 34.9971C153.578 35.249 153.3 35.4512 152.966 35.6035C152.632 35.7617 152.228 35.8408 151.753 35.8408C151.566 35.8408 151.384 35.8232 151.208 35.7881C151.038 35.7588 150.877 35.7266 150.725 35.6914L150.716 34.0742C150.775 34.0801 150.845 34.0859 150.927 34.0918C151.015 34.0977 151.085 34.1006 151.138 34.1006C151.489 34.1006 151.782 34.0566 152.017 33.9688C152.251 33.8867 152.442 33.752 152.588 33.5645C152.74 33.377 152.869 33.125 152.975 32.8086L153.66 30.9629ZM152.201 22.4902L154.46 29.6094L154.838 31.8418L153.37 32.2197L149.916 22.4902H152.201ZM166.08 22.4902V24.1777H161.931V32H159.813V22.4902H166.08ZM174.035 28.9062L177.771 22.4902H179.889V32H177.771V25.5752L174.035 32H171.917V22.4902H174.035V28.9062ZM186.262 27.3506V27.1484C186.262 26.4629 186.362 25.8271 186.561 25.2412C186.76 24.6494 187.047 24.1367 187.422 23.7031C187.803 23.2637 188.266 22.9238 188.811 22.6836C189.362 22.4375 189.983 22.3145 190.674 22.3145C191.371 22.3145 191.993 22.4375 192.537 22.6836C193.088 22.9238 193.554 23.2637 193.935 23.7031C194.316 24.1367 194.606 24.6494 194.805 25.2412C195.004 25.8271 195.104 26.4629 195.104 27.1484V27.3506C195.104 28.0361 195.004 28.6719 194.805 29.2578C194.606 29.8438 194.316 30.3564 193.935 30.7959C193.554 31.2295 193.091 31.5693 192.546 31.8154C192.001 32.0557 191.383 32.1758 190.692 32.1758C189.995 32.1758 189.37 32.0557 188.82 31.8154C188.275 31.5693 187.812 31.2295 187.431 30.7959C187.05 30.3564 186.76 29.8438 186.561 29.2578C186.362 28.6719 186.262 28.0361 186.262 27.3506ZM188.38 27.1484V27.3506C188.38 27.7783 188.424 28.1826 188.512 28.5635C188.6 28.9443 188.738 29.2783 188.925 29.5654C189.113 29.8525 189.353 30.0781 189.646 30.2422C189.939 30.4062 190.287 30.4883 190.692 30.4883C191.084 30.4883 191.424 30.4062 191.711 30.2422C192.004 30.0781 192.245 29.8525 192.432 29.5654C192.62 29.2783 192.757 28.9443 192.845 28.5635C192.939 28.1826 192.986 27.7783 192.986 27.3506V27.1484C192.986 26.7266 192.939 26.3281 192.845 25.9531C192.757 25.5723 192.617 25.2354 192.423 24.9424C192.236 24.6494 191.995 24.4209 191.703 24.2568C191.415 24.0869 191.073 24.002 190.674 24.002C190.276 24.002 189.93 24.0869 189.637 24.2568C189.35 24.4209 189.113 24.6494 188.925 24.9424C188.738 25.2354 188.6 25.5723 188.512 25.9531C188.424 26.3281 188.38 26.7266 188.38 27.1484ZM201.107 22.4902V32H198.98V22.4902H201.107ZM204.228 22.4902V24.1602H195.913V22.4902H204.228ZM206.742 22.4902H208.86L208.755 25.8389C208.725 26.8115 208.614 27.6465 208.421 28.3438C208.227 29.041 207.975 29.6299 207.665 30.1104C207.354 30.585 207.003 30.9746 206.61 31.2793C206.223 31.584 205.816 31.8242 205.388 32H204.764V30.3301L205.063 30.3125C205.315 30.043 205.532 29.7734 205.714 29.5039C205.901 29.2285 206.059 28.9268 206.188 28.5986C206.317 28.2646 206.417 27.875 206.487 27.4297C206.563 26.9844 206.613 26.4541 206.636 25.8389L206.742 22.4902ZM207.304 22.4902H213.334V32H211.224V24.2832H207.304V22.4902ZM204.281 30.3125H214.634V34.8301H212.516V32H206.425V34.8301H204.272L204.281 30.3125ZM217.746 25.5137H220.55C221.37 25.5137 222.068 25.6514 222.642 25.9268C223.216 26.2021 223.653 26.5859 223.951 27.0781C224.256 27.5645 224.409 28.1211 224.409 28.748C224.409 29.2109 224.324 29.6416 224.154 30.04C223.984 30.4326 223.732 30.7754 223.398 31.0684C223.07 31.3613 222.665 31.5898 222.185 31.7539C221.71 31.918 221.165 32 220.55 32H216.34V22.4902H218.467V30.3213H220.55C220.972 30.3213 221.309 30.248 221.561 30.1016C221.813 29.9551 221.994 29.7646 222.106 29.5303C222.223 29.2959 222.282 29.0469 222.282 28.7832C222.282 28.5137 222.223 28.2588 222.106 28.0186C221.994 27.7783 221.813 27.582 221.561 27.4297C221.309 27.2773 220.972 27.2012 220.55 27.2012H217.746V25.5137ZM228.153 22.4902V32H226.034V22.4902H228.153ZM232.302 22.4902L234.112 25.6455L235.958 22.4902H238.287L235.404 27.1572L238.401 32H236.072L234.139 28.7129L232.205 32H229.867L232.855 27.1572L229.981 22.4902H232.302Z" fill="#0066B3"/>
<path d="M320.295 28.2805C319.902 28.6739 319.902 29.3116 320.295 29.705C320.689 30.0983 321.328 30.0983 321.722 29.705L326.713 24.7195C327.107 24.3261 327.107 23.6884 326.713 23.295C326.319 22.9017 325.681 22.9017 325.287 23.295L320.295 28.2805Z" fill="#1D1D1D"/>
<path d="M330.278 29.7048C330.672 30.0982 331.311 30.0982 331.705 29.7048C332.098 29.3115 332.098 28.6737 331.705 28.2804L326.713 23.295C326.319 22.9017 325.681 22.9017 325.287 23.295C324.893 23.6884 324.893 24.326 325.287 24.7193L330.278 29.7048Z" fill="#1D1D1D"/>
<g filter="url(#filter1_d_6_4941)">
<g clip-path="url(#clip1_6_4941)">
<rect opacity="0.8" x="14" y="48" width="104" height="72" rx="12" fill="url(#paint0_linear_6_4941)"/>
<path d="M28.7998 94.0039V96.9902C28.6888 97.137 28.5151 97.2982 28.2788 97.4736C28.0461 97.6455 27.7363 97.7941 27.3496 97.9194C26.9629 98.0448 26.4813 98.1074 25.9048 98.1074C25.4142 98.1074 24.9648 98.0251 24.5566 97.8604C24.1484 97.6921 23.7957 97.4468 23.4985 97.1245C23.2049 96.8022 22.9775 96.4102 22.8164 95.9482C22.6553 95.4827 22.5747 94.9528 22.5747 94.3584V93.8159C22.5747 93.2251 22.6481 92.6987 22.7949 92.2368C22.9453 91.7713 23.1602 91.3774 23.4395 91.0552C23.7188 90.7329 24.0553 90.4894 24.4492 90.3247C24.8467 90.1564 25.2961 90.0723 25.7974 90.0723C26.4383 90.0723 26.9683 90.1797 27.3872 90.3945C27.8097 90.6058 28.1356 90.8994 28.3647 91.2754C28.5939 91.6514 28.7389 92.0811 28.7998 92.5645H27.4785C27.4355 92.2923 27.3514 92.0488 27.2261 91.834C27.1043 91.6191 26.9289 91.4508 26.6997 91.3291C26.4741 91.2038 26.1805 91.1411 25.8188 91.1411C25.5073 91.1411 25.2334 91.2002 24.9971 91.3184C24.7607 91.4365 24.5638 91.6102 24.4062 91.8394C24.2523 92.0685 24.1359 92.3478 24.0571 92.6772C23.9784 93.0067 23.939 93.3826 23.939 93.8052V94.3584C23.939 94.7881 23.9837 95.1694 24.0732 95.5024C24.1663 95.8354 24.2988 96.1165 24.4707 96.3457C24.6462 96.5749 24.8592 96.7485 25.1099 96.8667C25.3605 96.9813 25.6434 97.0386 25.9585 97.0386C26.2664 97.0386 26.5189 97.0135 26.7158 96.9634C26.9128 96.9097 27.0685 96.847 27.1831 96.7754C27.3013 96.7002 27.3926 96.6286 27.457 96.5605V95.0083H25.8296V94.0039H28.7998ZM29.961 95.1587V95.0352C29.961 94.6162 30.0219 94.2277 30.1436 93.8696C30.2654 93.508 30.4408 93.1947 30.67 92.9297C30.9027 92.6611 31.1856 92.4535 31.5186 92.3066C31.8552 92.1562 32.2348 92.0811 32.6573 92.0811C33.0834 92.0811 33.4629 92.1562 33.796 92.3066C34.1325 92.4535 34.4172 92.6611 34.65 92.9297C34.8827 93.1947 35.06 93.508 35.1817 93.8696C35.3034 94.2277 35.3643 94.6162 35.3643 95.0352V95.1587C35.3643 95.5776 35.3034 95.9661 35.1817 96.3242C35.06 96.6823 34.8827 96.9956 34.65 97.2642C34.4172 97.5291 34.1343 97.7368 33.8013 97.8872C33.4683 98.034 33.0905 98.1074 32.668 98.1074C32.2419 98.1074 31.8606 98.034 31.524 97.8872C31.191 97.7368 30.9081 97.5291 30.6753 97.2642C30.4426 96.9956 30.2654 96.6823 30.1436 96.3242C30.0219 95.9661 29.961 95.5776 29.961 95.1587ZM31.2554 95.0352V95.1587C31.2554 95.4201 31.2823 95.6672 31.336 95.8999C31.3897 96.1326 31.4739 96.3368 31.5884 96.5122C31.703 96.6877 31.8498 96.8255 32.0289 96.9258C32.2079 97.026 32.421 97.0762 32.668 97.0762C32.9079 97.0762 33.1156 97.026 33.2911 96.9258C33.4701 96.8255 33.6169 96.6877 33.7315 96.5122C33.8461 96.3368 33.9302 96.1326 33.9839 95.8999C34.0412 95.6672 34.0699 95.4201 34.0699 95.1587V95.0352C34.0699 94.7773 34.0412 94.5339 33.9839 94.3047C33.9302 94.0719 33.8443 93.866 33.7261 93.687C33.6115 93.508 33.4647 93.3683 33.2857 93.2681C33.1102 93.1642 32.9008 93.1123 32.6573 93.1123C32.4138 93.1123 32.2025 93.1642 32.0235 93.2681C31.848 93.3683 31.703 93.508 31.5884 93.687C31.4739 93.866 31.3897 94.0719 31.336 94.3047C31.2823 94.5339 31.2554 94.7773 31.2554 95.0352ZM40.7364 95.9858C40.7364 95.8247 40.7114 95.6815 40.6612 95.5562C40.6147 95.4308 40.5305 95.3162 40.4088 95.2124C40.2871 95.1086 40.1152 95.0083 39.8932 94.9116C39.6748 94.8114 39.3955 94.7093 39.0553 94.6055C38.6829 94.4909 38.3391 94.3638 38.024 94.2241C37.7125 94.0809 37.4404 93.9162 37.2076 93.73C36.9749 93.5402 36.7941 93.3236 36.6651 93.0801C36.5362 92.833 36.4718 92.5483 36.4718 92.2261C36.4718 91.9074 36.538 91.6174 36.6705 91.356C36.8066 91.0946 36.9982 90.869 37.2452 90.6792C37.4959 90.4858 37.7913 90.3372 38.1315 90.2334C38.4716 90.126 38.8476 90.0723 39.2594 90.0723C39.8395 90.0723 40.339 90.1797 40.7579 90.3945C41.1804 90.6094 41.5045 90.8976 41.7301 91.2593C41.9593 91.6209 42.0738 92.0202 42.0738 92.457H40.7364C40.7364 92.1992 40.6809 91.9718 40.5699 91.7749C40.4625 91.5744 40.2978 91.4168 40.0758 91.3022C39.8574 91.1877 39.5799 91.1304 39.2433 91.1304C38.9246 91.1304 38.6596 91.1787 38.4484 91.2754C38.2371 91.3721 38.0795 91.5028 37.9757 91.6675C37.8719 91.8322 37.8199 92.0184 37.8199 92.2261C37.8199 92.3729 37.854 92.5072 37.922 92.6289C37.99 92.7471 38.0939 92.8581 38.2335 92.9619C38.3732 93.0622 38.5486 93.1571 38.7599 93.2466C38.9711 93.3361 39.22 93.422 39.5065 93.5044C39.9397 93.6333 40.3175 93.7765 40.6398 93.9341C40.962 94.0881 41.2306 94.2635 41.4454 94.4604C41.6603 94.6574 41.8214 94.8812 41.9288 95.1318C42.0362 95.3789 42.09 95.66 42.09 95.9751C42.09 96.3045 42.0237 96.6017 41.8912 96.8667C41.7587 97.1281 41.569 97.3519 41.3219 97.5381C41.0784 97.7207 40.7848 97.8621 40.441 97.9624C40.1009 98.0591 39.7213 98.1074 39.3024 98.1074C38.9264 98.1074 38.5558 98.0573 38.1905 97.957C37.8289 97.8568 37.4995 97.7046 37.2023 97.5005C36.9051 97.2928 36.6687 97.035 36.4933 96.7271C36.3178 96.4155 36.2301 96.0521 36.2301 95.6367H37.5782C37.5782 95.891 37.6212 96.1076 37.7071 96.2866C37.7967 96.4657 37.9202 96.6125 38.0777 96.7271C38.2353 96.8381 38.4179 96.9204 38.6256 96.9741C38.8369 97.0278 39.0624 97.0547 39.3024 97.0547C39.6175 97.0547 39.8806 97.0099 40.0919 96.9204C40.3068 96.8309 40.4679 96.7056 40.5753 96.5444C40.6827 96.3833 40.7364 96.1971 40.7364 95.9858ZM46.4738 96.8345V94.063C46.4738 93.8553 46.4362 93.6763 46.361 93.5259C46.2858 93.3755 46.1712 93.2591 46.0173 93.1768C45.8669 93.0944 45.6771 93.0532 45.4479 93.0532C45.2367 93.0532 45.054 93.089 44.9001 93.1606C44.7461 93.2323 44.6261 93.3289 44.5402 93.4507C44.4543 93.5724 44.4113 93.7103 44.4113 93.8643H43.1222C43.1222 93.6351 43.1777 93.4131 43.2887 93.1982C43.3997 92.9834 43.5609 92.7918 43.7721 92.6235C43.9834 92.4552 44.2358 92.3228 44.5295 92.2261C44.8231 92.1294 45.1525 92.0811 45.5177 92.0811C45.9546 92.0811 46.3413 92.1545 46.6779 92.3013C47.0181 92.4481 47.2848 92.6701 47.4782 92.9673C47.6751 93.2609 47.7736 93.6297 47.7736 94.0737V96.6572C47.7736 96.9222 47.7915 97.1603 47.8273 97.3716C47.8667 97.5793 47.9222 97.7601 47.9938 97.9141V98H46.6672C46.6063 97.8604 46.5579 97.6831 46.5221 97.4683C46.4899 97.2498 46.4738 97.0386 46.4738 96.8345ZM46.6618 94.4658L46.6725 95.2661H45.7433C45.5034 95.2661 45.2922 95.2894 45.1095 95.3359C44.9269 95.3789 44.7747 95.4434 44.653 95.5293C44.5313 95.6152 44.4399 95.7191 44.3791 95.8408C44.3182 95.9626 44.2878 96.1004 44.2878 96.2544C44.2878 96.4084 44.3236 96.5498 44.3952 96.6787C44.4668 96.804 44.5706 96.9025 44.7067 96.9741C44.8464 97.0457 45.0146 97.0815 45.2116 97.0815C45.4766 97.0815 45.7075 97.0278 45.9045 96.9204C46.105 96.8094 46.2625 96.6751 46.3771 96.5176C46.4917 96.3564 46.5526 96.2043 46.5597 96.061L46.9787 96.6357C46.9357 96.7826 46.8623 96.9401 46.7585 97.1084C46.6546 97.2767 46.5186 97.4378 46.3503 97.5918C46.1855 97.7422 45.9868 97.8657 45.7541 97.9624C45.5249 98.0591 45.2599 98.1074 44.9591 98.1074C44.5796 98.1074 44.2412 98.0322 43.944 97.8818C43.6468 97.7279 43.4141 97.522 43.2458 97.2642C43.0775 97.0028 42.9933 96.7074 42.9933 96.3779C42.9933 96.07 43.0506 95.7979 43.1652 95.5615C43.2834 95.3216 43.4552 95.1211 43.6808 94.96C43.91 94.7988 44.1893 94.6771 44.5187 94.5947C44.8481 94.5088 45.2241 94.4658 45.6466 94.4658H46.6618ZM50.4763 89.75V98H49.1765V89.75H50.4763ZM54.0857 92.1885L51.5559 94.9922L50.1701 96.4102L49.8318 95.3145L50.8791 94.02L52.5227 92.1885H54.0857ZM52.802 98L50.9167 95.2715L51.7331 94.3638L54.3005 98H52.802ZM56.2298 89.75V98H54.9407V89.75H56.2298ZM56.0042 94.8794L55.5852 94.874C55.5888 94.473 55.6443 94.1024 55.7517 93.7622C55.8627 93.422 56.0167 93.1266 56.2137 92.876C56.4142 92.6217 56.6541 92.4266 56.9334 92.2905C57.2127 92.1509 57.5224 92.0811 57.8626 92.0811C58.149 92.0811 58.4069 92.1204 58.636 92.1992C58.8688 92.278 59.0693 92.4051 59.2376 92.5806C59.4059 92.7524 59.533 92.978 59.6189 93.2573C59.7084 93.533 59.7532 93.8696 59.7532 94.2671V98H58.4534V94.2563C58.4534 93.9771 58.4122 93.755 58.3299 93.5903C58.2511 93.4256 58.1347 93.3075 57.9807 93.2358C57.8268 93.1606 57.6388 93.123 57.4168 93.123C57.184 93.123 56.9781 93.1696 56.7991 93.2627C56.6236 93.3558 56.4768 93.4829 56.3587 93.644C56.2405 93.8052 56.151 93.9914 56.0901 94.2026C56.0328 94.4139 56.0042 94.6395 56.0042 94.8794ZM64.3841 96.8345V94.063C64.3841 93.8553 64.3465 93.6763 64.2713 93.5259C64.1961 93.3755 64.0815 93.2591 63.9276 93.1768C63.7772 93.0944 63.5874 93.0532 63.3582 93.0532C63.147 93.0532 62.9644 93.089 62.8104 93.1606C62.6564 93.2323 62.5365 93.3289 62.4505 93.4507C62.3646 93.5724 62.3216 93.7103 62.3216 93.8643H61.0326C61.0326 93.6351 61.0881 93.4131 61.1991 93.1982C61.3101 92.9834 61.4712 92.7918 61.6825 92.6235C61.8937 92.4552 62.1462 92.3228 62.4398 92.2261C62.7334 92.1294 63.0628 92.0811 63.4281 92.0811C63.8649 92.0811 64.2516 92.1545 64.5882 92.3013C64.9284 92.4481 65.1952 92.6701 65.3885 92.9673C65.5855 93.2609 65.6839 93.6297 65.6839 94.0737V96.6572C65.6839 96.9222 65.7018 97.1603 65.7376 97.3716C65.777 97.5793 65.8325 97.7601 65.9041 97.9141V98H64.5775C64.5166 97.8604 64.4683 97.6831 64.4325 97.4683C64.4002 97.2498 64.3841 97.0386 64.3841 96.8345ZM64.5721 94.4658L64.5828 95.2661H63.6536C63.4137 95.2661 63.2025 95.2894 63.0199 95.3359C62.8372 95.3789 62.6851 95.4434 62.5633 95.5293C62.4416 95.6152 62.3503 95.7191 62.2894 95.8408C62.2285 95.9626 62.1981 96.1004 62.1981 96.2544C62.1981 96.4084 62.2339 96.5498 62.3055 96.6787C62.3771 96.804 62.481 96.9025 62.617 96.9741C62.7567 97.0457 62.925 97.0815 63.1219 97.0815C63.3869 97.0815 63.6178 97.0278 63.8148 96.9204C64.0153 96.8094 64.1729 96.6751 64.2874 96.5176C64.402 96.3564 64.4629 96.2043 64.4701 96.061L64.889 96.6357C64.846 96.7826 64.7726 96.9401 64.6688 97.1084C64.5649 97.2767 64.4289 97.4378 64.2606 97.5918C64.0959 97.7422 63.8971 97.8657 63.6644 97.9624C63.4352 98.0591 63.1702 98.1074 62.8695 98.1074C62.4899 98.1074 62.1515 98.0322 61.8543 97.8818C61.5571 97.7279 61.3244 97.522 61.1561 97.2642C60.9878 97.0028 60.9036 96.7074 60.9036 96.3779C60.9036 96.07 60.9609 95.7979 61.0755 95.5615C61.1937 95.3216 61.3656 95.1211 61.5911 94.96C61.8203 94.7988 62.0996 94.6771 62.429 94.5947C62.7585 94.5088 63.1344 94.4658 63.557 94.4658H64.5721ZM68.4672 89.75V98H67.1674V89.75H68.4672ZM71.3149 92.1885V98H70.0151V92.1885H71.3149ZM69.9291 90.6631C69.9291 90.4661 69.9936 90.3032 70.1225 90.1743C70.255 90.0418 70.4376 89.9756 70.6704 89.9756C70.8995 89.9756 71.0804 90.0418 71.2128 90.1743C71.3453 90.3032 71.4116 90.4661 71.4116 90.6631C71.4116 90.8564 71.3453 91.0176 71.2128 91.1465C71.0804 91.2754 70.8995 91.3398 70.6704 91.3398C70.4376 91.3398 70.255 91.2754 70.1225 91.1465C69.9936 91.0176 69.9291 90.8564 69.9291 90.6631ZM74.0606 93.4292V98H72.7661V92.1885H73.9854L74.0606 93.4292ZM73.8296 94.8794L73.4106 94.874C73.4142 94.4622 73.4715 94.0845 73.5825 93.7407C73.6971 93.397 73.8547 93.1016 74.0552 92.8545C74.2593 92.6074 74.5028 92.4176 74.7856 92.2852C75.0685 92.1491 75.3836 92.0811 75.731 92.0811C76.0103 92.0811 76.2627 92.1204 76.4883 92.1992C76.7175 92.2744 76.9126 92.3979 77.0737 92.5698C77.2384 92.7417 77.3638 92.9655 77.4497 93.2412C77.5356 93.5133 77.5786 93.8481 77.5786 94.2456V98H76.2788V94.2402C76.2788 93.9609 76.2376 93.7407 76.1553 93.5796C76.0765 93.4149 75.9601 93.2985 75.8062 93.2305C75.6558 93.1589 75.4678 93.123 75.2422 93.123C75.0202 93.123 74.8215 93.1696 74.646 93.2627C74.4705 93.3558 74.3219 93.4829 74.2002 93.644C74.082 93.8052 73.9907 93.9914 73.9263 94.2026C73.8618 94.4139 73.8296 94.6395 73.8296 94.8794Z" fill="white"/>
<path fill-rule="evenodd" clip-rule="evenodd" d="M37.8539 61.5726L34.8434 58.4467L29.8632 63.6904C29.4846 64.089 28.8566 64.1112 28.4508 63.7404L27.918 63.2535L24.7383 66.7339C24.3658 67.1416 23.7333 67.1702 23.3255 66.7977C22.9178 66.4252 22.8892 65.7927 23.2617 65.3849L26.748 61.569C27.3237 60.9388 28.3013 60.8947 28.9314 61.4704L29.0823 61.6083L33.7205 56.7248C34.3269 56.0863 35.3434 56.0828 35.9543 56.717L38.5951 59.4591L39.0679 58.9879C39.6915 58.3663 40.7076 58.3906 41.3009 59.0412L44.7389 62.8118C45.1111 63.2199 45.0819 63.8524 44.6738 64.2245C44.2657 64.5966 43.6332 64.5674 43.2611 64.1593L40.1432 60.7399L39.2931 61.5873C38.8935 61.9855 38.2452 61.9789 37.8539 61.5726ZM35.7305 76C35.7305 76.5523 36.1782 77 36.7305 77C36.7305 77.5523 37.1782 78 37.7305 78C38.2828 78 38.7305 77.5523 38.7305 77H39.7305C39.7305 77.5523 40.1782 78 40.7305 78C41.2828 78 41.7305 77.5523 41.7305 77C42.2828 77 42.7305 76.5523 42.7305 76V68C42.7305 67.4477 42.2828 67 41.7305 67V64.5C41.7305 64.2239 41.5066 64 41.2305 64H37.2305C36.9543 64 36.7305 64.2239 36.7305 64.5V67C36.1782 67 35.7305 67.4477 35.7305 68V76ZM40.7305 65V67H37.7305V65H40.7305ZM37.2305 70C36.9543 70 36.7305 69.7761 36.7305 69.5C36.7305 69.2239 36.9543 69 37.2305 69H41.2305C41.5066 69 41.7305 69.2239 41.7305 69.5C41.7305 69.7761 41.5066 70 41.2305 70H37.2305ZM36.7305 74C36.7305 74.5523 37.1782 75 37.7305 75H40.7305C41.2828 75 41.7305 74.5523 41.7305 74C41.7305 73.4477 41.2828 73 40.7305 73H37.7305C37.1782 73 36.7305 73.4477 36.7305 74ZM24.6888 68.1231L24.9768 67.8936C25.1141 67.7841 25.2988 67.7547 25.4633 67.8161L26.7578 68.2992C26.9288 68.3631 27.1209 68.3286 27.2592 68.2095L33.6611 62.6896C34.187 62.2704 35.1853 61.9048 35.6045 62.4305C36.0236 62.9562 35.4446 63.8479 34.9188 64.2671L32.6039 66.4974C32.5277 66.5708 32.4768 66.6664 32.4584 66.7706L31.909 69.8849C31.8804 70.0469 31.7739 70.1846 31.6241 70.2529L31.0981 70.4929C30.8313 70.6147 30.5176 70.4818 30.4194 70.2055L30.0732 69.2316C29.9713 68.9449 29.6392 68.8149 29.3698 68.9562L27.0809 70.1571C26.9208 70.2411 26.7278 70.2321 26.5762 70.1336L24.7282 68.9334C24.442 68.7475 24.422 68.3359 24.6888 68.1231Z" fill="white"/>
</g>
</g>
<g filter="url(#filter2_d_6_4941)">
<g clip-path="url(#clip2_6_4941)">
<rect opacity="0.8" x="124" y="48" width="104" height="72" rx="12" fill="url(#paint1_linear_6_4941)"/>
<path d="M136.533 92.1885V93.2197H133.998V98H132.704V92.1885H136.533ZM136.975 95.1587V95.0352C136.975 94.6162 137.036 94.2277 137.157 93.8696C137.279 93.508 137.454 93.1947 137.684 92.9297C137.916 92.6611 138.199 92.4535 138.532 92.3066C138.869 92.1562 139.248 92.0811 139.671 92.0811C140.097 92.0811 140.477 92.1562 140.81 92.3066C141.146 92.4535 141.431 92.6611 141.664 92.9297C141.896 93.1947 142.074 93.508 142.195 93.8696C142.317 94.2277 142.378 94.6162 142.378 95.0352V95.1587C142.378 95.5776 142.317 95.9661 142.195 96.3242C142.074 96.6823 141.896 96.9956 141.664 97.2642C141.431 97.5291 141.148 97.7368 140.815 97.8872C140.482 98.034 140.104 98.1074 139.682 98.1074C139.256 98.1074 138.874 98.034 138.538 97.8872C138.205 97.7368 137.922 97.5291 137.689 97.2642C137.456 96.9956 137.279 96.6823 137.157 96.3242C137.036 95.9661 136.975 95.5776 136.975 95.1587ZM138.269 95.0352V95.1587C138.269 95.4201 138.296 95.6672 138.35 95.8999C138.403 96.1326 138.488 96.3368 138.602 96.5122C138.717 96.6877 138.863 96.8255 139.043 96.9258C139.222 97.026 139.435 97.0762 139.682 97.0762C139.922 97.0762 140.129 97.026 140.305 96.9258C140.484 96.8255 140.631 96.6877 140.745 96.5122C140.86 96.3368 140.944 96.1326 140.998 95.8999C141.055 95.6672 141.084 95.4201 141.084 95.1587V95.0352C141.084 94.7773 141.055 94.5339 140.998 94.3047C140.944 94.0719 140.858 93.866 140.74 93.687C140.625 93.508 140.478 93.3683 140.299 93.2681C140.124 93.1642 139.914 93.1123 139.671 93.1123C139.427 93.1123 139.216 93.1642 139.037 93.2681C138.862 93.3683 138.717 93.508 138.602 93.687C138.488 93.866 138.403 94.0719 138.35 94.3047C138.296 94.5339 138.269 94.7773 138.269 95.0352ZM144.807 93.3057V100.234H143.512V92.1885H144.705L144.807 93.3057ZM148.593 95.0405V95.1533C148.593 95.5758 148.543 95.9679 148.443 96.3296C148.346 96.6877 148.201 97.001 148.008 97.2695C147.818 97.5345 147.584 97.7404 147.304 97.8872C147.025 98.034 146.703 98.1074 146.338 98.1074C145.976 98.1074 145.659 98.0412 145.387 97.9087C145.118 97.7726 144.891 97.5811 144.705 97.334C144.519 97.0869 144.368 96.7969 144.254 96.4639C144.143 96.1273 144.064 95.7585 144.017 95.3574V94.9224C144.064 94.4963 144.143 94.1095 144.254 93.7622C144.368 93.4149 144.519 93.1159 144.705 92.8652C144.891 92.6146 145.118 92.4212 145.387 92.2852C145.655 92.1491 145.969 92.0811 146.327 92.0811C146.692 92.0811 147.016 92.1527 147.299 92.2959C147.582 92.4355 147.82 92.6361 148.013 92.8975C148.207 93.1553 148.352 93.4668 148.448 93.832C148.545 94.1937 148.593 94.5965 148.593 95.0405ZM147.299 95.1533V95.0405C147.299 94.772 147.274 94.5231 147.224 94.2939C147.174 94.0612 147.095 93.8571 146.987 93.6816C146.88 93.5062 146.742 93.3701 146.574 93.2734C146.409 93.1732 146.21 93.123 145.978 93.123C145.748 93.123 145.552 93.1624 145.387 93.2412C145.222 93.3164 145.084 93.422 144.973 93.5581C144.862 93.6942 144.776 93.8535 144.715 94.0361C144.655 94.2152 144.612 94.4103 144.587 94.6216V95.6636C144.63 95.9214 144.703 96.1577 144.807 96.3726C144.911 96.5874 145.057 96.7593 145.247 96.8882C145.441 97.0135 145.688 97.0762 145.988 97.0762C146.221 97.0762 146.42 97.026 146.585 96.9258C146.749 96.8255 146.884 96.6877 146.987 96.5122C147.095 96.3332 147.174 96.1273 147.224 95.8945C147.274 95.6618 147.299 95.4147 147.299 95.1533ZM153.708 94.6162V95.6367H150.7V94.6162H153.708ZM151.076 92.1885V98H149.781V92.1885H151.076ZM154.642 92.1885V98H153.348V92.1885H154.642ZM157.028 94.0361H158.741C159.243 94.0361 159.669 94.1203 160.02 94.2886C160.371 94.4569 160.637 94.6914 160.82 94.9922C161.006 95.2894 161.099 95.6296 161.099 96.0127C161.099 96.2956 161.047 96.5588 160.944 96.8022C160.84 97.0422 160.686 97.2516 160.482 97.4307C160.281 97.6097 160.034 97.7493 159.74 97.8496C159.45 97.9499 159.117 98 158.741 98H156.169V92.1885H157.468V96.9741H158.741C158.999 96.9741 159.205 96.9294 159.359 96.8398C159.513 96.7503 159.624 96.634 159.692 96.4907C159.764 96.3475 159.8 96.1953 159.8 96.0342C159.8 95.8695 159.764 95.7137 159.692 95.5669C159.624 95.4201 159.513 95.3001 159.359 95.207C159.205 95.1139 158.999 95.0674 158.741 95.0674H157.028V94.0361ZM163.387 92.1885V98H162.093V92.1885H163.387ZM166.3 96.1094L168.582 92.1885H169.877V98H168.582V94.0737L166.3 98H165.005V92.1885H166.3V96.1094ZM168.239 89.9541H169.2C169.2 90.2513 169.128 90.5145 168.985 90.7437C168.845 90.9692 168.645 91.1465 168.384 91.2754C168.126 91.4043 167.818 91.4688 167.46 91.4688C166.919 91.4688 166.491 91.3291 166.176 91.0498C165.865 90.7669 165.709 90.4017 165.709 89.9541H166.67C166.67 90.1546 166.729 90.3319 166.847 90.4858C166.969 90.6362 167.173 90.7114 167.46 90.7114C167.743 90.7114 167.943 90.6362 168.061 90.4858C168.179 90.3319 168.239 90.1546 168.239 89.9541ZM176.899 95.5132H175.04L175.03 94.6001H176.555C176.806 94.6001 177.012 94.575 177.173 94.5249C177.337 94.4748 177.459 94.3996 177.538 94.2993C177.617 94.1955 177.656 94.0701 177.656 93.9233C177.656 93.8016 177.633 93.696 177.586 93.6064C177.54 93.5133 177.468 93.4382 177.371 93.3809C177.278 93.32 177.16 93.277 177.017 93.252C176.877 93.2233 176.714 93.209 176.528 93.209H175.47V98H174.176V92.1885H176.528C176.901 92.1885 177.235 92.2207 177.533 92.2852C177.833 92.3496 178.089 92.4481 178.301 92.5806C178.512 92.7131 178.673 92.8813 178.784 93.0854C178.899 93.286 178.956 93.5223 178.956 93.7944C178.956 93.9735 178.917 94.1418 178.838 94.2993C178.763 94.4569 178.65 94.5965 178.499 94.7183C178.349 94.84 178.165 94.9403 177.946 95.019C177.728 95.0942 177.477 95.1408 177.194 95.1587L176.899 95.5132ZM176.899 98H174.664L175.18 96.9795H176.899C177.128 96.9795 177.318 96.9508 177.468 96.8936C177.619 96.8363 177.73 96.7539 177.801 96.6465C177.876 96.5355 177.914 96.4048 177.914 96.2544C177.914 96.1004 177.878 95.9679 177.807 95.8569C177.735 95.7459 177.624 95.6618 177.474 95.6045C177.327 95.5436 177.135 95.5132 176.899 95.5132H175.422L175.433 94.6001H177.189L177.559 94.9546C177.928 94.9797 178.234 95.0584 178.478 95.1909C178.721 95.3234 178.904 95.4899 179.026 95.6904C179.148 95.891 179.208 96.1094 179.208 96.3457C179.208 96.6178 179.156 96.8577 179.053 97.0654C178.952 97.2731 178.802 97.4468 178.601 97.5864C178.405 97.7225 178.163 97.8263 177.876 97.8979C177.59 97.966 177.264 98 176.899 98ZM180.123 95.1587V95.0352C180.123 94.6162 180.183 94.2277 180.305 93.8696C180.427 93.508 180.602 93.1947 180.831 92.9297C181.064 92.6611 181.347 92.4535 181.68 92.3066C182.017 92.1562 182.396 92.0811 182.819 92.0811C183.245 92.0811 183.624 92.1562 183.957 92.3066C184.294 92.4535 184.579 92.6611 184.811 92.9297C185.044 93.1947 185.221 93.508 185.343 93.8696C185.465 94.2277 185.526 94.6162 185.526 95.0352V95.1587C185.526 95.5776 185.465 95.9661 185.343 96.3242C185.221 96.6823 185.044 96.9956 184.811 97.2642C184.579 97.5291 184.296 97.7368 183.963 97.8872C183.63 98.034 183.252 98.1074 182.83 98.1074C182.403 98.1074 182.022 98.034 181.685 97.8872C181.352 97.7368 181.07 97.5291 180.837 97.2642C180.604 96.9956 180.427 96.6823 180.305 96.3242C180.183 95.9661 180.123 95.5776 180.123 95.1587ZM181.417 95.0352V95.1587C181.417 95.4201 181.444 95.6672 181.498 95.8999C181.551 96.1326 181.635 96.3368 181.75 96.5122C181.865 96.6877 182.011 96.8255 182.19 96.9258C182.369 97.026 182.582 97.0762 182.83 97.0762C183.069 97.0762 183.277 97.026 183.453 96.9258C183.632 96.8255 183.778 96.6877 183.893 96.5122C184.008 96.3368 184.092 96.1326 184.145 95.8999C184.203 95.6672 184.231 95.4201 184.231 95.1587V95.0352C184.231 94.7773 184.203 94.5339 184.145 94.3047C184.092 94.0719 184.006 93.866 183.888 93.687C183.773 93.508 183.626 93.3683 183.447 93.2681C183.272 93.1642 183.062 93.1123 182.819 93.1123C182.575 93.1123 182.364 93.1642 182.185 93.2681C182.01 93.3683 181.865 93.508 181.75 93.687C181.635 93.866 181.551 94.0719 181.498 94.3047C181.444 94.5339 181.417 94.7773 181.417 95.0352ZM189.061 95.2231H187.944V94.5679H188.846C189.075 94.5679 189.258 94.5374 189.394 94.4766C189.534 94.4157 189.632 94.3315 189.689 94.2241C189.75 94.1131 189.781 93.9842 189.781 93.8374C189.781 93.7085 189.75 93.5868 189.689 93.4722C189.632 93.354 189.534 93.2573 189.394 93.1821C189.254 93.1069 189.065 93.0693 188.825 93.0693C188.628 93.0693 188.451 93.1016 188.293 93.166C188.139 93.2305 188.017 93.32 187.928 93.4346C187.838 93.5492 187.793 93.6816 187.793 93.832H186.499C186.499 93.4704 186.601 93.1589 186.805 92.8975C187.013 92.6361 187.29 92.4355 187.638 92.2959C187.985 92.1562 188.366 92.0864 188.782 92.0864C189.136 92.0864 189.455 92.124 189.738 92.1992C190.021 92.2708 190.261 92.3783 190.458 92.5215C190.658 92.6611 190.81 92.8366 190.914 93.0479C191.021 93.2555 191.075 93.4972 191.075 93.7729C191.075 93.9699 191.029 94.1561 190.936 94.3315C190.842 94.507 190.708 94.6628 190.533 94.7988C190.357 94.9313 190.144 95.0352 189.894 95.1104C189.646 95.1855 189.369 95.2231 189.061 95.2231ZM187.944 94.8472H189.061C189.405 94.8472 189.709 94.8812 189.974 94.9492C190.239 95.0137 190.461 95.1104 190.64 95.2393C190.819 95.3682 190.953 95.5275 191.043 95.7173C191.136 95.9035 191.183 96.1183 191.183 96.3618C191.183 96.634 191.124 96.8792 191.005 97.0977C190.891 97.3125 190.726 97.4951 190.511 97.6455C190.3 97.7959 190.048 97.9105 189.754 97.9893C189.46 98.068 189.136 98.1074 188.782 98.1074C188.395 98.1074 188.019 98.043 187.654 97.9141C187.292 97.7852 186.993 97.5864 186.757 97.3179C186.524 97.0457 186.408 96.7002 186.408 96.2812H187.702C187.702 96.4281 187.747 96.5659 187.836 96.6948C187.926 96.8237 188.055 96.9294 188.223 97.0117C188.391 97.0905 188.594 97.1299 188.83 97.1299C189.074 97.1299 189.272 97.0923 189.426 97.0171C189.58 96.9383 189.695 96.8363 189.77 96.7109C189.845 96.582 189.883 96.446 189.883 96.3027C189.883 96.1094 189.845 95.9536 189.77 95.8354C189.695 95.7173 189.58 95.6313 189.426 95.5776C189.272 95.5203 189.079 95.4917 188.846 95.4917H187.944V94.8472ZM193.38 92.1885H194.675L194.61 94.2349C194.593 94.8293 194.524 95.3395 194.406 95.7656C194.288 96.1917 194.134 96.5516 193.944 96.8452C193.755 97.1353 193.54 97.3734 193.3 97.5596C193.064 97.7458 192.815 97.8926 192.553 98H192.172V96.9795L192.355 96.9688C192.509 96.804 192.641 96.6393 192.752 96.4746C192.867 96.3063 192.963 96.1219 193.042 95.9214C193.121 95.7173 193.182 95.4792 193.225 95.207C193.271 94.9349 193.302 94.6108 193.316 94.2349L193.38 92.1885ZM193.724 92.1885H197.409V98H196.12V93.2842H193.724V92.1885ZM191.877 96.9688H198.204V99.7295H196.909V98H193.187V99.7295H191.871L191.877 96.9688ZM200.858 97.3662L202.437 92.1885H203.823L201.492 98.8862C201.438 99.0295 201.368 99.1852 201.282 99.3535C201.196 99.5218 201.084 99.6812 200.944 99.8315C200.808 99.9855 200.638 100.109 200.434 100.202C200.23 100.299 199.983 100.347 199.692 100.347C199.578 100.347 199.467 100.336 199.359 100.315C199.256 100.297 199.157 100.277 199.064 100.256L199.059 99.2676C199.095 99.2712 199.137 99.2747 199.188 99.2783C199.241 99.2819 199.284 99.2837 199.317 99.2837C199.531 99.2837 199.71 99.2568 199.854 99.2031C199.997 99.153 200.113 99.0706 200.203 98.9561C200.296 98.8415 200.375 98.6875 200.439 98.4941L200.858 97.3662ZM199.966 92.1885L201.347 96.5391L201.578 97.9033L200.681 98.1343L198.57 92.1885H199.966ZM205.596 92.1885L206.703 94.1167L207.831 92.1885H209.254L207.492 95.0405L209.324 98H207.901L206.719 95.9912L205.537 98H204.109L205.935 95.0405L204.178 92.1885H205.596Z" fill="white"/>
<path fill-rule="evenodd" clip-rule="evenodd" d="M143.492 60.4432L141.977 62.009C141.586 62.413 140.94 62.4196 140.541 62.0237L140.328 61.8123L139 63.2616V66.7929L142.146 63.6464C142.246 63.5471 142.382 63.4941 142.523 63.5005C142.663 63.5069 142.794 63.572 142.884 63.6799L145.034 66.2593L145.646 65.6464C145.833 65.4603 146.131 65.4504 146.329 65.6237L149 67.9606V64.7991L147.624 63.3001L147.6 63.3216C147.195 63.6902 146.57 63.668 146.191 63.2717L143.492 60.4432ZM142.384 58.7124C142.994 58.0817 144.006 58.0853 144.612 58.7202L147.024 61.2472C147.614 60.9842 148.33 61.1123 148.791 61.6143L150.473 63.4466C150.812 63.8156 151 64.2983 151 64.7991V73.8795C151 75.0825 150.302 76.1763 149.211 76.6829L145.225 78.5336C144.448 78.8944 143.552 78.8944 142.775 78.5336L138.789 76.6829C137.698 76.1763 137 75.0825 137 73.8795V63.2616C137 62.7614 137.187 62.2794 137.525 61.9106L139.173 60.1125C139.713 59.5231 140.601 59.4506 141.225 59.9094L142.384 58.7124Z" fill="white"/>
</g>
</g>
<g filter="url(#filter3_d_6_4941)">
<g clip-path="url(#clip3_6_4941)">
<rect opacity="0.8" x="234" y="48" width="104" height="72" rx="12" fill="url(#paint2_linear_6_4941)"/>
<path d="M242.419 95.1587V95.0352C242.419 94.6162 242.48 94.2277 242.602 93.8696C242.723 93.508 242.899 93.1947 243.128 92.9297C243.361 92.6611 243.644 92.4535 243.977 92.3066C244.313 92.1562 244.693 92.0811 245.115 92.0811C245.541 92.0811 245.921 92.1562 246.254 92.3066C246.59 92.4535 246.875 92.6611 247.108 92.9297C247.341 93.1947 247.518 93.508 247.64 93.8696C247.761 94.2277 247.822 94.6162 247.822 95.0352V95.1587C247.822 95.5776 247.761 95.9661 247.64 96.3242C247.518 96.6823 247.341 96.9956 247.108 97.2642C246.875 97.5291 246.592 97.7368 246.259 97.8872C245.926 98.034 245.549 98.1074 245.126 98.1074C244.7 98.1074 244.319 98.034 243.982 97.8872C243.649 97.7368 243.366 97.5291 243.133 97.2642C242.901 96.9956 242.723 96.6823 242.602 96.3242C242.48 95.9661 242.419 95.5776 242.419 95.1587ZM243.713 95.0352V95.1587C243.713 95.4201 243.74 95.6672 243.794 95.8999C243.848 96.1326 243.932 96.3368 244.046 96.5122C244.161 96.6877 244.308 96.8255 244.487 96.9258C244.666 97.026 244.879 97.0762 245.126 97.0762C245.366 97.0762 245.574 97.026 245.749 96.9258C245.928 96.8255 246.075 96.6877 246.189 96.5122C246.304 96.3368 246.388 96.1326 246.442 95.8999C246.499 95.6672 246.528 95.4201 246.528 95.1587V95.0352C246.528 94.7773 246.499 94.5339 246.442 94.3047C246.388 94.0719 246.302 93.866 246.184 93.687C246.069 93.508 245.923 93.3683 245.744 93.2681C245.568 93.1642 245.359 93.1123 245.115 93.1123C244.872 93.1123 244.66 93.1642 244.481 93.2681C244.306 93.3683 244.161 93.508 244.046 93.687C243.932 93.866 243.848 94.0719 243.794 94.3047C243.74 94.5339 243.713 94.7773 243.713 95.0352ZM251.325 97.0762C251.537 97.0762 251.726 97.035 251.895 96.9526C252.066 96.8667 252.204 96.7485 252.308 96.5981C252.416 96.4478 252.475 96.2741 252.485 96.0771H253.705C253.697 96.4531 253.586 96.7951 253.372 97.103C253.157 97.411 252.872 97.6562 252.518 97.8389C252.163 98.0179 251.771 98.1074 251.341 98.1074C250.897 98.1074 250.511 98.0322 250.181 97.8818C249.852 97.7279 249.578 97.5166 249.359 97.248C249.141 96.9795 248.976 96.6698 248.865 96.3188C248.758 95.9679 248.704 95.592 248.704 95.1909V95.0029C248.704 94.6019 248.758 94.2259 248.865 93.875C248.976 93.5205 249.141 93.209 249.359 92.9404C249.578 92.6719 249.852 92.4624 250.181 92.312C250.511 92.158 250.896 92.0811 251.336 92.0811C251.801 92.0811 252.21 92.1742 252.561 92.3604C252.912 92.543 253.187 92.799 253.388 93.1284C253.592 93.4543 253.697 93.8338 253.705 94.2671H252.485C252.475 94.0522 252.421 93.8589 252.324 93.687C252.231 93.5116 252.099 93.3719 251.927 93.2681C251.759 93.1642 251.556 93.1123 251.32 93.1123C251.058 93.1123 250.842 93.166 250.67 93.2734C250.498 93.3773 250.364 93.5205 250.267 93.7031C250.17 93.8822 250.101 94.0845 250.058 94.3101C250.018 94.5321 249.999 94.763 249.999 95.0029V95.1909C249.999 95.4308 250.018 95.6636 250.058 95.8892C250.097 96.1147 250.165 96.3171 250.262 96.4961C250.362 96.6715 250.498 96.813 250.67 96.9204C250.842 97.0243 251.06 97.0762 251.325 97.0762ZM257.439 92.1885V98H256.139V92.1885H257.439ZM259.345 92.1885V93.209H254.264V92.1885H259.345ZM261.554 93.3057V100.234H260.259V92.1885H261.452L261.554 93.3057ZM265.34 95.0405V95.1533C265.34 95.5758 265.29 95.9679 265.19 96.3296C265.093 96.6877 264.948 97.001 264.755 97.2695C264.565 97.5345 264.331 97.7404 264.051 97.8872C263.772 98.034 263.45 98.1074 263.085 98.1074C262.723 98.1074 262.406 98.0412 262.134 97.9087C261.865 97.7726 261.638 97.5811 261.452 97.334C261.266 97.0869 261.115 96.7969 261.001 96.4639C260.89 96.1273 260.811 95.7585 260.764 95.3574V94.9224C260.811 94.4963 260.89 94.1095 261.001 93.7622C261.115 93.4149 261.266 93.1159 261.452 92.8652C261.638 92.6146 261.865 92.4212 262.134 92.2852C262.403 92.1491 262.716 92.0811 263.074 92.0811C263.439 92.0811 263.763 92.1527 264.046 92.2959C264.329 92.4355 264.567 92.6361 264.76 92.8975C264.954 93.1553 265.099 93.4668 265.195 93.832C265.292 94.1937 265.34 94.5965 265.34 95.0405ZM264.046 95.1533V95.0405C264.046 94.772 264.021 94.5231 263.971 94.2939C263.921 94.0612 263.842 93.8571 263.735 93.6816C263.627 93.5062 263.489 93.3701 263.321 93.2734C263.156 93.1732 262.958 93.123 262.725 93.123C262.496 93.123 262.299 93.1624 262.134 93.2412C261.969 93.3164 261.831 93.422 261.72 93.5581C261.609 93.6942 261.523 93.8535 261.463 94.0361C261.402 94.2152 261.359 94.4103 261.334 94.6216V95.6636C261.377 95.9214 261.45 96.1577 261.554 96.3726C261.658 96.5874 261.805 96.7593 261.994 96.8882C262.188 97.0135 262.435 97.0762 262.736 97.0762C262.968 97.0762 263.167 97.026 263.332 96.9258C263.496 96.8255 263.631 96.6877 263.735 96.5122C263.842 96.3332 263.921 96.1273 263.971 95.8945C264.021 95.6618 264.046 95.4147 264.046 95.1533ZM266.239 95.1587V95.0352C266.239 94.6162 266.299 94.2277 266.421 93.8696C266.543 93.508 266.718 93.1947 266.947 92.9297C267.18 92.6611 267.463 92.4535 267.796 92.3066C268.133 92.1562 268.512 92.0811 268.935 92.0811C269.361 92.0811 269.74 92.1562 270.073 92.3066C270.41 92.4535 270.695 92.6611 270.927 92.9297C271.16 93.1947 271.337 93.508 271.459 93.8696C271.581 94.2277 271.642 94.6162 271.642 95.0352V95.1587C271.642 95.5776 271.581 95.9661 271.459 96.3242C271.337 96.6823 271.16 96.9956 270.927 97.2642C270.695 97.5291 270.412 97.7368 270.079 97.8872C269.746 98.034 269.368 98.1074 268.946 98.1074C268.519 98.1074 268.138 98.034 267.801 97.8872C267.468 97.7368 267.186 97.5291 266.953 97.2642C266.72 96.9956 266.543 96.6823 266.421 96.3242C266.299 95.9661 266.239 95.5776 266.239 95.1587ZM267.533 95.0352V95.1587C267.533 95.4201 267.56 95.6672 267.614 95.8999C267.667 96.1326 267.751 96.3368 267.866 96.5122C267.981 96.6877 268.127 96.8255 268.306 96.9258C268.485 97.026 268.698 97.0762 268.946 97.0762C269.185 97.0762 269.393 97.026 269.569 96.9258C269.748 96.8255 269.894 96.6877 270.009 96.5122C270.124 96.3368 270.208 96.1326 270.261 95.8999C270.319 95.6672 270.347 95.4201 270.347 95.1587V95.0352C270.347 94.7773 270.319 94.5339 270.261 94.3047C270.208 94.0719 270.122 93.866 270.004 93.687C269.889 93.508 269.742 93.3683 269.563 93.2681C269.388 93.1642 269.178 93.1123 268.935 93.1123C268.691 93.1123 268.48 93.1642 268.301 93.2681C268.126 93.3683 267.981 93.508 267.866 93.687C267.751 93.866 267.667 94.0719 267.614 94.3047C267.56 94.5339 267.533 94.7773 267.533 95.0352ZM275.596 95.5132H273.738L273.727 94.6001H275.252C275.503 94.6001 275.709 94.575 275.87 94.5249C276.035 94.4748 276.156 94.3996 276.235 94.2993C276.314 94.1955 276.353 94.0701 276.353 93.9233C276.353 93.8016 276.33 93.696 276.283 93.6064C276.237 93.5133 276.165 93.4382 276.069 93.3809C275.976 93.32 275.857 93.277 275.714 93.252C275.574 93.2233 275.412 93.209 275.225 93.209H274.167V98H272.873V92.1885H275.225C275.598 92.1885 275.933 92.2207 276.23 92.2852C276.531 92.3496 276.787 92.4481 276.998 92.5806C277.209 92.7131 277.37 92.8813 277.481 93.0854C277.596 93.286 277.653 93.5223 277.653 93.7944C277.653 93.9735 277.614 94.1418 277.535 94.2993C277.46 94.4569 277.347 94.5965 277.197 94.7183C277.046 94.84 276.862 94.9403 276.643 95.019C276.425 95.0942 276.174 95.1408 275.891 95.1587L275.596 95.5132ZM275.596 98H273.362L273.877 96.9795H275.596C275.825 96.9795 276.015 96.9508 276.165 96.8936C276.316 96.8363 276.427 96.7539 276.498 96.6465C276.574 96.5355 276.611 96.4048 276.611 96.2544C276.611 96.1004 276.575 95.9679 276.504 95.8569C276.432 95.7459 276.321 95.6618 276.171 95.6045C276.024 95.5436 275.832 95.5132 275.596 95.5132H274.119L274.13 94.6001H275.886L276.257 94.9546C276.625 94.9797 276.932 95.0584 277.175 95.1909C277.419 95.3234 277.601 95.4899 277.723 95.6904C277.845 95.891 277.906 96.1094 277.906 96.3457C277.906 96.6178 277.854 96.8577 277.75 97.0654C277.65 97.2731 277.499 97.4468 277.299 97.5864C277.102 97.7225 276.86 97.8263 276.574 97.8979C276.287 97.966 275.961 98 275.596 98ZM282.343 96.8345V94.063C282.343 93.8553 282.306 93.6763 282.23 93.5259C282.155 93.3755 282.041 93.2591 281.887 93.1768C281.736 93.0944 281.546 93.0532 281.317 93.0532C281.106 93.0532 280.923 93.089 280.769 93.1606C280.615 93.2323 280.495 93.3289 280.41 93.4507C280.324 93.5724 280.281 93.7103 280.281 93.8643H278.992C278.992 93.6351 279.047 93.4131 279.158 93.1982C279.269 92.9834 279.43 92.7918 279.641 92.6235C279.853 92.4552 280.105 92.3228 280.399 92.2261C280.692 92.1294 281.022 92.0811 281.387 92.0811C281.824 92.0811 282.211 92.1545 282.547 92.3013C282.887 92.4481 283.154 92.6701 283.347 92.9673C283.544 93.2609 283.643 93.6297 283.643 94.0737V96.6572C283.643 96.9222 283.661 97.1603 283.697 97.3716C283.736 97.5793 283.792 97.7601 283.863 97.9141V98H282.536C282.476 97.8604 282.427 97.6831 282.391 97.4683C282.359 97.2498 282.343 97.0386 282.343 96.8345ZM282.531 94.4658L282.542 95.2661H281.613C281.373 95.2661 281.161 95.2894 280.979 95.3359C280.796 95.3789 280.644 95.4434 280.522 95.5293C280.401 95.6152 280.309 95.7191 280.248 95.8408C280.188 95.9626 280.157 96.1004 280.157 96.2544C280.157 96.4084 280.193 96.5498 280.264 96.6787C280.336 96.804 280.44 96.9025 280.576 96.9741C280.716 97.0457 280.884 97.0815 281.081 97.0815C281.346 97.0815 281.577 97.0278 281.774 96.9204C281.974 96.8094 282.132 96.6751 282.246 96.5176C282.361 96.3564 282.422 96.2043 282.429 96.061L282.848 96.6357C282.805 96.7826 282.732 96.9401 282.628 97.1084C282.524 97.2767 282.388 97.4378 282.22 97.5918C282.055 97.7422 281.856 97.8657 281.623 97.9624C281.394 98.0591 281.129 98.1074 280.828 98.1074C280.449 98.1074 280.111 98.0322 279.813 97.8818C279.516 97.7279 279.283 97.522 279.115 97.2642C278.947 97.0028 278.863 96.7074 278.863 96.3779C278.863 96.07 278.92 95.7979 279.035 95.5615C279.153 95.3216 279.325 95.1211 279.55 94.96C279.779 94.7988 280.059 94.6771 280.388 94.5947C280.717 94.5088 281.093 94.4658 281.516 94.4658H282.531ZM244.062 104.188V110H242.768V104.188H244.062ZM247.854 104.188L245.239 107.685H243.762L243.59 106.514H244.669L246.238 104.188H247.854ZM246.34 110L244.589 107.465L245.609 106.729L248.042 110H246.34ZM250.477 109.366L252.056 104.188H253.441L251.11 110.886C251.057 111.029 250.987 111.185 250.901 111.354C250.815 111.522 250.702 111.681 250.563 111.832C250.426 111.986 250.256 112.109 250.052 112.202C249.848 112.299 249.601 112.347 249.311 112.347C249.197 112.347 249.086 112.336 248.978 112.315C248.874 112.297 248.776 112.277 248.683 112.256L248.677 111.268C248.713 111.271 248.756 111.275 248.806 111.278C248.86 111.282 248.903 111.284 248.935 111.284C249.15 111.284 249.329 111.257 249.472 111.203C249.615 111.153 249.732 111.071 249.821 110.956C249.914 110.841 249.993 110.688 250.058 110.494L250.477 109.366ZM249.585 104.188L250.965 108.539L251.196 109.903L250.299 110.134L248.189 104.188H249.585ZM257.906 104.188V105.22H255.07V104.188H257.906ZM258.921 104.188V110H257.627V104.188H258.921ZM254.753 104.188H256.031L255.876 107.062C255.854 107.488 255.811 107.864 255.747 108.19C255.686 108.512 255.603 108.79 255.5 109.022C255.396 109.252 255.269 109.438 255.118 109.581C254.968 109.724 254.792 109.83 254.592 109.898C254.391 109.966 254.166 110 253.915 110H253.512L253.507 108.937L253.711 108.92C253.844 108.91 253.958 108.876 254.055 108.818C254.151 108.757 254.234 108.672 254.302 108.561C254.373 108.45 254.431 108.306 254.474 108.131C254.52 107.955 254.556 107.748 254.581 107.508C254.61 107.268 254.631 106.989 254.646 106.67L254.753 104.188ZM261.301 106.036H263.015C263.516 106.036 263.942 106.12 264.293 106.289C264.644 106.457 264.911 106.691 265.093 106.992C265.28 107.289 265.373 107.63 265.373 108.013C265.373 108.296 265.321 108.559 265.217 108.802C265.113 109.042 264.959 109.252 264.755 109.431C264.555 109.61 264.307 109.749 264.014 109.85C263.724 109.95 263.391 110 263.015 110H260.442V104.188H261.742V108.974H263.015C263.273 108.974 263.479 108.929 263.632 108.84C263.786 108.75 263.897 108.634 263.965 108.491C264.037 108.347 264.073 108.195 264.073 108.034C264.073 107.869 264.037 107.714 263.965 107.567C263.897 107.42 263.786 107.3 263.632 107.207C263.479 107.114 263.273 107.067 263.015 107.067H261.301V106.036ZM268.613 104.188V110H267.313V104.188H268.613ZM270.519 104.188V105.209H265.438V104.188H270.519ZM273.179 109.366L274.758 104.188H276.144L273.813 110.886C273.759 111.029 273.689 111.185 273.603 111.354C273.517 111.522 273.405 111.681 273.265 111.832C273.129 111.986 272.959 112.109 272.755 112.202C272.551 112.299 272.303 112.347 272.013 112.347C271.899 112.347 271.788 112.336 271.68 112.315C271.577 112.297 271.478 112.277 271.385 112.256L271.38 111.268C271.415 111.271 271.458 111.275 271.509 111.278C271.562 111.282 271.605 111.284 271.637 111.284C271.852 111.284 272.031 111.257 272.175 111.203C272.318 111.153 272.434 111.071 272.524 110.956C272.617 110.841 272.696 110.688 272.76 110.494L273.179 109.366ZM272.287 104.188L273.668 108.539L273.899 109.903L273.002 110.134L270.891 104.188H272.287ZM278.229 105.306V112.234H276.934V104.188H278.127L278.229 105.306ZM282.015 107.041V107.153C282.015 107.576 281.965 107.968 281.865 108.33C281.768 108.688 281.623 109.001 281.43 109.27C281.24 109.535 281.006 109.74 280.726 109.887C280.447 110.034 280.125 110.107 279.76 110.107C279.398 110.107 279.081 110.041 278.809 109.909C278.54 109.773 278.313 109.581 278.127 109.334C277.941 109.087 277.79 108.797 277.676 108.464C277.565 108.127 277.486 107.758 277.439 107.357V106.922C277.486 106.496 277.565 106.11 277.676 105.762C277.79 105.415 277.941 105.116 278.127 104.865C278.313 104.615 278.54 104.421 278.809 104.285C279.077 104.149 279.391 104.081 279.749 104.081C280.114 104.081 280.438 104.153 280.721 104.296C281.004 104.436 281.242 104.636 281.435 104.897C281.629 105.155 281.774 105.467 281.87 105.832C281.967 106.194 282.015 106.597 282.015 107.041ZM280.721 107.153V107.041C280.721 106.772 280.696 106.523 280.646 106.294C280.596 106.061 280.517 105.857 280.41 105.682C280.302 105.506 280.164 105.37 279.996 105.273C279.831 105.173 279.632 105.123 279.4 105.123C279.171 105.123 278.974 105.162 278.809 105.241C278.644 105.316 278.506 105.422 278.395 105.558C278.284 105.694 278.198 105.854 278.138 106.036C278.077 106.215 278.034 106.41 278.009 106.622V107.664C278.052 107.921 278.125 108.158 278.229 108.373C278.333 108.587 278.479 108.759 278.669 108.888C278.863 109.014 279.11 109.076 279.41 109.076C279.643 109.076 279.842 109.026 280.007 108.926C280.171 108.826 280.306 108.688 280.41 108.512C280.517 108.333 280.596 108.127 280.646 107.895C280.696 107.662 280.721 107.415 280.721 107.153ZM284.122 106.036H285.835C286.337 106.036 286.763 106.12 287.114 106.289C287.465 106.457 287.731 106.691 287.914 106.992C288.1 107.289 288.193 107.63 288.193 108.013C288.193 108.296 288.141 108.559 288.037 108.802C287.934 109.042 287.78 109.252 287.576 109.431C287.375 109.61 287.128 109.749 286.834 109.85C286.544 109.95 286.211 110 285.835 110H283.263V104.188H284.562V108.974H285.835C286.093 108.974 286.299 108.929 286.453 108.84C286.607 108.75 286.718 108.634 286.786 108.491C286.858 108.347 286.893 108.195 286.893 108.034C286.893 107.869 286.858 107.714 286.786 107.567C286.718 107.42 286.607 107.3 286.453 107.207C286.299 107.114 286.093 107.067 285.835 107.067H284.122V106.036ZM290.481 104.188V110H289.187V104.188H290.481Z" fill="white"/>
<path fill-rule="evenodd" clip-rule="evenodd" d="M262.314 71.2326C262.877 71.3933 263.185 72.0031 262.92 72.5245C261.269 75.7738 257.894 78 254 78C248.477 78 244 73.5228 244 68C244 62.4772 248.477 58 254 58C257.894 58 261.269 60.2262 262.92 63.4755C263.185 63.9969 262.877 64.6067 262.314 64.7674L262.294 64.7732C261.801 64.914 261.288 64.6558 261.044 64.205C259.693 61.7012 257.045 60 254 60C249.582 60 246 63.5817 246 68C246 72.4183 249.582 76 254 76C257.045 76 259.693 74.2988 261.044 71.795C261.288 71.3442 261.801 71.086 262.294 71.2268L262.314 71.2326Z" fill="white"/>
<path fill-rule="evenodd" clip-rule="evenodd" d="M250.339 77.3087L252.001 69H256.001L257.662 77.308C256.528 77.7547 255.292 78 254 78C252.707 78 251.473 77.7549 250.339 77.3087Z" fill="white"/>
<rect x="255" y="67" width="1" height="2" fill="white"/>
<path d="M252 67H253V69H252V67Z" fill="white"/>
<path d="M255 67H256V69H255V67Z" fill="white"/>
<rect width="6" height="1" rx="0.5" transform="matrix(1 0 0 -1 251 70)" fill="white"/>
<rect width="6" height="1" rx="0.5" transform="matrix(1 0 0 -1 251 67)" fill="white"/>
<path d="M253.553 65.2236C253.834 65.0828 254.166 65.0828 254.447 65.2236L256 66H252L253.553 65.2236Z" fill="white"/>
</g>
</g>
</g>
</g>
<defs>
<filter id="filter0_d_6_4941" x="-4" y="0" width="360" height="142" filterUnits="userSpaceOnUse" color-interpolation-filters="sRGB">
<feFlood flood-opacity="0" result="BackgroundImageFix"/>
<feColorMatrix in="SourceAlpha" type="matrix" values="0 0 0 0 0 0 0 0 0 0 0 0 0 0 0 0 0 0 127 0" result="hardAlpha"/>
<feOffset dy="4"/>
<feGaussianBlur stdDeviation="4"/>
<feColorMatrix type="matrix" values="0 0 0 0 0.0477431 0 0 0 0 0.162708 0 0 0 0 0.458333 0 0 0 0.12 0"/>
<feBlend mode="normal" in2="BackgroundImageFix" result="effect1_dropShadow_6_4941"/>
<feBlend mode="normal" in="SourceGraphic" in2="effect1_dropShadow_6_4941" result="shape"/>
</filter>
<filter id="filter1_d_6_4941" x="6" y="44" width="120" height="88" filterUnits="userSpaceOnUse" color-interpolation-filters="sRGB">
<feFlood flood-opacity="0" result="BackgroundImageFix"/>
<feColorMatrix in="SourceAlpha" type="matrix" values="0 0 0 0 0 0 0 0 0 0 0 0 0 0 0 0 0 0 127 0" result="hardAlpha"/>
<feOffset dy="4"/>
<feGaussianBlur stdDeviation="4"/>
<feColorMatrix type="matrix" values="0 0 0 0 0.0477431 0 0 0 0 0.162708 0 0 0 0 0.458333 0 0 0 0.12 0"/>
<feBlend mode="normal" in2="BackgroundImageFix" result="effect1_dropShadow_6_4941"/>
<feBlend mode="normal" in="SourceGraphic" in2="effect1_dropShadow_6_4941" result="shape"/>
</filter>
<filter id="filter2_d_6_4941" x="116" y="44" width="120" height="88" filterUnits="userSpaceOnUse" color-interpolation-filters="sRGB">
<feFlood flood-opacity="0" result="BackgroundImageFix"/>
<feColorMatrix in="SourceAlpha" type="matrix" values="0 0 0 0 0 0 0 0 0 0 0 0 0 0 0 0 0 0 127 0" result="hardAlpha"/>
<feOffset dy="4"/>
<feGaussianBlur stdDeviation="4"/>
<feColorMatrix type="matrix" values="0 0 0 0 0.0477431 0 0 0 0 0.162708 0 0 0 0 0.458333 0 0 0 0.12 0"/>
<feBlend mode="normal" in2="BackgroundImageFix" result="effect1_dropShadow_6_4941"/>
<feBlend mode="normal" in="SourceGraphic" in2="effect1_dropShadow_6_4941" result="shape"/>
</filter>
<filter id="filter3_d_6_4941" x="226" y="44" width="120" height="88" filterUnits="userSpaceOnUse" color-interpolation-filters="sRGB">
<feFlood flood-opacity="0" result="BackgroundImageFix"/>
<feColorMatrix in="SourceAlpha" type="matrix" values="0 0 0 0 0 0 0 0 0 0 0 0 0 0 0 0 0 0 127 0" result="hardAlpha"/>
<feOffset dy="4"/>
<feGaussianBlur stdDeviation="4"/>
<feColorMatrix type="matrix" values="0 0 0 0 0.0477431 0 0 0 0 0.162708 0 0 0 0 0.458333 0 0 0 0.12 0"/>
<feBlend mode="normal" in2="BackgroundImageFix" result="effect1_dropShadow_6_4941"/>
<feBlend mode="normal" in="SourceGraphic" in2="effect1_dropShadow_6_4941" result="shape"/>
</filter>
<linearGradient id="paint0_linear_6_4941" x1="17.8879" y1="84" x2="115.587" y2="115.758" gradientUnits="userSpaceOnUse">
<stop stop-color="#001ABB"/>
<stop offset="1" stop-color="#4E67FF"/>
</linearGradient>
<linearGradient id="paint1_linear_6_4941" x1="127.888" y1="84" x2="225.587" y2="115.758" gradientUnits="userSpaceOnUse">
<stop stop-color="#001ABB"/>
<stop offset="1" stop-color="#4E67FF"/>
</linearGradient>
<linearGradient id="paint2_linear_6_4941" x1="237.888" y1="84" x2="335.587" y2="115.758" gradientUnits="userSpaceOnUse">
<stop stop-color="#001ABB"/>
<stop offset="1" stop-color="#4E67FF"/>
</linearGradient>
<clipPath id="clip0_6_4941">
<rect x="4" y="4" width="344" height="126" rx="12" fill="white"/>
</clipPath>
<clipPath id="clip1_6_4941">
<rect x="14" y="48" width="104" height="72" rx="12" fill="white"/>
</clipPath>
<clipPath id="clip2_6_4941">
<rect x="124" y="48" width="104" height="72" rx="12" fill="white"/>
</clipPath>
<clipPath id="clip3_6_4941">
<rect x="234" y="48" width="104" height="72" rx="12" fill="white"/>
</clipPath>
</defs>
</svg>
