<svg width="32" height="32" viewBox="0 0 32 32" fill="none" xmlns="http://www.w3.org/2000/svg">
<path fill-rule="evenodd" clip-rule="evenodd" d="M9.02645 6.82749C9.95976 5.87437 11.2316 5.33354 12.5639 5.33325H25.6765C27.0089 5.33325 28.281 5.87394 29.2146 6.82709C30.1472 7.77931 30.6663 9.06499 30.6663 10.3999V21.5999C30.6663 22.9348 30.1472 24.2205 29.2146 25.1727C28.281 26.1259 27.0089 26.6666 25.6765 26.6666H12.5642C12.5641 26.6666 12.5643 26.6666 12.5642 26.6666C11.2318 26.6663 9.95963 26.1254 9.02631 25.1722L2.24908 18.2526C1.65953 17.6505 1.33301 16.8396 1.33301 15.9999C1.33301 15.1602 1.65939 14.3495 2.24893 13.7474L9.02645 6.82749C9.0265 6.82744 9.0264 6.82754 9.02645 6.82749ZM12.5645 23.9999H25.6765C26.2836 23.9999 26.8716 23.7539 27.3095 23.3068C27.7483 22.8588 27.9997 22.2453 27.9997 21.5999V10.3999C27.9997 9.75456 27.7483 9.14107 27.3095 8.69301C26.8716 8.24589 26.2836 7.99992 25.6765 7.99992H12.5645C12.5644 7.99992 12.5646 7.99992 12.5645 7.99992C11.9575 8.00013 11.3695 8.24619 10.9317 8.69327L4.15433 15.613C4.15428 15.613 4.15438 15.613 4.15433 15.613C4.05847 15.711 3.99967 15.8497 3.99967 15.9999C3.99967 16.1501 4.05833 16.2887 4.15419 16.3867C4.15414 16.3866 4.15424 16.3867 4.15419 16.3867L10.9316 23.3064C11.3693 23.7535 11.9575 23.9997 12.5645 23.9999C12.5646 23.9999 12.5644 23.9999 12.5645 23.9999Z" fill="#185AC5"/>
<path fill-rule="evenodd" clip-rule="evenodd" d="M22.9534 11.3141C23.4795 11.8294 23.4882 12.6736 22.973 13.1996L15.6599 20.6663C15.1447 21.1924 14.3005 21.2012 13.7744 20.6859C13.2483 20.1706 13.2395 19.3265 13.7548 18.8004L21.0679 11.3337C21.5831 10.8076 22.4273 10.7989 22.9534 11.3141Z" fill="#185AC5"/>
<path fill-rule="evenodd" clip-rule="evenodd" d="M13.7744 11.3141C14.3005 10.7989 15.1447 10.8076 15.6599 11.3337L22.973 18.8004C23.4882 19.3265 23.4795 20.1706 22.9534 20.6859C22.4273 21.2012 21.5831 21.1924 21.0679 20.6663L13.7548 13.1996C13.2395 12.6736 13.2483 11.8294 13.7744 11.3141Z" fill="#185AC5"/>
</svg>
