<svg width="24" height="24" viewBox="0 0 24 24" fill="none" xmlns="http://www.w3.org/2000/svg">
<path fill-rule="evenodd" clip-rule="evenodd" d="M6 5C4.34315 5 3 6.34315 3 8V9H2C1.44772 9 1 9.44772 1 10V11C1 11.5523 1.44772 12 2 12H3V17C3 18.6569 4.34315 20 6 20H20C21.6569 20 23 18.6569 23 17V8C23 6.34315 21.6569 5 20 5H6ZM5 12V17C5 17.5523 5.44772 18 6 18H20C20.5523 18 21 17.5523 21 17V8C21 7.44772 20.5523 7 20 7H6C5.44772 7 5 7.44772 5 8V9H18C18.5523 9 19 9.44772 19 10V11C19 11.5523 18.5523 12 18 12H5ZM16 15.5C16 14.6716 16.6716 14 17.5 14C18.3284 14 19 14.6716 19 15.5C19 16.3284 18.3284 17 17.5 17C16.6716 17 16 16.3284 16 15.5Z" fill="#0066B3"/>
</svg>
