<svg width="24" height="24" viewBox="0 0 24 24" fill="none" xmlns="http://www.w3.org/2000/svg">
<path fill-rule="evenodd" clip-rule="evenodd" d="M10.4 4C9.84771 4 9.4 4.44772 9.4 5V9.4H5C4.44772 9.4 4 9.84772 4 10.4V13.6C4 14.1523 4.44772 14.6 5 14.6H9.4V19C9.4 19.5523 9.84772 20 10.4 20H13.6C14.1523 20 14.6 19.5523 14.6 19V14.6H19C19.5523 14.6 20 14.1523 20 13.6V10.4C20 9.84772 19.5523 9.4 19 9.4H14.6V5C14.6 4.44772 14.1523 4 13.6 4H10.4ZM7.4 5C7.4 3.34315 8.74315 2 10.4 2H13.6C15.2569 2 16.6 3.34315 16.6 5V7.4H19C20.6569 7.4 22 8.74315 22 10.4V13.6C22 15.2569 20.6569 16.6 19 16.6H16.6V19C16.6 20.6569 15.2569 22 13.6 22H10.4C8.74315 22 7.4 20.6569 7.4 19V16.6H5C3.34315 16.6 2 15.2569 2 13.6V10.4C2 8.74315 3.34315 7.4 5 7.4H7.4V5Z" fill="#0066B3"/>
</svg>
