<svg width="24" height="24" viewBox="0 0 24 24" fill="none" xmlns="http://www.w3.org/2000/svg">
<path fill-rule="evenodd" clip-rule="evenodd" d="M4 2C2.89543 2 2 2.89543 2 4V20C2 21.1046 2.89543 22 4 22H20C21.1046 22 22 21.1046 22 20V4C22 2.89543 21.1046 2 20 2H4ZM4 5C4 4.44772 4.44772 4 5 4H19C19.5523 4 20 4.44772 20 5V7C20 7.55228 19.5523 8 19 8H5C4.44772 8 4 7.55228 4 7V5ZM4 11C4 10.4477 4.44772 10 5 10H11C11.5523 10 12 10.4477 12 11V19C12 19.5523 11.5523 20 11 20H5C4.44772 20 4 19.5523 4 19V11ZM15 10C14.4477 10 14 10.4477 14 11V13C14 13.5523 14.4477 14 15 14H19C19.5523 14 20 13.5523 20 13V11C20 10.4477 19.5523 10 19 10H15ZM14 17C14 16.4477 14.4477 16 15 16H19C19.5523 16 20 16.4477 20 17V19C20 19.5523 19.5523 20 19 20H15C14.4477 20 14 19.5523 14 19V17Z" fill="#0066B3"/>
</svg>
