<svg width="24" height="24" viewBox="0 0 24 24" fill="none" xmlns="http://www.w3.org/2000/svg">
<g clip-path="url(#clip0_6_3041)">
<path fill-rule="evenodd" clip-rule="evenodd" d="M7 1C5.34315 1 4 2.34315 4 4V20C4 21.6569 5.34315 23 7 23H17C18.6569 23 20 21.6569 20 20V14.4143L23.7072 10.7071C24.0977 10.3166 24.0977 9.68342 23.7072 9.29289C23.3166 8.90237 22.6835 8.90237 22.293 9.29289L20 11.5858V4C20 2.34315 18.6569 1 17 1H7ZM18 13.5858V4C18 3.44772 17.5523 3 17 3H7C6.44772 3 6 3.44772 6 4V20C6 20.5523 6.44772 21 7 21H17C17.5523 21 18 20.5523 18 20V16.4143L14.7072 19.7071C14.5022 19.9121 14.2183 20.018 13.9292 19.9975C13.64 19.9769 13.374 19.8319 13.2001 19.6L10.2001 15.6C9.86869 15.1582 9.95823 14.5314 10.4001 14.2C10.8419 13.8686 11.4687 13.9582 11.8001 14.4L14.1083 17.4776L18 13.5858ZM9 6C8.44772 6 8 6.44772 8 7C8 7.55228 8.44772 8 9 8H16C16.5523 8 17 7.55228 17 7C17 6.44772 16.5523 6 16 6H9ZM8 11C8 10.4477 8.44772 10 9 10H13C13.5523 10 14 10.4477 14 11C14 11.5523 13.5523 12 13 12H9C8.44772 12 8 11.5523 8 11Z" fill="#0066B3"/>
</g>
<defs>
<clipPath id="clip0_6_3041">
<rect width="24" height="24" fill="white"/>
</clipPath>
</defs>
</svg>
