<svg width="18" height="18" viewBox="0 0 18 18" fill="none" xmlns="http://www.w3.org/2000/svg">
<path fill-rule="evenodd" clip-rule="evenodd" d="M1.95364 1.8C2.32429 0.751327 3.3244 0 4.5 0C5.99117 0 7.2 1.20883 7.2 2.7C7.2 4.19117 5.99117 5.4 4.5 5.4C3.3244 5.4 2.32429 4.64867 1.95364 3.6H0.9C0.402944 3.6 0 3.19706 0 2.7C0 2.20294 0.402944 1.8 0.9 1.8H1.95364ZM8.1 2.7C8.1 2.20294 8.50294 1.8 9 1.8H17.1C17.5971 1.8 18 2.20294 18 2.7C18 3.19706 17.5971 3.6 17.1 3.6H9C8.50294 3.6 8.1 3.19706 8.1 2.7ZM18 9C18 8.50294 17.5971 8.1 17.1 8.1H16.0464C15.6757 7.05133 14.6756 6.3 13.5 6.3C12.0088 6.3 10.8 7.50883 10.8 9C10.8 10.4912 12.0088 11.7 13.5 11.7C14.6756 11.7 15.6757 10.9487 16.0464 9.9H17.1C17.5971 9.9 18 9.49706 18 9ZM9.9 9C9.9 8.50294 9.49706 8.1 9 8.1H0.9C0.402945 8.1 0 8.50294 0 9C0 9.49706 0.402945 9.9 0.9 9.9H9C9.49706 9.9 9.9 9.49706 9.9 9ZM0.9 14.4C0.402944 14.4 0 14.8029 0 15.3C0 15.7971 0.402944 16.2 0.9 16.2H1.95362C2.32427 17.2487 3.32439 18 4.49999 18C5.99116 18 7.19999 16.7912 7.19999 15.3C7.19999 13.8088 5.99116 12.6 4.49999 12.6C3.32439 12.6 2.32428 13.3513 1.95362 14.4H0.9ZM9 14.4C8.50294 14.4 8.1 14.8029 8.1 15.3C8.1 15.7971 8.50294 16.2 9 16.2H17.1C17.5971 16.2 18 15.7971 18 15.3C18 14.8029 17.5971 14.4 17.1 14.4H9Z" fill="#808080"/>
</svg>
