<svg width="24" height="24" viewBox="0 0 24 24" fill="none" xmlns="http://www.w3.org/2000/svg">
<path fill-rule="evenodd" clip-rule="evenodd" d="M20.3143 15.2326C20.8766 15.3933 21.1853 16.0031 20.9203 16.5245C19.269 19.7738 15.8945 22 12 22C6.47715 22 2 17.5228 2 12C2 6.47715 6.47715 2 12 2C15.8945 2 19.269 4.22624 20.9203 7.47553C21.1853 7.99691 20.8766 8.60669 20.3143 8.76736L20.2937 8.77322C19.8012 8.91396 19.2877 8.65581 19.0444 8.20502C17.6926 5.70121 15.045 4 12 4C7.58172 4 4 7.58172 4 12C4 16.4183 7.58172 20 12 20C15.045 20 17.6926 18.2988 19.0444 15.795C19.2877 15.3442 19.8012 15.086 20.2937 15.2268L20.3143 15.2326Z" fill="white"/>
<path fill-rule="evenodd" clip-rule="evenodd" d="M8.33887 21.3087L10.0006 13H14.0006L15.6622 21.308C14.528 21.7547 13.2925 22 11.9996 22C10.7075 22 9.47259 21.7549 8.33887 21.3087Z" fill="white"/>
<rect x="13" y="11" width="1" height="2" fill="white"/>
<path d="M10 11H11V13H10V11Z" fill="white"/>
<path d="M13 11H14V13H13V11Z" fill="white"/>
<rect width="6" height="1" rx="0.5" transform="matrix(1 0 0 -1 9 14)" fill="white"/>
<rect width="6" height="1" rx="0.5" transform="matrix(1 0 0 -1 9 11)" fill="white"/>
<path d="M11.5528 9.22361C11.8343 9.08284 12.1657 9.08284 12.4472 9.22361L14 10H10L11.5528 9.22361Z" fill="white"/>
</svg>
