<svg width="24" height="24" viewBox="0 0 24 24" fill="none" xmlns="http://www.w3.org/2000/svg">
<path fill-rule="evenodd" clip-rule="evenodd" d="M7 14C7 12.9 7.9 12 9 12H15C16.1 12 17 12.9 17 14V17C17 18.1 16.1 19 15 19H9C7.9 19 7 18.1 7 17V14ZM15 14H9V17H15V14Z" fill="white"/>
<path fill-rule="evenodd" clip-rule="evenodd" d="M8.5 9.5C8.5 8.9 8.9 8.5 9.5 8.5H14.5C15.1 8.5 15.5 8.9 15.5 9.5C15.5 10.1 15.1 10.5 14.5 10.5H9.5C8.9 10.5 8.5 10.1 8.5 9.5Z" fill="white"/>
<path fill-rule="evenodd" clip-rule="evenodd" d="M18 6.20002L18.9 4.50002C19.1 4.00002 18.9 3.40002 18.5 3.20002L16.5 2.20002C16 2.00002 15.4 2.20002 15.2 2.60002L14.4 4.20002C13.9 4.00002 13.5 4.00002 13 4.00002H11C10.5 4.00002 10.1 4.00002 9.7 4.10002L8.9 2.60002C8.6 2.10002 8 1.90002 7.6 2.10002L5.6 3.10002C5.1 3.40002 4.9 4.00002 5.1 4.40002L6 6.20002C4.8 7.50002 4 9.20002 4 11V19C4 20.7 5.3 22 7 22H17C18.7 22 20 20.7 20 19V11C20 9.10002 19.3 7.40002 18 6.20002ZM18 19C18 19.6 17.6 20 17 20H7C6.4 20 6 19.6 6 19V11C6 8.20002 8.2 6.00002 11 6.00002H13C15.8 6.00002 18 8.20002 18 11V19Z" fill="white"/>
</svg>
