<svg width="24" height="24" viewBox="0 0 24 24" fill="none" xmlns="http://www.w3.org/2000/svg">
<path fill-rule="evenodd" clip-rule="evenodd" d="M11.492 4.44315L9.97669 6.00901C9.58574 6.41301 8.94001 6.41962 8.54088 6.02368L8.32782 5.81233L7 7.26163V10.7929L10.1464 7.64645C10.2458 7.54711 10.3823 7.49415 10.5227 7.50051C10.663 7.50688 10.7942 7.57199 10.8841 7.67991L13.0336 10.2593L13.6464 9.64645C13.8326 9.46031 14.1312 9.45037 14.3293 9.62371L17 11.9606V8.79914L15.6239 7.30005L15.6002 7.3216C15.1949 7.69016 14.5695 7.66803 14.1913 7.27169L11.492 4.44315ZM10.3836 2.71244C10.994 2.08175 12.0064 2.08527 12.6123 2.72019L15.0239 5.24723C15.6142 4.98423 16.3305 5.11232 16.7913 5.61428L18.4733 7.44664C18.8121 7.81562 19 8.29827 19 8.79914V17.8795C19 19.0825 18.302 20.1763 17.2108 20.6829L13.2252 22.5336C12.4482 22.8944 11.5518 22.8944 10.7748 22.5336L6.78917 20.6829C5.69803 20.1763 5 19.0825 5 17.8795V7.26163C5 6.76143 5.18743 6.27939 5.52533 5.91057L7.17264 4.11254C7.71266 3.52312 8.6005 3.45055 9.22533 3.90943L10.3836 2.71244Z" fill="white"/>
</svg>
