<svg width="24" height="24" viewBox="0 0 24 24" fill="none" xmlns="http://www.w3.org/2000/svg">
<path fill-rule="evenodd" clip-rule="evenodd" d="M15.8539 5.57259L12.8434 2.44674L7.86316 7.69036C7.48459 8.08895 6.85664 8.11119 6.45083 7.7404L5.91797 7.25354L2.73829 10.7339C2.36577 11.1416 1.73325 11.1702 1.32551 10.7977C0.917771 10.4252 0.889214 9.79266 1.26173 9.38492L4.74801 5.56895C5.32373 4.93879 6.30129 4.89467 6.93143 5.47042L7.08234 5.6083L11.7205 0.72481C12.3269 0.0863418 13.3434 0.0828049 13.9543 0.717043L16.5951 3.45912L17.0679 2.98792C17.6915 2.36634 18.7076 2.39059 19.3009 3.04122L22.7389 6.8118C23.1111 7.2199 23.0819 7.85239 22.6738 8.22451C22.2657 8.59662 21.6332 8.56745 21.2611 8.15934L18.1432 4.73992L17.2931 5.58729C16.8935 5.98551 16.2452 5.97888 15.8539 5.57259ZM13.7305 20C13.7305 20.5523 14.1782 21 14.7305 21C14.7305 21.5523 15.1782 22 15.7305 22C16.2828 22 16.7305 21.5523 16.7305 21H17.7305C17.7305 21.5523 18.1782 22 18.7305 22C19.2828 22 19.7305 21.5523 19.7305 21C20.2828 21 20.7305 20.5523 20.7305 20V12C20.7305 11.4477 20.2828 11 19.7305 11V8.5C19.7305 8.22386 19.5066 8 19.2305 8H15.2305C14.9543 8 14.7305 8.22386 14.7305 8.5V11C14.1782 11 13.7305 11.4477 13.7305 12V20ZM18.7305 9V11H15.7305V9H18.7305ZM15.2305 14C14.9543 14 14.7305 13.7761 14.7305 13.5C14.7305 13.2239 14.9543 13 15.2305 13H19.2305C19.5066 13 19.7305 13.2239 19.7305 13.5C19.7305 13.7761 19.5066 14 19.2305 14H15.2305ZM14.7305 18C14.7305 18.5523 15.1782 19 15.7305 19H18.7305C19.2828 19 19.7305 18.5523 19.7305 18C19.7305 17.4477 19.2828 17 18.7305 17H15.7305C15.1782 17 14.7305 17.4477 14.7305 18ZM2.68883 12.1231L2.97675 11.8936C3.11407 11.7841 3.29876 11.7547 3.46329 11.8161L4.75782 12.2992C4.92879 12.3631 5.12094 12.3286 5.25915 12.2095L11.6611 6.6896C12.187 6.27036 13.1853 5.9048 13.6045 6.43052C14.0236 6.95624 13.4446 7.84788 12.9188 8.26713L10.6039 10.4974C10.5277 10.5708 10.4768 10.6664 10.4584 10.7706L9.90895 13.8849C9.88036 14.0469 9.77385 14.1846 9.62414 14.2529L9.09809 14.4929C8.83135 14.6147 8.51759 14.4818 8.41939 14.2055L8.07319 13.2316C7.9713 12.9449 7.63918 12.8149 7.36978 12.9562L5.08087 14.1571C4.92079 14.2411 4.72785 14.2321 4.57625 14.1336L2.7282 12.9334C2.442 12.7475 2.42199 12.3359 2.68883 12.1231Z" fill="#4E67FF"/>
</svg>
